<svg width="84" height="110" viewBox="0 0 84 110" fill="none" xmlns="http://www.w3.org/2000/svg"><path fill-rule="evenodd" clip-rule="evenodd" d="M9.591 104.356c.062-2.19 14.848-3.465 33.03-2.849 18.18.618 32.87 2.893 32.808 5.083-.06 2.19-14.848 3.465-33.027 2.848-18.183-.616-32.87-2.891-32.811-5.082Z" fill="#000"/><path fill-rule="evenodd" clip-rule="evenodd" d="M25.29 6.73c-.508 4.392-.812 6.732 2.647 12.363 1.41 2.295 2.448 3.629 2.757 4.994C15.738 38.372 10.454 47.796 6.505 63.16.071 88.19 4.98 112.676 53.923 108.035c48.944-4.641 15.434-79.317.07-84.807 2.422-7.025 6.9-9.563 9.379-16.756L25.29 6.73Z" fill="#F8F4F0" stroke="#000" stroke-width=".779" stroke-linecap="round" stroke-linejoin="round"/><path fill-rule="evenodd" clip-rule="evenodd" d="M31.118 4.536c.217 2.972-5.698-.521-5.734 2.02-.028 2.056 8.88.482 10.204 1.494 1.616 1.235-5.052 5.122-2.794 6.85 1.7 1.299 9.933-5.052 11.943-5.628 2.177-.623 5.44.98 7.635-.15 1.805-.93-1.43-2.921 1.002-2.552 2.789.423 8.217 3.249 9.957-.3 1.026-2.096-5.09-2.929-6.515-2.521-5.322 1.524-3.81-1.526-7.652-2.11-2.61-.396-4.823 3.422-7.086 2.603-2.44-.882-5.292-2.936-7.445-3.379-1.867-.384-3.742.588-3.515 3.673Z" fill="#F8F4F0" stroke="#000" stroke-width=".779" stroke-linecap="round" stroke-linejoin="round"/><path d="M53.029 7.717c.07 1.094-1.652 7.274-3.948 10.852-.706 1.1-1.98 3.535-2.408 4.86M32.5 14.568c.715 5.812 5.766 5.94 5.617 8.823" stroke="#000" stroke-width=".779" stroke-linecap="round" stroke-linejoin="round"/><path fill-rule="evenodd" clip-rule="evenodd" d="M54.364 22.69c.913-.12.312.688.148 1.041-.795 1.698-2.485 1.78-4.177 2.272-3.82 1.113-14.356.581-18.066-.173-1.15-.234-4.782-1.094-3.293-2.866-.06-.914 2.725 2.213 24.12.3 0 0 .831-.054 1.268-.574Z" fill="#000" stroke="#000" stroke-width=".779" stroke-linecap="round" stroke-linejoin="round"/><path clip-rule="evenodd" d="M69.137 18.33c2.556 2.193-9.162 3.524-13.952 5.138 6.847-1.025 22.719.787 21.253 3.813-.623 1.525-23.24-2.488-22.498-3.591 2.226-3.306 12.685-7.429 15.197-5.36Z" stroke="#000" stroke-width="1.299" stroke-linecap="round" stroke-linejoin="round"/><mask id="a" maskUnits="userSpaceOnUse" x="22.876" y="37.375" width="44" height="63" fill="#000"><path fill="#fff" d="M22.876 37.375h44v63h-44z"/><path fill-rule="evenodd" clip-rule="evenodd" d="M46.03 39.17a.954.954 0 0 0-1.097-.782.95.95 0 0 0-.788 1.088c.186 1.134.422 3.261.687 6.058a22.924 22.924 0 0 0-4.026.178c-.254-2.638-.48-4.656-.663-5.768a.954.954 0 0 0-1.096-.783.95.95 0 0 0-.788 1.088c.18 1.097.406 3.125.661 5.789-7.452 1.599-14.113 6.755-15.006 14.068-.347 2.859 1.65 6.195 6.207 8.472 4.045 2.021 7.481 3.191 10.935 4.047.414 5.628.801 11.081 1.117 15.541-2.84-.587-5.435-1.6-7.321-3.01-1.6-1.194-1.637-2.798-1.67-4.21-.041-1.74-.076-3.186-3.015-3.21-6.123-.05-1.429 8.252 2.365 10.63 2.06 1.29 5.688 2.504 9.873 3.09.154 2.189.282 3.995.375 5.27a286.018 286.018 0 0 0 .152 1.992c.004.042.008.089.014.127l.003.025.003.018v.001c.002.011.01.054.024.105.01.035.049.135.081.2.113.162.74.49 1.253.4.253-.176.478-.515.509-.61a.945.945 0 0 0 .016-.425l-.002-.017a289.294 289.294 0 0 1-.149-1.952c-.088-1.204-.206-2.883-.35-4.915 1.318.117 2.673.168 4.037.137.119 1.685.219 3.093.295 4.14a278.548 278.548 0 0 0 .152 1.993l.014.127.003.023c0 .007.002.014.003.02v.002c.002.01.01.053.024.104.01.035.048.134.08.198.111.162.735.492 1.247.407.257-.177.484-.518.516-.614a.94.94 0 0 0 .016-.426l-.002-.017a278.157 278.157 0 0 1-.149-1.953c-.075-1.039-.174-2.433-.292-4.102 4.157-.334 8.274-1.49 11.547-3.905 2.08-1.535 3.284-3.827 3.465-7.206.464-8.598-5.147-13.546-17.032-16.77-.426-5.606-.857-11.017-1.245-15.412 4.022.613 9.668 2.066 8.531 4.81-1.911 4.621 7.28 6.99 4.708-.996-1.364-4.242-8.12-6.078-13.49-6.575-.283-2.991-.534-5.278-.733-6.49Zm-.955 9.01c-1.159-.087-2.56-.023-4.021.2.36 3.996.758 8.931 1.158 14.128l.014.003c1.35.252 2.73.51 4.08.825-.425-5.566-.85-10.884-1.231-15.157Zm2.016 25.702a125.874 125.874 0 0 1-4.087-.805c.411 5.616.795 11.03 1.106 15.419 1.334.18 2.697.27 4.046.267a6601.04 6601.04 0 0 0-1.065-14.88Zm2.974 14.814c5.422-.377 10.238-2.334 11.413-6.066 1.13-3.59-2.635-6.493-6.114-7.203a262.88 262.88 0 0 0-6.302-1.188l-.031-.006c.388 5.337.747 10.4 1.034 14.463ZM31.169 55.733c-.148-3.704 3.857-5.977 8.002-6.982.34 3.803.717 8.457 1.098 13.386-4.877-.967-8.933-2.209-9.1-6.404Z"/></mask><path fill-rule="evenodd" clip-rule="evenodd" d="M46.03 39.17a.954.954 0 0 0-1.097-.782.95.95 0 0 0-.788 1.088c.186 1.134.422 3.261.687 6.058a22.924 22.924 0 0 0-4.026.178c-.254-2.638-.48-4.656-.663-5.768a.954.954 0 0 0-1.096-.783.95.95 0 0 0-.788 1.088c.18 1.097.406 3.125.661 5.789-7.452 1.599-14.113 6.755-15.006 14.068-.347 2.859 1.65 6.195 6.207 8.472 4.045 2.021 7.481 3.191 10.935 4.047.414 5.628.801 11.081 1.117 15.541-2.84-.587-5.435-1.6-7.321-3.01-1.6-1.194-1.637-2.798-1.67-4.21-.041-1.74-.076-3.186-3.015-3.21-6.123-.05-1.429 8.252 2.365 10.63 2.06 1.29 5.688 2.504 9.873 3.09.154 2.189.282 3.995.375 5.27a286.018 286.018 0 0 0 .152 1.992c.004.042.008.089.014.127l.003.025.003.018v.001c.002.011.01.054.024.105.01.035.049.135.081.2.113.162.74.49 1.253.4.253-.176.478-.515.509-.61a.945.945 0 0 0 .016-.425l-.002-.017a289.294 289.294 0 0 1-.149-1.952c-.088-1.204-.206-2.883-.35-4.915 1.318.117 2.673.168 4.037.137.119 1.685.219 3.093.295 4.14a278.548 278.548 0 0 0 .152 1.993l.014.127.003.023c0 .007.002.014.003.02v.002c.002.01.01.053.024.104.01.035.048.134.08.198.111.162.735.492 1.247.407.257-.177.484-.518.516-.614a.94.94 0 0 0 .016-.426l-.002-.017a278.157 278.157 0 0 1-.149-1.953c-.075-1.039-.174-2.433-.292-4.102 4.157-.334 8.274-1.49 11.547-3.905 2.08-1.535 3.284-3.827 3.465-7.206.464-8.598-5.147-13.546-17.032-16.77-.426-5.606-.857-11.017-1.245-15.412 4.022.613 9.668 2.066 8.531 4.81-1.911 4.621 7.28 6.99 4.708-.996-1.364-4.242-8.12-6.078-13.49-6.575-.283-2.991-.534-5.278-.733-6.49Zm-.955 9.01c-1.159-.087-2.56-.023-4.021.2.36 3.996.758 8.931 1.158 14.128l.014.003c1.35.252 2.73.51 4.08.825-.425-5.566-.85-10.884-1.231-15.157Zm2.016 25.702a125.874 125.874 0 0 1-4.087-.805c.411 5.616.795 11.03 1.106 15.419 1.334.18 2.697.27 4.046.267a6601.04 6601.04 0 0 0-1.065-14.88Zm2.974 14.814c5.422-.377 10.238-2.334 11.413-6.066 1.13-3.59-2.635-6.493-6.114-7.203a262.88 262.88 0 0 0-6.302-1.188l-.031-.006c.388 5.337.747 10.4 1.034 14.463ZM31.169 55.733c-.148-3.704 3.857-5.977 8.002-6.982.34 3.803.717 8.457 1.098 13.386-4.877-.967-8.933-2.209-9.1-6.404Z" fill="#E39D49"/><path d="m44.933 38.388-.112-.695.112.695Zm1.096.783-.694.114.694-.114Zm-1.884.305.694-.114-.694.114Zm.687 6.058-.026.703a.704.704 0 0 0 .727-.77l-.7.067Zm-.76-.019-.01.703.01-.703Zm-3.266.197-.7.067a.703.703 0 0 0 .792.63l-.092-.697Zm-.663-5.768.694-.114-.694.114Zm-1.096-.783.113.694-.113-.694Zm-.788 1.088.694-.114-.694.114Zm.661 5.789.148.688c.35-.075.587-.4.553-.755l-.7.067ZM23.914 60.106l-.698-.086.698.086Zm6.207 8.472-.314.63.314-.63Zm10.935 4.047.702-.051a.703.703 0 0 0-.532-.632l-.17.683Zm1.117 15.541-.143.69a.704.704 0 0 0 .844-.74l-.701.05Zm-7.321-3.01.42-.563-.42.564Zm-1.67-4.21-.704.017.704-.017Zm-3.015-3.21.006-.704-.006.704Zm2.365 10.63.374-.596-.374.596Zm9.873 3.09.702-.05a.703.703 0 0 0-.605-.647l-.097.696Zm.375 5.27-.702.05.702-.05Zm.118 1.584.701-.056-.701.055Zm.034.408-.7.066.7-.066Zm.014.127-.698.093.001.006.697-.1Zm.003.025-.697.1.002.011.695-.11Zm.003.018-.695.112.001.005.694-.117Zm0 .001-.694.116.694-.116Zm.024.105-.677.192.003.012.674-.204Zm.081.2-.63.314c.016.03.033.058.051.086l.579-.4Zm1.253.4.12.694a.706.706 0 0 0 .282-.116l-.402-.577Zm.509-.61.669.218a.7.7 0 0 0 .014-.052l-.683-.166Zm.026-.138.698.09v-.01l-.698-.08Zm-.01-.288-.701.067a.684.684 0 0 0 .01.067l.69-.133Zm-.002-.016-.7.066.7-.066Zm-.032-.38-.701.055.7-.055Zm-.117-1.573-.702.051.702-.05Zm-.35-4.914.062-.7a.704.704 0 0 0-.764.75l.702-.05Zm4.037.137.701-.05a.704.704 0 0 0-.717-.654l.016.704Zm.295 4.14-.702.052.702-.051Zm.118 1.585.701-.055-.701.055Zm.034.408.7-.065-.7.065Zm.014.127.697-.092-.697.092Zm.003.023.696-.104-.696.104Zm.003.02.694-.115v-.001l-.694.117Zm0 .002-.694.116.694-.117Zm.024.104-.678.191.004.012.674-.203Zm.08.198-.63.314a.79.79 0 0 0 .05.085l.58-.399Zm1.247.407.115.694a.703.703 0 0 0 .284-.115l-.399-.58Zm.516-.614.668.219a.711.711 0 0 0 .015-.052l-.683-.167Zm.026-.139.698.09v-.009l-.698-.08Zm-.01-.287-.7.067a.682.682 0 0 0 .009.067l.69-.134Zm-.002-.017-.7.066v.001l.7-.067Zm-.032-.38-.701.055.701-.055Zm-.117-1.572.702-.051-.702.05Zm-.292-4.103-.057-.701a.703.703 0 0 0-.645.75l.702-.049Zm11.547-3.905-.418-.566.418.566Zm3.465-7.206-.702-.037.702.037Zm-17.032-16.77-.701.053c.023.297.23.547.517.625l.184-.678ZM47.013 48.42l.106-.695a.704.704 0 0 0-.807.757l.7-.062Zm8.531 4.81-.65-.27.65.27Zm4.708-.996-.67.216.67-.216Zm-13.49-6.575-.701.066a.703.703 0 0 0 .635.634l.065-.7Zm-5.708 2.72-.106-.695a.704.704 0 0 0-.595.758l.701-.063Zm4.021-.2.7-.063a.703.703 0 0 0-.648-.64l-.052.702Zm-2.863 14.328-.702.054c.025.318.26.579.573.638l.129-.692Zm.014.003.13-.692-.13.692Zm4.08.825-.16.685a.704.704 0 0 0 .861-.739l-.701.054Zm.785 10.546.702-.05a.704.704 0 0 0-.575-.642l-.127.692Zm-4.087-.805.15-.688a.703.703 0 0 0-.852.74l.702-.052Zm1.106 15.419-.702.05a.704.704 0 0 0 .608.647l.094-.697Zm4.046.267.001.704a.704.704 0 0 0 .7-.753l-.701.05Zm1.909-.067-.702.05a.703.703 0 0 0 .75.651l-.048-.701Zm11.413-6.066-.671-.212.67.212Zm-6.114-7.203-.14.689.14-.69Zm-6.302-1.188-.125.692.125-.692Zm-.031-.006.124-.692a.704.704 0 0 0-.826.743l.702-.05Zm-9.86-25.482.7-.063a.704.704 0 0 0-.866-.62l.166.683Zm-8.002 6.982.703-.028-.703.028Zm9.1 6.404-.137.69a.704.704 0 0 0 .838-.744l-.701.054Zm4.777-23.055a.25.25 0 0 1 .289.203l1.388-.229a1.657 1.657 0 0 0-1.902-1.363l.225 1.389Zm-.207.28a.246.246 0 0 1 .207-.28l-.225-1.389c-.9.146-1.519.992-1.37 1.897l1.388-.228Zm.694 6.105c-.266-2.793-.503-4.944-.694-6.105l-1.388.228c.182 1.106.415 3.21.68 6.01l1.402-.133Zm-.675-.636a31.22 31.22 0 0 0-.778-.02l-.017 1.407c.24.003.489.01.743.019l.052-1.406Zm-.778-.02a23.609 23.609 0 0 0-3.365.203l.183 1.395a22.21 22.21 0 0 1 3.165-.19l.017-1.407Zm-2.573.833c-.254-2.635-.483-4.675-.67-5.814l-1.388.228c.178 1.086.403 3.081.657 5.721l1.4-.135Zm-.67-5.814a1.657 1.657 0 0 0-1.903-1.364l.226 1.389a.25.25 0 0 1 .289.203l1.388-.228Zm-1.903-1.364c-.9.146-1.518.993-1.37 1.898l1.389-.229a.246.246 0 0 1 .207-.28l-.226-1.389Zm-1.37 1.898c.176 1.07.4 3.074.656 5.74l1.4-.133c-.254-2.662-.482-4.712-.667-5.836l-1.388.229Zm1.209 4.986c-7.62 1.635-14.615 6.95-15.557 14.67l1.397.17c.843-6.903 7.17-11.901 14.455-13.465l-.295-1.375ZM23.216 60.02c-.398 3.274 1.894 6.84 6.59 9.187l.63-1.258c-4.418-2.208-6.12-5.314-5.823-7.758l-1.397-.17Zm6.59 9.187c4.096 2.047 7.581 3.234 11.081 4.101l.339-1.366c-3.41-.845-6.796-1.997-10.79-3.993l-.63 1.258Zm10.549 3.47c.413 5.626.8 11.079 1.116 15.539l1.403-.1c-.315-4.46-.703-9.914-1.116-15.542l-1.403.103Zm1.96 14.8c-2.776-.574-5.265-1.556-7.042-2.884l-.842 1.127c1.995 1.491 4.697 2.535 7.6 3.135l.284-1.378Zm-7.042-2.884c-1.299-.97-1.354-2.231-1.388-3.663l-1.407.033c.033 1.39.053 3.339 1.953 4.757l.842-1.127Zm-1.388-3.663c-.01-.425-.02-.886-.082-1.316-.063-.435-.185-.892-.453-1.301-.572-.874-1.615-1.267-3.177-1.28l-.012 1.406c1.377.012 1.822.354 2.012.644.112.173.19.406.237.732.048.33.058.703.068 1.148l1.407-.033Zm-3.712-3.898c-1.684-.013-2.875.56-3.395 1.722-.477 1.067-.267 2.398.194 3.632.472 1.267 1.264 2.59 2.177 3.745.91 1.153 1.973 2.18 3.01 2.83l.747-1.192c-.86-.538-1.807-1.44-2.653-2.51-.843-1.069-1.553-2.264-1.963-3.364-.422-1.132-.474-2.016-.228-2.566.204-.456.722-.901 2.1-.89l.011-1.407Zm1.986 11.93c2.173 1.362 5.908 2.597 10.148 3.19l.195-1.393c-4.129-.578-7.65-1.77-9.596-2.99l-.747 1.193Zm9.544 2.543c.155 2.19.282 3.996.375 5.271l1.403-.101c-.092-1.274-.22-3.08-.374-5.27l-1.404.1Zm.375 5.271c.05.69.09 1.229.118 1.589l1.403-.11c-.028-.356-.068-.89-.118-1.58l-1.403.101Zm.118 1.589.035.419 1.401-.132-.033-.398-1.403.11Zm.035.419c.005.043.01.1.017.153l1.395-.185a2.962 2.962 0 0 1-.01-.1l-1.402.132Zm.018.16.004.025 1.393-.198-.004-.025-1.393.198Zm.005.037.003.019 1.39-.223-.003-.018-1.39.222Zm.004.024 1.388-.232-1.388.232Zm0 0c.004.02.016.092.04.18l1.355-.382a.287.287 0 0 1-.005-.02l-.002-.01-1.388.233Zm.044.193c.023.075.077.212.126.31l1.258-.63a.518.518 0 0 1-.025-.057 1.016 1.016 0 0 1-.015-.04l.003.01-1.347.407Zm.176.396c.112.16.273.274.374.338.125.078.27.152.427.212.298.116.72.218 1.151.144l-.24-1.386a.843.843 0 0 1-.402-.07 1.103 1.103 0 0 1-.184-.09l-.029-.02.015.015a.447.447 0 0 1 .045.056l-1.157.8Zm2.234.578c.209-.145.378-.335.493-.484.06-.078.113-.155.157-.226.034-.056.09-.154.126-.26l-1.338-.436a.467.467 0 0 1 .022-.056l-.01.018a1.17 1.17 0 0 1-.071.101.968.968 0 0 1-.183.189l.804 1.154Zm.79-1.022c.017-.067.034-.162.04-.215l-1.395-.179c.001-.006.001-.007 0 0 0 .006-.002.014-.004.023a1.418 1.418 0 0 1-.008.038l1.367.333Zm.042-.224c.02-.17.012-.339-.019-.501l-1.381.267a.235.235 0 0 1 .002.073l1.398.162Zm-.01-.434-.001-.017-1.4.134.001.016 1.4-.133Zm0-.016a27.007 27.007 0 0 1-.032-.37l-1.402.11c.014.178.024.309.032.392l1.401-.132Zm-.032-.37a277.7 277.7 0 0 1-.117-1.568l-1.403.102c.05.69.09 1.223.118 1.577l1.402-.11Zm-.117-1.568c-.087-1.202-.206-2.88-.35-4.912l-1.402.099c.143 2.031.262 3.71.35 4.915l1.402-.102Zm-1.113-4.162a37.3 37.3 0 0 0 4.115.139l-.032-1.407a36.016 36.016 0 0 1-3.959-.133l-.124 1.401Zm5.095 3.526-.294-4.14-1.404.1.295 4.142 1.403-.102Zm.118 1.58c-.028-.356-.068-.89-.118-1.58l-1.403.102c.05.69.09 1.228.119 1.588l1.402-.11Zm.033.397-.033-.397-1.402.11c.014.178.025.321.035.419l1.4-.132Zm.011.1a2.751 2.751 0 0 1-.01-.1l-1.401.132.016.154 1.395-.186Zm.002.012-.002-.011-1.395.185.005.035 1.392-.21Zm0 .008v-.008l-1.392.209.005.033 1.388-.234Zm.001.001-1.388.232L49.532 98Zm.007.03a.302.302 0 0 1-.005-.02l-.002-.01-1.387.233c.003.019.015.091.04.18l1.354-.382Zm.033.076-.01-.021a1.341 1.341 0 0 1-.027-.069l-.003-.007.003.01-1.347.405c.023.075.076.212.124.309l1.26-.627Zm.502.026a.846.846 0 0 1-.401-.072 1.1 1.1 0 0 1-.183-.09.124.124 0 0 1-.028-.02l.015.015a.433.433 0 0 1 .045.056l-1.16.797c.111.16.27.274.372.338.123.078.268.152.424.213.296.117.716.222 1.146.15l-.23-1.388Zm-.038-.139a.505.505 0 0 1 .017-.044l.006-.012-.011.018a1.203 1.203 0 0 1-.257.29l.797 1.16a2.568 2.568 0 0 0 .658-.713c.035-.056.092-.154.127-.261l-1.337-.438Zm-.003-.01c.001-.006.001-.007 0 0a.756.756 0 0 1-.012.062l1.367.334c.017-.068.034-.163.04-.216l-1.395-.18Zm-.003-.064a.238.238 0 0 1 .002.074l1.398.161c.02-.17.013-.34-.019-.501l-1.381.266Zm-.011-.083.001.017 1.4-.134v-.016l-1.401.133Zm-.033-.392.032.391 1.401-.131a28.995 28.995 0 0 1-.03-.37l-1.403.11Zm-.118-1.577c.05.69.09 1.223.118 1.577l1.402-.11c-.027-.35-.066-.879-.116-1.568l-1.404.101Zm-.292-4.103.292 4.103 1.404-.101c-.076-1.039-.175-2.432-.293-4.101l-1.403.099Zm.758.651c4.24-.34 8.498-1.523 11.909-4.04l-.836-1.132c-3.134 2.313-7.111 3.442-11.186 3.77l.113 1.402Zm11.909-4.04c2.279-1.682 3.56-4.186 3.75-7.734l-1.405-.075c-.172 3.208-1.3 5.289-3.18 6.677l.835 1.132Zm3.75-7.734c.242-4.485-1.11-8.077-4.1-10.946-2.957-2.835-7.465-4.918-13.45-6.541l-.369 1.357c5.9 1.601 10.14 3.605 12.844 6.2 2.67 2.56 3.892 5.742 3.67 9.855l1.405.075Zm-19.68-32.158c.387 4.39.818 9.798 1.244 15.403l1.403-.107c-.426-5.607-.857-11.021-1.246-15.42l-1.402.124Zm.594.634c1.995.304 4.337.81 6.022 1.553.85.376 1.454.779 1.782 1.182.157.193.237.37.265.531.028.158.015.345-.082.578l1.3.538c.188-.453.247-.91.168-1.36a2.57 2.57 0 0 0-.56-1.175c-.537-.66-1.383-1.173-2.305-1.58-1.86-.822-4.351-1.35-6.378-1.658l-.212 1.39Zm7.987 3.844c-.575 1.39-.32 2.664.376 3.605a4.06 4.06 0 0 0 2.807 1.595c1.079.107 2.23-.28 2.868-1.404.612-1.079.645-2.662-.023-4.737l-1.34.431c.618 1.918.467 3.033.139 3.612-.303.533-.847.763-1.506.698a2.654 2.654 0 0 1-1.814-1.032c-.41-.554-.588-1.308-.207-2.23l-1.3-.538Zm6.028-.941c-.778-2.42-3.05-4.05-5.643-5.126-2.618-1.088-5.725-1.682-8.453-1.935l-.13 1.401c2.644.245 5.6.818 8.044 1.833 2.469 1.026 4.256 2.435 4.842 4.258l1.34-.431ZM45.335 39.285c.195 1.184.444 3.446.726 6.44l1.4-.131c-.28-2.988-.534-5.298-.738-6.538l-1.388.229Zm-4.175 9.79c1.419-.216 2.766-.276 3.863-.194l.104-1.403c-1.22-.091-2.676-.023-4.179.207l.212 1.39Zm1.753 13.379c-.4-5.198-.799-10.136-1.158-14.137l-1.402.126c.36 3.992.758 8.924 1.157 14.119l1.403-.108Zm-.558-.635-.014-.003-.258 1.383.014.003.258-1.383Zm4.11.831c-1.368-.319-2.763-.58-4.11-.83l-.258 1.382c1.352.253 2.716.508 4.05.819l.319-1.37Zm.542.632a1266.01 1266.01 0 0 0-1.231-15.165l-1.402.125c.38 4.268.806 9.583 1.23 15.147l1.403-.107Zm.21 9.908a125.285 125.285 0 0 1-4.064-.8l-.299 1.374c1.342.292 2.702.552 4.11.81l.254-1.384Zm-4.915-.062c.412 5.616.796 11.028 1.106 15.418l1.403-.1c-.31-4.39-.694-9.803-1.106-15.42l-1.403.102Zm1.714 16.065c1.366.184 2.76.276 4.141.274l-.003-1.407a29.215 29.215 0 0 1-3.95-.261l-.188 1.394Zm4.841-.48c-.295-4.175-.664-9.396-1.064-14.882l-1.404.103c.4 5.484.77 10.704 1.065 14.879l1.403-.1Zm1.256.684c2.773-.192 5.428-.79 7.563-1.845 2.133-1.055 3.808-2.601 4.473-4.711l-1.342-.422c-.511 1.622-1.831 2.92-3.755 3.872-1.923.95-4.386 1.519-7.036 1.703l.097 1.403Zm12.036-6.556c.664-2.112-.138-3.994-1.497-5.384-1.346-1.378-3.29-2.34-5.147-2.72l-.282 1.379c1.622.33 3.3 1.175 4.423 2.324 1.111 1.136 1.626 2.5 1.16 3.978l1.343.423Zm-6.644-8.104a263.071 263.071 0 0 0-6.319-1.19l-.248 1.384c1.948.35 4.013.721 6.285 1.185l.282-1.379Zm-6.319-1.19a4.192 4.192 0 0 0-.031-.006l-.249 1.385.031.005.25-1.385Zm-.857.737c.389 5.337.747 10.399 1.034 14.461l1.403-.099a6446.46 6446.46 0 0 0-1.034-14.464l-1.403.102Zm-9.324-26.217c-2.127.516-4.268 1.367-5.874 2.605-1.617 1.246-2.751 2.938-2.665 5.09l1.406-.057c-.062-1.553.732-2.85 2.117-3.918 1.396-1.076 3.33-1.863 5.348-2.352l-.332-1.368Zm1.965 14.016c-.38-4.93-.758-9.588-1.098-13.395l-1.402.125c.34 3.8.717 8.45 1.097 13.379l1.403-.109Zm-10.504-6.322c.095 2.384 1.324 3.941 3.133 4.993 1.758 1.022 4.1 1.59 6.533 2.074l.273-1.38c-2.443-.485-4.568-1.02-6.099-1.91-1.48-.86-2.362-2.022-2.434-3.833l-1.406.056Z" fill="#000" mask="url(#a)"/></svg>