<svg xmlns="http://www.w3.org/2000/svg" viewBox="0 0 400 401"><circle cx="200" cy="200" r="150"/><path fill="#fff" d="M208 199h-16s18-72-42-72c-35 0-57 33-57 62 41-11 67 37 107 37 41 0 63-45 107-37 0-29-22-61-57-61-60 0-42 71-42 71ZM224 259c-10 0-18-2-34-7-17-6-36-13-54-9-21 4-35 17-43 37 23 29 55 49 93 54 0 0-10-7-12-15 18 4 38 2 55-6-15-4-30-11-40-24 29 1 57-9 70-37-12 6-22 7-35 7Z"/><path d="M100 30c13-7 63 40 73 54l-71 50c-14-28-17-97-2-104Z"/><path fill="#fff" d="M153 90c-6-8-35-42-44-38-8 4-1 45 7 67 10-11 23-22 37-29Z"/><path d="M300 30c-13-7-63 40-73 54l72 50c13-28 16-97 1-104Z"/><path fill="#fff" d="M247 90c6-8 35-42 44-38 8 4 1 45-7 67-9-11-23-22-37-29Z"/><path d="M200 213c-4 0-14-8-16-17 0-3 2-5 5-6a65 65 0 0 1 22 0c3 1 5 3 5 6-2 9-12 17-16 17ZM147 162c-3 0-5 1-5-1-2-3 0-5 3-6 12-5 29-2 35 10 2 4 1 6-1 10-10-10-18-15-32-13ZM253 162c3 0 5 1 6-1 1-3-1-5-4-6-12-5-29-2-35 10-2 4-1 6 2 10 9-10 17-15 31-13Z"/></svg>