<svg xmlns="http://www.w3.org/2000/svg" viewBox="0 0 1600 400"><circle cx="200" cy="200" r="150"/><path fill="#fff" d="M208 199h-16s18-71.9-42-71.9c-35 0-57 32.9-57 61.4 40.9-11 66.6 37.8 107.2 37.8 40.5 0 62.7-45.5 107-38 0-28.3-22.2-60.8-57.2-60.8-60 0-42 71.5-42 71.5ZM224.2 258.7c-10.1-.4-18.2-2-34.3-7.2-16.7-5.4-35.6-12.3-53.6-8.8-21.4 4.2-35 17-43.6 36.6a141.3 141.3 0 0 0 93.2 54.4s-9.5-6.6-11.9-14.8c18.4 4 37.7 2.2 54.7-6.3-15-4.3-30-10.6-39.8-23.4 29 .7 57.4-9.2 69.8-37-12 5.8-21.8 7-34.5 6.5Z"/><path d="M100 29.5c12.9-6.2 63.1 40.1 73.3 54L101.5 134C88 106.2 85 36.7 100 29.5Z"/><path fill="#fff" d="M153 90.1c-5.7-7.8-35.3-42.5-44.1-38.3-7.8 3.7-.9 45 7.4 67.3A104.6 104.6 0 0 1 153 90Z"/><path d="M300 29.5c-12.9-6.2-63.1 40.1-73.2 54l71.7 50.5C312 106.2 315 36.7 300 29.5Z"/><path fill="#fff" d="M247 90.1c5.8-7.8 35.3-42.5 44.1-38.3 7.8 3.7.9 45-7.4 67.3A104.6 104.6 0 0 0 247 90Z"/><path d="M200 213c-3.8 0-13.7-8.4-15.7-16.8-.6-2.9 1.6-5.3 4.5-5.8a65.3 65.3 0 0 1 22.4 0c3 .5 5.1 3 4.5 5.8-2 8.4-11.9 16.8-15.7 16.8ZM147 162c-3 .5-4.8.6-5.5-1-1.4-2.9.9-5.5 3.5-6.5 11.5-4.6 29-1.3 35 10.5 1.8 3.6 1.3 6.3-1.5 9.5-9.5-9.4-17.8-14.8-31.5-12.5ZM253 162c3 .5 4.8.6 5.5-1 1.4-2.9-.9-5.5-3.5-6.5-11.5-4.6-29-1.3-35 10.5-1.8 3.6-1.3 6.3 1.5 9.5 9.5-9.4 17.8-14.8 31.5-12.5ZM464.2 277.1c-8.6 0-15.8-.8-21.6-2.3-6-1.7-10.7-4-14.3-6.7-3.7-2.8-6.3-6-8-9.5a25.9 25.9 0 0 1-2.5-10.9c0-4 .9-7.3 2.7-9.9a16 16 0 0 1 7.4-5.9 28 28 0 0 1 10.2-1.8c.2 7.1 1.4 13.3 3.6 18.7 2.3 5.3 5.5 9.4 9.7 12.3a28 28 0 0 0 15.5 4.2c8.7 0 15.4-2.1 20.2-6.5a22.8 22.8 0 0 0 7.3-17.6c0-5-1.2-9.1-3.5-12.6-2.4-3.5-6.1-6.7-11.2-9.7-5-3-11.5-6-19.5-9.2-6.9-2.8-12.8-5.8-17.9-9-5-3.3-9-6.7-12.1-10.3-3.1-3.7-5.4-7.7-7-12a49.8 49.8 0 0 1-2-15c0-8.2 2.1-15.3 6.4-21.3a41 41 0 0 1 17.7-14.1 61 61 0 0 1 25.4-5c9.5 0 17.4 1 23.7 3.3 6.3 2.1 11 5 14 8.6 3.3 3.7 5 7.7 5 12 0 4.8-2 8.7-5.8 11.8-3.7 2.9-9.3 4.4-16.8 4.4 0-4-.7-8.3-2.3-12.6a24 24 0 0 0-7.1-11c-3.2-3-7.6-4.6-13.2-4.6-4.4 0-8.3.9-11.8 2.5-3.3 1.6-6 4-8 7.2-2 3-3 6.8-3 11.3 0 4.7 1 8.7 3 12.2s5.4 6.9 10.3 10c5 3.3 11.9 6.7 20.8 10.4a102 102 0 0 1 22.3 11.7c5.8 4.1 10.2 8.8 13 14.1 3 5.2 4.4 11.3 4.4 18.3 0 9-2.3 16.8-7 23.5a45.2 45.2 0 0 1-19 15.5 70.4 70.4 0 0 1-29 5.5Zm97.7 0c-6.2 0-11.8-1.2-16.8-3.6a28.6 28.6 0 0 1-11.8-11.3 39 39 0 0 1-4.2-19.1c0-11.2 4-19.5 11.8-25 7.8-5.5 19.7-8.5 35.5-9l17.4-.7v-12c0-4.7-.3-8.9-1-12.5-.7-3.8-2.2-6.8-4.4-8.9-2.1-2-5.5-3.1-10.1-3.1a15 15 0 0 0-9.9 3c-2.4 1.9-4 4.6-4.8 8.1-.9 3.4-1.3 7.2-1.3 11.6-8.1 0-14.2-1-18.3-3-4-2-6-5.6-6-10.7 0-5 1.8-9 5.4-12.2a36 36 0 0 1 15.1-6.7 94.9 94.9 0 0 1 20.6-2c14 0 24.5 2.7 31.5 8.1 7 5.3 10.5 14.6 10.5 27.7v54c0 3.8.4 6.8 1 9a8.5 8.5 0 0 0 4.3 4.6c2 .9 4.4 1.3 7.5 1.3h.7V275h-34.9l-4.2-15.8h-1.7c-3 3.8-6 7-8.8 9.7a26.8 26.8 0 0 1-9.5 6.1c-3.5 1.4-8 2.1-13.6 2.1Zm9-14.5c4.8 0 8.8-1.1 12.2-3.4 3.4-2.2 6-5.4 7.8-9.6 2-4.2 3-9.1 3-14.7v-16.2l-11 .7c-6.6.2-11.8 1.3-15.5 3.3a18 18 0 0 0-8 8.2 32.4 32.4 0 0 0-2.3 13c0 4.2.5 7.7 1.4 10.5a12 12 0 0 0 4.7 6.1c2 1.4 4.6 2.1 7.7 2.1Zm138.6 14.5a36 36 0 0 1-20-5c-5-3.5-9-8-12.1-13.5h-1.7l-5 16.4H633v-10.3h1.7c2.8 0 5.4-.3 8-1a11 11 0 0 0 6-4.2 16 16 0 0 0 2.3-9.5V139.8c0-4.1-.7-7.1-2.3-9a10 10 0 0 0-6-4c-2.6-.8-5.4-1.1-8.5-1.1h-1.2v-10.3h45.3v37a220.7 220.7 0 0 1-.8 18.4l-.4 7.6h1c3.2-5.6 7.3-10 12.2-13.2a35 35 0 0 1 19.7-5c13.8 0 24.3 4.6 31.5 14 7.3 9.2 11 24 11 44.1 0 13.6-1.7 24.7-5 33.4s-8.1 15.1-14.6 19.3c-6.4 4-14.2 6.1-23.5 6.1Zm-6.7-15c5.2 0 9.4-1.6 12.6-5 3.2-3.5 5.5-8.4 7-14.9s2.2-14.6 2.2-24.1c0-9.7-.7-17.7-2.3-24a28.7 28.7 0 0 0-6.9-14.4 17.3 17.3 0 0 0-12.8-4.9c-9.3 0-15.6 3.6-19.1 10.7-3.4 7.2-5 18.1-5 32.8 0 9.5.6 17.5 2 24 1.6 6.4 4.1 11.3 7.6 14.8 3.6 3.4 8.5 5 14.7 5Zm52.9 12.9v-10.3h2.7c2.5 0 5-.3 7.3-.8 2.4-.7 4.4-2 6-4 1.6-2.1 2.4-5.2 2.4-9.3V139c0-3.9-.8-6.8-2.5-8.6-1.7-2-3.7-3.2-6-3.8a31 31 0 0 0-7.2-.8h-2.7v-10.3h45.7v135.2c0 4.1.8 7.2 2.4 9.3 1.6 2 3.7 3.3 6 4 2.6.5 5 .8 7.4.8h2.7V275h-64.2Zm119.6 2.1c-16.8 0-29.7-5-38.8-15.1-9-10.2-13.4-24.4-13.4-42.7 0-19.6 4.3-34.3 13-44.3a46.5 46.5 0 0 1 37-15c14.6 0 26.1 4.2 34.4 12.7 8.4 8.4 12.6 21 12.6 37.6v10.3h-69.3c.3 9.8 1.5 17.8 3.8 24 2.3 6 5.6 10.5 9.8 13.4 4.4 3 9.6 4.4 15.8 4.4 4.9 0 9.2-.7 13-2.1 4-1.5 7.3-3.5 10-5.9 2.9-2.5 5.1-5.2 6.8-8.2 1.5.7 2.7 2 3.6 3.6a10 10 0 0 1 1.4 5.5c0 3.5-1.4 6.9-4.4 10.3a30.9 30.9 0 0 1-13 8.3 65.9 65.9 0 0 1-22.3 3.2Zm16.9-69c0-7.2-.7-13.5-2-18.8a25 25 0 0 0-6-12.2 14 14 0 0 0-11-4.4c-4.4 0-8.3 1.4-11.5 4a27 27 0 0 0-7.4 12 77.2 77.2 0 0 0-3.1 19.3h41Zm145.6 69a72 72 0 0 1-38.7-9.7 60.2 60.2 0 0 1-23-26.8c-5.1-11.7-7.6-25.2-7.6-40.8a94 94 0 0 1 8-39.9 60.5 60.5 0 0 1 23.7-27 71.8 71.8 0 0 1 38.8-10c10.3 0 18.7 1.1 25.4 3.2a34 34 0 0 1 15.4 8.6c3.3 3.7 5 7.7 5 12.2 0 5-2 9.2-6.3 12.4-4 3-9.7 4.6-17 4.6 0-4.5-.8-8.9-2.3-13.2-1.4-4.4-3.9-8-7.4-10.7-3.3-3-8-4.4-13.8-4.4-9.5 0-17.2 2.5-23 7.5-5.5 5-9.6 12.3-12 21.9-2.6 9.5-3.9 21.1-3.9 34.8 0 13 1.4 24.2 4.2 33.4 3 9.3 7.6 16.3 13.9 21a40 40 0 0 0 24.8 7.2 42.7 42.7 0 0 0 30-10c3.4-3 6.2-6 8.6-9.2 1.1.9 2 2 2.7 3.6.7 1.5 1 3.3 1 5.3 0 2.8-.8 5.7-2.4 8.8-1.7 3-4.4 5.7-8 8.4a45 45 0 0 1-14.5 6.5c-5.9 1.5-13 2.3-21.6 2.3Zm52-2.1v-10.3h.6c3.2 0 6-.3 8.4-1a10 10 0 0 0 5.8-4.2c1.6-2.3 2.4-5.6 2.4-10V187c0-4.2-.8-7.3-2.2-9.2a9.1 9.1 0 0 0-5.6-4 29 29 0 0 0-8.2-1h-.6v-10.4h38.6l4 18.1h1c1.9-4.2 3.9-7.8 6.1-11a22 22 0 0 1 9-6.8c3.7-1.7 8.5-2.6 14.3-2.6 8 0 13.9 1.4 17.7 4.2a14 14 0 0 1 5.9 12.2c0 5.6-2 10-6.1 13.4-4 3.3-10 4.9-17.9 4.9 0-4-.3-7-1-9.5a9.8 9.8 0 0 0-3.2-5.6 9.7 9.7 0 0 0-6.3-2c-3.8 0-6.8 1.5-9.2 4.3-2.4 2.6-4.3 6-5.7 10a74.7 74.7 0 0 0-3.3 23.6v35c0 4.1.7 7.2 2 9.3 1.5 2 3.3 3.3 5.7 4 2.4.5 5 .8 7.8.8h6.5V275h-66.6Zm152.6 2.1c-16.8 0-29.8-5-38.9-15.1-9-10.2-13.4-24.4-13.4-42.7 0-19.6 4.3-34.3 13-44.3a46.5 46.5 0 0 1 37-15c14.7 0 26.2 4.2 34.4 12.7 8.4 8.4 12.6 21 12.6 37.6v10.3h-69.3c.3 9.8 1.5 17.8 3.8 24 2.4 6 5.7 10.5 9.9 13.4 4.3 3 9.5 4.4 15.7 4.4 5 0 9.3-.7 13-2.1 4-1.5 7.3-3.5 10.1-5.9 2.8-2.5 5-5.2 6.7-8.2 1.6.7 2.8 2 3.6 3.6a10 10 0 0 1 1.5 5.5c0 3.5-1.5 6.9-4.4 10.3a30.9 30.9 0 0 1-13 8.3 65.9 65.9 0 0 1-22.3 3.2Zm16.8-69c0-7.2-.7-13.5-2-18.8a25 25 0 0 0-6-12.2 14 14 0 0 0-11-4.4c-4.4 0-8.3 1.4-11.5 4a27 27 0 0 0-7.3 12 77.2 77.2 0 0 0-3.2 19.3h41Zm82 69c-9 0-16.9-2-23.3-6a38.2 38.2 0 0 1-14.5-19 93 93 0 0 1-5-33.2c0-13.6 1.6-24.7 4.8-33.4 3.4-8.6 8.2-15 14.5-19a41.7 41.7 0 0 1 23.3-6.4c8 0 14.5 1.6 19.5 4.9 5 3.2 9.1 7.4 12.2 12.6h1.3l-.9-8.2-.4-8.8-.2-7.8V139c0-4-.8-7-2.3-8.8-1.5-2-3.6-3.2-6.3-3.8-2.5-.5-5.3-.8-8.4-.8h-1.7v-10.3h46v134.8c0 4.2.8 7.4 2.3 9.5a12 12 0 0 0 6.3 4.2c2.7.5 5.6.8 8.8.8h1V275h-38.5l-4.7-17.4h-1.4c-3.1 6-7.2 10.8-12.2 14.3-5 3.5-11.8 5.2-20.2 5.2Zm7.2-15c9.2 0 15.5-3.5 18.9-10.6 3.5-7.2 5.2-18 5.2-32.8 0-9.5-.8-17.5-2.3-24a28.3 28.3 0 0 0-7.4-14.8c-3.5-3.4-8.3-5-14.6-5-5.2 0-9.4 1.7-12.7 5.2a31.6 31.6 0 0 0-7 14.9 115 115 0 0 0-2.2 24c0 9.6.7 17.6 2.1 24 1.5 6.4 4 11.1 7.1 14.4 3.3 3.2 7.5 4.8 12.9 4.8Zm68.8 12.9v-10.3h2.7a31 31 0 0 0 7.1-.8c2.6-.7 4.6-2 6.1-4 1.7-2 2.6-5 2.6-8.8V186c0-4-.9-6.8-2.6-8.7-1.6-2-3.7-3.2-6-3.7a31 31 0 0 0-7.2-.9h-1.9v-10.3h45v88.2c0 4.1.7 7.2 2.3 9.3 1.5 2 3.5 3.3 6 4 2.6.5 5 .8 7.4.8h2.5V275h-64Zm31-132.3c-4.3 0-8-1.1-11-3.4-3-2.2-4.5-5.8-4.5-10.9 0-5.2 1.5-8.8 4.4-10.9 3.1-2.2 6.9-3.4 11.4-3.4a18 18 0 0 1 10.9 3.4c3 2.1 4.6 5.7 4.6 11 0 5-1.5 8.6-4.6 10.8-3 2.3-6.8 3.4-11.1 3.4Zm76.7 134.4c-10 0-17.6-2.5-23-7.4-5-4.8-7.7-13.4-7.7-25.6V176h-16V166a28.6 28.6 0 0 0 19.1-8c2.2-2.3 4-5.3 5.7-8.8 1.7-3.5 3-7.8 4-12.8h14.5v26h27.1V176h-27V243c0 6.6 1.1 11.5 3.5 14.7 2.5 3 6.2 4.6 11 4.6a61.4 61.4 0 0 0 14.4-1.9v12a64.4 64.4 0 0 1-25.6 4.6Z"/></svg>