<svg xmlns="http://www.w3.org/2000/svg" viewBox="0 0 1600 400"><mask id="a" width="330" height="353" x="35" y="13" maskUnits="userSpaceOnUse"><path fill="#fff" d="M35 13h330v353H35z"/><path d="M251 59c18-17 41-33 49-29 10 4 12 37 8 66a149 149 0 0 1-108 254A150 150 0 0 1 92 96c-4-29-2-62 8-66 8-4 31 12 49 29a150 150 0 0 1 102 0Z"/></mask><path fill="#fff" d="M251 59c18-17 41-33 49-29 10 4 12 37 8 66a149 149 0 0 1-108 254A150 150 0 0 1 92 96c-4-29-2-62 8-66 8-4 31 12 49 29a150 150 0 0 1 102 0Z"/><path fill="#fff" d="m251 59-5 14 8 3 7-6-10-11Zm49-29 6-14-6 14Zm8 66-15-2-1 7 5 6 11-11Zm42 104h15-15Zm-300 0H35h15ZM92 96l11 11 5-6-1-7-15 2Zm8-66-6-14 6 14Zm49 29-10 11 7 6 8-3-5-14Zm102 0 10 11a223 223 0 0 1 36-26c3-1 0 1-3-1l6-13 6-14c-7-4-15-1-20 0l-15 8c-10 6-21 15-30 24l10 11Zm49-29-6 13c-3-1-3-3-2 0l2 12c1 11 1 25-1 39l15 2 15 2c2-15 3-32 1-46l-4-19c-2-5-6-13-14-17l-6 14Zm8 66-11 11c24 24 38 57 38 93h30c0-44-18-85-46-114l-11 10Zm42 104h-15c0 75-60 135-135 135v30c91 0 165-74 165-165h-15ZM200 350v-15c-75 0-135-60-135-135H35c0 91 74 165 165 165v-15ZM50 200h15c0-36 14-69 38-93L92 96 81 86c-28 29-46 70-46 114h15ZM92 96l15-2c-2-14-2-28-1-39l2-12c1-3 1-1-2 0l-6-13-6-14c-8 4-12 12-14 17l-4 19c-2 14-1 31 1 46l15-2Zm8-66 6 13c-3 2-5 0-3 1l10 5c8 5 17 13 26 21l10-11 10-11c-9-9-20-18-30-24l-15-8c-5-1-13-4-20 0l6 14Zm49 29 5 14c15-5 30-8 46-8V35c-20 0-38 3-56 10l5 14Zm51-9v15c16 0 31 3 46 8l5-14 5-14c-18-7-36-10-56-10v15Z" mask="url(#a)"/><circle cx="200" cy="200" r="150"/><path fill="#fff" d="M208 199h-16s18-72-42-72c-35 0-57 33-57 62 41-12 67 37 107 37 41 0 63-45 107-38 0-28-22-60-57-60-60 0-42 71-42 71ZM224 259c-10-1-18-2-34-8-17-5-36-12-54-8-21 4-35 17-43 36 23 30 55 49 93 55 0 0-10-7-12-15 18 4 38 2 55-6-15-5-30-11-40-24 29 1 57-9 70-37-12 6-22 7-35 7Z"/><path d="M100 30c13-7 63 40 73 54l-71 50c-14-28-17-97-2-104Z"/><path fill="#fff" d="M153 90c-6-8-35-42-44-38-8 4-1 45 7 67 10-11 23-22 37-29Z"/><path d="M300 30c-13-7-63 40-73 54l72 50c13-28 16-97 1-104Z"/><path fill="#fff" d="M247 90c6-8 35-42 44-38 8 4 1 45-7 67-9-11-23-22-37-29Z"/><path d="M200 213c-4 0-14-8-16-17 0-3 2-5 5-6a65 65 0 0 1 22 0c3 1 5 3 5 6-2 9-12 17-16 17ZM147 162c-3 0-5 1-5-1-2-3 0-5 3-6 12-5 29-2 35 10 2 4 1 6-1 10-10-10-18-15-32-13ZM253 162c3 0 5 1 6-1 1-3-1-5-4-6-12-5-29-2-35 10-2 4-1 6 2 10 9-10 17-15 31-13Z"/><path fill="#fff" d="m464 277-21-2c-6-2-11-4-15-7l-8-9-2-11c0-4 1-8 3-10 1-3 4-5 7-6l10-2c0 7 1 13 4 19 2 5 5 9 9 12 5 3 10 4 16 4 9 0 15-2 20-6 5-5 7-11 7-18 0-5-1-9-3-12-3-4-6-7-11-10l-20-9-18-9-12-11c-3-3-5-7-7-12l-2-15c0-8 2-15 7-21 4-6 10-11 17-14 8-3 16-5 26-5 9 0 17 1 23 3 7 2 11 5 14 9 4 4 5 8 5 12 0 5-2 9-5 12-4 3-10 4-17 4l-2-13c-2-4-4-8-8-10-3-4-7-5-13-5l-12 2c-3 2-6 4-8 8-2 3-3 6-3 11s1 9 3 12c2 4 6 7 11 10s12 7 21 10l22 12c6 4 10 9 13 14s4 12 4 19c0 9-2 16-7 23-4 7-11 12-19 16-8 3-18 5-29 5Zm98 0c-6 0-12-1-17-3-5-3-9-7-12-12-2-5-4-11-4-19 0-11 4-19 12-25 8-5 20-8 35-9l18-1v-12l-1-12c-1-4-2-7-5-9-2-2-5-3-10-3-4 0-7 1-10 3-2 2-4 5-4 8l-2 12c-8 0-14-1-18-3s-6-6-6-11 2-9 5-12c4-3 9-6 16-7l20-2c14 0 25 3 32 8s10 15 10 28v54l1 9 4 4 8 2h1v10h-35l-5-16h-1l-9 10-9 6-14 2Zm9-14c5 0 9-2 12-4s6-5 8-9l3-15v-16h-11l-16 4c-3 2-6 4-8 8l-2 13 2 10 4 7 8 2Zm139 14c-9 0-15-2-20-5s-10-8-13-13h-1l-5 16h-38v-10h2l8-1c2-1 4-2 6-5l2-9V140l-2-9c-2-2-4-4-6-4l-9-1h-1v-11h45v37a221 221 0 0 1-1 26h1c3-5 8-10 12-13 5-3 12-5 20-5 14 0 24 5 32 14 7 9 11 24 11 44 0 14-2 25-5 34-4 8-9 15-15 19s-14 6-23 6Zm-7-15c5 0 9-1 12-5 4-3 6-8 7-15a103 103 0 0 0 0-48c-1-6-3-11-7-14-3-4-7-5-12-5-10 0-16 3-20 11a115 115 0 0 0-3 57c2 6 5 11 8 14 4 4 9 5 15 5Zm53 13v-10h2l8-1 6-4 2-9V139l-2-9-6-3-8-1h-2v-11h45v136c0 4 1 7 3 9 1 2 3 3 6 4l7 1h3v10h-64Zm119 2c-16 0-29-5-38-15s-14-24-14-43 4-34 13-44 21-15 37-15c15 0 26 4 34 13 9 8 13 21 13 37v11h-69c0 9 1 17 4 24 2 6 5 10 9 13 5 3 10 4 16 4 5 0 9 0 13-2 4-1 7-3 10-6l7-8 4 4 1 5c0 4-1 7-4 11l-13 8c-6 2-14 3-23 3Zm17-69c0-7 0-13-2-19-1-5-3-9-6-12-2-3-6-4-11-4-4 0-8 1-11 4-3 2-6 6-8 12l-3 19h41Zm146 69c-16 0-29-3-39-10-10-6-18-15-23-26-5-12-8-26-8-41s3-29 8-40c6-12 14-21 24-27 11-7 24-10 39-10 10 0 19 1 25 3 7 2 12 5 16 9 3 3 5 7 5 12s-2 9-6 12c-5 3-10 5-17 5 0-5-1-9-3-13-1-5-4-8-7-11-4-3-8-4-14-4-10 0-17 2-23 7s-10 12-12 22a138 138 0 0 0 0 68c3 9 8 16 14 21s15 7 25 7l18-2a64 64 0 0 0 21-16c1 0 2 1 2 3l1 5c0 3 0 6-2 9s-4 6-8 8c-4 3-9 5-15 7l-21 2Zm52-2v-10l9-1c2-1 4-2 6-5l2-9v-63l-2-9c-2-2-3-4-6-4l-8-1h-1v-11h39l4 19h1l6-11c3-3 6-6 9-7 4-2 9-3 14-3 8 0 14 2 18 4 4 3 6 7 6 13 0 5-2 10-6 13s-10 5-18 5l-1-10-3-5c-2-2-4-2-6-2-4 0-7 1-10 4l-5 10a75 75 0 0 0-4 24v35l2 9 6 4 8 1h6v10h-66Zm152 2c-16 0-29-5-38-15s-14-24-14-43 4-34 13-44 21-15 37-15c15 0 26 4 35 13 8 8 12 21 12 37v11h-69c0 9 1 17 4 24 2 6 5 10 9 13 5 3 10 4 16 4 5 0 9 0 13-2 4-1 8-3 10-6l7-8 4 4 1 5c0 4-1 7-4 11-3 3-7 6-13 8s-14 3-23 3Zm17-69c0-7 0-13-2-19-1-5-3-9-6-12-2-3-6-4-11-4-4 0-8 1-11 4-3 2-6 6-8 12l-3 19h41Zm82 69c-9 0-17-2-23-6s-11-10-15-19c-3-9-5-20-5-33 0-14 2-25 5-33 4-9 8-16 15-20 6-4 14-6 23-6 8 0 15 2 20 5s9 7 12 13h1l-1-9v-30c0-4-1-7-3-9-1-2-3-3-6-3l-8-1h-2v-11h46v135l2 10 6 4 9 1h1v10h-38l-5-17h-1c-4 6-8 10-13 14-5 3-11 5-20 5Zm7-15c10 0 16-3 19-11a105 105 0 0 0 3-57c-1-6-4-11-7-14-4-3-9-5-15-5-5 0-9 2-12 5-4 3-6 8-8 15l-2 24 2 24c2 6 4 11 8 14 3 4 7 5 12 5Zm69 13v-10h3l7-1c3-1 5-2 6-4 2-2 3-5 3-9v-65c0-4-1-7-3-9l-6-3-7-1h-2v-11h45v89l2 9 6 4 8 1h2v10h-64Zm31-132c-4 0-8-1-11-4-3-2-4-6-4-11s1-8 4-10c3-3 7-4 11-4 5 0 8 1 11 4 3 2 5 5 5 10s-2 9-5 11c-3 3-6 4-11 4Zm77 134c-10 0-18-2-23-7s-8-14-8-26v-68h-16v-10l11-2 8-6 6-9c2-3 3-8 4-13h15v26h27v14h-27v67c0 7 1 12 3 15 3 3 6 4 11 4a61 61 0 0 0 15-1v11l-11 3c-4 2-9 2-15 2Z"/></svg>