<svg xmlns="http://www.w3.org/2000/svg" width="284" height="220" fill="none"><path fill="#406EB3" d="M77.612 164.547h-4.516a2.423 2.423 0 0 1-2.445-2.445v-4.516a2.45 2.45 0 0 1 2.445-2.445h4.516a2.45 2.45 0 0 1 2.445 2.445v4.516a2.423 2.423 0 0 1-2.445 2.445Z"/><path fill="#632678" d="M65.886 174.698h-5.054a2.732 2.732 0 0 1-2.735-2.735v-5.096c0-1.492 1.243-2.735 2.734-2.735h5.097a2.732 2.732 0 0 1 2.734 2.735v5.096c0 1.533-1.243 2.735-2.776 2.735Z"/><path fill="#982881" d="M65.43 185.263h-3.107a1.662 1.662 0 0 1-1.657-1.657v-3.107c0-.912.745-1.658 1.657-1.658h3.108c.911 0 1.657.746 1.657 1.658v3.107c0 .912-.746 1.657-1.657 1.657Z"/><path fill="#BA2F7D" d="M73.759 195.083H70.07a1.99 1.99 0 0 1-1.989-1.989v-3.687a1.99 1.99 0 0 1 1.99-1.989h3.687a1.99 1.99 0 0 1 1.989 1.989v3.687c0 1.119-.87 1.989-1.99 1.989Zm13.466-28.672h-2.528a1.379 1.379 0 0 1-1.367-1.367v-2.528a1.38 1.38 0 0 1 1.367-1.367h2.528a1.38 1.38 0 0 1 1.367 1.367v2.528c.041.746-.58 1.367-1.367 1.367Z"/><path fill="#26478D" d="M142.994 168.11a1.44 1.44 0 0 0 1.45-1.45 1.44 1.44 0 0 0-1.45-1.45c-.829 0-1.492.663-1.492 1.45 0 .787.663 1.45 1.492 1.45ZM89.42 183.772c-.207.331-.58.497-.994.497-.207 0-.497-.042-.663-.166-.331-.207-.538-.621-.538-1.036 0-.207.041-.414.165-.58l3.398-5.345-3.398-5.344c-.124-.166-.165-.415-.165-.581 0-.414.207-.828.58-1.035.207-.125.414-.166.621-.166.415 0 .787.166 1.036.497l2.776 4.392 2.817-4.392c.208-.331.622-.497 1.036-.497.208 0 .415.041.622.166.373.207.58.621.58 1.035 0 .208-.042.415-.166.581l-3.397 5.344 3.397 5.345c.124.166.166.373.166.58 0 .415-.207.871-.539 1.036a1.305 1.305 0 0 1-.663.166c-.414 0-.745-.166-.994-.497l-2.818-4.351-2.858 4.351Zm12.14-12.14a7.314 7.314 0 0 1 4.89-1.865 7.294 7.294 0 0 1 7.333 7.334c0 4.019-3.273 7.292-7.333 7.292a7.314 7.314 0 0 1-4.89-1.864v6.256c0 .622-.58 1.16-1.201 1.16-.58 0-1.202-.538-1.202-1.16v-17.733c0-.622.58-1.16 1.202-1.16.663 0 1.201.538 1.201 1.16v.58Zm4.848.58a4.846 4.846 0 0 0-4.889 4.889 4.846 4.846 0 0 0 4.889 4.889 4.845 4.845 0 0 0 4.889-4.889c.042-2.735-2.113-4.889-4.889-4.889Zm28.133 3.563v7.334c0 .621-.58 1.16-1.201 1.16-.663 0-1.202-.539-1.202-1.16v-12.057c0-.622.58-1.16 1.202-1.16.58 0 1.16.497 1.201 1.118a6.113 6.113 0 0 1 3.647-1.201c.745 0 1.325.58 1.325 1.201 0 .663-.58 1.243-1.325 1.243-1.865.042-3.647.705-3.647 3.522Zm8.453-5.883c-.663 0-1.202.538-1.202 1.16v12.098c0 .622.58 1.16 1.202 1.16.58 0 1.201-.538 1.201-1.16v-12.098c0-.622-.58-1.16-1.201-1.16Zm15.413 1.16c0-.622.58-1.16 1.202-1.16.58 0 1.201.538 1.201 1.16v12.098c0 .622-.58 1.16-1.201 1.16-.663 0-1.202-.538-1.202-1.16v-.58c-1.326 1.16-3.025 1.865-4.889 1.865a7.295 7.295 0 0 1-7.334-7.334c0-4.019 3.274-7.292 7.334-7.292 1.864 0 3.563.704 4.889 1.864v-.621Zm-4.889 10.938a4.845 4.845 0 0 0 4.889-4.889 4.845 4.845 0 0 0-4.889-4.889 4.845 4.845 0 0 0-4.889 4.889 4.845 4.845 0 0 0 4.889 4.889Zm19.598-6.049c0-2.03-1.74-3.771-3.77-3.771-1.948 0-3.771.788-3.771 3.647v7.333c0 .622-.58 1.16-1.201 1.16-.663 0-1.202-.538-1.202-1.16v-12.098c0-.622.58-1.16 1.202-1.16.58 0 1.16.497 1.201 1.118 1.036-.787 2.32-1.201 3.729-1.201 3.273 0 6.215 2.569 6.215 5.8v7.541c0 .622-.58 1.16-1.201 1.16-.663 0-1.202-.538-1.202-1.16v-7.209Zm-86.596.746c-.041-3.729-3.356-6.878-7.292-6.878-4.102 0-7.334 3.273-7.334 7.292a7.295 7.295 0 0 0 7.334 7.334c1.947 0 3.77-.746 5.096-2.072.249-.207.415-.58.415-.911 0-.663-.58-1.202-1.202-1.202-.373 0-.704.207-.953.497-.829.87-2.03 1.285-3.315 1.285-2.444 0-4.433-1.658-4.847-3.978h11.062c.042 0 .083 0 .125-.041.497-.208.911-.705.911-1.326Zm-7.292-4.475a4.825 4.825 0 0 1 4.64 3.397h-9.322c.621-1.988 2.444-3.397 4.682-3.397Zm50.88 4.475c-.041-3.729-3.397-6.878-7.292-6.878-4.102 0-7.334 3.273-7.334 7.292a7.295 7.295 0 0 0 7.334 7.334c1.947 0 3.77-.746 5.096-2.072.249-.207.414-.58.414-.911 0-.663-.58-1.202-1.201-1.202-.373 0-.704.207-.953.497-.829.87-2.03 1.285-3.315 1.285-2.444 0-4.433-1.658-4.847-3.978h11.145c.497-.207.953-.746.953-1.367Zm-7.292-4.475a4.824 4.824 0 0 1 4.64 3.397h-9.322c.621-1.988 2.444-3.397 4.682-3.397Zm55.272 12.098c-.124 0-.207-.082-.207-.207v-2.03h-.456c-.124 0-.207-.083-.207-.207 0-.124.083-.207.207-.207h1.326c.124 0 .207.083.207.207 0 .124-.083.207-.207.207h-.456v2.03c0 .125-.083.207-.207.207Zm2.362 0c-.125 0-.166-.082-.207-.165l-.581-1.658v1.616c0 .125-.082.207-.207.207-.124 0-.207-.082-.207-.207v-2.154c0-.166.124-.29.29-.29.124 0 .249.083.29.207l.58 1.699.58-1.699a.313.313 0 0 1 .29-.207c.166 0 .29.124.29.29v2.154c0 .125-.082.207-.207.207-.124 0-.207-.082-.207-.207v-1.616c-.083.249-.207.663-.331.995-.208.663-.249.663-.249.663.041.124-.041.165-.124.165Z"/><path fill="#00A6CA" d="M61.483 50.89a3.567 3.567 0 0 0-1.265-.632 5.248 5.248 0 0 0-1.405-.21c-.351 0-.703.07-1.054.14a4.03 4.03 0 0 0-.983.351c-.281.14-.563.351-.844.633-.28.28-.421.562-.562.843 0-.492-.14-.843-.421-1.125-.21-.28-.562-.491-.913-.632a3.282 3.282 0 0 0-1.195-.21c-.422 0-.843.07-1.335.14v1.827c.281 0 .562 0 .703.07.21.07.28.14.351.28.07.141.14.282.14.493v9.204h2.67v-6.816c0-.491.07-.913.282-1.264.14-.352.35-.633.632-.843.28-.211.632-.422.983-.492.352-.07.773-.21 1.125-.21.702 0 1.334.14 1.897.42l1.194-1.967Zm11.733 9.345c-.21-.07-.28-.21-.351-.351-.07-.14-.14-.352-.14-.563v-8.15c-.773-.35-1.546-.632-2.39-.772-.772-.211-1.615-.281-2.458-.281-.984 0-1.827.14-2.67.421a6.486 6.486 0 0 0-2.108 1.265c-.632.562-1.054 1.194-1.405 2.037a6.472 6.472 0 0 0-.562 2.67c0 .843.07 1.616.351 2.319.21.702.562 1.335.984 1.897.421.562.983.983 1.686 1.264s1.475.422 2.318.422a4.52 4.52 0 0 0 2.46-.703c.772-.421 1.334-1.054 1.615-1.897 0 .633.07 1.124.281 1.476.211.351.422.632.773.773.352.21.703.28 1.125.28.421 0 .843 0 1.264-.14v-1.967c-.351.07-.632.07-.773 0Zm-3.091-4.075c0 1.124-.281 1.967-.843 2.67-.492.702-1.265 1.054-2.248 1.054-1.125 0-1.898-.352-2.46-.984s-.772-1.475-.772-2.6c0-.632.14-1.194.35-1.756.212-.492.422-.984.774-1.335.351-.351.702-.632 1.194-.843.422-.21.984-.281 1.546-.281.351 0 .773 0 1.194.07.422.07.843.21 1.265.351v3.654Zm15.808-4.637c-.351-.422-.843-.773-1.475-1.054-.562-.281-1.265-.422-2.108-.422-.422 0-.773 0-1.194.07-.422.07-.773.211-1.125.352-.35.14-.702.351-.983.632s-.562.562-.703.984c0-.562-.14-.984-.351-1.265a1.918 1.918 0 0 0-.843-.632 6.193 6.193 0 0 0-1.195-.14c-.421 0-.913.07-1.335.14v1.827c.282 0 .563 0 .703.07.21.07.281.14.351.28.07.141.14.282.14.493v9.203h2.67v-6.674c0-.492.071-.913.212-1.265.14-.421.35-.702.632-.983.28-.281.562-.492.913-.633.352-.14.773-.21 1.195-.21.772 0 1.475.28 1.967.772.562.492.773 1.265.773 2.178v6.886h2.67v-6.886c0-.702-.07-1.405-.281-2.037.07-.703-.211-1.194-.633-1.686Zm11.944 4.427c-.421-.282-.983-.422-1.545-.563-.563-.14-1.195-.21-1.827-.281-.913-.14-1.616-.281-2.108-.422-.492-.21-.703-.491-.703-.983 0-.281.07-.492.211-.703.14-.21.281-.351.562-.492.211-.14.492-.28.773-.35.281-.071.633-.141.913-.141.282 0 .633 0 .914.07.351.07.632.14.843.28.281.141.422.282.632.493.14.21.281.421.281.702h2.319c0-.562-.07-1.124-.351-1.545-.281-.422-.633-.773-1.054-1.125-.492-.28-.984-.562-1.616-.702a8.89 8.89 0 0 0-1.968-.21c-.632 0-1.264.07-1.897.21-.632.14-1.124.351-1.615.702-.492.282-.844.703-1.125 1.125-.28.421-.421.983-.421 1.615 0 .703.21 1.195.492 1.616.351.422.702.703 1.194.914.492.21 1.054.351 1.686.492.633.07 1.195.21 1.827.28a6.19 6.19 0 0 1 1.897.492c.492.211.703.563.703 1.125 0 .351-.07.632-.281.913-.211.21-.422.422-.633.562-.28.14-.562.21-.913.281-.351.07-.632.07-.984.07-.351 0-.632-.07-.983-.07-.281-.07-.562-.21-.843-.351-.282-.14-.422-.351-.633-.562-.14-.211-.28-.492-.28-.773h-2.6c.07.703.21 1.335.562 1.827.351.492.702.843 1.264 1.124a6 6 0 0 0 1.687.632c.632.14 1.264.21 1.896.21.633 0 1.265-.07 1.897-.21.633-.14 1.195-.351 1.617-.702.421-.352.843-.703 1.124-1.125.28-.491.421-1.053.421-1.686 0-.702-.14-1.264-.421-1.686-.14-.492-.492-.773-.914-1.054Zm29.79-4.427c-.351-.422-.843-.773-1.475-1.054-.562-.281-1.265-.422-2.108-.422-.422 0-.773 0-1.195.07-.421.07-.772.211-1.124.352-.351.14-.702.351-.983.632s-.562.562-.703.984c0-.562-.14-.984-.351-1.265a1.92 1.92 0 0 0-.843-.632 6.201 6.201 0 0 0-1.195-.14c-.421 0-.913.07-1.264.14v1.827c.281 0 .562 0 .702.07.211.07.281.14.352.28.07.141.14.282.14.493v9.203h2.67v-6.674c0-.492.07-.913.211-1.265.14-.421.351-.702.632-.983s.562-.492.913-.633c.352-.14.773-.21 1.195-.21.773 0 1.475.28 1.967.772.562.492.773 1.265.773 2.178v6.886h2.67v-6.886c0-.702-.071-1.405-.281-2.037 0-.703-.281-1.194-.703-1.686Zm4.707-6.393c-.421 0-.772.14-1.124.42-.351.282-.491.633-.491 1.195s.21.913.491 1.195c.352.28.703.421 1.124.35.422 0 .773-.14 1.054-.42.352-.282.492-.633.492-1.195s-.14-.913-.492-1.195c-.281-.28-.632-.35-1.054-.35Zm1.335 5.198h-2.669v11.804h2.669V50.328Zm12.436 1.265c-.562-.492-1.264-.843-2.037-1.124-.773-.281-1.546-.351-2.389-.351-.773 0-1.546.14-2.248.35-.703.282-1.406.633-1.968 1.125a5.585 5.585 0 0 0-1.405 1.897c-.351.773-.562 1.616-.562 2.67 0 1.054.211 1.967.562 2.67.352.773.843 1.405 1.405 1.967.562.492 1.265.913 1.968 1.124.773.281 1.475.351 2.318.351.773 0 1.546-.14 2.319-.35.773-.212 1.405-.633 1.967-1.125a5.24 5.24 0 0 0 1.405-1.967 6.478 6.478 0 0 0 .562-2.67c0-1.054-.211-1.897-.562-2.67-.281-.773-.773-1.405-1.335-1.897Zm-1.054 6.253c-.21.492-.491.843-.772 1.195-.282.35-.703.562-1.125.702-.421.14-.843.281-1.264.281-.422 0-.914-.07-1.335-.21a3.054 3.054 0 0 1-1.124-.703c-.352-.352-.633-.703-.843-1.195-.211-.491-.282-1.054-.282-1.686 0-.632.071-1.124.282-1.616.21-.492.421-.843.772-1.124.352-.281.703-.562 1.125-.703.421-.14.843-.21 1.264-.28.422 0 .914.07 1.335.21.422.14.843.351 1.195.703.351.28.632.702.843 1.194a4.26 4.26 0 0 1 .351 1.686 6.316 6.316 0 0 1-.422 1.546Z"/><path fill="#00A6CA" d="M40.124 47.518v-2.53h12.717v2.53h-4.988v14.614h-2.81V47.518h-4.919Zm61.266 8.852V44.99h2.811V56.3c0 2.249 1.686 3.513 3.864 3.513s3.794-1.264 3.794-3.513V44.99h2.81v11.38c0 3.794-3.021 5.972-6.604 5.972-3.654 0-6.675-2.178-6.675-5.972Zm59.931 2.952v-4.216c0-.703-.07-1.405-.281-2.038a5.886 5.886 0 0 0-.843-1.615c-.351-.422-.843-.773-1.475-1.054-.562-.281-1.265-.422-2.108-.422-.422 0-.773 0-1.194.07-.422.07-.773.211-1.125.352-.351.14-.702.35-.983.632-.281.281-.562.562-.703.984 0-.563-.14-.984-.351-1.265a1.92 1.92 0 0 0-.843-.632 6.193 6.193 0 0 0-1.195-.14c-.421 0-.913.07-1.264.14v1.826c.281 0 .562 0 .702.07.211.07.281.141.352.282.07.14.14.28.14.491v9.204h2.67v-6.674c0-.492.07-.914.211-1.265.14-.422.351-.703.632-.983.281-.282.562-.492.913-.633.352-.14.773-.21 1.195-.21.773 0 1.475.28 1.967.772.562.492.773 1.265.773 2.178v4.286c0 2.88 1.756 3.162 4.075 2.74v-1.686c-1.054.07-1.265-.281-1.265-1.194Zm6.956-33.584c-4.567 0-8.572 2.459-10.679 6.182-.773 1.476-.914 2.74-.281 3.794.702 1.265 2.318 1.406 3.161 1.406h1.546l-.562 1.756c-.351 1.054-.211 2.248.351 3.021.562.773 1.405 1.195 2.459 1.195.703 0 1.476-.14 2.178-.422a3.796 3.796 0 0 1-.492-.913c-.07-.281-.21-.562-.21-.914-.422.211-.914.281-1.406.281-.281 0-.702-.07-.913-.421-.211-.281-.281-.703-.14-1.195l.772-2.388h2.459l.633-2.038h-2.389l1.054-3.302h-2.108l-1.054 3.302h-2.248c-.703 0-1.124-.21-1.335-.562-.211-.422 0-1.265.562-2.248v-.07c1.897-2.74 4.988-4.567 8.572-4.567 5.691 0 10.328 4.637 10.328 10.328 0 5.69-4.637 10.328-10.328 10.328-5.059 0-9.275-3.654-10.188-8.431l-1.967.421c1.124 5.691 6.112 10.047 12.155 10.047 6.815 0 12.365-5.55 12.365-12.365.071-6.675-5.48-12.225-12.295-12.225Z"/><path fill="#00A6CA" d="M176.146 41.476c-.492 0-1.124-.07-1.546-.352-.14-.14-.351-.28-.421-.632 0-.14 0-.351.07-.562l1.546-4.707h-2.108l-1.335 4.075c-.351 1.053-1.475 1.897-2.459 1.897-.281 0-.632-.07-.773-.352-.14-.21-.281-.492-.07-.983l1.546-4.708h-2.108l-1.335 4.075c-.351.984-.211 2.038.351 2.81.562.703 1.335 1.125 2.389 1.125.984 0 2.037-.422 2.881-1.124.281.421.632.702 1.124.913.702.21 1.124.21 1.616.21.21 0 .491-.07.562-.07.07-.07.07-.14.14-.21l.211-.422.211-.421.211-.422c.07-.07.07-.21.14-.28-.211.14-.492.14-.843.14Zm-12.085 19.251c0-2.108 3.162-2.108 3.162 0s-3.162 2.108-3.162 0Zm2.881 0c0-1.827-2.6-1.827-2.6 0 0 1.826 2.6 1.826 2.6 0Zm-.632.702-.281.07-.422-.562h-.351v.563h-.211v-1.546h.632c.281 0 .562.21.562.492 0 .21-.14.421-.351.421l.422.562Zm-.984-.702h.351c.211 0 .352-.14.352-.281 0-.211-.141-.281-.352-.281h-.351v.562Z"/><path fill="#9F1C34" d="M249.245 106.211a1.74 1.74 0 0 1 1.244.53 1.742 1.742 0 0 1 .495 1.259c0 .464-.185.91-.513 1.239a1.757 1.757 0 0 1-2.479 0 1.756 1.756 0 0 1-.513-1.239 1.75 1.75 0 0 1 .505-1.262 1.77 1.77 0 0 1 1.252-.527h.009Zm0 .278a1.46 1.46 0 0 0-1.417 1.497 1.418 1.418 0 0 0 1.421 1.422 1.423 1.423 0 0 0 1.422-1.422 1.459 1.459 0 0 0-1.417-1.506l-.009.009Zm-.331 2.53h-.344v-1.981c.185-.029.371-.044.559-.044.214-.016.428.036.612.147a.478.478 0 0 1 .183.412.49.49 0 0 1-.384.482c.174.032.29.188.331.479.017.167.059.332.125.487h-.331a1.477 1.477 0 0 1-.134-.505.374.374 0 0 0-.134-.27.374.374 0 0 0-.291-.079h-.219l.027.872Zm0-1.095h.228c.259 0 .483-.094.483-.34 0-.175-.125-.349-.483-.349a1.735 1.735 0 0 0-.228 0v.689Zm-121.048 14.265 3.93-17.422h15.539l-.724 3.514h-8.548l-.643 2.942h7.456l-.764 3.473h-7.47l-.823 3.796h8.789l-.773 3.697h-15.969Zm18.866-10.215c1.591-6.16 5.838-6.107 10.881-6 3.456.072 8.811.108 7.859 5.522 0 0-.215 1.537-.563 3.205h-5.441l10.931 13.085h-7.256l-4.734-5.673a13.766 13.766 0 0 1-4.672.536c-2.866-.107-8.177 0-7.962-4.993a32.23 32.23 0 0 1 .957-5.678v-.004Zm6.705-.845a32.549 32.549 0 0 0-1.506 5.888c-.371 2.069 1.113 2.812 2.548 2.812 1.171 0 2.825-.693 3.344-2.124a33.732 33.732 0 0 0 1.489-5.946c.527-3.29-2.549-2.812-2.549-2.812-2.463-.165-3.343 2.178-3.343 2.178"/><path fill="#9F1C34" d="M168.329 106.716h6.339s-2.03 8.942-2.468 11.123a1.919 1.919 0 0 0 2.003 1.837s2.535.394 3.049-1.689l2.535-11.271h6.437s-2.436 11.15-2.861 12.518c-.425 1.368-2.548 3.241-7.381 3.505a23.572 23.572 0 0 1-3.929-.215l-5.785-6.835s1.551-7.153 2.061-8.973m20.287 0h6.478l-3.496 15.442h-6.331l3.349-15.442Zm11.909 15.442h-6.388l3.362-15.442h13.939l-.738 3.023h-7.341l-.697 2.843h6.259l-.657 2.964h-6.196l-1.543 6.612Zm8.753 0h-4.47l10.886-15.442h7.743l1.542 12.518 5.204-4.766-5.106-7.752h8.208l2.472 3.93 3.997-3.93h6.29l-8.163 7.153 5.324 8.289h-7.913l-2.682-4.609-4.426 4.609h-9.567l-.299-3.376h-6.755l-2.285 3.376Zm4.471-6.733h4.064l-.501-5.096-3.563 5.096Z"/></svg>