<svg width="255" height="215" viewBox="0 0 255 215" fill="none" xmlns="http://www.w3.org/2000/svg"><g clip-path="url(#a)"><path d="m8.525 152.399-1.289-2.016c-.155.088-.34.202-.531.297-.529.269-1.04.577-1.594.785-.853.323-1.476.098-1.994-.657a4.032 4.032 0 0 1-.456-.847c-.7-1.863-1.334-3.774-1.204-5.774.096-1.459-.289-2.77-.638-4.125-.234-.908-.394-1.834-.585-2.753-.35-1.697-.254-3.406-.059-5.102.095-.823.397-1.626.643-2.427.057-.183.247-.356.42-.468a6.19 6.19 0 0 1 2.488-.907c.588-.086.575-.091.743-.715.68-2.569 1.56-5.061 2.915-7.361 1.011-1.721 2.24-3.261 3.913-4.405.23-.156.386-.421.56-.616-.705-1.124-.705-1.124-.864-2.171-1.683-.859-1.873-2.308-.497-4.066-.829-.928-1.322-2.014-1.174-3.293.152-1.321.778-2.283 2.274-2.58-.54-1.167-.792-2.314.053-3.43.802-1.06 1.923-1.299 3.18-1.21-.091-.587-.186-1.07-.24-1.56a3.499 3.499 0 0 1 .302-1.884c.52-1.129 1.588-1.663 2.808-1.412.288.06.57.149.94.247.03-.254.048-.485.084-.715.142-.925.372-1.802 1.276-2.31 1.004-.565 1.972-.595 2.863.202 1.587-1.352 2.096-1.423 3.245-.43.14-.11.29-.222.434-.347.528-.446 1.121-.712 1.823-.724.732-.012 1.247.317 1.5.99.17.454.255.94.39 1.457.198-.088.397-.175.594-.264a3.31 3.31 0 0 1 1.734-.304c.935.095 1.477.645 1.556 1.589.06.709-.129 1.374-.397 2.02-.217.52-.45 1.033-.706 1.617 1.14-.01 2.136.198 2.824 1.114.668.892.637 1.944.594 3.041.223.05.43.108.64.141 1.877.297 2.805 1.451 2.69 3.355-.01.171-.027.343-.043.536l.846.726c.176-.273.344-.53.507-.792 2.705-4.355 5.57-8.6 8.842-12.557 2.546-3.076 5.356-5.889 8.268-8.619 3.961-3.715 8.409-6.761 13.033-9.545 3.288-1.98 6.805-3.524 10.387-4.917 3.902-1.517 7.857-2.857 11.923-3.858.817-.2 1.642-.353 2.538-.544 0-.495-.023-.962.005-1.426.049-.789.095-1.58.205-2.362.137-.979.594-1.819 1.232-2.576 1.136-1.352 2.564-2.303 4.1-3.135 3.296-1.783 6.785-3.114 10.273-4.452.85-.327 1.7-.655 2.512-.966-.13-.955-.252-1.858-.378-2.757a5.385 5.385 0 0 1 .559-3.239c.223-.446.356-.849.201-1.337-.229-.728.094-1.355.438-2.006-1.022-1.651-2.08-3.295-2.615-5.254-.821.334-1.594.64-2.36.962-1.668.702-3.354 1.337-5.184 1.486-.59.047-1.18.126-1.772.156-.233.011-.47-.074-.631-.102-.223-.966-.477-1.83-.621-2.713-.197-1.217-.322-2.447-.458-3.674-.031-.278-.046-.529-.29-.723-1.392-1.108-2.189-2.614-2.687-4.268-.594-1.963-1.158-3.938-1.584-5.945-.353-1.664-.477-3.376-.72-5.064-.232-1.615-.494-3.225-.724-4.84-.105-.734-.142-1.477-.254-2.21A7.217 7.217 0 0 0 95 7.08c-.344-.986-.633-1.98-.65-3.032a3.329 3.329 0 0 1 .095-.88c.12-.458.466-.562.84-.256.203.165.355.39.588.654.084-.548.136-1.027.237-1.496.101-.469.312-.84.877-.845.115 0 .233-.068.344-.115.56-.238.926-.117 1.189.457.172.376.28.782.48 1.356.097-.424.149-.673.212-.921.084-.347.194-.684.62-.73.308-.034.726.245.817.645.161.723.279 1.454.354 2.191.109 1.032.164 2.07.245 3.104.021.132.05.263.085.391.184-.265.311-.463.452-.65.218-.288.481-.532.873-.432.391.1.553.453.556.798 0 .512-.011 1.051-.165 1.531-.4 1.248-.881 2.468-1.327 3.7-.144.396-.292.79-.419 1.19-.191.602-.182 1.204-.041 1.825a58.82 58.82 0 0 1 .595 3.058c.238 1.368.534 2.711 1.172 3.965.323.638.573 1.314.83 1.983.144.371.338.52.772.492 1.282-.085 2.567-.115 3.853-.155a9.468 9.468 0 0 0 3.795-.892c.843-.395 1.764-.623 2.651-.925.084-.03.17-.054.257-.08l-.032-.148c-.217.046-.435.092-.653.14-1.844.42-3.556-.45-4.305-2.189-.304-.706-.576-1.418-.614-2.203a1.268 1.268 0 0 0-.228-.606c-.457-.682-.624-1.422-.641-2.24-.015-.736-.084-1.492-.281-2.197-.337-1.207.152-2.121.752-3.103 1.024-1.674 4.582-3.239 6.711-2.542.042.014.095-.01.242-.032-.603-.998-1.202-2.006-.544-3.17.608-1.078 1.539-1.635 2.829-1.644.07-.202.139-.433.229-.656.297-.743.864-1.202 1.615-1.417.913-.261 1.798.217 2.154 1.111.254.638.294 1.298.211 1.97-.031.243-.069.484-.109.763.169.045.302.103.44.115 1.121.098 1.879 1.685.902 2.768a2.103 2.103 0 0 0-.491.793c-.165.513-.653.726-1.12.898-.897.33-1.833.398-2.78.36-.187-.007-.372 0-.595 0 .237.594.446 1.141.676 1.677.054.127.186.228.297.32 1.004.827 1.43 2.838.057 3.914-.321.252-.358.51-.261.898.459 1.836 1.428 3.409 2.478 4.944.056.081.109.166.19.289.955-.8 2.09-.892 3.144-.87 1.581.032 3.077.511 4.148 1.83.862 1.059 1.613 2.154 1.984 3.516.755 2.765 1.628 5.498 2.397 8.262.482 1.734.879 3.492 1.287 5.248.249 1.072.698 2.052 1.205 3.02.966 1.84 1.919 3.686 2.834 5.55.383.802.61 1.67.669 2.557.041.527.305 1.04.473 1.554.469 1.441.87 2.898.817 4.429-.055 1.567-.45 3.064-1.461 4.277-.607.73-1.433 1.277-2.165 1.902-.128.11-.275.197-.482.344.197.08.317.153.446.177 4.363.798 8.64 1.943 12.871 3.25 4.001 1.237 7.864 2.836 11.674 4.567 1.238.562 2.493 1.091 3.721 1.678 2.438 1.166 4.738 2.568 6.958 4.106 2.71 1.878 5.268 3.95 7.802 6.048.838.693 1.617 1.457 2.427 2.186.161.148.336.275.543.442.379-.436.712-.861 1.091-1.243.451-.456.911-.913 1.424-1.293a2.52 2.52 0 0 1 1.079-.427c.66-.105 1.061.197 1.129.864.038.44-.006.883-.131 1.307-.333 1.15-.96 2.164-1.57 3.183-.101.167-.198.336-.298.509.078.13.133.24.205.338 2.629 3.594 5.28 7.173 7.884 10.786 1.133 1.572 1.865 3.375 2.702 5.113.462.958.892 1.932 1.342 2.898.071.148.155.297.275.527.203-.292.372-.521.525-.758.574-.899 1.423-1.224 2.452-1.271 1.052-.047 2.068.169 3.09.34 2.292.382 4.577.804 6.868 1.199.503.086 1.015.124 1.579.191-.012-1.049.488-1.737 1.246-2.155.098-.588.199-1.09.255-1.597a1.008 1.008 0 0 0-.119-.549c-.443-.834-.536-1.672-.187-2.573.276-.712.478-1.453.735-2.251-.213-.069-.44-.132-.661-.212-.917-.33-1.048-1.048-.285-1.67.283-.232.621-.402.948-.573a7.32 7.32 0 0 1 1.078-.491c.361-.12.565-.362.763-.658.48-.716.93-1.464 1.494-2.11.812-.933 1.879-1.502 3.135-1.43.95.055 1.911.153 2.846.302 1.476.237 2.523 1.155 3.186 2.52.709 1.458.918 3.009 1.025 4.599.152 2.269.292 4.543.809 6.768.156.673.361 1.338.543 1.997.05.019.097.056.134.047.9-.223 1.108-.106 1.306.766.049.216.057.441.091.66.058.354.194.669.535.834.831.399 1.135 1.16 1.239 1.975.079.613.276 1.026.811 1.371.83.535 1.57 1.206 2.392 1.755 1.81 1.205 3.625 2.406 5.48 3.542 1.56.956 3.237 1.729 4.755 2.743 1.704 1.137 3.314 2.42 4.912 3.705.791.637 1.278 1.548 1.832 2.404.52.804.617 1.582.432 2.441a3.901 3.901 0 0 1-1.483 2.332c-.568.433-1.154.864-1.783 1.189-1.845.955-3.715 1.857-5.577 2.78-.35.173-.703.341-1.108.537.58 1.1.887 2.204.794 3.427.472-.029.749.148 1.053.464.557.579.87 1.155.658 1.969-.202.777-.604 1.394-1.279 1.841-.743.491-1.415.17-2.204-.273l.153 1.114c.115.832.232 1.663.342 2.495.017.121.047.281-.012.364-.337.473-.128.948-.029 1.418.709 3.393 1.161 6.822 1.486 10.272.152 1.625.434 3.235.616 4.857.315 2.801.672 5.599.71 8.424.01.766.074 1.533.148 2.295.026.248.181.482.309.803-.149.335-.349.498-.892.497-.953 0-1.908.234-2.861.371-.194.029-.386.075-.572.108l-2.476 25.278c.192.011.384.032.576.033 2.339.008 4.625.455 6.923.817.438.072.881.108 1.325.107a23.626 23.626 0 0 1 4.726.405c.148.02.293.051.435.094.415.149.488.524.12.777-.264.18-.562.304-.876.366-1.528.298-3.066.541-4.594.842-1.306.258-2.6.568-3.979.871.156.18.305.328.426.497.387.54.834 1.052 1.126 1.641.415.839.092 1.439-.837 1.527a7.096 7.096 0 0 1-2.056-.13c-2.337-.471-4.427-1.545-6.422-2.809-.34-.216-.675-.26-1.051-.256-2.104.018-4.21.086-6.312.029-3.018-.082-6.033-.251-9.05-.397a8.847 8.847 0 0 1-1.395-.181c-.513-.11-.966 0-1.44.187-1.957.773-3.932 1.498-6.025 1.819-.586.085-1.179.12-1.771.104-.479-.007-.858-.265-1.009-.743-.157-.492 0-.929.381-1.263.465-.403.952-.78 1.502-1.228-.216-.03-.387-.069-.559-.074-2.13-.095-4.259-.243-6.309-.867-.847-.258-1.681-.319-2.548-.317-5.843.015-11.686.004-17.529.031-4.802.021-9.605.09-14.407.12-.61.004-1.22-.102-1.894-.164 0-.789-.024-1.526.004-2.262.223-5.665.339-11.332.223-16.999-.091-4.329-.203-8.661-.474-12.981-.243-3.873-.695-7.735-1.094-11.597-.211-2.041-.431-4.087-.78-6.109-.802-4.652-1.446-9.343-2.688-13.906-.974-3.578-2.141-7.104-3.224-10.653-.028-.089-.074-.173-.155-.351-.455.496-.763 1.02-1.09 1.525a563.024 563.024 0 0 0-3.007 4.681c-1.819 2.856-3.626 5.722-5.45 8.573a609.949 609.949 0 0 1-3.916 6.037c-1.936 2.958-3.895 5.902-5.822 8.865a310.627 310.627 0 0 0-4.057 6.381c-1.255 2.042-2.435 4.129-3.671 6.182-1.096 1.821-2.216 3.626-3.336 5.433-.32.515-.386.53-.952.246-.565-.283-1.123-.602-1.709-.917-.409.521-.781 1.008-1.169 1.486-.411.507-.469.508-1.026.129-.159-.108-.325-.21-.544-.35l-2.258 3.238c.302.372.595.674.822 1.018.947 1.421 1.115 3.014.817 4.633-.543 2.953-3.202 5.445-6.666 5.475-.713.006-1.475-.23-2.135-.53-1.362-.619-2.566-1.486-3.433-2.749a3.958 3.958 0 0 1-.487-.909c-.743-2.138-.535-4.154.673-6.104 1.235-1.993 3.08-2.858 5.3-3.087a4.038 4.038 0 0 1 2.1.358c.557.254.579.245.907-.223.638-.912 1.258-1.835 1.932-2.818-.249-.181-.454-.344-.668-.487-.307-.203-.362-.453-.168-.759.358-.562.719-1.122 1.107-1.728-.465-.408-.931-.805-1.382-1.218-.572-.52-.595-.587-.112-1.221a118.63 118.63 0 0 1 2.155-2.733c1.691-2.096 3.418-4.161 5.079-6.282a774.356 774.356 0 0 0 7.6-9.873c1.048-1.378 2.017-2.815 3.046-4.206 2.091-2.824 4.201-5.629 6.303-8.441.962-1.287 1.917-2.579 2.891-3.858 1.183-1.553 2.383-3.094 3.571-4.644.496-.647.98-1.304 1.463-1.961 1.422-1.932 2.841-3.866 4.259-5.803.058-.079.107-.164.165-.252-.41-.932-.762-1.887-1.233-2.779-1.132-2.144-2.286-4.277-3.973-6.065-.678-.719-1.295-1.497-1.956-2.234-1.326-1.478-2.773-2.808-4.459-3.886-1.882-1.203-3.863-2.206-5.875-3.168-2.795-1.337-5.762-2.089-8.807-2.559-1.687-.26-3.377-.545-5.076-.665-1.626-.115-3.265-.065-4.897-.031-4.964.103-9.769 1.121-14.511 2.518a52.267 52.267 0 0 0-10.708 4.523 37.552 37.552 0 0 0-8.276 6.226c-5.202 5.176-9.72 10.874-13.237 17.351-2.293 4.222-4.498 8.481-6.333 12.923-.718 1.736-1.338 3.514-1.998 5.275-.075.201-.123.412-.2.675.46-.029.86-.007 1.231-.097.2-.048.411-.257.514-.45.455-.85.844-1.735 1.313-2.577.306-.534.658-1.041 1.052-1.514.179-.219.459-.381.724-.499.669-.297 1.299-.055 1.599.614.14.313.207.658.326 1.046.194-.052.395-.114.6-.162 1.147-.269 1.852.415 1.62 1.565-.298 1.494-1.692 2.465-3.114 2.697-.126.02-.281-.133-.422-.206.089-.13.148-.317.273-.379.261-.132.56-.192.837-.297a2.822 2.822 0 0 0 1.617-1.452c.18-.375.365-.828.025-1.182-.376-.394-.801-.075-1.15.116-.266.142-.463.416-.681.639-.171.174-.305.398-.502.525-.108.069-.366.039-.463-.049-.096-.088-.11-.315-.07-.456a.967.967 0 0 1 .298-.414c.52-.459.429-1.02.262-1.575-.14-.469-.507-.622-.925-.347-.35.231-.649.529-.882.876-.363.557-.643 1.168-.954 1.759-.346.657-.655 1.338-1.04 1.968-.25.41-.552.87-1.182.512-.095-.054-.248-.04-.366-.015-1.328.287-2.658.544-3.848 1.276-1.337.825-1.88 2.045-1.897 3.555-.015 1.351.343 2.643.669 3.938.245.984.428 1.988.755 2.944.258.755.43 1.491.223 2.312l5.27 1.325c.097-.107.152-.138.159-.178.185-1.065 1.017-1.236 1.876-1.328.415-.043.84.009 1.263.018.372.009.743.04 1.115.028.827-.029 1.114-.285 1.197-1.094.055-.56.056-1.124.082-1.694-.626-.191-1.205-.326-1.749-.547a10.324 10.324 0 0 1-1.572-.814c-.173-.107-.359-.417-.32-.583.04-.166.325-.362.536-.416.352-.09.731-.082 1.099-.108.61-.045 1.222-.084 1.836-.124-.135-1.086-.135-1.085.805-1.555.109-.055.209-.129.357-.223-.108-.148-.197-.287-.297-.414-.462-.579-.966-1.132-1.38-1.743-.288-.42-.475-.912-.68-1.385-.274-.634-.492-1.294-.793-1.915-.154-.318-.436-.575-.608-.795l-1.91.669c-.027.13-.09.365-.124.603-.175 1.23-.69 2.317-1.408 3.313-.371.52-.564.527-1.084.105-.785-.636-1.566-.409-1.895.552-.405 1.184-.124 2.287.75 2.95.435.331.891.536 1.442.289.19-.084.408-.125.507.117.111.273-.09.449-.303.504-.393.101-.804.136-1.306.213-.233.325-.494.781-.846 1.154-.385.409-.843.751-1.288 1.1-.193.148-.46.176-.555-.093-.042-.116.097-.364.223-.46 1.086-.827 1.31-1.065 1.924-2.202a2.588 2.588 0 0 1-.396-.25c-1.263-1.126-1.2-2.765-.594-3.95.536-1.06 1.658-1.223 2.833-.437a3.87 3.87 0 0 0 .35-.424c.623-1.003 1.032-2.073 1.035-3.279 0-.743.032-.754.743-.664.498.064.93-.049 1.305-.388.159-.143.332-.269.514-.414.817.694 1.46 1.451 1.734 2.424.412 1.465 1.175 2.692 2.178 3.826 1.002 1.134.77 1.412-.34 1.907-.087.038-.157.112-.3.217.058.223.13.451.178.685.098.482-.02.626-.508.654-.838.049-1.675.101-2.664.16.223.169.332.293.465.34.558.199 1.115.401 1.69.555 1.02.274 1.024.259 1.176 1.315.165-.056.333-.089.476-.167 2.021-1.114 3.977-2.325 5.66-3.919 1.384-1.313 2.6-2.769 3.715-4.324 1.549-2.155 2.5-4.599 3.532-7.006.487-1.134.892-2.303 1.348-3.453.258-.655.324-1.331.342-2.032.01-.716.09-1.43.24-2.131a4.218 4.218 0 0 0-.196-2.609c-.216-.537-.357-1.07-.062-1.644.09-.176.04-.437.014-.654-.129-1.031-.27-2.06-.408-3.09-.08-.594-.09-1.183.133-1.755.156-.4.424-.675.86-.721.343-.037.67.231.794.749.164.694.246 1.407.357 2.113.088.556.167 1.114.376 1.684a2.2 2.2 0 0 0 .106-.342c.148-1.002.272-2.006.438-3.007a4.17 4.17 0 0 1 .325-.982c.148-.334.406-.568.807-.539.347.024.643.313.682.764.063.714.063 1.432.087 2.148a.845.845 0 0 0 .112.474 2.63 2.63 0 0 0 .204-.381c.164-.466.31-.938.47-1.406a2.15 2.15 0 0 1 .183-.403c.259-.435.528-.578.897-.493.35.081.585.362.56.848-.049.936-.144 1.87-.246 2.801-.043.409-.148.811-.128 1.25.297-.418.567-.854.891-1.247.2-.252.445-.464.723-.623.434-.233.803-.008.831.483.015.246-.023.493-.11.724a59.598 59.598 0 0 1-.95 2.252c-.1.223-.253.425-.372.642-.445.827-.823 1.656-.856 2.643-.045 1.35-.527 2.601-1.094 3.826-.32.69-.559 1.419-.799 2.142-.637 1.924-1.173 3.886-1.901 5.774-.96 2.489-1.932 4.987-3.137 7.362-1.596 3.148-3.748 5.934-6.251 8.436-.486.486-.97.974-1.405 1.571.422-.061.844-.134 1.268-.18 1.622-.172 3.245-.336 4.867-.501.875-.089 1.523.297 2.04.966a8.68 8.68 0 0 1 1.679 3.675c.09.471.014.975.014 1.522 1.229.832 1.734 2.197 2.13 3.571.341 1.18.493 2.417.692 3.636.446 2.732.863 5.468 1.299 8.202.166 1.05.347 2.097.525 3.146.02.119.06.236.1.397.848.136 1.7.252 2.542.411 2.795.528 5.588 1.059 8.377 1.613 1.114.223 2.209.553 3.328.749 1.629.285 3.269.52 4.911.727 3.286.417 6.577.783 9.862 1.209 1.568.203 3.125.493 4.687.751.311.052.645.084.794.451a.37.37 0 0 0 .218.165c.317.094.658.062.951-.09.294-.151.518-.41.625-.723a1378.32 1378.32 0 0 0 2.428-7.712c.238-.765.58-1.465 1.148-2.033 1.036-.1 1.665.169 1.78 1.478.116 1.354.128 2.715.038 4.071-.188 2.894-.703 5.74-1.445 8.545-.03.114-.035.235-.064.433.51 0 .977-.019 1.441.003.765.037 1.532.075 2.292.163.319.04.626.144.904.306.163.095.337.347.328.52-.01.173-.211.398-.384.479a2.41 2.41 0 0 1-.861.194c-1.507.094-3.014.211-4.522.237-1.752.029-3.505-.029-5.258-.047a.471.471 0 0 0-.223.024c-.924.485-1.941.273-2.906.336-5.191.34-10.391.204-15.589.223h-1.139c.277.191.425.288.568.392.669.487.684 1.224-.037 1.619-.462.253-1.02.342-1.546.458-.36.08-.737.085-1.107.115-.37.029-.738.047-1.125.074-.297.998-1.197 1.046-1.967 1.138-1.446.173-2.909.202-4.362.317-1.403.112-2.803.27-4.207.385-2.83.231-5.639.211-8.363-.759-.711-.253-1.394-.53-1.842-1.175-.155-.223-.354-.231-.586-.214-2.493.176-4.988.335-7.48.526-4.16.321-8.312.287-12.45-.257a17.672 17.672 0 0 1-2.824-.61 4.475 4.475 0 0 1-1.534-.858 1.777 1.777 0 0 0-1.198-.446 14.172 14.172 0 0 1-4.161-.683c-.71-.231-1.381-.528-1.947-1.04a.965.965 0 0 0-.594-.223c-3.688-.006-7.377.004-11.066.012a.94.94 0 0 0-.162.069c.165.069.327.145.485.23.496.304.538.743.033 1.04-.464.269-.984.502-1.508.591-1.778.301-3.566.536-5.356.784-.413.058-.834.065-1.404.107.223.273.355.462.513.626a17.631 17.631 0 0 1 2.553 3.451c1.016 1.759.138 2.556-1.618 2.724-.24.023-.494-.034-.735-.084a10.27 10.27 0 0 1-4.607-2.281c-.923-.79-1.766-1.681-2.317-2.779-.258-.513-.624-.62-1.122-.654-.615-.043-1.242-.075-1.836-.223a12.186 12.186 0 0 1-2.013-.727 1.248 1.248 0 0 0-.91-.074c-1.753.446-3.517.85-5.342.805a18.396 18.396 0 0 1-1.845-.177c-.405-.051-.796-.208-.966-.599-.153-.349-.418-.38-.716-.402-.79-.058-1.583-.087-2.369-.176a15.103 15.103 0 0 1-1.674-.32c-.272-.064-.555-.228-.516-.541.027-.212.194-.454.371-.588.223-.154.477-.257.743-.302 1.529-.297 3.054-.625 4.595-.845 1.147-.162 2.316-.194 3.476-.254 1.01-.052 2.31-.861 2.72-1.783.42-.95.813-1.912 1.202-2.876.434-1.076.544-2.192.451-3.35-.138-1.75-.214-3.505-.324-5.257-.074-1.184-.16-2.366-.245-3.626-.21.087-.413.154-.6.251-2.416 1.241-4.557.404-5.833-1.263a1.074 1.074 0 0 0-.154-.129c-.167.111-.348.228-.527.348a5.4 5.4 0 0 1-3.23.928c-.578-.013-1.091-.209-1.606-.496-1.65-.925-2.618-2.385-3.288-4.077-.873-2.201-1.351-4.483-1.505-6.857-.135-2.086-.163-4.161.184-6.215.197-1.163.609-2.288.91-3.434.086-.326.19-.669.173-.996-.164-2.997.145-5.927 1.097-8.785.41-1.23.992-2.372 1.664-3.473.115-.238.257-.468.364-.648Zm198.28-33.526c.048.956.098 1.912.142 2.867.01.211 0 .423 0 .635l.161-.008c.33-1.189.286-2.352-.318-3.482-.537-1.023-1.041-2.067-1.626-3.061-.357-.605-1.034-.715-1.649-.548-.505.137-.978.446-1.42.744-.405.271-.521.719-.391 1.188.223.782.39 1.592.728 2.322.623 1.35 1.258 2.684 1.396 4.191 0 .013.042.022.109.056.026-.143.079-.275.068-.402-.08-.857-.165-1.714-.265-2.569-.031-.265-.188-.594.184-.684.371-.089.404.275.469.527.257.988.301 1.998.298 3.013.011.125.036.247.074.367l.158.013c.075-.245.174-.487.218-.737.172-.986.078-1.967-.074-2.946a4.675 4.675 0 0 1-.084-.883c.005-.14.117-.361.229-.397.228-.074.346.107.383.332.212 1.268.425 2.536.238 3.83-.021.149-.017.297-.024.442.212-.169.334-.357.371-.562.075-.411.145-.833.131-1.249-.03-.887-.112-1.773-.182-2.658-.023-.289-.113-.59.28-.764.133.143.263.283.396.423Zm-75.098-40.102c.328.302.664.62 1.01.927.482.425.994.817 1.451 1.267.573.562.609.869.241 1.572a76.018 76.018 0 0 1-1.173 2.146c-1.738 3.07-4.177 5.498-6.99 7.578a2.689 2.689 0 0 1-.851.434c-.898.248-1.783-.468-1.661-1.386a5.256 5.256 0 0 1 .52-1.677c.485-.945 1.08-1.832 1.607-2.755a94.198 94.198 0 0 0 1.822-3.312c.185-.356.233-.781.343-1.175l-.134-.086c-.464.357-.926.715-1.392 1.07-.39.297-.435.281-.798-.061a12.233 12.233 0 0 0-.949-.829c-1.668-1.28-3.347-2.545-5.017-3.823-.966-.736-1.884-1.53-2.877-2.223-1.858-1.294-3.546-2.771-5.131-4.375-.775-.784-1.18-1.76-1.37-2.823-.223-1.25.136-2.398.689-3.5.187-.372.389-.744.598-1.137-.176-.075-.304-.174-.441-.188-1.461-.148-2.869-.51-4.26-.972-.31-.104-.689-.09-1.019-.032-1.217.212-2.429.454-3.637.706-3.15.651-6.316 1.221-9.437 1.995-3.89.966-7.664 2.316-11.403 3.772-5.8 2.259-11.227 5.176-16.238 8.866-.134.098-.252.217-.394.34.075.114.126.197.185.272 2.006 2.546 4.042 5.07 6.014 7.642 2.784 3.633 5.522 7.303 8.281 10.956.567.75 1.142 1.495 1.71 2.244l8.08 10.64c.157.207.344.39.535.605 1.599-1.263 3.25-2.294 4.95-3.269a48.98 48.98 0 0 1 11.048-4.654c3.454-.984 6.924-1.9 10.514-2.212 3.501-.305 7.007-.61 10.517-.089 2.053.305 4.116.563 6.156.94 1.115.205 2.195.595 3.279.939 3.832 1.226 7.263 3.241 10.578 5.468.49.329.912.757 1.366 1.139l.59.494c1.693-1.648 24.457-30.827 24.826-31.813a2.734 2.734 0 0 0-.214-.19c-2.239-1.645-4.575-3.142-7.089-4.32-4.143-1.943-8.33-3.794-12.651-5.313-1.932-.68-3.884-1.331-5.855-1.896-2.378-.68-4.785-1.243-7.174-1.88-.546-.149-.975-.12-1.412.297-.293.28-.707.464-1.096.61-1.018.38-2.037.775-3.084 1.056-3.512.94-7.036 1.833-10.555 2.749-.256.066-.507.155-.853.262 1.455 1.616 2.771 3.226 4.391 4.533 1.438 1.16 2.927 2.256 4.476 3.443l-.622 1.028Zm75.826 62.196c-1.387.422-2.645.787-3.89 1.189-7.039 2.265-14.067 4.567-21.117 6.799-5.257 1.665-10.542 3.244-15.814 4.864-.297.092-.589.212-.872.314.162 1.274.327 2.473.464 3.674.366 3.195.768 6.385 1.067 9.585.244 2.609.405 5.229.52 7.846.164 3.634.334 7.269.352 10.904.026 4.749-.095 9.5-.148 14.25 0 .188.027.376.046.608 1.907 0 3.759.008 5.612 0 6.014-.032 12.028-.069 18.042-.11 3.864-.032 7.721-.093 11.581-.155 2.252-.036 4.504-.097 6.755-.149.189-.005.377-.043.589-.069.066-1.078.165-2.11.189-3.144.094-4.131.231-8.26.05-12.392-.104-2.373-.118-4.75-.228-7.121-.153-3.311-.361-6.619-.538-9.929-.085-1.605-.111-3.215-.24-4.817-.175-2.168-.413-4.331-.641-6.496-.45-4.278-.908-8.556-1.374-12.833-.093-.908-.257-1.804-.405-2.818Zm-168.719-.356c-.168.571.172.696.497.841 2.894 1.288 5.792 2.565 8.677 3.872 4.303 1.95 8.61 3.895 12.886 5.907.925.436 1.734.662 2.717.233.409-.179.624-.365.775-.771.826-2.23 1.622-4.467 2.541-6.655 1.821-4.338 3.987-8.51 6.282-12.617 2.74-4.904 5.978-9.442 9.789-13.568 1.915-2.073 3.847-4.131 6.026-5.936.032-.027.037-.086.065-.157-.043-.067-.09-.153-.148-.229a60005.58 60005.58 0 0 0-10.027-13.174c-1.004-1.319-2.023-2.627-3.027-3.948-2.35-3.093-4.687-6.197-7.044-9.287-1.263-1.653-2.551-3.284-3.833-4.92-.21-.266-.446-.51-.683-.773l-.605.407c-2.585 1.733-4.77 3.938-7.026 6.048a68.629 68.629 0 0 0-3.7 3.754c-4.273 4.676-7.892 9.84-11.228 15.209-.492.792-1.003 1.555-1.03 2.568-.014.509-.358 1.012-.57 1.511-.074.179-.2.338-.318.534.808.817 1.21 1.763.826 2.898-.392 1.158-1.348 1.564-2.487 1.653l-.038.657c-.047.707-.238.959-.913 1.169-.372.115-.752.206-1.19.325.121.127.249.247.382.36.767.586 1.55 1.151 2.307 1.75 1.882 1.486 3.875 2.847 5.492 4.642.927 1.03 1.807 2.101 2.714 3.149.871 1.008 1.42 2.199 1.921 3.413.103.277.158.57.162.866.035.52.033 1.041-.007 1.56-.14 1.412-.402 2.794-1.195 4.013-.633.974-1.486 1.729-2.473 2.313-1.717 1.014-3.588 1.658-5.503 2.184-.33.09-.672.133-1.014.199ZM185.99 89.408c-.156.202-.237.297-.305.397-1.574 2.338-3.156 4.672-4.717 7.02-1.412 2.118-2.781 4.264-4.197 6.379-1.457 2.178-2.967 4.322-4.416 6.506-1.641 2.471-3.236 4.974-4.859 7.457a4397.915 4397.915 0 0 1-7.566 11.534c-.197.298-.24.547-.129.892.535 1.647 1.01 3.313 1.561 4.954 1.688 5.008 2.849 10.138 3.685 15.351.19 1.188.433 2.371.661 3.605 14.022-4.091 27.822-8.645 41.703-13.142a117.705 117.705 0 0 0-3.277-15.747c-.906-.21-.905-.265-1.035-1.032a11.746 11.746 0 0 0-.546-2.144c-.353-.948-.952-1.823-1.184-2.792-.408-1.696-1.064-3.286-1.705-4.893-.52-1.308-.996-2.636-1.09-4.066-.014-.212-.122-.425-.216-.624-.484-1.03-1.004-2.044-1.464-3.085-1.103-2.496-2.408-4.885-3.976-7.114-2.064-2.934-4.205-5.813-6.316-8.713-.169-.237-.368-.45-.612-.743ZM35.427 185.46l1.914.142c.65.05 1.24-.106 1.709-.568a59.642 59.642 0 0 0 2.11-2.185c.21-.229.33-.548.46-.84.601-1.347.567-2.78.314-4.161a11.319 11.319 0 0 1-.048-3.674c.41-2.881.223-5.727-.434-8.549-.769-3.308-1.952-6.488-3.028-9.7-.074-.223-.214-.427-.313-.62-2.621.104-4.861-.792-6.96-2.149-.182-.117-.404-.177-.612-.25-.7-.248-1.421-.446-2.096-.743-.817-.365-1.434-.971-1.709-1.854-.217-.709-.498-1.417-.584-2.145-.211-1.79-.437-3.586-.307-5.401.038-.542.033-1.088.032-1.634 0-.188-.046-.376-.083-.643l-6.914-.23c-.033.26-.064.428-.074.594-.083 1.557-.173 3.113-.24 4.671-.06 1.417-.272 2.8-.742 4.147-.743 2.125-2.213 3.344-4.438 3.645-.414.055-.84.026-1.263.047-.223.01-.446.008-.658.066-.974.278-1.94.584-2.914.856-.36.101-.62.269-.761.627-.2.506-.462.989-.638 1.502a22.436 22.436 0 0 0-1.157 8.768c.03.471-.125.966-.245 1.432-.276 1.075-.68 2.127-.856 3.216-.334 2.057-.307 4.13-.164 6.215a21.375 21.375 0 0 0 1.47 6.561c.48 1.197 1.09 2.33 2.155 3.151 1.799 1.392 3.909 1.239 5.55-.237.11-.1.2-.223.313-.317.306-.255.446-.196.566.176.08.248.166.525.334.71 1.071 1.17 2.37 1.709 3.938 1.189.65-.216 1.252-.578 1.858-.905.321-.173.606-.413.932-.639.569.371 1.128.73 1.677 1.101.99.669 2.063.981 3.237.64 1.174-.341 2.485-.544 2.96-2.031.182.124.352.189.445.312.832 1.058 1.983 1.315 3.24 1.337.595.01 1.111-.173 1.602-.497.37-.243.663-.498.422-1.133Zm186.387-55.614a4.45 4.45 0 0 0-.058.503c.009 2.1.031 4.202.027 6.302 0 .32.067.584.279.81.658.702 1.263 1.474 1.993 2.088 2.93 2.452 6.242 4.258 9.804 5.623.549.211.719.375.576.595-.236.363-.529.119-.79.026-2.006-.727-3.911-1.672-5.748-2.754-2.268-1.337-4.437-2.803-6.141-4.856-.02-.024-.085-.012-.179-.023-.414 1.251-.864 2.501-1.239 3.775-.434 1.471-1.058 2.829-2.155 3.921-.268.252-.43.598-.452.966-.186 2.117-.419 4.231-.574 6.351-.317 4.34-.643 8.68-.873 13.024-.162 3.058-.17 6.124-.248 9.228.253.065.484.149.723.18 1.347.172 2.696.327 4.043.497 4.172.523 8.356.897 12.553 1.12 3.942.215 7.86-.074 11.757-.691.234-.037.46-.128.716-.202-.03-.427-.065-.793-.078-1.16a112.014 112.014 0 0 0-.683-9.024c-.333-2.898-.642-5.801-1.04-8.694-.342-2.497-.786-4.978-1.194-7.469-.113-.688-.269-1.345-1.027-1.665-.259-.11-.467-.364-.669-.58-.926-.993-1.879-1.965-2.756-3.002-2.428-2.869-4.476-5.974-5.715-9.559a5.378 5.378 0 0 0-.24-.544c-1.851.148-3.598.297-5.345.433-.395.03-.792.01-1.189.011-.256 0-.559-.018-.568-.334-.009-.371.324-.371.599-.376.173-.006.347 0 .52-.005 1.264-.054 2.522-.087 3.779-.177.63-.046 1.253-.199 1.936-.312-.118-.35-.201-.606-.291-.86-.749-2.114-1.56-4.209-2.229-6.347-.575-1.837-.989-3.724-1.477-5.588-.047-.18-.115-.354-.171-.52a1.562 1.562 0 0 0-.212.043c-2.229.859-4.31.622-6.222-.86-.32-.248-.676-.451-1.04-.692l1.22 9.935c.187.099.413.273.669.344 1.045.291 2.091.589 3.153.808.648.133 1.325.114 1.987.19.115.014.215.159.323.243-.101.118-.181.287-.309.341-.148.064-.34.034-.513.034-1.553.003-3.041-.339-4.498-.844l-.734-.253Zm-169.117 70.9c.058-.092.099-.13.107-.175.022-.121.036-.244.041-.367.063-2.055.223-4.098.725-6.102.024-.095.024-.197.045-.292.332-1.521.638-3.047 1.015-4.557.112-.445.192-.845.065-1.296-.669-2.365-1.048-4.782-1.219-7.231-.133-1.905-.06-3.773 1.182-5.375.212-.269.34-.595.365-.937.179-1.853.778-3.518 2.233-4.783a.719.719 0 0 0 .202-.441 87.88 87.88 0 0 0 .242-3.03c.078-1.33.149-2.649-.165-3.982-.261-1.098-.338-2.245-.446-3.376-.137-1.394.289-2.542 1.59-3.244a1.127 1.127 0 0 0 .577-.727c.272-.944.867-1.651 1.67-2.199.192-.13.367-.283.566-.438-1.369-.873-21.615-10.009-22.514-10.159.026.181.041.348.075.512a34.12 34.12 0 0 1 .61 5.675c.024 1.061.128 2.12.187 3.181.025.431-.13.783-.537.974-.465.217-.94.415-1.448.639.078.199.154.403.237.605.43 1.053.92 2.086 1.28 3.162.791 2.368 1.56 4.745 2.26 7.141.976 3.333 1.407 6.724.867 10.194-.188 1.207-.125 2.407.05 3.619.174 1.197.224 2.416-.063 3.615-.41 1.696-1.503 2.936-2.781 4.02-.732.62-1.605 1.002-2.605.839-.496-.081-.839.09-1.18.426-.908.892-2.007 1.229-3.27 1.035-.26-.039-.52-.055-.774-.081-.504 1.915-1.205 11.848-.924 13.152l21.735.003Zm75.665-23.466c.914-1.528 1.817-2.943 2.625-4.412 2.146-3.899 4.573-7.628 6.924-11.401 1.594-2.559 3.274-5.065 4.93-7.584 1.114-1.695 2.274-3.36 3.377-5.06 1.534-2.365 3.03-4.756 4.549-7.126.881-1.374 1.784-2.736 2.662-4.109 1.616-2.516 3.217-5.043 4.841-7.554 1.168-1.806 2.368-3.592 3.545-5.392a2565.39 2565.39 0 0 0 4.978-7.646c1.328-2.054 2.617-4.135 3.965-6.177 1.348-2.041 2.764-4.042 4.126-6.077 1.746-2.609 3.457-5.24 5.202-7.851 1.868-2.796 3.776-5.566 5.624-8.376.772-1.173 1.509-2.382 1.921-3.746.113-.371.28-.805-.137-1.083-.371-.25-.735.006-1.007.238-.526.446-1.058.905-1.493 1.436a106.393 106.393 0 0 0-3.338 4.262c-1.467 1.99-2.865 4.032-4.315 6.035-1.813 2.504-3.701 4.955-5.464 7.492-2.472 3.556-5.053 7.025-7.667 10.477-2.15 2.838-4.239 5.721-6.36 8.583a3526.82 3526.82 0 0 1-5.885 7.917c-1.467 1.959-2.951 3.905-4.432 5.854-1.391 1.831-2.8 3.649-4.178 5.489-1.305 1.741-2.574 3.509-3.87 5.256a3735.887 3735.887 0 0 1-8.197 11.009 207.442 207.442 0 0 1-4.222 5.451c-1.983 2.464-4.012 4.89-6.019 7.34-.277.339-.509.717-.829 1.173.123.064.242.136.355.217.379.317.769.624 1.12.971.428.424.425.645.09 1.161-.293.452-.58.907-.883 1.383.148.123.26.219.377.305.726.527.73.528.215 1.275a431.523 431.523 0 0 1-2.166 3.103c-.12.17-.281.312-.436.482-1.169-.817-2.382-.951-3.67-.649-1.13.264-2.212.679-2.98 1.56-1.512 1.725-2.262 3.689-1.611 6.028.163.588.391 1.109.762 1.585.525.673 1.179 1.195 1.883 1.662 1.263.84 2.6 1.217 4.147.908 2.102-.421 3.503-1.709 4.428-3.509.664-1.292.636-2.725.267-4.137a4.131 4.131 0 0 0-1.319-2.102c-.43-.379-.457-.434-.134-.902a98.473 98.473 0 0 1 2.145-3.028c.556-.743.481-.914 1.432-.216.104.063.212.119.323.167.281-.379.566-.743.83-1.122.514-.737.738-.803 1.523-.383.452.24.894.506 1.446.823Zm-40.534-3.253c1.04-.595 1.54-1.689 1.122-2.545-.302-.618-.695-1.196-1.084-1.766-.362-.53-.898-.752-1.54-.72-.222.011-.445-.009-.668.017-1.25.156-2.5.318-3.749.485-1.493.202-2.98.529-4.48.601-3.087.149-6.181.162-9.273.229-.124 0-.249-.01-.371-.03-.607-.085-1.212-.223-1.822-.252-2.175-.104-4.343-.266-6.482-.696a1.112 1.112 0 0 0-.837.129c-1.515.856-2.456 2.142-2.773 3.839-.262 1.408-.423 2.827-.188 4.271.563 3.464 1.017 6.947 1.652 10.397.556 3.012 1.278 5.994 1.967 8.98.481 2.08 1.152 4.087 2.401 5.866 1.227 1.748 3.037 2.321 5.029 2.691.04-.223.079-.362.093-.505.197-2.048.86-3.954 1.783-5.776.56-1.107 1.14-2.229 2.107-3.026 1.067-.88 1.6-1.987 1.924-3.3.594-2.399 1.233-4.794 2.229-7.066.52-1.188.179-2.25-.177-3.363-.267 0-.49-.026-.704.004-1.656.235-3.31.119-4.958-.055-1.004-.106-2-.316-2.987-.535-.344-.074-.652-.153-1.007-.055a4.775 4.775 0 0 1-1.095.167c-.113.005-.27-.168-.333-.297-.023-.049.14-.242.253-.293.176-.08.38-.1.575-.136 1.287-.238 2.582-.441 3.86-.718 2.026-.44 4.052-.885 6.056-1.408 3.205-.836 6.39-1.749 9.585-2.607 1.675-.445 2.707-1.571 3.355-3.102.416-.979.245-1.897-.458-2.692-.26-.292-.603-.51-.876-.793-.115-.121-.242-.36-.196-.479.109-.283.375-.204.555-.06.366.293.738.589 1.05.936.658.731 1.023 1.57.749 2.583-.087.333-.176.666-.287 1.08Zm7.312 25.963c-.066.125-.142.244-.195.372-.446 1.1-.87 2.208-1.331 3.302-.132.312-.2.903-.642.737-.505-.189-.08-.635.034-.945.585-1.601 1.204-3.19 1.776-4.795a2.12 2.12 0 0 0 .084-1.014c-.397-2.44-.834-4.873-1.235-7.312-.446-2.707-.86-5.42-1.303-8.128-.215-1.316-.342-2.663-.725-3.93-.397-1.312-.747-2.736-2.312-3.321-.418-.156-.743-.458-1.215-.213-.38.199-.846.166-1.147.599-.629.903-1.536 1.455-2.585 1.77-1.326.399-2.638.863-3.988 1.157-1.153.249-1.88.907-2.413 1.882-.13.238-.283.468-.386.718-.576 1.393-1.136 2.792-1.709 4.186-1.47 3.579-2.386 7.331-3.422 11.045-.285 1.023-.54 2.056-.813 3.083-.045.166-.084.351-.185.478-.07.088-.254.136-.372.117-.074-.012-.178-.18-.178-.278 0-.167.063-.336.108-.502.188-.692.384-1.383.562-2.077.044-.17.034-.353.055-.624-.385.372-.732.628-.973.959-1.752 2.405-2.888 5.056-3.143 8.05-.039.449.132.77.52.974.237.133.487.241.747.323 2.73.774 5.498.958 8.3.484 1.383-.235 2.685-.702 3.75-1.659.848-.761 1.366-1.759 1.766-2.798.966-2.514 1.884-5.049 2.835-7.57.133-.351.1-.661-.01-1.003-.436-1.337-.94-2.666-1.252-4.035a9.357 9.357 0 0 0-1.302-3.042c-.297-.456-.567-.928-.849-1.394-.051-.084-.142-.17-.142-.255 0-.149.054-.303.086-.454.148.045.343.049.445.149.154.148.245.371.364.555.185.293.332.616.562.824v-4.228c0-.173-.023-.357.027-.517.036-.116.17-.276.267-.281.097-.005.248.137.297.25.056.126.03.291.03.439 0 .668-.021 1.337 0 2.006.055 1.56.194 3.099.552 4.629.541 2.317 1.388 4.537 2.05 6.813.52 1.789 1.396 3.372 2.401 4.909.144.223.505.428.187.758-.19.199-.378.099-.722-.399-.318-.46-.618-.932-.932-1.411-.06.063-.087.078-.087.092.196 2.397.555 4.759 1.382 7.034.135.371.313.525.706.458.925-.161 1.857-.287 2.78-.46 1.284-.241 2.566-.499 3.89-.987-.283-1.849-.516-3.69-.995-5.52Zm124.505-23.276c-.595-.068-1.132-.116-1.668-.197a36.408 36.408 0 0 1-1.678-.309c-.862-.172-.932-.25-.916-1.118.047-2.522.09-5.044.159-7.566.042-1.533.104-3.065.203-4.595.092-1.43.266-2.855.371-4.284.187-2.589.342-5.18.52-7.769.066-.931.168-1.857.257-2.834-.477-.114-.905-.214-1.333-.321-.599-.148-1.203-.281-1.793-.459-.76-.228-.782-.244-.759-1.019.046-1.582.054-3.169.203-4.743.36-3.813.783-7.621 1.204-11.429a1.97 1.97 0 0 0-.188-1.135c-.526-1.096-.863-2.254-1.096-3.451-.42-2.155-.465-4.323-.425-6.501.006-.341 0-.683 0-1.035-1.408-.466-2.497-1.326-3.604-2.16a1.987 1.987 0 0 0-.707-.362c-.81-.193-1.634-.343-2.458-.512-.01.162-.01.326 0 .488.087.817.524 1.498.926 2.165a7.363 7.363 0 0 1 1.064 3.656c.029.977-.164 1.892-.983 2.522-.521.398-.942.957-1.664 1.052-.149.02-.285.177-.402.255.391 1.626.776 3.21 1.152 4.795 1.022 4.31 1.761 8.674 2.348 13.062.361 2.695.659 5.4.956 8.103.26 2.359.489 4.723.715 7.086.176 1.845.34 3.692.48 5.541.081 1.084.095 2.174.158 3.26.165 2.815.371 5.628.502 8.444.136 2.916.217 5.834.297 8.752.158 5.616.142 11.23-.205 16.84-.041.657-.006 1.319-.006 2.048.801-.064 1.511-.134 2.223-.175.966-.054 1.928-.089 2.892-.127.358-.014.712-.063.863-.435.135-.312.224-.642.264-.98.238-2.534.463-5.07.675-7.607.223-2.734.39-5.474.652-8.204.21-2.188.546-4.365.783-6.551.082-.7.018-1.417.018-2.191Zm-62.911-54.396.207.046c.042-.09.09-.177.144-.26 1.942-2.622 3.887-5.243 5.834-7.864 1.975-2.66 3.961-5.312 5.924-7.981 1.069-1.454 2.098-2.938 3.15-4.406.966-1.347 1.931-2.695 2.906-4.032.931-1.277 1.889-2.536 2.823-3.813 1.647-2.258 3.287-4.52 4.92-6.787.185-.255.349-.52.539-.81-2.876-2.797-5.923-5.297-9.148-7.64-8.312 10.695-16.351 21.492-24.907 31.79 1.49 1.877 3.008 3.641 4.356 5.529 1.363 1.913 2.362 4.05 3.252 6.23v-.002Zm-126.637-.355c.196.309.343.535.485.764.592.926.867 2.018.786 3.114-.098 1.384-.488 2.697-1.283 3.828-.908 1.292-1.913 2.52-2.909 3.749-.28.345-.457.679-.47 1.126-.033 1.311-.114 2.621-.13 3.931-.034 2.793-.267 5.584.022 8.379.122 1.175.354 2.287.924 3.331.487.892 1.156 1.526 2.145 1.815 1.894.553 3.825.828 5.791.641a17.31 17.31 0 0 0 2.898-.561c.694-.19.807-.446.788-1.153-.03-1.088-.047-2.179-.133-3.263-.113-1.429-.215-2.866-.446-4.277-.63-3.832-1.347-7.65-1.987-11.479-.372-2.243-.669-4.5-.999-6.751-.02-.148-.062-.306-.021-.438a.52.52 0 0 1 .27-.285c.052-.022.23.11.256.2.061.238.104.482.127.727.213 1.569.43 3.136.63 4.706.069.519.316.997.701 1.351.944.919 2.012 1.598 3.344 1.783.122.017.264.022.356.088.11.078.186.193.216.323.009.06-.152.188-.253.211-.139.029-.298-.006-.44-.024-1.089-.135-2.024-.621-2.891-1.263-.17-.127-.347-.242-.67-.463.384 2.756.997 5.294 1.4 7.891.207-.017.328-.02.446-.04 1.947-.339 3.761-1.073 5.498-1.97.777-.4 1.452-1.021 2.116-1.607a3.917 3.917 0 0 0 1.157-1.875c.21-.734.438-1.486.492-2.239.064-.878.116-1.821-.134-2.643-.288-.949-.81-1.874-1.411-2.675-.995-1.321-2.095-2.57-3.227-3.779-.757-.807-1.617-1.528-2.483-2.224-1.926-1.551-3.888-3.061-5.83-4.594-.214-.169-.409-.202-.68-.148-.994.206-1.913-.013-2.757-.57-.09-.06-.188-.107-.38-.215.858 2.506.806 4.74-1.314 6.58v-.002ZM118.97 65.7l.161-.13c.234.175.483.334.698.529.478.43.957.862 1.401 1.327.289.304.558.401.976.261 1.219-.407 2.452-.762 3.679-1.153 2.303-.738 4.592-1.544 6.917-2.21 1.774-.506 3.462-1.136 5.017-2.147 1.985-1.289 2.757-3.217 2.803-5.432.039-1.867-.609-3.635-1.263-5.387-.715.088-1.397.216-2.081.246-1.868.08-3.671.47-5.453 1.014-2.187.668-4.178 1.792-6.28 2.656-.304.125-.371.362-.446.628-.174.643-.28 1.318-.549 1.919a12.131 12.131 0 0 1-4.098 4.978 19.952 19.952 0 0 0-3.015 2.624c-.606.644-.997.668-1.698.133-.682.232-.892.206-1.189-.17-.427-.541-1.055-.825-1.515-1.31-.789.594-1.101 1.424-1.509 2.18-.954 1.764-.534 3.431.403 5.052.069.102.153.195.248.274.7.663 1.363 1.374 2.112 1.977a337.65 337.65 0 0 0 5.611 4.384c1.685 1.298 3.388 2.572 5.078 3.863.39.298.762.622 1.163.95 1.987-1.37 3.739-2.927 5.275-4.847-.701-.553-1.356-1.075-2.017-1.59-.703-.545-1.467-1.026-2.106-1.637-1.233-1.178-2.378-2.444-3.594-3.641-.708-.698-1.254-1.56-2.118-2.1-.455-.942-1.376-1.47-2-2.26-.239-.3-.409-.651-.611-.98V65.7Zm125.295 70.553c.192-.069.314-.098.423-.153 1.948-.966 3.906-1.916 5.835-2.92.63-.327 1.209-.769 1.765-1.217.508-.411.805-.987 1.005-1.612.16-.497.013-.923-.116-1.412-.352-1.344-1.137-2.378-2.155-3.212a55.647 55.647 0 0 0-4.581-3.403c-1.506-.99-3.132-1.794-4.691-2.704-2.263-1.322-4.5-2.685-6.534-4.356-.585-.481-1.24-.878-1.947-1.371-.892 2.627-2.149 4.885-4.612 6.316.268 1.169.52 2.325.796 3.475.743 3.111 1.892 6.086 3.028 9.065.634 1.66 1.189 3.363 1.972 4.953 1.202 2.447 2.758 4.681 4.548 6.75.923 1.065 1.799 2.172 2.891 3.078.257.214.482.494.924.466 0-.189.026-.359-.004-.52-.255-1.333-.489-2.671-.789-3.994-.743-3.262-1.749-6.439-3.138-9.487-.491-1.079-1.053-2.126-1.553-3.201-.164-.352-.32-.743-.338-1.122a35.351 35.351 0 0 0-1.165-7.377c-.353-1.337-.76-2.661-1.138-3.992-.083-.297-.272-.616.194-.875.685.498.467 1.445.99 2.111.064-.36.082-.661.18-.934.053-.148.242-.339.371-.342.242-.006.286.223.259.442-.034.27-.019.56-.117.805-.458 1.149-.27 2.266.101 3.385.086.233.144.474.175.72.051.576.4.906.843 1.223 2.331 1.671 4.904 2.859 7.553 3.921.364.148.599.066.845-.206.445-.495.891-.999 1.39-1.442.363-.323.8-.569 1.222-.817.282-.167.52-.103.635.274-.053.067-.098.179-.174.211-1.144.479-1.853 1.457-2.67 2.312-.168.175-.305.386-.49.538-1.403 1.145-2.939 2.093-4.506 2.993-.336.194-.652.422-1.046.679l3.033 3.39.138-.091c-.08-.163-.149-.332-.244-.489-.301-.511-.62-1.011-.914-1.527-.104-.182-.121-.421.124-.491.118-.034.314.078.425.178.123.112.188.287.281.433l.976 1.551v-.002ZM125.39 54.626c1.369-.62 2.577-1.181 3.798-1.716 2.395-1.05 4.879-1.755 7.504-1.919a19.407 19.407 0 0 0 1.986-.24c.5-.084.599-.223.481-.707-.129-.525-.276-1.06-.513-1.54-.817-1.665-1.694-3.301-2.517-4.962-.459-.928-.932-1.858-1.269-2.834-.419-1.212-.735-2.463-1.04-3.715-.855-3.505-1.714-7.009-2.856-10.437a10.22 10.22 0 0 0-1.719-3.175c-.695-.874-1.571-1.435-2.671-1.594a9.452 9.452 0 0 0-1.848-.102c-1.857.102-2.846 1.103-3.112 2.786-.246 1.544-.342 3.094-.372 4.65-.053 2.919-.062 5.839-.098 8.758-.011.892-.023.892.837 1.046.049.008.096.022.148.028 2.526.29 5.036.154 7.534-.281.16-.028.308-.128.456-.191.174-1.213.276-2.383.223-3.578-.107-2.321-.137-4.646-.199-6.97 0-.097-.037-.218.006-.29.069-.114.186-.264.293-.273.107-.008.254.127.313.236.065.122.059.287.067.434.049.864.113 1.727.135 2.592.036 1.412.07 2.82.056 4.23-.011 1.11-.083 2.221-.153 3.33-.034.54-.237.96-.801 1.215-.668.307-1.293.723-1.917 1.123a.886.886 0 0 0-.372.497 98.042 98.042 0 0 0-.619 3.355c-.454 2.706-.891 5.414-1.346 8.12-.115.656-.256 1.304-.415 2.124Zm79.747 60.166c-.058-.432-.099-.793-.157-1.152-.262-1.644-.614-3.258-1.56-4.675a.79.79 0 0 1-.155-.333c-.01-.103.037-.257.114-.31a.343.343 0 0 1 .327 0c.157.12.287.272.381.446.288.573.549 1.159.818 1.74l.223.493c.158-.429.185-.838.229-1.246.024-.223.149-.407.382-.337.122.036.264.232.274.365.016.296-.003.593-.056.885-.097.61-.213 1.217-.328 1.824-.195 1.027 0 1.454.982 1.848.478.2.984.326 1.501.371.607.04 1.07.284 1.536.636.709.536 1.45 1.029 2.196 1.514.23.148.52.213.86.349 0-.396-.007-.669 0-.936.017-.494.037-.989.069-1.486.014-.223.052-.484.347-.479.296.005.334.243.329.484-.019.817-.027 1.634-.058 2.447-.089 2.399-.148 4.793.227 7.179.235 1.498.533 2.977 1.248 4.324.266.5.541.93.209 1.493-.058.096-.033.242-.047.365-.257 2.159-.565 4.314-.756 6.479-.241 2.732-.388 5.471-.568 8.208-.015.234.026.472.046.809 1.505-.694 2.936-1.306 4.063-2.424.902-.895 1.564-1.949 2.133-3.094.778-1.56 1.21-3.184 1.217-4.914a94.459 94.459 0 0 0-.084-4.82 87.236 87.236 0 0 0-1.394-11.993 1.668 1.668 0 0 0-.471-.895c-1.578-1.622-2.928-3.414-3.938-5.449-.505-1.019-1.018-2.034-1.494-3.065-.189-.409-.462-.582-.897-.646-1.81-.267-3.615-.558-5.419-.853-1.659-.27-3.308-.603-4.972-.817-.796-.103-1.628-.089-2.304.541-.94.877-1.108 1.916-.804 3.121.402 1.589 1.02 3.097 1.659 4.597.061.142.174.263.266.399 1.411-1.228 2.127-1.42 3.826-.993ZM103.545 37.164c3.269.054 6.041-1.318 8.753-2.494 0-1.048-.052-1.964.012-2.871.088-1.226.356-2.439.129-3.679-.044-.24-.121-.61.228-.702.433-.115.315.38.509.649.114-.252.163-.446.281-.589.09-.108.269-.142.408-.21.059.148.172.293.165.435-.009.19-.114.371-.172.564-.27.872-.629 1.73-.787 2.622-.392 2.209-.048 4.335.996 6.328.405.792.852 1.562 1.338 2.307.446.669.641 1.291.241 2.061-.158.304-.239.743-.149 1.063.379 1.314.892 2.574 1.962 3.51.074.064.17.13.196.214.03.103.039.258-.018.33a.36.36 0 0 1-.317.104.92.92 0 0 1-.428-.278c-.458-.609-.891-1.234-1.333-1.858-.104-.148-.193-.304-.324-.513a3.994 3.994 0 0 0-.561 1.986c-.08 3.27 1.151 6.018 3.327 8.396.269.29.56.558.871.803.399.32.865.42 1.421.346.026-.272.068-.513.069-.754.006-1.21-.007-2.421 0-3.63.019-2.45.044-4.898.075-7.346.012-.966 0-1.932.074-2.893.074-.96-.105-1.898-.074-2.853.087-2.99.113-5.984.161-8.976.004-.26 0-.52 0-.876-.541.288-.966.534-1.402.743-1.916.904-3.465-.388-3.958-1.634a3.414 3.414 0 0 1-.028-2.534c.126-.337.223-.684.381-1.16-.376.016-.645-.027-.876.05-.773.253-1.56.487-2.29.843-1.349.66-2.764.88-4.242.892-1.041.008-2.076.062-3.112.112-.208.01-.412.09-.64.143v.505c-.054 2.2-.083 4.4-.174 6.599-.058 1.427-.207 2.85-.712 4.245Zm24.188 167.828c.505-1.777 1.129-3.466.966-5.313-.247-.061-.411-.116-.58-.14-2.888-.398-5.776-.811-8.668-1.182-2.498-.321-5.012-.53-7.505-.906-1.928-.291-3.828-.771-5.743-1.153a1226.76 1226.76 0 0 0-7.639-1.505c-.544-.106-1.091-.196-1.717-.308.232 3.011 1.04 5.782 1.733 8.632.919.12 1.836.181 2.725.372 1.957.416 3.907.87 5.849 1.363 1.181.302 2.358.511 3.584.499 3.762-.038 7.525-.013 11.286-.075 1.879-.027 3.753-.179 5.709-.284ZM13.7 115.991c-.183.556-.359 1.096-.538 1.634-.787 2.353-1.296 4.774-1.718 7.211-.304 1.765-.18 3.556-.068 5.334.05.798.013 1.567-.212 2.345-.235.805-.38 1.634-.561 2.458-.58 2.608-1.12 5.221-1.348 7.893-.222 2.61-.511 5.214-.8 7.818-.052.46.09.772.437 1.015.257.193.533.36.823.498a6.505 6.505 0 0 0 4.137.405c1.18-.263 2.155-.839 2.797-1.909a7.936 7.936 0 0 0 1.148-3.573c.205-2.952.335-5.91.474-8.866.04-.864-.018-1.733.014-2.601.025-.653.06-1.281-.501-1.764-.105-.09-.149-.253-.213-.388-.54-1.168-1.093-2.329-1.61-3.507a13.181 13.181 0 0 1-1.058-4.076c-.127-1.337.053-2.565.932-3.63a1.3 1.3 0 0 0 .128-.223c-.318-.974-.673-1.899-.92-2.853-.31-1.208-.124-2.358.65-3.377.064-.084.094-.193.17-.36l-2.163.516Zm59.081 53.571c.892 0 1.732.037 2.565-.009a60.791 60.791 0 0 0 3.244-.286c.211-.033.408-.128.567-.272a41.278 41.278 0 0 0 7.249-8.587c1.093-1.722 1.887-3.585 2.664-5.456 1.252-3.013 2.41-6.062 3.226-9.229.054-.208.075-.424.129-.728l-3.696-1.155c-.693 1.698-1.346 3.296-1.997 4.895-.97 2.383-2.015 4.722-3.541 6.822a29.207 29.207 0 0 1-3.706 4.235c-1.729 1.613-3.71 2.877-5.806 3.956-.531.274-.827.588-.926 1.199-.12.751-.645 1.392-1.68 1.33a19.422 19.422 0 0 0-1.853-.034 5.82 5.82 0 0 0-1.383.19c-.416.119-.604.712-.32 1.031.435.489.627 1.062.743 1.67.075.393.292.541.663.546.52.006 1.04.032 1.56.023.506-.01 1.012-.053 1.573-.085-.064-.307-.104-.52-.149-.732-.045-.212-.121-.429-.16-.647-.038-.218-.061-.498.228-.529.118-.012.292.202.382.348.09.147.1.329.149.495l.275 1.009Zm41.864-119.009c-.551.197-1.09.372-1.614.582-2.592 1.035-5.201 2.032-7.765 3.137-1.972.849-3.918 1.783-5.64 3.097-1.07.818-2.055 1.739-2.494 3.057-.433 1.302-.398 2.667-.416 4.065.232-.042.4-.067.565-.103 1.977-.436 3.938-.966 5.935-1.29 3.288-.538 6.597-.952 9.9-1.396.372-.05.633-.14.856-.465a4.763 4.763 0 0 1 1.709-1.51c.409-.222.812-.451 1.209-.672a4.399 4.399 0 0 1 0-.562c.09-.65-.148-1.138-.655-1.547a4.136 4.136 0 0 1-.739-.825c-.074-.104-.008-.308-.006-.467.155.014.329-.01.46.053.13.064.192.223.297.322.794.769 1.591 1.534 2.366 2.279 1.227-.549 1.608-.561 1.47-1.784-.496-.183-1.057-.258-1.442-.56-.986-.771-1.999-1.545-2.601-2.694-.456-.873-.9-1.752-1.395-2.717ZM229.27 177.632l-5.315 24.73c3.344-.106 6.634.183 9.901.463l-1.356-24.978-3.23-.215ZM20.481 114.576c-.382.376-.615.786-.632 1.396-.045 1.753-.12 3.511-.297 5.256a79.122 79.122 0 0 0-.4 7.253c-.008 1.235-.08 2.47-.118 3.705a776.48 776.48 0 0 0-.133 4.817c-.006.261.032.52.055.853 2.364.043 4.647.256 7.008.04.054-.493.135-.953.148-1.412.032-1.085.012-2.171.049-3.256.05-1.507.111-3.014.208-4.518.202-3.108.42-6.214.653-9.319.094-1.256.205-2.514.387-3.759.094-.647-.017-1.155-.508-1.625-.205.185-.4.371-.603.543-.927.789-2.013 1.101-3.22 1.125-1.01.02-1.829-.331-2.495-1.075-.007-.015-.038-.012-.1-.024h-.002Zm207.69 64.533-7.728-1.418a2.52 2.52 0 0 0-.06.297c-.062.615-.099 1.232-.18 1.844-.148 1.152-.371 2.296-.481 3.452-.239 2.559-.421 5.127-.635 7.685-.283 3.375-.575 6.749-.858 10.123-.022.262 0 .527 0 .843a63.86 63.86 0 0 0 5.056.372c1.551-7.81 3.549-15.462 4.888-23.198h-.002Zm5.078.687c.51 7.752.768 15.501 1.342 23.236.164.039.257.084.35.08 1.283-.054 2.567-.119 3.851-.172.454-.018.472-.331.508-.668.23-2.188.465-4.376.706-6.562.162-1.499.332-2.997.482-4.498.243-2.435.478-4.871.705-7.307.08-.829.149-1.66.213-2.442l-8.157-1.667Zm-18.464-73.118c-.803.565-.97 1.014-.718 1.766.056.164.123.323.201.478.704 1.416 1.367 2.854 2.127 4.24.883 1.611 1.981 3.084 3.343 4.318.802.725 1.709 1.338 2.585 1.974 2.297 1.683 5.023.995 6.888-.415 1.844-1.394 2.824-3.396 3.473-5.572.112-.376.103-.749 0-1.251-.223.305-.357.507-.511.69-.542.64-1.035 1.337-1.65 1.897-1.18 1.078-2.565 1.77-4.2 1.269-1.973-.603-3.824-1.486-5.384-2.886-.212-.189-.57-.415-.322-.715.324-.391.567.047.775.235 1.408 1.269 3.102 2.007 4.845 2.663.163.058.331.098.503.121 1.368.212 2.456-.361 3.428-1.24.892-.804 1.538-1.79 2.155-2.786-.354-.736-.804-.847-1.469-.459-.98.571-1.985 1.101-2.983 1.641-.149.081-.322.164-.486.169-.143 0-.289-.103-.433-.16.074-.14.118-.313.23-.409.124-.109.316-.135.467-.218.971-.537 1.931-1.089 2.911-1.618.371-.199.46-.476.371-.858-.064-.279-.111-.561-.177-.899-.217.105-.351.158-.474.23-.937.553-1.889 1.082-2.799 1.677-.376.245-.751.335-1.173.371-2.121.167-4.14-.245-6.066-1.11-1.872-.841-3.427-2.063-4.433-3.898-.148-.273-.289-.551-.433-.827l-.141.042c.069.344.087.708.216 1.028.414 1.027.809 2.07 1.324 3.046a28.59 28.59 0 0 0 1.839 2.957c1.318 1.89 3.052 3.359 4.915 4.686.223.158.454.308.64.501.07.075.063.279.013.388-.033.074-.211.115-.316.103-.105-.013-.223-.098-.324-.167-2.229-1.55-4.262-3.294-5.796-5.572-.985-1.464-1.744-3.047-2.513-4.622-.122-.261-.277-.508-.445-.808h-.003ZM.654 134.573c0 .408-.026.797.004 1.182.164 2.132.669 4.19 1.349 6.211.084.252.173.541.132.792-.273 1.624-.027 3.206.385 4.766.223.86.513 1.702.866 2.518.446 1.006.905 1.171 1.883.712.622-.292 1.193-.694 1.783-1.054.777-.475 1.15-1.17 1.204-2.081.074-1.257.177-2.512.309-3.767.188-1.768.344-3.545.644-5.294.33-1.923.809-3.819 1.219-5.727.043-.203.062-.412.105-.702-.408.061-.717.134-1.029.149-1.864.089-3.418.861-4.793 2.085-.346.309-.766.54-1.165.785-.424.261-.884.322-1.35.124-.496-.212-.982-.443-1.546-.699Zm167.396 69.764 14.183-.081c4.726-.026 9.453-.061 14.18-.074 4.726-.013 9.436 0 14.139 0 .194-.907.235-2.457.075-3.026h-.496c-3.612.081-7.224.175-10.836.239-2.92.051-5.84.074-8.76.098-4.455.036-8.908.074-13.363.088-2.722.007-5.443-.043-8.165-.057-.309 0-.619.065-.96.103l.003 2.71ZM114.16 62.616c.115-.149.237-.286.342-.437.655-.94 1.525-1.611 2.569-2.06.24-.104.549-.298.713.054.177.378-.191.43-.43.53-1.239.521-2.138 1.407-2.756 2.587-.152.29-.32.59-.168 1.05.128-.2.207-.316.279-.435.676-1.123 1.588-2.014 2.681-2.726.161-.113.339-.202.526-.263a.346.346 0 0 1 .305.127.357.357 0 0 1-.011.331c-.104.13-.26.223-.404.317-.98.649-1.836 1.425-2.452 2.439-.153.255-.371.516-.153.883.477-.208.792-.52 1.101-.891.555-.66 1.169-1.27 1.774-1.886a1.59 1.59 0 0 1 .556-.357c.107-.04.319.015.383.101.057.075-.004.266-.057.386-.035.08-.149.123-.223.19-.504.474-1.029.928-1.504 1.43-.324.343-.642.715-.705 1.24.209-.109.401-.25.568-.416.728-.669 1.385-1.442 2.199-1.981 1.451-.962 2.595-2.199 3.662-3.538.58-.726 1.018-1.525 1.215-2.433.466-2.15.96-4.294 1.35-6.458.613-3.404 1.15-6.822 1.715-10.235a2.249 2.249 0 0 0 0-.385l-6.012-.162c-.014.136-.041.305-.045.474-.041 2.003-.087 4.005-.116 6.007-.016 1.163.023 2.327-.01 3.488-.074 2.54.189 5.09-.268 7.625-.102.563-.298.911-.771 1.14-1.025.491-2.068.945-3.076 1.468a11.69 11.69 0 0 0-1.872 1.178c-.487.39-.888.902-.905 1.618Zm115.437 45.888c-.197-.568-.406-1.065-.545-1.582-.705-2.62-.851-5.316-1.036-8.004-.093-1.37-.324-2.694-.929-3.942-.583-1.204-1.549-1.9-2.829-2.185-.524-.116-.683.016-.738.534-.01.098 0 .197-.009.297-.132 1.83-.379 3.629-1.067 5.359-.676 1.7-1.718 3.169-2.744 4.651-.362.52-.822.982-1.263 1.443-.462.477-.958.92-1.464 1.403.914 1.258 2.138 1.995 3.467 2.683.297-.623.576-1.145.793-1.693.998-2.516 1.337-5.157 1.453-7.838.013-.302-.129-.76.338-.748.431.013.352.479.334.778a62.2 62.2 0 0 1-.231 2.659c-.223 2.052-.674 4.047-1.497 5.944-.164.378-.352.743-.55 1.161 1.258.521 2.512.748 3.793.869a4.544 4.544 0 0 0 3.097-.788c.526-.357 1.09-.67 1.627-1.001ZM95.192 3.91c-.096.058-.13.068-.131.081a1.667 1.667 0 0 0-.027.29c.031.953.342 1.84.64 2.733.149.441.293.892.357 1.352.124.905.163 1.821.286 2.726.321 2.35.654 4.698 1.012 7.043.206 1.342.42 2.686.723 4.012.287 1.25.67 2.481 1.057 3.706.533 1.692 1.247 3.284 2.707 4.417.535.415 1.136.659 1.843.833.052-1.092.138-2.128.139-3.163 0-.818.117-1.631-.35-2.439-.446-.776-.579-1.728-.981-2.537-.694-1.394-1.024-2.878-1.3-4.388-.173-.947-.335-1.9-.559-2.835a3.906 3.906 0 0 1 .067-2.19c.185-.563.384-1.122.581-1.68.426-1.212.858-2.42 1.279-3.634.103-.297.163-.614-.081-.985-.733.818-.877 1.838-1.227 2.762-.412.117-.924-.17-1.166.34-.187.374-.354.758-.501 1.15-.09.253-.099.534-.149.8-.041.211-.153.412-.388.333-.115-.039-.245-.26-.24-.395.023-.808.301-1.546.708-2.237.28-.475.722-.717 1.263-.735-.12-1.43-.228-2.78-.35-4.131a82.4 82.4 0 0 0-.272-2.577c-.017-.149-.105-.282-.195-.505-.462 1.337-.302 2.6-.275 3.852.006.297.14.743-.326.77-.372.02-.367-.386-.428-.673-.246-1.16-.493-2.322-.761-3.477-.056-.24-.048-.54-.446-.758-.02.723-.102 1.363-.036 1.988.088.833.291 1.653.446 2.478.05.258.216.595-.154.693-.37.098-.398-.276-.488-.52a1.322 1.322 0 0 1-.036-.144c-.297-1.279-.55-2.563-.44-3.889.008-.112 0-.222 0-.337-.158.074-.25.17-.256.272-.042.663-.133 1.333-.075 1.99.069.757.274 1.502.424 2.253.047.236.197.529-.121.642-.372.132-.437-.222-.538-.463-.194-.455-.356-.922-.554-1.375-.216-.49-.452-.965-.681-1.449Zm15.071 14.638c.043.328.047.55.103.76.089.333.206.659.322.985.725 2.018 2.7 2.619 4.468 1.814.626-.286 1.212-.662 1.823-.985.132-.07.29-.09.498-.149a2.846 2.846 0 0 1-.594 1.652c-.548.706-.61 1.398-.234 2.178.104.217.228.507-.046.663-.365.208-.425-.197-.594-.371-.02-.021-.08 0-.135 0a2.731 2.731 0 0 0-.036 2.091c.297.794.872 1.344 1.7 1.509.944.187 1.709-.292 2.462-.807.613-.42.7-1.01.756-1.667.115-1.374.169-2.77 1.048-3.946-.18-.277-.328-.534-.503-.77a14.56 14.56 0 0 1-2.203-4.423c-.244-.791-.372-1.497.495-1.986a.458.458 0 0 0 .104-.105c.633-.71.506-2.08-.237-2.671-.267-.213-.52-.229-.817-.052-.466.278-.528.73-.613 1.201-.054.298-.129.679-.337.84-.32.252-.557-.148-.812-.317a.47.47 0 0 0-.111-.025l-.936.887c.227.943.382 1.864-.36 2.611-.762.767-1.657.536-2.581.149l-.271 2.18c.268-.13.42-.345.612-.51.09-.079.343-.125.376-.08.086.117.171.354.11.435-.277.371-.564.76-.927 1.04-.362.28-.799.041-.817-.446-.015-.441.05-.886.083-1.329.017-.23.042-.46.071-.78-.613.357-1.136.648-1.867.428v-.004ZM25.054 96.07a1.76 1.76 0 0 0-.21.191 8.545 8.545 0 0 1-4.043 2.775c-.537.177-.758.466-.789.999-.1 1.751-.223 3.502-.323 5.253-.036.603.137 1.161.352 1.725.48 1.258 1.428 1.885 2.699 2.006 1.27.12 2.526 0 3.646-.702.332-.208.718-.38.966-.668.891-1.023 1.441-2.242 1.853-3.521.066-.203.041-.524-.08-.684-.626-.823-.873-1.77-.966-2.765-.049-.507-.01-1.022-.01-1.354-.716-.54-1.354-.902-1.83-1.412-.496-.527-.835-1.2-1.265-1.843Zm10.882 115.856c-.743-1.032-1.284-1.993-2.021-2.77-1.375-1.447-2.433-3.046-2.983-4.972-.033-.119-.074-.235-.114-.353-.35-1.036-.638-2.08-.603-3.195.004-.137-.058-.277-.075-.364-.942-.325-1.873-.542-2.702-.96-.817-.412-1.528-1.029-2.318-1.579-.019.112-.03.224-.034.338.07 1.655.136 3.311.223 4.967.027.52.086 1.035.163 1.549.035.185.115.358.232.505.192.25.435.459.63.706 1.166 1.475 2.282 2.991 3.493 4.425 1.29 1.524 3.006 2.111 4.983 1.937.306-.024.61-.124 1.126-.234Zm16.77-10.524c-1.256-.149-21.263-.096-21.832.063.09.83.306 1.642.64 2.406 1.189.041 2.304.069 3.41.121.717.034 1.43.149 2.146.149 4.95.013 9.901.015 14.852.006.241 0 .483-.022.785-.038v-2.707Zm-22.488-3.395.923-10.671-1.155-.767c-1.445 1.205-3.096 1.74-4.979 1.635a2.609 2.609 0 0 0-.074.446c.027 2.077.065 4.153.087 6.23.004.359.175.601.413.831 1.263 1.223 2.817 1.895 4.498 2.309.091.023.191-.007.287-.013Zm58.469-67.56c-.363.331-.446.694-.41 1.019.137 1.327.32 2.65.501 3.972.018.126.112.304.217.347.687.281.904.876 1.051 1.517.114.495.321.896.743 1.232.622.497.966 2.114.664 2.837-.045.107-.223.233-.323.223-.1-.009-.23-.178-.251-.297-.04-.215.01-.446-.015-.665-.064-.584-.013-1.24-.548-1.635-.535-.394-.784-.925-.918-1.547a2.778 2.778 0 0 0-.243-.696c-.1-.191-.253-.378-.612-.215.043.239.043.514.144.743.493 1.114.502 2.229.223 3.406-.183.776-.17 1.6-.246 2.415 1.153.366 2.212.701 3.27 1.04.656.21.703.198 1.053-.405.828-1.422 1.18-2.972 1.263-4.602a2.08 2.08 0 0 1 .168-.774c.335-.687.727-1.346 1.064-2.033.305-.619.572-1.257.841-1.893.046-.108.023-.244.044-.542-1.063 1.168-1.437 2.612-2.474 3.557-.396-.096-.441-.359-.392-.644.075-.414.182-.821.258-1.234.223-1.214.446-2.428.645-3.647.051-.317.129-.669-.163-1.077-.149.356-.283.614-.372.888-.21.659-.386 1.33-.594 1.989-.286.891-.59 1.783-.886 2.669-.068.202-.18.403-.412.297-.112-.05-.206-.274-.204-.417.008-.493.074-.985.094-1.479.05-1.356.088-2.713.115-4.07 0-.169-.092-.341-.142-.512l-.167-.006c-.11.342-.267.676-.321 1.027-.17 1.098-.297 2.203-.451 3.304a18.012 18.012 0 0 1-.271 1.533c-.032.135-.206.314-.33.328-.124.014-.297-.133-.389-.255a1.197 1.197 0 0 1-.182-.482c-.214-1.115-.433-2.229-.619-3.349-.1-.596-.094-1.216-.423-1.867Zm-60.613-14.916c-.05.196-.106.336-.119.48-.122 1.328-.25 2.657-.35 3.987a454.228 454.228 0 0 0-.357 5.323c-.142 2.27-.277 4.539-.406 6.808-.01.172.038.348.074.629 1.196-1.278 2.23-2.519 2.965-3.95 1.121-2.182 1.369-4.379-.29-6.469-.14-.177-.199-.418-.288-.615 1.947-1.309 2.64-4.04 1.525-5.759-1.252.253-1.489.228-2.754-.434Zm187.083-14.086c-.638 1.312-.034 2.576 1.515 3.047 1.12.341 1.4.257 2.08-.69.734-1.025 1.459-2.06 2.126-3.129.667-1.069 1.115-2.258 1.462-3.476.065-.23.074-.475.104-.704-.821-.54-1.578-1.066-2.549-1.412.182.31.32.514.423.734a.28.28 0 0 1-.053.262c-.085.064-.247.122-.324.082a1.253 1.253 0 0 1-.377-.34c-.339-.43-.665-.87-1.04-1.36-.424.379-.686.88-.959 1.366-.229.407-.525.691-.976.852-.462.174-.913.378-1.35.61-.322.162-.674.312-.79.784l1.663.462-.763 2.151c.406-.032.7-.035.986-.082.39-.063.772-.185 1.162-.23.129-.015.277.128.416.199-.081.134-.133.309-.249.393-.133.095-.32.127-.49.156-.654.114-1.311.214-2.017.325ZM18.393 133.449c.092-2.977.149-5.892.282-8.803.132-2.892.535-5.77.52-8.798-.985.485-1.895.561-2.796.124-.691.749-.948 1.573-.859 2.502.105 1.098.476 2.131.987 3.088.223.411.234.63-.07.949-.782.818-1.049 1.832-.978 2.937.03.519.094 1.035.192 1.544.454 2.281 1.492 4.332 2.55 6.373.01.017.042.021.172.084Zm6.33 70.77-.386-9.523-2.37.371c.023.402.03.768.065 1.131a7.452 7.452 0 0 1-.513 3.56c-.25.619-.507 1.235-.75 1.857-.078.203-.191.431-.16.628.052.331-.125.5-.31.702-.765.836-1.725 1.398-2.71 1.917-.897.473-1.81.914-2.709 1.38-.161.083-.297.222-.441.331.02.05.042.099.063.149 3.67.266 7.03-.764 10.222-2.503Zm109.848-13.894c-.106.268-.229.53-.315.804-.488 1.556-.961 3.116-1.451 4.672-.357 1.13-.736 2.255-1.1 3.383-.183.568-.52.939-1.156.978-.183.011-.36.115-.524.17l-.183 4.454h2.809c.053-.115.099-.233.138-.354.349-1.337.737-2.667 1.029-4.017a48.762 48.762 0 0 0 1.024-7.855c.038-.729.12-1.475-.271-2.232v-.003Zm-3.364-111.074c-.773.748-1.505 1.444-2.217 2.155-.107.106-.135.297-.18.456-.228.802-.264 1.655-.711 2.4-.494.826-.931 1.685-1.418 2.516-.649 1.108-1.332 2.196-1.974 3.308-.148.256-.191.573-.312.955 2.061-.938 7.741-7.43 8.842-10.018l-2.03-1.772Zm106.047 46.103c0 .259-.012.379 0 .495.099.832.203 1.664.31 2.495.084.658.055 1.361.29 1.961.382.978.938 1.888 1.432 2.85.69-.406 1.338-.784 1.983-1.169.656-.394 1.316-.781 1.958-1.198.622-.405 1.287-.764 1.888-1.39-2.818-1.073-5.414-2.305-7.861-4.044ZM21.662 109.602c-.014.204-.037.47-.046.737-.039 1.067-.145 2.129-.498 3.139-.186.532.007.862.4 1.136.223.153.468.315.723.356 1.56.255 2.946-.062 4.056-1.269.275-.298.372-.595.266-1.007-.262-1.018-.272-2.054-.11-3.092.025-.16.035-.324.056-.54-.838.263-1.597.625-2.386.713-.79.089-1.6-.102-2.461-.174v.001Zm-9.278 5.999c-.625 1.036-1.167 2.058-1.544 3.158-.434 1.263-.868 2.526-1.236 3.806a220.928 220.928 0 0 0-1.64 6.081c-.11.419-.105.879-.082 1.318.014.297.19.637.52.628.214-.006.516-.223.616-.425.305-.615.618-1.249.772-1.913.504-2.163.911-4.344 1.611-6.464.587-1.783 1.021-3.611 1.521-5.419.045-.161.075-.325.122-.531l-.66-.239Zm-1.715 1.679c-3.158 2.872-4.52 6.697-5.687 10.8l2.536-.345c.947-3.553 1.887-7.039 3.15-10.456v.001Zm229.097 16.441-.139.12c.017.112.045.222.082.329.158.359.367.7.487 1.07.734 2.253 1.438 4.516 2.176 6.767.264.807.748 1.495 1.337 2.104.25.26.568.409.94.313.772-.196 1.351-1.281 1.114-2.162-.388.339-.743.649-.957 1.114-.179.396-.423.431-.748.166-.325-.266-.497-1.077-.357-1.486.166-.49.371-.982.431-1.486.128-1.028-.003-2.047-.692-2.867-1.064-1.263-2.185-2.485-3.289-3.715-.101-.117-.255-.181-.385-.268v.001ZM7.114 129.606c-.195.205-.328.347-.463.485-.588.601-1.144 1.239-1.776 1.79-.541.47-1.13.882-1.758 1.228-.635.348-1.21.132-1.573-.498-.149-.254-.236-.543-.347-.817-.057-.142-.107-.287-.16-.43-.203.446-.262.879-.34 1.309-.148.822.338 1.326.934 1.705.596.379 1.27.577 1.931.068.334-.255.69-.483 1.008-.757 1.332-1.148 2.844-1.857 4.618-1.99.533-.04 1.06-.168 1.654-.267-.082-.643-.184-1.226-.223-1.813-.037-.562-.008-1.129-.008-1.693-.127.198-.165.417-.25.616-.308.725-.549 1.497-.971 2.15-.557.861-1.553.72-1.99-.213-.11-.243-.167-.51-.286-.873Zm235.281 76.861.046-.149c-.445-.343-.891-.694-1.342-1.028-.595-.438-1.25-.801-1.69-1.425-.195-.278-.499-.278-.805-.261-1.159.061-2.319.115-3.477.177-.131.007-.26.048-.537.101.375.361.622.674.936.886 1.144.777 2.313 1.515 3.465 2.279a.677.677 0 0 0 .692.06c.863-.361 1.752-.637 2.712-.64Zm-27.9-1.659c.886.256 1.614.482 2.353.669.211.053.434.044.64-.028a399.312 399.312 0 0 0 5.156-2.029c.133-.052.232-.185.397-.321-.155-.07-.215-.117-.278-.122-1.376-.11-2.749-.223-4.129-.315-.213-.014-.467-.014-.642.086-1.13.64-2.241 1.314-3.5 2.06h.003Zm-207.238-76.4c-.297.034-.419.04-.537.062-.942.178-1.887.341-2.823.544-.577.122-1.144.283-1.698.484-.198.074-.432.301-.473.495a3.27 3.27 0 0 0 .34 2.291c.198.361.428.427.807.271a2.98 2.98 0 0 0 .513-.29c1.496-.994 2.634-2.346 3.87-3.857Zm82.313 79.328c.421.064.83.121 1.236.19 2.13.363 4.278.371 6.428.334a.885.885 0 0 0 .57-.258c.38-.41.716-.862 1.15-1.397-.88-.132-1.673-.263-2.47-.36-.211-.025-.438.047-.652.095-2.071.459-4.141.922-6.262 1.396ZM24.355 193.06c.015-1.385.015-2.702-.074-4.106l-2.616.726.165 3.481c.854.265 1.644.094 2.525-.101ZM124.627 91.894c.618.169.625.18.969-.019.256-.15.501-.318.734-.5 1.451-1.123 2.761-2.395 3.992-3.755 1.525-1.686 2.638-3.63 3.641-5.647.048-.098.006-.24.006-.362l-.148-.06c-2.501 3.92-5.45 7.432-9.194 10.343Zm-13.761-79.931c-1.014 1.06-1.573 2.065-1.495 2.749.94-.697 1.718-.061 2.531.335.363-.642.728-1.193 1.493-1.272a2.355 2.355 0 0 1 1.915.623l.836-.769c-1.983-.172-3.693-.689-5.28-1.666ZM25.852 139.84l.085-1.216-7-.119c-.026.372-.048.679-.074 1.076 2.347.189 4.638.192 6.99.259Zm107.57 65.036.185.084c.093-.148.223-.279.272-.438.307-.966.636-1.924.885-2.903.832-3.274 1.259-6.602 1.188-9.983-.01-.514-.116-1.028-.209-1.535-.022-.122-.176-.223-.268-.329.2 1.759.026 3.456-.164 5.143a65.08 65.08 0 0 1-.743 5.058c-.31 1.647-.757 3.27-1.146 4.903Zm-44.06 3.567c-.013.067-.024.133-.035.199.196.074.387.194.59.223 1.075.159 2.15.391 3.23.422 2.62.074 5.243.088 7.863.056 1.133-.014 2.264-.194 3.392-.322.24-.027.536-.029.772-.461-5.358.548-10.59.565-15.814-.116l.001-.001Zm-13.64-25.189 2.016-4.215c-1.161.236-2.295.488-3.402.856.475 1.157.921 2.241 1.386 3.363v-.004Zm133.627 24.962c.249.176.364.318.498.338.289.043.594.075.881.02 1.064-.205 2.15-.359 3.176-.692 2.089-.679 4.147-1.451 6.21-2.206.743-.271 1.459-.606 2.191-.905.235-.095.478-.168.349-.553-.186.063-.366.118-.543.185-1.824.687-3.625 1.45-5.478 2.045-2.329.747-4.586 1.818-7.284 1.768ZM113.761 14.444c-.625-.024-1.04.268-1.147.813-.167.83.52 1.865 1.346 2.028.678.134 1.212-.238 1.352-.916.265-1.287-.605-1.857-1.551-1.925Zm131.523 194.739c-.923-1.968-2.931-2.658-5.037-1.459 1.554.939 3.17 1.578 5.037 1.459ZM222.569 95.682c.121-.562.14-.58-.122-.871-.346-.384-.726-.737-1.092-1.104-.173-.173-.365-.334-.513-.528-.052-.068-.036-.252.022-.322a.376.376 0 0 1 .318-.099c.133.037.253.143.363.238.385.329.763.668 1.217 1.063.035-.297.074-.482.074-.669.012-.57-.064-.657-.649-.783-.843-.182-1.615.052-2.331.464-.326.19-.594.48-.899.735l3.612 1.876Zm-12.495 111.77c2.006-.026 3.799-.851 5.66-1.486a12.651 12.651 0 0 0-1.827-.624.693.693 0 0 0-.431.032c-1.21.545-2.38 1.163-3.402 2.078Zm-111.469.736c1.309.223 5.089-.03 5.707-.406-.242-.087-.44-.187-.648-.229-1.182-.24-2.366-.468-3.551-.692-.113-.021-.281-.03-.35.034-.42.39-.948.693-1.157 1.293Zm-68.754-103.82c-.219.325-.297.607-.058 1 .214.359.354.758.41 1.172.145 1.04-.635 1.745-1.674 1.577-.645-.105-.662-.096-1.006.52.688.446 2.132.426 2.732-.039a.78.78 0 0 0 .245-.272c.196-.449.446-.891.54-1.365.197-.972-.361-2.13-1.189-2.593Zm80.435-89.301c-.39-.014-.625.187-.755.508-.331.817.059 1.725.817 2.205.551.35 1.35.025 1.507-.73.158-.753-.781-1.931-1.441-1.97-.048-.003-.097-.01-.128-.013ZM36.146 212.53c-.434.087-.816.197-1.205.235-2.278.223-4.188-.51-5.694-2.247-.52-.598-1.018-1.213-1.532-1.816a3.224 3.224 0 0 0-.314-.285l-.125.132c.578.703 1.137 1.421 1.737 2.105 1.349 1.537 3.061 2.479 5.027 2.981.591.149 1.174.153 1.74-.128.48-.237.518-.317.367-.977ZM18.984 104.771c-1.225.492-2.017 2.235-1.576 3.432.585 1.585 2.273 2.051 3.513.938-.23-.269-.426-.488-.858-.311-.655.268-1.283.132-1.754-.396-.492-.551-.55-1.216-.205-1.858.207-.36.464-.69.763-.979.27-.274.359-.511.119-.826h-.002Zm5.772 100.148c-3.413 1.774-7.005 2.789-10.914 2.428.11.112.217.19.328.199.787.069 1.583.223 2.361.161 1.253-.103 2.527-.235 3.732-.569 1.47-.409 2.879-1.035 4.31-1.577.296-.11.462-.297.184-.642h-.001Zm220.783 5.052c-.119-.013-.24-.033-.36-.039-1.626-.074-3.177-.429-4.595-1.248-1.43-.827-2.843-1.683-4.263-2.526l-.602-.355c.568.702 1.128 1.39 1.903 1.826.924.52 1.837 1.085 2.818 1.47 1.163.457 2.386.776 3.6 1.09.481.126 1.016.17 1.501-.217l-.002-.001ZM64.645 169.175c.036-.627.074-1.23.108-1.867l-1.716-.411-.536 2.099c.632.244 1.272.3 2.144.179Zm-39.498 27.216c.677 1.556 3.312 3.128 5.083 3.064.022-.116.037-.232.045-.349a3.266 3.266 0 0 0-.042-.385 11.92 11.92 0 0 1-5.086-2.33Zm37.256-29.709c-.398-.074-.706-.166-1.014-.169-.163 0-.416.116-.476.249-.297.642-.555 1.305-.422 2.092l1.306.193c.2-.778.387-1.506.606-2.365Zm-3.329 35.982 1.52-.16-1.587-3.755-.1.004c.054 1.266.11 2.531.167 3.912v-.001Zm7.408-33.259c.017-.334.039-.575.039-.818 0-.856-.049-.901-1.06-.998l-.16 1.737 1.181.079Zm-6.811-.743.487-2.041c-.743.458-.901 1.164-1.009 1.956l.522.085ZM24.319 193.91l-.037-.116-2.355.149c-.074.365.1.451.366.412a47.626 47.626 0 0 0 1.75-.285c.096-.015.181-.104.276-.16Zm220.88-52.516c-.371.312-.85.547-.864 1.287.413-.46.946-.659.861-1.287h.003Zm-28.011-35.982-.096-.134-.951-.17.393.749.654-.445ZM67.38 168.339c-.245.891-.231.957.24 1.133l-.243-1.133h.003Zm22.123 5.227c-.438.365-.438.365-.109.599.038-.22.073-.41.107-.599h.002Zm-63.356 33.497.144-.078-.337-.61-.14.074c.11.206.222.411.333.614Z" fill="#000"/><path d="M69.547 153.681c.21-.022.399.192.297.395a26.45 26.45 0 0 1-.93 1.681c-.045.075-.229.13-.316.101-.088-.028-.219-.216-.194-.265.323-.628.67-1.246 1.014-1.863.018-.028.088-.031.13-.049Zm.009 2.444.308-.365c.128.117.316.21.371.354.097.276.155.563.171.855.009.114-.113.338-.17.337-.142-.005-.362-.075-.408-.18-.123-.285-.171-.603-.272-1.001Z" fill="#000"/><path d="m131.708 78.772.619-1.027c-1.548-1.19-3.037-2.283-4.475-3.444-1.62-1.308-2.936-2.919-4.391-4.532.345-.107.594-.196.853-.262 3.519-.914 7.043-1.807 10.554-2.75 1.048-.28 2.067-.676 3.085-1.055.389-.149.802-.33 1.096-.61.439-.42.868-.446 1.411-.297 2.389.637 4.798 1.2 7.174 1.88 1.972.565 3.92 1.215 5.855 1.895 4.322 1.52 8.509 3.37 12.652 5.313 2.513 1.178 4.85 2.675 7.089 4.32.074.06.146.124.214.191-.372.986-23.133 30.167-24.826 31.813l-.59-.494c-.454-.382-.877-.81-1.366-1.139-3.316-2.229-6.746-4.242-10.579-5.469-1.083-.346-2.166-.733-3.278-.938-2.04-.378-4.103-.635-6.157-.94-3.51-.52-7.015-.216-10.516.088-3.591.313-7.059 1.229-10.514 2.212a48.984 48.984 0 0 0-11.05 4.653c-1.7.977-3.351 2.006-4.95 3.269-.19-.214-.378-.398-.535-.604-2.696-3.546-5.39-7.093-8.08-10.641-.57-.75-1.144-1.494-1.71-2.244-2.76-3.653-5.498-7.322-8.281-10.956-1.972-2.572-4.007-5.096-6.013-7.642-.06-.074-.108-.158-.185-.272.14-.123.26-.241.393-.34 5.011-3.69 10.438-6.607 16.238-8.866 3.74-1.456 7.513-2.806 11.403-3.771 3.121-.775 6.289-1.344 9.437-1.996 1.209-.251 2.421-.494 3.637-.706.33-.058.709-.074 1.019.032 1.391.461 2.799.825 4.26.972.137.015.265.11.441.188-.209.397-.411.764-.598 1.137-.553 1.102-.911 2.25-.689 3.5.19 1.065.595 2.04 1.37 2.824 1.585 1.603 3.276 3.08 5.131 4.374.994.693 1.914 1.486 2.877 2.224 1.67 1.277 3.349 2.543 5.017 3.822.33.26.647.536.949.829.363.342.408.356.799.06.465-.354.928-.712 1.391-1.069l.134.086c-.11.394-.158.817-.343 1.175a96.008 96.008 0 0 1-1.822 3.312c-.527.924-1.122 1.81-1.607 2.755a5.256 5.256 0 0 0-.52 1.677c-.122.918.763 1.635 1.661 1.387a2.71 2.71 0 0 0 .851-.434c2.813-2.08 5.252-4.508 6.99-7.58.401-.709.795-1.423 1.173-2.145.368-.703.332-1.01-.24-1.572-.458-.446-.97-.842-1.452-1.267-.342-.305-.678-.624-1.006-.926Z" fill="#AB7AB7"/><path d="M207.533 140.969c.148 1.013.308 1.909.407 2.813.468 4.276.926 8.554 1.374 12.833.229 2.164.466 4.327.641 6.496.129 1.601.155 3.212.241 4.817.177 3.31.385 6.618.538 9.929.109 2.371.123 4.748.227 7.121.181 4.132.045 8.261-.05 12.392-.024 1.034-.122 2.066-.189 3.144-.212.026-.4.064-.589.069-2.251.054-4.502.114-6.755.149-3.863.062-7.72.123-11.581.155-6.014.05-12.028.086-18.042.11-1.852.01-3.705 0-5.612 0-.019-.232-.048-.42-.046-.608.054-4.75.174-9.501.148-14.25-.018-3.635-.188-7.271-.352-10.904a167.142 167.142 0 0 0-.52-7.846c-.297-3.2-.701-6.39-1.067-9.585-.137-1.202-.302-2.4-.464-3.674.284-.102.573-.223.872-.314 5.272-1.62 10.557-3.195 15.815-4.864 7.049-2.229 14.077-4.532 21.116-6.799 1.243-.398 2.5-.762 3.888-1.184Z" fill="#33A61B"/><path d="M38.815 140.613c.342-.067.684-.11 1.014-.201 1.914-.526 3.79-1.17 5.502-2.184.99-.584 1.84-1.337 2.474-2.314.792-1.219 1.055-2.6 1.194-4.012.04-.519.043-1.041.008-1.56a2.626 2.626 0 0 0-.162-.867c-.5-1.214-1.05-2.404-1.922-3.412-.906-1.049-1.783-2.119-2.713-3.149-1.618-1.795-3.61-3.155-5.492-4.643-.758-.599-1.54-1.163-2.308-1.749a5.277 5.277 0 0 1-.38-.36c.437-.119.817-.21 1.188-.326.675-.209.866-.462.913-1.168.013-.195.023-.389.039-.657 1.138-.089 2.094-.496 2.487-1.653.383-1.133-.018-2.081-.826-2.898.118-.196.243-.355.318-.534.211-.5.555-1.003.57-1.512.027-1.012.537-1.775 1.03-2.567 3.335-5.369 6.955-10.533 11.228-15.21a70.035 70.035 0 0 1 3.7-3.753c2.256-2.114 4.44-4.316 7.026-6.048l.605-.407c.234.263.473.506.682.773 1.282 1.635 2.572 3.27 3.833 4.92 2.357 3.088 4.695 6.191 7.045 9.287 1.004 1.32 2.022 2.63 3.027 3.948 3.344 4.39 6.686 8.781 10.026 13.174.058.074.105.162.149.229-.028.074-.034.13-.066.156-2.179 1.806-4.11 3.864-6.026 5.936-3.81 4.126-7.05 8.665-9.789 13.569-2.295 4.107-4.458 8.278-6.281 12.617-.92 2.188-1.715 4.428-2.541 6.654-.149.407-.367.595-.775.772-.983.429-1.792.202-2.718-.233-4.275-2.012-8.582-3.957-12.886-5.908-2.884-1.307-5.783-2.583-8.676-3.871-.325-.143-.666-.269-.497-.839Z" fill="#E39D49"/><path d="M185.989 89.41c.244.293.446.506.613.742 2.113 2.898 4.254 5.779 6.316 8.713 1.568 2.229 2.873 4.618 3.977 7.115.46 1.04.979 2.054 1.463 3.084.094.199.202.412.217.625.093 1.429.569 2.757 1.09 4.065.64 1.607 1.296 3.195 1.704 4.893.233.966.832 1.844 1.184 2.793a11.8 11.8 0 0 1 .547 2.143c.129.767.128.823 1.034 1.032a117.392 117.392 0 0 1 3.277 15.747c-13.881 4.497-27.681 9.051-41.703 13.142-.228-1.234-.471-2.416-.661-3.605-.836-5.213-1.997-10.343-3.685-15.351-.553-1.641-1.028-3.307-1.56-4.954-.112-.343-.069-.59.128-.891 2.53-3.84 5.052-7.685 7.566-11.535 1.623-2.483 3.218-4.986 4.86-7.457 1.448-2.184 2.958-4.327 4.415-6.506 1.416-2.115 2.787-4.26 4.197-6.38 1.56-2.347 3.143-4.68 4.717-7.019.067-.1.148-.196.304-.397Z" fill="#7797E9"/><path d="m221.815 129.846.731.255c1.457.505 2.945.847 4.498.843.173 0 .365.031.514-.033.127-.054.207-.223.308-.341-.108-.084-.207-.23-.322-.243-.662-.074-1.338-.057-1.988-.19-1.062-.219-2.107-.52-3.153-.809-.253-.07-.479-.244-.668-.343l-1.221-9.935c.365.241.721.446 1.04.692 1.912 1.481 3.989 1.719 6.222.859a1.71 1.71 0 0 1 .213-.043c.055.169.124.343.171.521.488 1.864.902 3.751 1.477 5.588.668 2.138 1.481 4.235 2.229 6.347.09.254.172.509.29.859-.683.114-1.305.266-1.935.312-1.258.091-2.519.124-3.779.178-.173.008-.347 0-.52.004-.276.007-.609 0-.599.377.008.316.311.334.567.334.396 0 .794.019 1.189-.011 1.748-.134 3.492-.282 5.345-.434.09.177.17.359.24.544 1.239 3.585 3.287 6.687 5.715 9.56.877 1.037 1.83 2.006 2.757 3.002.202.216.41.469.668.579.758.321.914.977 1.027 1.666.408 2.488.852 4.972 1.194 7.469.396 2.89.705 5.796 1.04 8.693.344 2.999.572 6.007.683 9.024.014.367.049.734.078 1.161-.256.074-.482.165-.716.202-3.896.613-7.814.906-11.757.691a180.682 180.682 0 0 1-12.552-1.12c-1.347-.17-2.697-.325-4.044-.497-.238-.031-.469-.116-.723-.18.078-3.105.086-6.167.248-9.228.23-4.344.556-8.684.873-13.024.155-2.12.388-4.235.575-6.352.022-.367.183-.713.452-.966 1.096-1.091 1.72-2.451 2.154-3.92.372-1.274.825-2.527 1.239-3.775.094.01.16 0 .18.023 1.703 2.053 3.872 3.518 6.141 4.856 1.836 1.082 3.741 2.027 5.748 2.753.26.094.553.338.789-.026.143-.223-.027-.386-.576-.594-3.56-1.366-6.874-3.17-9.803-5.623-.734-.615-1.338-1.386-1.994-2.088-.212-.223-.279-.49-.279-.81.004-2.101-.017-4.202-.027-6.302a4.49 4.49 0 0 1 .061-.505Zm16.291 42.545c-.122-.16-.174-.282-.266-.337a4.592 4.592 0 0 0-.602-.284 25.309 25.309 0 0 1-5.068-2.77c-1.926-1.373-3.602-3.014-5.178-4.766-2.696-2.998-5-6.256-6.621-9.97-.111-.255-.148-.77-.602-.553-.42.202-.099.595.027.838.788 1.541 1.528 3.114 2.437 4.58 1.542 2.488 3.437 4.712 5.453 6.832 2.698 2.837 5.817 5.053 9.473 6.493.16.063.325.163.487.161.144-.002.276-.126.463-.224h-.003Zm-4.522-9.936c.376-.039 1.07-.074 1.75-.189 3.165-.538 5.863-2.016 8.234-4.139.167-.149.357-.327.17-.564-.188-.237-.394-.102-.576.047-.095.078-.187.163-.286.235-.837.613-1.639 1.28-2.519 1.823-2.256 1.392-4.712 2.173-7.383 2.108-1.411-.034-2.796-.297-4.165-.652-.289-.074-.754-.406-.879.107-.117.475.441.458.732.537 1.605.439 3.261.67 4.925.687h-.003Z" fill="#AB7AB7"/><path d="M52.697 200.747h-21.74c-.281-1.307.42-11.241.923-13.152.252.025.515.042.775.081 1.263.194 2.36-.143 3.269-1.035.342-.336.685-.507 1.18-.426 1 .163 1.874-.219 2.606-.839 1.278-1.084 2.37-2.324 2.78-4.02.29-1.199.238-2.419.065-3.615-.176-1.212-.239-2.412-.05-3.619.539-3.47.108-6.861-.868-10.194a199.843 199.843 0 0 0-2.26-7.141c-.36-1.076-.85-2.109-1.28-3.162-.083-.202-.159-.406-.237-.606.508-.222.983-.421 1.448-.639.407-.191.561-.542.537-.973-.06-1.061-.163-2.12-.187-3.182a34.131 34.131 0 0 0-.61-5.674c-.032-.164-.047-.331-.075-.512.9.149 21.147 9.288 22.514 10.159-.2.155-.372.308-.566.438-.803.548-1.399 1.255-1.67 2.199a1.132 1.132 0 0 1-.576.727c-1.302.702-1.729 1.85-1.591 3.244.11 1.131.188 2.277.445 3.376.318 1.333.244 2.651.166 3.981a89.72 89.72 0 0 1-.242 3.03.718.718 0 0 1-.202.442c-1.455 1.263-2.055 2.93-2.234 4.783a1.713 1.713 0 0 1-.364.937c-1.241 1.602-1.316 3.47-1.182 5.375.171 2.452.552 4.866 1.219 7.231.127.451.047.85-.065 1.296-.377 1.509-.684 3.036-1.016 4.556-.02.096-.02.198-.044.293-.503 2.006-.662 4.047-.725 6.102a2.66 2.66 0 0 1-.041.367c-.003.041-.044.079-.102.172Z" fill="#E8581E"/><path d="M156.735 122.32c-.892-2.18-1.889-4.317-3.255-6.228-1.348-1.887-2.866-3.653-4.356-5.529 8.556-10.298 16.595-21.096 24.907-31.79 3.225 2.343 6.272 4.843 9.148 7.64-.19.287-.355.555-.539.81a4032.098 4032.098 0 0 1-4.92 6.787c-.931 1.277-1.889 2.535-2.824 3.813-.977 1.337-1.94 2.685-2.906 4.032-1.051 1.468-2.08 2.951-3.149 4.405-1.963 2.67-3.949 5.322-5.924 7.982-1.946 2.62-3.891 5.242-5.834 7.863a2.212 2.212 0 0 0-.144.261l-.204-.046Z" fill="#7797E9"/><path d="M125.391 54.627c.159-.817.297-1.468.409-2.12.453-2.706.892-5.415 1.347-8.12a93.08 93.08 0 0 1 .619-3.356.88.88 0 0 1 .371-.497c.624-.4 1.247-.817 1.918-1.123.564-.256.767-.674.801-1.215.07-1.109.142-2.22.152-3.33.014-1.412-.019-2.824-.056-4.23-.022-.864-.086-1.728-.135-2.592-.008-.149 0-.312-.067-.434-.058-.11-.212-.243-.313-.235-.101.007-.222.158-.293.272-.043.075-.008.193-.005.29.061 2.324.091 4.65.198 6.97.056 1.195-.047 2.365-.223 3.578-.148.063-.297.163-.455.19-2.498.436-5.009.572-7.534.282-.05-.006-.097-.02-.149-.028-.86-.157-.848-.156-.837-1.046.036-2.92.045-5.84.098-8.758.029-1.556.125-3.106.372-4.65.267-1.683 1.256-2.684 3.112-2.786a9.46 9.46 0 0 1 1.848.102c1.101.159 1.977.72 2.671 1.594a10.243 10.243 0 0 1 1.72 3.175c1.142 3.428 2 6.932 2.855 10.438.305 1.248.621 2.499 1.04 3.715.337.974.81 1.905 1.27 2.833.823 1.661 1.698 3.297 2.516 4.962.237.481.384 1.015.513 1.54.119.484.019.623-.481.706a19.2 19.2 0 0 1-1.985.241c-2.625.164-5.109.869-7.505 1.919-1.212.533-2.424 1.093-3.792 1.713Zm-21.845-17.462c.505-1.394.655-2.818.712-4.246.091-2.199.12-4.399.174-6.599v-.504c.228-.053.432-.134.64-.144 1.04-.05 2.075-.104 3.112-.112 1.478-.011 2.893-.23 4.242-.891.728-.356 1.517-.59 2.29-.845.231-.074.5-.032.876-.05-.156.477-.255.824-.381 1.161a3.41 3.41 0 0 0 .029 2.534c.492 1.244 2.041 2.536 3.957 1.635.44-.208.861-.455 1.402-.743v.876c-.048 2.992-.074 5.985-.161 8.975-.029.956.148 1.896.074 2.853-.074.958-.06 1.929-.074 2.893-.029 2.448-.054 4.897-.075 7.346-.008 1.21.005 2.42 0 3.63 0 .242-.043.483-.069.755-.556.074-1.022-.027-1.421-.346a7.745 7.745 0 0 1-.871-.804c-2.175-2.373-3.407-5.126-3.326-8.396.009-.7.202-1.384.56-1.986.131.21.223.367.324.514.44.621.875 1.246 1.334 1.857a.912.912 0 0 0 .427.279.362.362 0 0 0 .317-.104c.057-.075.048-.228.018-.33-.025-.085-.123-.15-.196-.215-1.072-.935-1.583-2.196-1.962-3.51-.092-.318-.011-.759.149-1.062.4-.77.206-1.392-.241-2.061a25.055 25.055 0 0 1-1.337-2.308c-1.045-1.992-1.389-4.119-.997-6.328.158-.892.52-1.75.787-2.622.058-.189.163-.372.172-.564.007-.142-.106-.29-.165-.435-.139.068-.318.103-.408.21-.118.14-.167.338-.281.59-.194-.27-.074-.765-.509-.65-.349.093-.272.463-.228.703.227 1.24-.041 2.452-.129 3.678-.064.907-.012 1.824-.012 2.871-2.712 1.177-5.481 2.549-8.753 2.495Z" fill="#E39D49"/><path d="M95.141 199.99c.48 1.83.712 3.671.995 5.522-1.323.488-2.606.743-3.89.986-.923.173-1.858.297-2.78.46-.392.068-.57-.088-.705-.458-.828-2.274-1.19-4.637-1.382-7.034 0-.013.026-.029.086-.092.314.477.614.95.932 1.412.344.498.532.598.723.399.317-.331-.044-.539-.188-.759-1.005-1.536-1.881-3.12-2.401-4.908-.662-2.277-1.508-4.496-2.05-6.814-.358-1.529-.497-3.071-.552-4.629-.024-.668 0-1.337 0-2.006 0-.148.026-.313-.03-.439-.05-.112-.2-.255-.297-.25-.097.006-.23.165-.267.282-.05.16-.027.343-.027.516v4.229c-.23-.209-.376-.531-.562-.824-.119-.187-.21-.404-.363-.556-.1-.097-.292-.101-.446-.148-.031.148-.086.303-.086.454 0 .085.091.17.142.254.283.466.555.938.85 1.395a9.345 9.345 0 0 1 1.301 3.041c.312 1.37.818 2.696 1.252 4.036.11.341.143.651.01 1.003-.951 2.521-1.867 5.052-2.835 7.57-.4 1.04-.918 2.037-1.766 2.798-1.065.957-2.367 1.423-3.75 1.658-2.8.475-5.573.291-8.3-.484a3.89 3.89 0 0 1-.745-.318c-.388-.203-.558-.524-.52-.974.254-2.993 1.39-5.647 3.142-8.05.242-.33.589-.584.974-.958-.022.27-.011.454-.055.624-.178.694-.372 1.384-.562 2.077-.045.166-.11.335-.108.502 0 .098.102.265.178.278.119.019.302-.03.371-.117.102-.127.14-.312.185-.478.274-1.027.529-2.06.814-3.084 1.036-3.715 1.951-7.465 3.422-11.045.573-1.394 1.133-2.793 1.709-4.185.103-.25.255-.48.385-.719.533-.974 1.263-1.634 2.414-1.882 1.35-.293 2.662-.758 3.988-1.156 1.049-.315 1.956-.868 2.585-1.77.297-.433.767-.4 1.147-.599.469-.245.797.057 1.215.213 1.565.585 1.915 2.006 2.312 3.321.383 1.267.51 2.613.725 3.929.446 2.709.857 5.424 1.302 8.129.402 2.439.84 4.872 1.235 7.312.055.34.027.687-.083 1.014-.572 1.604-1.189 3.195-1.776 4.795-.114.31-.54.756-.035.944.446.167.51-.425.642-.737.461-1.093.888-2.201 1.332-3.302.051-.133.128-.253.193-.378Zm32.592 5.003c-1.955.102-3.83.257-5.706.286-3.762.058-7.525.033-11.287.074-1.226.013-2.403-.197-3.584-.498-1.939-.496-3.889-.95-5.848-1.364-.892-.189-1.807-.249-2.726-.371-.69-2.851-1.5-5.621-1.732-8.632.625.111 1.173.201 1.717.308 2.547.498 5.093 1 7.639 1.504 1.915.383 3.814.862 5.743 1.153 2.489.376 5.002.586 7.504.907 2.893.371 5.78.784 8.669 1.182.169.023.332.079.579.14.161 1.849-.463 3.534-.968 5.311Z" fill="#33A61B"/><path d="M20.484 114.577c.061.013.093.01.105.023.669.743 1.486 1.094 2.496 1.074 1.206-.023 2.292-.335 3.22-1.124.203-.174.398-.359.602-.544.491.471.603.979.508 1.625-.182 1.246-.292 2.504-.387 3.759-.233 3.105-.45 6.211-.652 9.319a145.329 145.329 0 0 0-.209 4.519c-.037 1.084-.016 2.171-.048 3.255-.014.461-.095.921-.149 1.412-2.36.216-4.644.004-7.008-.039-.022-.331-.06-.595-.054-.853a643.8 643.8 0 0 1 .133-4.817c.037-1.236.11-2.471.118-3.706.018-2.425.16-4.839.4-7.252.173-1.745.248-3.503.297-5.256.013-.609.246-1.019.628-1.395Zm2.736 11.086c.074.571.101 1.218.237 1.843.28 1.286.67 2.541 1.534 3.58.175.205.375.388.594.543.061.043.236-.016.32-.08.048-.038.052-.189.02-.266a1.149 1.149 0 0 0-.223-.293c-.675-.752-1.088-1.634-1.389-2.594a8.991 8.991 0 0 1-.289-4.396 2.51 2.51 0 0 0 .06-.588c-.006-.102-.125-.284-.177-.278a.53.53 0 0 0-.346.191c-.08.113-.1.277-.119.422-.075.613-.142 1.226-.222 1.916Z" fill="#7797E9"/><path d="M214.788 106.679c.168.297.323.547.45.807.77 1.578 1.528 3.158 2.513 4.622 1.533 2.277 3.567 4.021 5.796 5.572.1.07.21.154.324.167.114.013.283-.032.316-.103.05-.109.057-.315-.013-.387-.186-.194-.419-.344-.64-.501-1.863-1.327-3.597-2.796-4.915-4.686a28.884 28.884 0 0 1-1.839-2.958c-.515-.976-.91-2.019-1.324-3.046-.129-.32-.148-.684-.216-1.028l.141-.041c.144.275.284.553.433.827 1.006 1.834 2.562 3.056 4.433 3.898 1.926.864 3.945 1.277 6.066 1.11.422-.034.798-.124 1.173-.372.91-.594 1.863-1.124 2.799-1.677.123-.074.257-.125.474-.229.066.337.113.619.177.898.089.383-.003.66-.371.859-.976.528-1.94 1.08-2.911 1.617-.149.084-.343.11-.467.218-.111.097-.157.27-.23.409.144.058.29.164.433.16.164-.004.335-.087.486-.168.998-.541 2.006-1.07 2.983-1.642.665-.388 1.115-.277 1.469.459-.617.996-1.267 1.983-2.155 2.786-.972.88-2.06 1.452-3.428 1.241a2.56 2.56 0 0 1-.503-.121c-1.742-.656-3.437-1.395-4.845-2.663-.208-.189-.451-.627-.774-.236-.249.297.109.526.321.716 1.561 1.397 3.411 2.282 5.384 2.886 1.635.5 3.02-.191 4.2-1.269.615-.562 1.108-1.258 1.65-1.898.155-.183.287-.385.511-.69.106.503.115.875 0 1.251-.648 2.175-1.629 4.177-3.473 5.572-1.865 1.412-4.591 2.098-6.888.416-.875-.641-1.783-1.25-2.584-1.974-1.367-1.235-2.464-2.708-3.344-4.319-.759-1.386-1.423-2.823-2.127-4.239a3.789 3.789 0 0 1-.201-.479c-.255-.75-.088-1.202.716-1.765Z" fill="#AB7AB7"/><path d="M229.598 108.505c-.538.328-1.101.642-1.631 1.004a4.534 4.534 0 0 1-3.096.787c-1.281-.121-2.535-.35-3.793-.868.198-.416.386-.783.55-1.162.823-1.899 1.278-3.894 1.497-5.944a60.65 60.65 0 0 0 .23-2.658c.019-.297.098-.766-.333-.778-.467-.014-.325.446-.338.747-.118 2.681-.455 5.323-1.454 7.838-.217.548-.498 1.07-.792 1.694-1.329-.689-2.553-1.426-3.467-2.684.506-.482 1.002-.926 1.463-1.403.446-.461.905-.92 1.264-1.443 1.026-1.481 2.067-2.951 2.744-4.651.688-1.73.935-3.529 1.067-5.359.008-.099 0-.198.009-.297.055-.52.213-.65.738-.534 1.28.285 2.245.981 2.829 2.185.605 1.248.836 2.572.929 3.942.185 2.688.331 5.384 1.036 8.004.142.517.351 1.015.548 1.58Zm-2.377-1.709h.058c-.116-1.895-.218-3.789-.355-5.683-.058-.81-.17-1.619-.297-2.421-.045-.28-.011-.766-.478-.675-.402.074-.223.485-.181.754.352 2.441.54 4.903.562 7.37.006.641 0 1.284.049 1.923.012.148.208.279.319.418.109-.141.297-.275.31-.427.041-.416.013-.838.013-1.259Z" fill="#AB7AB7"/><path d="m222.569 95.683-3.609-1.876c.305-.255.572-.547.899-.735.716-.413 1.486-.647 2.331-.465.585.126.66.214.649.784-.004.188-.042.371-.075.668-.453-.397-.831-.734-1.217-1.063-.11-.094-.229-.2-.362-.237a.372.372 0 0 0-.318.099c-.058.07-.075.253-.022.322.149.194.34.354.513.528.365.366.743.72 1.091 1.103.26.292.241.31.12.872Z" fill="#AB7AB7"/><path d="M32.22 179.99c0 .082.03.195-.009.274-.046.097-.148.223-.232.23a.345.345 0 0 1-.276-.181 2.21 2.21 0 0 1-.113-.578c-.231-2.286-.414-4.577-.698-6.856-.269-2.155-.642-4.298-.971-6.445-.035-.223-.094-.436-.113-.657-.021-.25-.18-.609.218-.665.335-.047.325.311.372.536.167.822.317 1.649.476 2.474.563 2.942.756 5.928 1.049 8.902.096.984.198 1.967.296 2.966Zm-21.822 1.899c.39-2.841.834-5.524 1.572-8.147.468-1.665.984-3.317 1.486-4.973.074-.242.092-.641.463-.534.358.103.188.457.117.699-.462 1.565-.961 3.121-1.403 4.689-.696 2.479-1.164 5.006-1.512 7.556-.03.222-.062.44-.107.659-.044.218-.074.512-.371.436-.132-.034-.204-.317-.245-.385Zm9.585-5.472c0-.468-.008-.936 0-1.404.005-.192.03-.456.297-.402.127.025.287.265.297.417.081 1.179.12 2.361.19 3.542.04.663.114 1.324.17 1.987.014.172.05.349.02.514-.021.125-.13.234-.201.35-.118-.098-.32-.181-.34-.297a18.227 18.227 0 0 1-.21-1.684c-.08-1.006-.137-2.015-.203-3.023h-.02Zm17.251-5.91c.154.14.287.218.356.334.182.295.343.601.482.918a273.845 273.845 0 0 1 1.612 3.906c.1.249.36.609-.053.755-.338.118-.394-.281-.497-.521-.676-1.563-1.35-3.129-2.022-4.695-.049-.113-.132-.237-.115-.342.017-.106.135-.211.237-.355Zm200.875 1.884c-.188.098-.323.223-.461.223-.161 0-.326-.098-.487-.161-3.655-1.438-6.774-3.656-9.472-6.492-2.016-2.121-3.912-4.345-5.453-6.833-.909-1.466-1.649-3.039-2.438-4.58-.126-.246-.445-.636-.027-.838.452-.217.491.298.603.553 1.62 3.715 3.924 6.972 6.621 9.97 1.576 1.752 3.252 3.393 5.178 4.766a25.3 25.3 0 0 0 5.067 2.77c.208.08.409.175.603.284.095.055.143.178.266.338Zm-4.522-9.936a19.4 19.4 0 0 1-4.922-.687c-.292-.079-.849-.062-.732-.538.125-.512.59-.181.879-.106 1.368.358 2.755.618 4.165.652 2.675.064 5.127-.717 7.383-2.108.88-.543 1.682-1.211 2.519-1.823.099-.074.191-.157.286-.235.182-.149.386-.289.576-.047.189.241 0 .413-.171.564-2.37 2.123-5.068 3.6-8.233 4.139-.68.116-1.374.149-1.75.189Zm-117.295 27.9c-1.77.065-4.554-1.79-4.43-4.394.129-2.683 1.69-4.505 4.491-4.637 2.273-.106 4.493 2.175 4.501 4.51.008 2.406-2.102 4.496-4.562 4.521Zm-3.738-4.38c-.084 1.836 1.54 3.766 3.909 3.69 1.907-.061 3.7-1.601 3.704-3.798 0-2.014-1.774-3.864-3.722-3.864-2.259.009-3.893 1.677-3.891 3.972Zm133.605-60.426c-.157.951-.297 1.778-.432 2.601-.008.048-.007.116-.038.139-.125.094-.253.208-.396.24-.046.01-.219-.219-.205-.32.123-.903.263-1.803.432-2.698.022-.117.275-.306.345-.277.143.063.235.246.294.315Zm-222.939.114c.08-.69.148-1.303.223-1.916.018-.145.039-.309.118-.422a.53.53 0 0 1 .346-.191c.052-.006.17.177.178.278a2.51 2.51 0 0 1-.06.588 8.992 8.992 0 0 0 .289 4.396c.3.96.713 1.842 1.388 2.594.09.085.165.184.223.293.032.074.028.228-.02.266-.084.064-.259.123-.32.08a3.228 3.228 0 0 1-.594-.543c-.866-1.04-1.253-2.293-1.534-3.58-.136-.625-.167-1.272-.237-1.843Zm204-18.867c0 .419.028.842-.015 1.256-.016.149-.201.286-.31.427-.111-.139-.308-.272-.319-.418-.046-.639-.044-1.282-.049-1.923a55.085 55.085 0 0 0-.562-7.37c-.038-.269-.223-.677.181-.755.467-.09.433.396.478.676.129.802.241 1.611.297 2.421.137 1.893.239 3.789.355 5.683l-.056.003ZM114.066 20.787c.223-.208.465-.383.644-.608.334-.42.637-.867.944-1.308.098-.14.144-.325.263-.439.084-.08.285-.14.371-.093.086.047.182.257.149.359a2.22 2.22 0 0 1-.347.724 24.046 24.046 0 0 1-1.322 1.56c-.213.233-.476.246-.702-.195Zm-90.678 86.385c-.632-.047-1.37-.12-2.013-.554a1.465 1.465 0 0 1-.384-.34c-.052-.074-.033-.236.013-.329.03-.059.176-.099.257-.082.117.036.228.091.327.164 1 .594 2.053.709 3.127.262.614-.255 1.189-.594 1.783-.901.131-.068.245-.175.381-.223a.304.304 0 0 1 .138.006.307.307 0 0 1 .12.068.313.313 0 0 1 .05.265.788.788 0 0 1-.215.292c-.709.645-2.544 1.368-3.584 1.372Zm-.927-2.967c.943.531 2.155.384 2.805-.276l-.406-.543c.035-.272.194-.35.422-.298.587.136.83.902.406 1.358a2.091 2.091 0 0 1-.729.488c-.73.297-1.501.285-2.258.13-.53-.108-.818-.509-.776-.935.041-.397.61-.927 1.032-.932a.361.361 0 0 1 .287.165.356.356 0 0 1-.086.317c-.186.174-.407.314-.697.526Zm1.914-4.795c.097-.061.188-.16.297-.18 1.014-.194 1.966.022 2.857.505.129.07.27.336.23.452-.083.244-.32.149-.502.064-.748-.355-1.525-.558-2.364-.507-.17.01-.348-.09-.52-.141l.002-.192Zm-1.69.104c-.125.086-.243.231-.376.247-.704.085-1.24.45-1.727.932-.11.108-.286.148-.459.233-.247-.542.21-.704.433-.928.564-.565 1.243-.846 2.043-.677l.086.193Zm.215 2.855-2.462-.133c.18-.52.581-.664 1.03-.674.581-.011 1.103.141 1.431.807Zm2.03-.231c.503-.605 1.225-.52 1.913-.469.301.022.653.102.577.621-.426-.043-.834-.128-1.237-.11-.402.019-.79.142-1.188.22a12.48 12.48 0 0 0-.064-.262Zm193.002-4.814c.162-.371.287-.693.45-.994.042-.075.239-.154.305-.118.109.058.252.223.233.315a4.69 4.69 0 0 1-.319.979c-.043.095-.264.196-.355.163-.127-.047-.207-.218-.314-.345Z" fill="#000"/><path d="M118.562 185.743c-.035 1.319-.97 2.332-2.127 2.303-1.146-.029-2.361-1.216-2.331-2.279.03-1.064 1.189-2.215 2.24-2.205 1.052.01 2.244 1.177 2.218 2.181Zm-.649-.087c-.008-.706-.773-1.401-1.545-1.404-.755 0-1.576.822-1.575 1.584 0 .694.959 1.545 1.719 1.525.76-.02 1.412-.811 1.401-1.705Z" fill="#000"/></g><rect x="186.21" y="54.59" width="44.087" height="25.012" rx="12.506" fill="#222"/><path d="M196.522 70.986h1.852V68.25h2.736v-1.852h-2.736v-2.736h-1.852v2.736h-2.736v1.852h2.736v2.736Zm5.992-.248h5.085V72.6h2.141v-1.862h1.314v-1.795h-1.314v-6.936h-2.803l-4.423 6.967v1.764Zm5.126-1.795h-2.871v-.083l2.788-4.412h.083v4.495Zm8.389 3.802c2.359.01 3.967-1.537 3.962-3.694.005-1.986-1.381-3.419-3.258-3.419-1.164 0-2.194.56-2.669 1.495h-.073c.01-2.063.735-3.346 2.116-3.346.812 0 1.396.445 1.567 1.184h2.209c-.213-1.743-1.661-3.103-3.776-3.103-2.618 0-4.299 2.12-4.309 5.68-.005 3.879 2.053 5.192 4.231 5.203Zm-.01-1.759c-1.035 0-1.8-.833-1.8-1.867.005-1.03.786-1.868 1.815-1.868 1.035 0 1.79.813 1.785 1.863.005 1.06-.766 1.872-1.8 1.872Z" fill="#fff"/><path fill-rule="evenodd" clip-rule="evenodd" d="M174.296 91.647c.274.06-.687 1.313-.841 1.504l-40.462 50.499c-.155.192-.502.299-.776.24s-.371-.263-.216-.455l41.266-51.147c.155-.191.755-.7 1.029-.64Zm-17.71 12.571c.187.165-.58 1.162-.703 1.312l-19.686 22.929c-.123.15-.374.138-.561-.027-.187-.165-.239-.419-.116-.569l20.298-23.332c.123-.15.581-.478.768-.313Z" fill="#222"/><path d="M145.965 62.675a.45.45 0 0 1 .563-.297c15.585 4.844 26.214 10.45 37.388 19.305.046.037.113.107.182.19.07.083.148.184.218.287.069.102.132.21.171.304a.507.507 0 0 1 .038.142.202.202 0 0 1-.038.15c-.059.075-.147.09-.22.085a.707.707 0 0 1-.223-.063 1.866 1.866 0 0 1-.371-.226c-11.08-8.78-21.924-14.5-37.412-19.314a.45.45 0 0 1-.296-.563ZM186.1 88.478l-26.876 40.534.457 1.36 27.104-41.022-.685-.872Z" fill="#222"/><defs><clipPath id="a"><path fill="#fff" transform="translate(0 .94)" d="M0 0h254.318v213.421H0z"/></clipPath></defs></svg>