<svg width="282" height="145" viewBox="0 0 282 145" fill="none" xmlns="http://www.w3.org/2000/svg"><g clip-path="url(#a)"><path d="M218.254 26.012h-1.98a1.783 1.783 0 0 0-.839-.087c-2.895-.048-5.795-.091-8.69-.145-.829 0-.947-.151-.92-.982.123-3.34.091-6.678 0-10.012 0-.858.053-.939.963-.987.161 0 .393.113.398-.254.027-1.93-.538-3.862-.301-5.804.14-1.079.107-2.2.301-3.28a4.66 4.66 0 0 1 2.491-3.28 5.421 5.421 0 0 1 5.919.437c.425.287.751.698.936 1.176a15.866 15.866 0 0 1 1.077 6.22c0 .313-.124.378-.388.372a10.06 10.06 0 0 0-1.969.119c-.253.043-.404 0-.415-.335a28.26 28.26 0 0 0-.586-4.256c0-.086-.054-.226-.027-.242.57-.324.059-.572-.102-.718a2.72 2.72 0 0 0-2.594-.54 1.716 1.716 0 0 0-1.146 1.549c-.064 1.3-.102 2.61-.269 3.9-.199 1.537-.167 3.086-.29 4.628-.033.389.096.54.538.54.482-.015.965-.006 1.447.027 1.076.08 2.152-.124 3.229.162.999.255 2.037.32 3.061.194.342-.048.69.012.996.172v.664a1.678 1.678 0 0 0-.146.771c-.053 2.935-.113 5.864.065 8.793-.011.615-.092 1.063-.759 1.198Z" fill="#E39D49"/><path d="M212.331 26.2c-2.153-.07-4.262-.053-6.387-.215-.538-.043-.678-.26-.678-.745V14.36c0-.593.145-.944.807-.863.538.065.484-.308.489-.642.065-2.514.189-5.033.173-7.552-.027-3.41 2.744-5.114 5.472-5.287 3.347-.215 5.09 2.606 5.472 5.125.183 1.29.27 2.592.258 3.895 0 .442-.129.577-.538.54-.742-.033-1.49 0-2.238 0-.484 0-.694-.136-.673-.686a16.622 16.622 0 0 0-.231-3.5 2.384 2.384 0 0 0-.452-1.08 1.932 1.932 0 0 0-2.039-.771 1.794 1.794 0 0 0-1.324 1.715c-.124.987-.231 1.98-.264 2.972-.043 1.592 0 3.183 0 4.774 0 .357.081.508.468.54 2.303.097 4.601.221 6.904.34.131.008.262.008.393 0 1.049-.076 1.2.054 1.2 1.154 0 3.34 0 6.673.118 10.012.019.22.019.443 0 .664a.595.595 0 0 1-.183.433.581.581 0 0 1-.441.16 40.887 40.887 0 0 1-4.741 0c-.559-.038-1.06-.076-1.565-.103Zm-.442-.927c2.153.183 4.004.124 5.844.156.457 0 .608-.135.586-.61a113.129 113.129 0 0 1-.113-4.44 50.51 50.51 0 0 1 .103-5.102c0-.27.107-.588-.361-.604-.683 0-1.361-.119-2.039-.124-3.073 0-6.145-.076-9.212-.33-.495-.037-.646.076-.63.594.092 3.269.178 6.538 0 9.807-.032.54.183.669.678.663 1.814-.027 3.638-.027 5.144-.027v.017Zm-4.503-15.644v2.681c0 1.262 0 1.224 1.248 1.214.592 0 .769-.157.759-.777a49.522 49.522 0 0 1 .387-7.935 2.038 2.038 0 0 1 1.302-1.672c1.851-.793 3.476.07 3.917 2.098.198 1.11.288 2.238.269 3.366 0 .21-.032.54.307.448.538-.119 1.179.259 1.652-.275.032-.038 0-.13 0-.194a32.503 32.503 0 0 0-.36-3.777c-.356-1.618-1.803-3.727-3.649-3.921-2.561-.27-5.133.82-5.639 3.884a25.622 25.622 0 0 0-.193 4.882v-.022Z" fill="#292929"/><path d="M212.056 23.126h-1.313c-.436 0-.5-.167-.355-.54.311-.965.67-1.914 1.076-2.842.135-.265.103-.4-.177-.572a1.554 1.554 0 0 1-.538-2.115c.349-.54 1.404-.744 2.082-.361a1.327 1.327 0 0 1 0 2.368c-.42.232-.436.399-.237.798.431.869.807 1.764 1.189 2.654.189.437.124.723-.457.675-.414-.033-.834 0-1.248 0l-.022-.065Z" fill="#292929"/><path d="M25.466 117.624H23.49a1.783 1.783 0 0 0-.845-.081c-2.873-.054-5.746-.092-8.609-.141-.91 0-1.012-.151-.98-1.078.124-3.291.087-6.582 0-9.872 0-.917.038-1.014.97-1.036.311 0 .403-.07.397-.399 0-1.197-.048-2.39 0-3.582.119-2.773 1.173-4.704 4.128-5.319 1.377-.29 2.819-.285 4.008.675a5.807 5.807 0 0 1 2.276 4.024c.217 1.532.295 3.082.232 4.628 0 .227-.027.496.3.448.33-.049.604.194.9.313v.663a1.733 1.733 0 0 0-.146.772c-.054 2.929-.113 5.858.065 8.782.027.62-.054 1.079-.721 1.203Zm-5.79-11.96v.076h1.248c.415 0 .942.167 1.216 0 .275-.167.033-.798.049-1.219a11.646 11.646 0 0 0-.345-3.733 2.541 2.541 0 0 0-2.604-1.877 2.42 2.42 0 0 0-1.986 2.244c-.128 1.337-.145 2.697-.225 4.024 0 .426.172.539.538.539.705-.086 1.404-.054 2.11-.054Z" fill="#E39D49"/><path d="M19.822 117.699c-2.152-.086-4.262-.07-6.387-.232-.538-.037-.694-.237-.689-.733v-10.87c0-.583.135-.944.797-.879.403.038.538-.151.538-.54a27.512 27.512 0 0 1 .156-4.364 5.134 5.134 0 0 1 1.778-3.305 5.11 5.11 0 0 1 3.549-1.204c3.53.059 5.456 2.044 5.725 5.755.105 1.099.153 2.203.145 3.307 0 .324.049.54.425.604.581.076.743.486.748.998v2.919c.032 2.427.068 4.856.108 7.287 0 1.29-.054 1.371-1.356 1.392-1.851.027-3.697-.038-5.537-.135Zm-.452-.938c2.12.183 3.966.118 5.806.151.484 0 .662-.119.624-.637a45.084 45.084 0 0 1-.118-3.177c0-2.12-.086-4.24.113-6.355.043-.431-.087-.588-.539-.588-.608 0-1.22-.108-1.834-.113-3.094 0-6.194-.075-9.277-.329-.538-.049-.619.156-.602.62.102 3.269.166 6.533 0 9.802 0 .512.161.636.635.631 1.824-.022 3.648-.005 5.192-.005Zm.414-20.434c-2.545.054-4.304 1.424-4.697 3.911a31.605 31.605 0 0 0-.178 3.565c-.037 1.311-.253 1.122 1.114 1.171.457 0 .624-.146.64-.588.038-1.106.119-2.206.162-3.307.048-1.418 1.076-2.724 2.265-2.88a3.001 3.001 0 0 1 2.047.464 3.015 3.015 0 0 1 1.246 1.693c.27 1.14.392 2.309.36 3.48.055 1.418-.22 1.219 1.265 1.257.614 0 .77-.232.721-.777-.097-1.144-.156-2.293-.269-3.431-.258-2.66-2.174-4.531-4.676-4.558Zm-.097 8.663v.103h1.846c.242 0 .436 0 .436-.346a16.765 16.765 0 0 0-.345-4.207 2.25 2.25 0 0 0-2.351-1.619c-.834 0-1.679 1.025-1.754 2.061-.086 1.187-.108 2.379-.178 3.571 0 .345.097.48.442.475.635-.043 1.275-.038 1.904-.038Z" fill="#292929"/><path d="M19.596 114.651c-.597-.07-1.425.243-1.732-.199-.307-.443.28-1.079.441-1.646a5.9 5.9 0 0 1 .398-1.051c.28-.54.463-.928-.258-1.354-.635-.378-.538-1.619 0-2.131a1.78 1.78 0 0 1 2.308.297 1.286 1.286 0 0 1 .241 1.096 1.293 1.293 0 0 1-.703.872c-.436.232-.415.416-.227.804.431.869.808 1.764 1.19 2.649.193.453.102.717-.463.674-.404-.032-.802-.011-1.195-.011Z" fill="#292929"/><path d="M206.535 96.904V60.622c0-1.619.07-3.28.092-4.92a9.972 9.972 0 0 1 .473-2.697c.215-.74.603-1.408 1.48-1.473a2.07 2.07 0 0 1 2.082 1.08c.311.56.474 1.191.474 1.833.122 4.852.215 9.706.28 14.565.166 14.025-.081 28.023-.086 42.033 0 5.394-.2 10.815-.237 16.226 0 3.743-.151 7.493-.248 11.236a9.663 9.663 0 0 1-.231 2.158 1.955 1.955 0 0 1-1.797 1.483 1.82 1.82 0 0 1-1.851-1.003 4.864 4.864 0 0 1-.673-2.627c0-6.797-.091-13.588.043-20.38.102-5.173.054-10.352.07-15.525v-5.685l.129-.022Zm-2.378 2.476v2.81c-.065 8.367-.205 16.723-.108 25.106.038 3.382.124 6.764.189 10.152v2.158c0 1.58-.485 2.19-1.873 2.411-1.388.221-2.373-.313-2.857-1.716a5.009 5.009 0 0 1-.231-1.693c.026-6.414.07-12.823.064-19.231 0-7.067 0-14.139-.102-21.205a1118.89 1118.89 0 0 1-.075-20.887c.026-4.914.226-9.834.387-14.748.048-1.505.226-3.01.371-4.515a4.68 4.68 0 0 1 .479-1.619 1.865 1.865 0 0 1 1.889-1.04 1.643 1.643 0 0 1 1.539 1.229c.287.87.44 1.78.452 2.697.183 4.046.145 8.092.075 12.138-.081 4.536.032 9.067 0 13.604-.038 4.79 0 9.58 0 14.37l-.199-.021Zm-6.748.62c.102 10.789.167 20.224.167 29.669 0 3.28-.065 6.556-.194 9.829-.043 1.176-.769 2.158-1.705 2.341a2.588 2.588 0 0 1-2.955-1.662 7.39 7.39 0 0 1-.349-2.395c-.146-7.897-.162-15.794.059-23.692.161-5.933.048-11.84-.032-17.758-.108-8.091-.167-16.226 0-24.334.075-3.317.086-6.64.193-9.958a3.372 3.372 0 0 1 1.109-2.697 1.804 1.804 0 0 1 2.911.594 8.33 8.33 0 0 1 .748 3.339c.161 6.662.129 13.33.097 19.991-.022 6.042.086 12.046-.049 16.733Zm-11.649 3.21c-.226-4.92-.043-9.419-.205-13.907-.274-7.45.086-14.899.033-22.349 0-.916.091-1.83.274-2.729a2.555 2.555 0 0 1 2.265-2.185c.829-.13 1.706.615 1.943 1.672.168.815.251 1.645.247 2.477.027 1.078 0 2.125 0 3.193.043 10.13.189 20.266.092 30.402a4459.925 4459.925 0 0 0-.21 38.71 4.075 4.075 0 0 1-.565 2.32c-.586.89-1.308 1.251-2.152 1.079a2.152 2.152 0 0 1-1.55-1.98c-.054-.809-.059-1.618-.065-2.427-.053-10.455-.104-20.909-.15-31.363.037-1.128.043-2.233.043-2.913Zm-6.865.906c-.054-6.619-.296-13.237-.248-19.862.032-3.98-.037-7.962 0-11.943 0-1.446.124-2.891.226-4.315a3.455 3.455 0 0 1 .974-2.104 2.031 2.031 0 0 1 1.97-.477 2.025 2.025 0 0 1 1.398 1.47c.185 1.068.268 2.152.248 3.236.032 4.132 0 8.264.038 12.407.064 4.66-.092 9.327 0 13.988.14 7.643.376 15.287.29 22.926-.07 6.181.108 12.353.07 18.524a6.939 6.939 0 0 1-.57 2.923c-.382.804-.899 1.495-1.894 1.473a2.513 2.513 0 0 1-1.356-.584 2.53 2.53 0 0 1-.797-1.245 7.19 7.19 0 0 1-.252-1.828c-.108-6.026-.275-12.051-.108-18.077.134-5.524.043-11.015.011-16.512Zm-2.314 1.564c-.135 8.923.285 18.498.258 28.051 0 1.791 0 3.576-.134 5.362a4.184 4.184 0 0 1-1.351 2.605 1.436 1.436 0 0 1-1.652.222c-1.539-.583-2.029-1.716-1.996-3.237.124-5.47.204-10.945.091-16.415-.15-7.218.065-14.43-.032-21.648-.086-6.77-.145-13.54-.065-20.304.033-2.875.269-5.74.248-8.63.021-.688.262-1.35.689-1.889a1.66 1.66 0 0 1 1.738-.82 2.27 2.27 0 0 1 1.802 1.592c.223.713.321 1.46.291 2.206 0 1.343-.07 2.697-.097 4.024-.081 3.776.108 7.552.167 11.36.064 4.278.053 8.561.07 12.839a279.791 279.791 0 0 0-.027 4.682Zm-14.06 5.535v23.951c0 1.769-.07 3.528-.124 5.297-.037 1.252-.893 1.958-2.023 1.737-1.921-.372-2.48-.998-2.561-3.053-.049-1.295 0-2.595 0-3.895.097-5.297-.086-10.594-.108-15.897 0-5.151-.059-10.303-.064-15.455 0-3.808 0-7.616.037-11.43.07-4.38.232-8.76.355-13.146a3.826 3.826 0 0 1 1.2-2.697c.506-.491 1.798-.33 2.389.302a2.82 2.82 0 0 1 .651 2.006c.124 4.494.194 8.982.092 13.486a336.785 336.785 0 0 0 .156 18.794Zm2.206-4.213V88.295c0-3.172.103-6.344.172-9.516.033-1.419-.161-2.848.13-4.267.06-.464.215-.91.457-1.31a1.875 1.875 0 0 1 1.743-.988 1.956 1.956 0 0 1 1.615 1.187 5.04 5.04 0 0 1 .441 2.157c.091 4.213-.119 8.426-.205 12.64-.086 4.212-.059 8.517-.059 12.773v36.79c0 .782-.059 1.569-.102 2.357-.07 1.3-.883 2.249-1.905 2.233a2.307 2.307 0 0 1-2.077-2.282 142.054 142.054 0 0 1-.107-4.66c-.06-9.138-.243-18.292-.103-28.407Zm-13.968 4.688V90.55c0-1.403-.027-2.811-.119-4.208a17.345 17.345 0 0 1 .425-4.688 2.347 2.347 0 0 1 2.427-2.001 1.647 1.647 0 0 1 1.539 1.224c.23.776.364 1.576.398 2.385 0 4.596-.07 9.197 0 13.793.118 6.301-.054 12.601 0 18.88.032 4.084-.167 8.173-.027 12.256.124 3.684-.129 7.363-.048 11.042a3.756 3.756 0 0 1-.764 2.196 1.86 1.86 0 0 1-1.663.861 1.85 1.85 0 0 1-1.566-1.028 4.605 4.605 0 0 1-.586-2.449c0-5.47.018-10.942.053-16.415v-10.73l-.069.022Zm-7.135 5.06c-.043-2.012 0-5.762-.049-9.511-.026-3.107-.048-6.219.092-9.321.161-3.452 0-6.9.108-10.346a13.98 13.98 0 0 1 .252-2.406c.122-.567.422-1.08.856-1.462 1.033-.923 2.066-.793 2.846.345a4.44 4.44 0 0 1 .786 2.45c.21 9.428.178 18.879.07 28.292-.092 7.99 0 15.973-.059 23.957a7.653 7.653 0 0 1-.452 2.433 1.43 1.43 0 0 1-1.076 1.003c-1.233.27-3.127-.264-3.299-2.05-.183-1.872-.064-3.749-.075-5.621-.022-5.34 0-10.686 0-17.763Zm-6.543-2.244V96.553c0-2.255-.043-4.51-.07-6.764a5.525 5.525 0 0 1 .226-1.575c.403-1.408 1.162-1.964 2.496-1.808a2.313 2.313 0 0 1 1.889 2.33c.032 1.62 0 3.275 0 4.915v44.719a14.47 14.47 0 0 1-.172 2.099c-.178 1.165-.893 1.747-2.126 1.78a2.017 2.017 0 0 1-2.076-1.694 7.747 7.747 0 0 1-.135-1.964v-24.085h-.032Zm-2.47 1.683v21.269a7.106 7.106 0 0 1-.425 2.886 2.248 2.248 0 0 1-1.555 1.392 1.726 1.726 0 0 1-2.082-1.041c-.571-1.138-.496-2.373-.539-3.571-.064-4.725-.134-9.456 0-14.182.113-3.538.06-7.072 0-10.605-.123-6.241.092-12.477.081-18.718.001-.425.068-.848.199-1.252.398-1.262 1.13-1.888 2.077-1.796a2.483 2.483 0 0 1 2.222 2.309c.107 1.255.132 2.517.076 3.776-.102 6.5-.14 13.016-.054 19.533Zm-11.494 7.94c0-3.916.108-7.838 0-11.749-.167-4.811-.064-9.618-.108-14.424a5.334 5.334 0 0 1 .684-2.946c.581-.938 1.614-1.305 2.453-.814a2.49 2.49 0 0 1 1.077 1.931 33.45 33.45 0 0 1 .204 4.316c.113 3.975.183 7.951.242 11.932.129 8.766.28 17.532.21 26.303a9.489 9.489 0 0 1-.145 1.456 2.056 2.056 0 0 1-1.781 1.672 2.098 2.098 0 0 1-2.185-1.078 5.6 5.6 0 0 1-.479-2.352c-.236-4.758-.134-9.505-.172-14.247Zm-6.984-3.139v-14.365c0-1.872.172-3.739.124-5.611a4.23 4.23 0 0 1 .731-2.395c.883-1.36 2.384-1.267 3.18.13.678 1.181.609 2.46.657 3.722.199 5.044.043 10.082-.065 15.104-.118 5.443-.037 10.897-.027 16.345 0 1.936.092 3.873.103 5.804.01 1.931-1.286 2.902-3.116 2.395a2.43 2.43 0 0 1-1.501-2.109c-.151-2.508-.124-5.022-.172-7.552-.092-3.808 0-7.638.086-11.468Zm-7.044 1.408c.232-5.173.032-10.347.108-15.514.008-1.269.141-2.534.398-3.776a2.106 2.106 0 0 1 1.383-1.619 1.466 1.466 0 0 1 1.915.642c.514.786.792 1.704.802 2.643.248 5.023.086 10.045.145 15.067.06 5.615.146 11.236.081 16.852 0 .895-.054 1.785-.118 2.697a2.377 2.377 0 0 1-1.986 2.158 2.308 2.308 0 0 1-2.335-1.781 5.553 5.553 0 0 1-.161-1.197c-.087-3.765-.162-7.531-.226-11.296-.027-1.645-.006-3.263-.006-4.876Zm-2.157.976v12.132c0 1.365-.07 2.724-.119 4.083-.048 1.268-.801 2.185-1.775 2.196-1.787 0-2.691-.664-2.825-2.158a42.668 42.668 0 0 1-.14-2.994 809.53 809.53 0 0 1-.076-14.365c0-5.152.162-10.303.318-15.449.032-1.079.71-1.786 1.872-2.007 1.077-.2 1.738.178 2.217 1.235.479 1.058.485 2.331.49 3.517.027 4.596 0 9.198 0 13.794l.038.016Zm-6.764-.69c0 2.983.097 5.966-.032 8.938-.108 2.552-.033 5.108-.21 7.66a2.499 2.499 0 0 1-.781 1.801 2.479 2.479 0 0 1-1.84.675.818.818 0 0 1-.58-.221c-.684-.68-1.287-1.381-1.33-2.449a113.675 113.675 0 0 1-.102-6.511c.075-4.596.263-9.171.194-13.788-.038-2.476 0-4.931.188-7.39.102-1.538.834-2.52 2.066-2.8a1.525 1.525 0 0 1 1.835.782c.384.69.593 1.465.608 2.255.172 3.706.081 7.363-.016 11.048Zm-7.038 4.962c-.043 2.768-.091 5.535-.13 8.302 0 1.257-.058 2.509-.101 3.776 0 .761-.189 1.505-.974 1.791a2.357 2.357 0 0 1-2.47-.318 3.843 3.843 0 0 1-1.286-2.961c-.135-5.53-.204-11.07-.054-16.604.049-1.721.049-3.447.038-5.173-.043-1.15.086-2.299.382-3.41a2.157 2.157 0 0 1 2.115-1.688 2.18 2.18 0 0 1 2.216 1.753 13.39 13.39 0 0 1 .259 3.107c.016 3.803.005 7.612.005 11.425Zm-7.441-5.469a547.7 547.7 0 0 0-.237 13.41 39.61 39.61 0 0 1-.043 4.661c-.124 1.03-.441 1.418-1.168 1.494-1.442.145-2.093-.14-2.432-1.16a9.376 9.376 0 0 1-.409-2.643c-.215-5.395-.134-10.789-.097-16.145a30.41 30.41 0 0 1 .345-4.855 2.94 2.94 0 0 1 .871-1.737 1.754 1.754 0 0 1 1.814-.486 1.613 1.613 0 0 1 1.076 1.467c.255 1.605.356 3.231.301 4.855-.032.443-.021.885-.021 1.139Zm-6.705 5.119c-.032.981.13 1.958.118 2.934-.032 2.66-.08 5.314-.096 7.973a4.32 4.32 0 0 1-1.13 2.778 1.794 1.794 0 0 1-1.938.658 2.03 2.03 0 0 1-1.538-1.553 13.185 13.185 0 0 1-.285-2.698c-.097-3.975.048-7.951.107-11.926v-4.084c-.022-.858.24-1.7.743-2.395a2.234 2.234 0 0 1 2.276-.955c.86.151 1.237.793 1.442 1.618.16.596.252 1.208.274 1.824.043 1.915.027 3.873.027 5.826Zm-11.498 3.948c-.06-2.244 0-4.18.129-6.112.035-.769.25-1.519.63-2.19a1.791 1.791 0 0 1 1.716-1.079 1.976 1.976 0 0 1 1.77 1.354c.155.421.24.863.253 1.311.189 4.618-.091 9.23-.285 13.837a9.726 9.726 0 0 1-.253 1.51 2.206 2.206 0 0 1-.65 1.149 1.693 1.693 0 0 1-1.723.567 1.62 1.62 0 0 1-1.157-1.398 15.764 15.764 0 0 1-.285-2.405c-.054-2.298-.21-4.575-.145-6.544Zm-2.648 2.541v5.297c0 .257-.016.512-.049.766-.183 1.371-.538 1.737-1.824 1.845-1.135.103-1.83-.372-2.195-1.51a6.189 6.189 0 0 1-.307-1.883c0-3.36-.037-6.721.14-10.082a5.81 5.81 0 0 1 .27-1.618 4.74 4.74 0 0 1 .268-.647 2.01 2.01 0 0 1 1.92-1.122 1.716 1.716 0 0 1 1.486 1.461 13.76 13.76 0 0 1 .345 3.485v4.024l-.054-.016Zm-6.984.491c-.043 1.996 0 3.549-.14 5.098a3.496 3.496 0 0 1-.44 1.58 1.704 1.704 0 0 1-1.468.877 1.693 1.693 0 0 1-1.487-.845 3.51 3.51 0 0 1-.538-1.677 61.162 61.162 0 0 1-.064-8.599 3.083 3.083 0 0 1 .72-1.742 1.853 1.853 0 0 1 2.217-.653c.78.254 1.076.696 1.173 1.689.11 1.421.119 2.849.027 4.272Zm-6.354 1.176-.324 4.003a2.08 2.08 0 0 1-.053.312c-.27 1.273-1.076 2.034-2.196 1.996a2.577 2.577 0 0 1-1.47-.685 2.592 2.592 0 0 1-.773-1.429c-.296-1.511 0-3.01.075-4.51a5.36 5.36 0 0 1 .199-1.516c.086-.284.2-.558.339-.82a2.224 2.224 0 0 1 2.233-1.154 2.694 2.694 0 0 1 1.776 1.834c.062.226.104.457.123.69v1.273l.07.006Zm-11.725 3.139a8.907 8.907 0 0 1 .177-1.65 2.155 2.155 0 0 1 1.948-1.732 2.023 2.023 0 0 1 2.056 1.57 6.334 6.334 0 0 1 0 3.469c-.12.457-.39.861-.767 1.146a2.091 2.091 0 0 1-1.31.423 2.023 2.023 0 0 1-1.948-1.462 4.864 4.864 0 0 1-.156-1.764Zm-4.741 3.183a2.365 2.365 0 0 1-1.722-.496 1.563 1.563 0 0 1-.638-1.385 1.574 1.574 0 0 1 .837-1.274 2.969 2.969 0 0 1 3.466.453 1.418 1.418 0 0 1 .488 1.284 1.425 1.425 0 0 1-.822 1.1 3.11 3.11 0 0 1-1.609.318Z" fill="#35A61A"/><path d="M185.733 49.876c-1.851-.647-3.589-1.252-5.327-1.866-.812-.286-1.13-.642-.904-1.08.334-.63.867-.382 1.351-.215 2.152.723 4.24 1.516 6.398 2.158.957.29 1.259.938.898 1.866-.818 2.104-1.646 4.197-2.47 6.295a1.592 1.592 0 0 1-.172.345.639.639 0 0 1-.812.34.627.627 0 0 1-.382-.793c.1-.367.224-.727.371-1.079.538-1.375 1.076-2.75 1.657-4.148-.107 0-.177-.07-.215-.048-4.305 2.184-8.808 4.035-13.07 6.354-6.731 3.652-13.608 7.013-20.447 10.487a2326.049 2326.049 0 0 1-18.919 9.607c-4.234 2.158-8.426 4.343-12.671 6.473-10.423 5.184-20.872 10.325-30.902 16.259-2.33 1.375-4.923 2.212-7.323 3.463-5.623 2.935-11.3 5.783-16.917 8.723-7.13 3.727-14.394 7.18-21.394 11.15-3.191 1.807-6.457 3.495-9.686 5.254-.263.14-.538.28-.801.41-.264.129-.646.216-.856-.14-.21-.356-.043-.615.248-.831.153-.117.315-.224.484-.318 1.743-.961 3.454-1.991 5.273-2.822 2.771-1.267 5.29-3.004 7.958-4.471 4.396-2.423 8.948-4.543 13.366-6.927 3.395-1.834 6.731-3.776 10.223-5.47 4.666-2.276 9.25-4.72 13.953-6.91 4.81-2.244 9.314-5.038 14.017-7.471 3.104-1.618 6.225-3.183 9.319-4.801 4.558-2.39 9.104-4.796 13.753-7.013 6.743-3.204 13.28-6.813 19.958-10.146 8.458-4.23 16.836-8.631 25.176-13.07 3.665-1.965 7.453-3.696 11.176-5.557 2.395-1.198 4.768-2.444 7.151-3.674.172-.086.312-.188.538-.334Zm7.619-10.594c0-.578.156-1.225-.043-1.721s-.963-.432-1.458-.653c-1.442-.647-2.002-2.017-1.491-3.652a3.78 3.78 0 0 1 2.438-2.465c.409-.151.64-.324.619-.81 0-.399.107-.82.608-.84.5-.022.689.41.672.835-.016.427.243.631.635.799 1.254.54 2.153 1.375 2.309 2.837.037.383 0 .793-.436.885a.888.888 0 0 1-1.125-.491 2.513 2.513 0 0 0-.845-1.268c-.118-.08-.236-.221-.398-.14-.161.08-.091.221-.091.345v2.638a.536.536 0 0 0 .43.54c1.157.399 1.808 1.348 2.395 2.324a2.807 2.807 0 0 1-.641 3.301 3.51 3.51 0 0 1-1.399.896c-.678.189-.839.54-.791 1.209.049.669-.22.906-.893.927-.328 0-.484-.113-.463-.442v-.13c-.032-1.019-.043-.987-1.022-1.24a3.714 3.714 0 0 1-2.577-2.158c-.178-.388-.366-.814.048-1.106a1.027 1.027 0 0 1 1.302.135c.275.232.49.54.748.798.137.163.299.303.479.416.689.377 1.017.178 1.022-.583v-1.186h-.032Zm1.388.059v1.154c0 .232.049.4.329.27a1.618 1.618 0 0 0 1.017-1.214 1.205 1.205 0 0 0-.576-1.316c-.194-.124-.404-.35-.619-.27-.215.081-.108.41-.134.626a7.25 7.25 0 0 0-.017.766v-.016Zm-1.345-5.313v-1.026c0-.178 0-.366-.285-.242-.775.345-1.049 1.812-.42 2.33.173.14.377.356.614.237.236-.118.08-.35.091-.539.011-.189 0-.507 0-.76ZM4.853 132.55v-.065a5.47 5.47 0 0 0-.064-1.661c-.21-.599-.963-.378-1.458-.588-2.034-.853-2.492-3.863-.797-5.395a3.655 3.655 0 0 1 1.819-.917.606.606 0 0 0 .466-.224.607.607 0 0 0 .12-.504 8.347 8.347 0 0 1 .043-.901c0-.21.097-.41.313-.431a.364.364 0 0 1 .294.113.363.363 0 0 1 .093.302c-.15 1.235.538 1.721 1.614 2.055a2.999 2.999 0 0 1 1.803 1.829c.183.437.215.858-.242 1.138a.775.775 0 0 1-1.077-.286 3.302 3.302 0 0 0-1.329-1.176c-.409-.167-.624-.162-.597.383a18.68 18.68 0 0 1 0 2.126.743.743 0 0 0 .667.895 4.137 4.137 0 0 1 2.239 1.316c1.404 1.619 1.027 3.82-.877 5.098a1.97 1.97 0 0 1-.62.329c-.85.194-1.452.539-1.28 1.57a.437.437 0 0 1-.86.065c.059-1.079-.646-1.16-1.443-1.398-1.243-.372-2.039-1.381-2.69-2.465a.871.871 0 0 1 .247-1.257.922.922 0 0 1 .711-.134.912.912 0 0 1 .586.426c.4.585.892 1.101 1.458 1.526.243.146.512.335.775.184.264-.151.097-.437.108-.664v-1.289h-.022Zm2.933.081a2.09 2.09 0 0 0-1.577-1.619c-.269 0-.274.125-.274.308 0 .922.032 1.845.043 2.767 0 .2.043.319.296.27a2.215 2.215 0 0 0 1.512-1.726Zm-2.965-5.395v-1.219c0-.183 0-.367-.274-.28a1.65 1.65 0 0 0-1.168 1.003 1.564 1.564 0 0 0 .258 1.57 1.074 1.074 0 0 0 .99.351c.35-.071.13-.47.162-.718a4.5 4.5 0 0 0 .032-.734v.027Zm14.081 3.296c0-1.16.168-2.314.5-3.425.787-2.476 3.6-3.776 6.07-2.988 1.615.496 2.217 1.677 2.519 3.026a11.246 11.246 0 0 1-.087 5.669c-.747 2.579-2.26 3.652-4.842 3.399a4.566 4.566 0 0 1-2.919-1.405 4.587 4.587 0 0 1-1.257-2.992c-.01-.426.017-.83.017-1.284Zm7.883-.836c-.059-.685-.075-1.375-.188-2.05a2.702 2.702 0 0 0-.696-1.519 2.684 2.684 0 0 0-1.456-.816 3.412 3.412 0 0 0-2.234.522 3.428 3.428 0 0 0-1.404 1.819 12.551 12.551 0 0 0-.392 4.078 3.054 3.054 0 0 0 1.076 2.255 2.993 2.993 0 0 0 2.842.689 2.998 2.998 0 0 0 2.07-2.07 9.604 9.604 0 0 0 .382-2.908Zm174.929-93.969a12.484 12.484 0 0 1 1.868-.351 4.675 4.675 0 0 1 3.104.81 3.19 3.19 0 0 1 1.503 2.117 3.198 3.198 0 0 1-.561 2.538c-1.265 1.936-4.482 2.47-6.296 1.04a2.598 2.598 0 0 1-.791-.916c-.182-.383-.231-.777.183-1.02a.68.68 0 0 1 .533-.062.675.675 0 0 1 .409.348c.111.16.235.31.371.448 1.189 1.122 3.767.739 4.509-.718.818-1.57.097-2.697-1.883-3.16a4.073 4.073 0 0 0-2.819.414 1.016 1.016 0 0 1-1.55-1.17c.172-1.214.312-2.428.511-3.636.145-.863.463-1.187 1.329-1.203 1.69-.038 3.385 0 5.074.033.431 0 .775.22.759.7-.016.48-.382.654-.807.643-1.415-.049-2.83.162-4.24 0-.538-.07-.845.038-.888.663-.059.783-.199 1.586-.318 2.482Zm8.674 1.726a10.814 10.814 0 0 1 .462-3.237c.705-2.233 3.266-3.409 5.5-2.73 1.452.443 2.033 1.5 2.319 2.698.424 1.72.398 3.52-.076 5.227-.683 2.33-2.104 3.345-4.347 3.086a4.15 4.15 0 0 1-2.728-1.298 4.167 4.167 0 0 1-1.13-2.807c-.011-.292 0-.615 0-.939Zm7.151-1.279c0-.237-.043-.684-.086-1.132a2.605 2.605 0 0 0-.561-1.542 2.585 2.585 0 0 0-1.371-.897c-1.205-.22-2.793.54-3.229 1.619a8.654 8.654 0 0 0-.387 4.995c.253 1.133 1.415 1.899 2.739 1.942 1.323.043 2.061-.475 2.507-1.748a8.279 8.279 0 0 0 .388-3.236Zm3.411 1.306a10.55 10.55 0 0 1 .468-3.301c.705-2.196 3.266-3.367 5.462-2.698 1.474.443 2.066 1.516 2.351 2.773.415 1.72.381 3.518-.097 5.222-.667 2.26-2.071 3.28-4.251 3.058a4.138 4.138 0 0 1-2.726-1.219 4.156 4.156 0 0 1-1.202-2.74c-.032-.372-.005-.734-.005-1.095Zm7.146-1.29c0-.231-.049-.663-.086-1.078-.113-1.333-.926-2.347-2.002-2.514-1.222-.183-2.771.599-3.175 1.72a8.71 8.71 0 0 0-.376 4.856c.252 1.176 1.393 1.952 2.755 1.996 1.361.043 2.06-.475 2.507-1.754a8.22 8.22 0 0 0 .377-3.225ZM15.642 130.112v5.157c.029.234.003.473-.075.695a.626.626 0 0 1-.603.405.574.574 0 0 1-.587-.421 3.51 3.51 0 0 1-.107-.825c-.092-2.962-.027-5.934 0-8.895 0-.205.107-.486-.086-.599-.194-.113-.382.129-.538.243a22.13 22.13 0 0 0-1.529 1.079c-.355.253-.72.35-1.027-.027a.69.69 0 0 1-.044-.823.677.677 0 0 1 .21-.202 16.179 16.179 0 0 1 3.304-2.104c.598-.291 1.076.059 1.109.787.032 1.031 0 2.066 0 3.097v2.449l-.027-.016Z" fill="#292929"/><path d="M249.091 62.418a2.69 2.69 0 0 1-.99-.852 25.765 25.765 0 0 1-4.337-9.23 18.977 18.977 0 0 0-1.125-2.924 14.73 14.73 0 0 1-.92-7.525c.102-.933.075-1.877.124-2.821.071-1.257.325-2.496.753-3.68.038-.112.409-.07.28-.204-.388-.42-.242-.987-.345-1.494-.156-.756-.102-.6.63-.847.732-.248 1.577-.54 2.373-.75.882-.248.995-.507 1.211.394.111.5.151 1.014.118 1.526a1.461 1.461 0 0 0 .603 1.111 1.755 1.755 0 0 1 .57 1.43c-.032.75-.129 1.489-.231 2.233a2.734 2.734 0 0 0 .086 1.5c.538 1.268.403 2.605.387 3.933 0 .107-.167.21 0 .323 1.001.594 1.248 1.678 1.614 2.649a25.934 25.934 0 0 1 1.426 5.934 1.465 1.465 0 0 0 .538 1.03c.219.175.417.374.592.593a9.41 9.41 0 0 0 2.153 2.072c.726.442 1.14 1.219 1.775 1.769a.886.886 0 0 1 .162.966c-.969 3.938-1.911 7.886-3.439 11.657a20.183 20.183 0 0 1-1.969 3.743c-.118.178-.28.464-.414.459-.619 0-.592.35-.582.782.011.432-.339.669-.581.955-1.27 1.5-2.878 2.632-4.277 3.992-.657.642-1.346 1.262-1.964 1.947a19.035 19.035 0 0 0-1.878 2.023.772.772 0 0 1-.934.275.763.763 0 0 1-.282-.205c-.35-.334-.302-.76-.49-1.192-.145-.33-.097-.42.231-.663.279-.267.597-.489.942-.659.366-.13.409-.34.441-.647.103-.95-.075-2.158.07-3.112.35-2.245 2.153-3.162 4.014-4.095.468-.232.737-.27.786-.89.118-1.521.108-3.425.339-4.941a16.018 16.018 0 0 1 2.54-6.565Zm12.838 17.661a.758.758 0 0 1-.538-.852c0-2.212.253-4.408.371-6.609.087-1.645.253-3.285.431-4.92a55.549 55.549 0 0 1 1.076-6.289c.065-.27.683-1.079.689-1.327.027-1.365.376-1.462 1.517-1.872.291-.108.355-.496.662-.642 2.255-1.079 3.637-1.079 5.72.54.538.399 1.571.83 1.98 1.343a6.284 6.284 0 0 0 3.105 2.266c1.522.404 2.69.944 3.599 2.157 1.007 1.343 1.2 2.983-.172 4.434-2.244 2.374-5.042 2.439-7.727 1.478-.355-.129-.699-.334-.699-.814 0-.48-.463-.324-.716-.415-.253-.092-.339.145-.36.366a15.378 15.378 0 0 1-.732 3.776 14.05 14.05 0 0 1-.969 2.698c-.07.118 0 .188.038.285.818 1.403 1.028 2.962 1.211 4.537.105 1.076.143 2.157.113 3.237.008.278-.025.556-.097.825a.75.75 0 0 0 .237.847c.764.723.629 1.484-.28 1.974a14.866 14.866 0 0 1-4.585 1.327 18.38 18.38 0 0 1-3.572.265c-1.179-.027-1.399-.168-1.453-1.338a40.914 40.914 0 0 1 .306-5.19 3 3 0 0 1 .845-2.087Zm9.621-14.667c.102-.54-.285-.944-.43-1.419-.06-.194-.538-.243-.802-.4a1.201 1.201 0 0 1-.398-.41c-.07-.118-.113-.22-.269-.199-.361.049-.598-.183-.85-.377a2.998 2.998 0 0 0-3.498-.19c-.14.082-.28.19-.28.33a7.813 7.813 0 0 0 .086 1.926c.199.717 0 1.78.711 2.427.71.647.828.896 1.727.669a2.254 2.254 0 0 1 1.781.151c.343.16.704.278 1.076.35.129 0 .307.087.398-.096.345-.723.985-1.867.748-2.762Zm-5.515-28.159a25.7 25.7 0 0 1 .99-3.668c1.076-3.366 2.319-6.678 3.352-10.066.07-.224.162-.44.275-.647a.437.437 0 0 1 .538-.243.466.466 0 0 1 .301.54 3.306 3.306 0 0 1-.108.54 63.709 63.709 0 0 1-2.943 8.706 78.235 78.235 0 0 0-1.894 4.92c-.064.188-.102.485-.377.43-.274-.053-.096-.29-.134-.512Zm-5.919-6.327v2.837a6.087 6.087 0 0 1-.075.83c-.027.217-.086.492-.328.486-.242-.005-.189-.296-.205-.469a58.073 58.073 0 0 1-.511-6.613c0-.453-.054-1.08.597-1.08.652 0 .539.659.539 1.112v2.902l-.017-.005Zm11.51 10.637c1.835-2.12 3.46-4.315 5.574-6.03l.108-.076c.269-.205.63-.378.866-.124.237.253.027.61-.209.841-.716.707-1.432 1.419-2.153 2.099-1.114 1.03-2.249 2.039-3.379 3.058a.695.695 0 0 1-.807.232Zm2.438 6.527c-.172 0-.35 0-.398-.183-.049-.183.123-.205.231-.259 1.679-.852 3.358-1.71 5.047-2.551.17-.08.352-.129.538-.146.248-.032.393.135.49.34a.422.422 0 0 1-.162.54 2.01 2.01 0 0 1-.5.269c-1.636.64-3.273 1.277-4.913 1.91a2.69 2.69 0 0 1-.333.08Z" fill="#35A61A"/><path d="M243.732 106.711c.882 2.104 1.614 4.1 2.588 5.998.081.151.135.275.382.151.694-.339 1.184-.161 1.372.61.371 1.516 1.076 2.886 1.614 4.315.625 1.673 1.227 3.361 2.013 4.958a1.508 1.508 0 0 1-.237 1.882c-.188.232-.334.502-.506.75-.285.41-.64.54-.99.108-.35-.431-.387-.145-.538.086a14.46 14.46 0 0 1-3.422 3.642c-.78.587-1.716.93-2.69.987-.818.054-1.163-.416-.894-1.187a3.11 3.11 0 0 1 .608-.982 41.34 41.34 0 0 0 3.261-4.633.638.638 0 0 0 .149-.457.622.622 0 0 0-.219-.428c-1.275-1.516-2.389-3.15-3.519-4.774-.161-.237-.29-.453.065-.701a.748.748 0 0 0 .325-.54.76.76 0 0 0-.196-.599c-.753-1.149-1.485-2.319-2.292-3.43a44.3 44.3 0 0 1-4.988-9.37 10.827 10.827 0 0 1-.867-4.71c.082-.508.253-.998.506-1.445a9.724 9.724 0 0 1 1.48-2.26 66.452 66.452 0 0 1 8.846-8.632c1.022-.814 2.023-1.645 3.185-2.589a14.375 14.375 0 0 0-4.304-.323c-.317.072-.6.251-.802.507-.737.755-1.49 1.483-2.222 2.244-.264.275-.442.286-.743 0a5.963 5.963 0 0 1-1.205-1.807.533.533 0 0 1-.065-.476.543.543 0 0 1 .339-.339c1.163-.507 1.442-1.402 1.437-2.616 0-2.967 1.507-4.99 4.149-6.188a.948.948 0 0 0 .613-.922 40.47 40.47 0 0 1 1.404-8.124 10.42 10.42 0 0 1 1.023-2.433.58.58 0 0 0-.054-.787 22.26 22.26 0 0 1-4.364-9.036 11.135 11.135 0 0 0-1.232-3.21 10.142 10.142 0 0 1-1.119-4.536c-.151-2.875-.178-5.788.586-8.593a8.337 8.337 0 0 0 .108-3.695.664.664 0 0 0-.253-.427 2.16 2.16 0 0 1-.77-1.893 1.265 1.265 0 0 0-.231-.836 4.451 4.451 0 0 1-.656-2.196 1.363 1.363 0 0 1 1.038-1.451c.791-.226 1.587-.442 2.395-.593.355-.07.236-.21.172-.389-.162-.447-.329-.884-.495-1.326a3.055 3.055 0 0 1-.21-1.139c0-.307.032-.625.355-.771a.847.847 0 0 1 .947.216c.345.326.615.723.791 1.165 1.028 2.287 1.679 4.644 1.302 7.196a2.772 2.772 0 0 0 .188 1.7c.145.313.225.652.237.997.065.847.189 1.618.915 2.228a1.494 1.494 0 0 1 .355 1.397 10.358 10.358 0 0 0 .307 5.065c.108.306.143.633.102.955-.199 1.15.317 2.029.866 2.983a14.806 14.806 0 0 1 1.808 5.616c.189 1.526.651 2.805 1.964 3.776.328-.939 1.152-1.273 2.109-1.376a2.048 2.048 0 0 0-1.156-1.618 1.922 1.922 0 0 1-1.292-1.899 2.215 2.215 0 0 1 1.27-2.007.98.98 0 0 1 .673-.172c.651.14.812-.238.931-.755.123-.765.334-1.513.629-2.228.162-.33 0-.41-.258-.464a2.69 2.69 0 0 1-1.518-.912 1.88 1.88 0 0 1-.425-1.618c.124-.696.393-.885 1.437-1.004.054-.188-.059-.355-.108-.539a1.31 1.31 0 0 1 .329-1.478 1.132 1.132 0 0 1 1.383-.054 4.716 4.716 0 0 1 2.227 1.97c.538 1.035 1.076 1.704 2.465 1.806a4.502 4.502 0 0 1 2.814 1.156c.776.7 1.286 1.65 1.442 2.685.091.496-.21 1.079.107 1.435.318.356.915 0 1.405.113 1.705.34 2.534 1.802 1.797 3.388-.258.54-.334.852.21 1.343 1.076.982 1.194 2.373 1.124 3.776 0 .243-.043.394.221.502 1.571.658 2.69 1.866 3.809 3.107.271.324.657.53 1.077.572a6.64 6.64 0 0 1 5.041 3.188c1.077 1.747.748 3.371-.78 4.73-2.297 2.045-4.842 2.083-7.581 1.08a5.466 5.466 0 0 1-1.528-1.144 5.418 5.418 0 0 0-.173 1.462 25.56 25.56 0 0 1-1.366 4.855 1.07 1.07 0 0 0 .027.906 13.926 13.926 0 0 1 1.043 7.757 3.092 3.092 0 0 0 .539 1.985.79.79 0 0 1 .143.693.8.8 0 0 1-.466.531 7.634 7.634 0 0 1-2.852 1.133c-.7.124-.796.464-.694 1.08.36 2.12.748 4.234 1.076 6.364.64 4.559 1.243 9.122 1.84 13.686.075.593 0 1.203.049 1.807a.645.645 0 0 1-.614.75c-.21.032-.414.097-.624.14-1.308.291-1.302.291-1.394 1.618a44.376 44.376 0 0 1-3.928 15.105c-.113.253-.209.539-.344.76-.204.356-.129.61.231.766.49.216.377.491.173.874-1.077 2.061-2.153 4.148-3.283 6.209a.646.646 0 0 0-.111.473.635.635 0 0 0 .257.412 2.192 2.192 0 0 0 1.98.728c2.491-.259 4.961.173 7.42.512.371.049.742.195.796.626.054.432-.296.631-.635.782-.117.056-.24.1-.366.13-.538.108-1.103.075-.99.965.059.47-.489.766-.909.998a14.306 14.306 0 0 1-4.988 1.592 30.76 30.76 0 0 1-14.824-1.392 4.15 4.15 0 0 0-1.334-.162c-2.831-.032-5.656 0-8.481-.227a6.818 6.818 0 0 1-1.646-.285c-.404-.13-.85-.276-.877-.815-.027-.539.393-.734.802-.89a7.75 7.75 0 0 1 2.755-.572c3.368 0 6.596-.982 9.911-1.338a49.323 49.323 0 0 1 5.919-.086c.538 0 .764-.108.823-.707.339-3.144.909-6.257 1.458-9.37.077-.4.198-.791.361-1.165.129-.313.28-.658.758-.426.226.113.377 0 .388-.264.167-3.194.952-6.285 1.56-9.408.269-1.402-.08-2.783-.188-4.17-.075-.955-.474-1.235-1.351-1.435a27.69 27.69 0 0 1-9.147-3.619.886.886 0 0 0-.285-.146 44.13 44.13 0 0 1-6.005-1.494Zm1.367-19.236c-.162.113-.248.167-.329.237a69.318 69.318 0 0 0-7.253 7.282 9.227 9.227 0 0 0-1.749 2.843c-.156.442-.107.701.447.793a9.872 9.872 0 0 1 3.32 1.165 40.755 40.755 0 0 1 6.78 4.758c6.591 5.745 14.173 8.237 22.9 6.84.538-.081.705-.226.651-.804-.317-3.236-.866-6.473-1.232-9.709-.414-3.658-1.124-7.267-1.614-10.913-.043-.34-.221-.389-.49-.459a22.935 22.935 0 0 0-4.773-.54c-.613-.037-.764-.339-.871-.792a8.912 8.912 0 0 1-.113-2.827c.161-2.082.344-4.159.511-6.241.108-1.37.108-1.386-1.238-1.457a529.865 529.865 0 0 0-5.918-.27c-.382 0-.748 0-.964.46-.645 1.353-1.366 2.697-1.985 4.045a4.115 4.115 0 0 1-1.388 1.813c-1.405.96-2.588 2.19-3.971 3.177a.574.574 0 0 0-.28.647c1.006 4.855 3.191 9.009 6.963 12.267 1.931 1.667 4.229 2.665 6.537 3.657.32.092.604.28.813.54a15.353 15.353 0 0 1-6.495-2.875c-4.579-3.41-7.172-8.033-8.259-13.648v.01Zm1.103-10.39a4.251 4.251 0 0 1-.269-1.726c0-.308-.086-.394-.377-.237-1.813.981-3.228 2.297-3.508 4.472-.119.895-.178 1.801-.269 2.697a2.29 2.29 0 0 0 .167 1.079c.279.733.285.744.807.188a61.226 61.226 0 0 1 5.197-4.898 21.768 21.768 0 0 0 1.738-1.807.941.941 0 0 0 .275-.69 57.64 57.64 0 0 1 .226-6.247c.204-1.829.769-3.49 2.201-4.742a.645.645 0 0 0 .199-.69c-.07-.27-.124-.54-.183-.82-.592-2.837-.065-3.91 2.577-5.087.538-.243.474-.442.081-.701a12.791 12.791 0 0 1-2.949-2.832 1.18 1.18 0 0 0-.28-.264 1.693 1.693 0 0 1-.753-1.29c-.048-.361-.113-.723-.167-1.079a19.272 19.272 0 0 0-2.211-6.829c-.092-.156-.146-.42-.372-.388-.226.032-.182.307-.22.48a17.695 17.695 0 0 1-1.469 4.116c-.108.215-.231.604-.495.48s-.038-.464.048-.675a46.703 46.703 0 0 0 1.701-5.005c.206-.59.258-1.224.15-1.84a14.244 14.244 0 0 1-.306-5.971 1.26 1.26 0 0 0-.452-1.15 2.335 2.335 0 0 1-.479-.604c-.156-.296-.35-.313-.63-.226-.703.26-1.422.476-2.152.647a1.306 1.306 0 0 0-1.076 1.15c-.678 2.659-.641 5.394-.684 8.09-.014 1.57.309 3.125.947 4.559.473.99.864 2.016 1.168 3.07a26.45 26.45 0 0 0 4.364 9.342c.312.432.436.297.651-.037.538-.842 1.13-1.673 1.7-2.503.124-.173.285-.389.538-.2.253.189.027.35-.075.507-.538.815-1.006 1.656-1.566 2.438a14.137 14.137 0 0 0-2.287 5.287 69.869 69.869 0 0 0-1.146 8.172 6.33 6.33 0 0 1-.36 1.753v.011Zm16.782-14.387a4.692 4.692 0 0 1-1.678.831c-1.954.491-3.407-.372-3.88-2.33-.081-.33-.097-.68-.145-1.02 0-.113.048-.286-.129-.313-.178-.027-.216.162-.253.297-.038.135-.049.254-.076.378-.887 4.142-1.915 8.242-3.664 12.12a1.08 1.08 0 0 0-.048.81c.362.901.461 1.887.285 2.843-.07.296 0 .48.398.458 2.314-.135 4.617.135 6.925.216.565 0 .673-.135.7-.642.161-3.134.382-6.268.828-9.375.199-1.403.479-2.79.737-4.283v.01Zm3.88 15.908-.156-.145c.284-.47.6-.918.947-1.343 1.291-1.376 1.888-3.086 2.367-4.855.316-1.054.511-2.14.581-3.237 0-.259 0-.405-.333-.464-1.006-.183-1.98-.653-3.035-.28a.09.09 0 0 1-.064 0c-.458-.114-.539.086-.458.501a9.642 9.642 0 0 1-.613 5.308 25.544 25.544 0 0 1-3.648 6.56 2.356 2.356 0 0 0-.646 1.165 429.01 429.01 0 0 1-.387 4.37c-.044.447.107.609.564.598a24.163 24.163 0 0 0 7.663-1.446.682.682 0 0 0 .462-.598c.463-2.029.054-4.02-.215-6.015a10.633 10.633 0 0 0-.925-2.697c-.62.92-1.325 1.78-2.104 2.567v.011Zm-6.748-22.753c0 .21-.134.253-.242.275-.538.102-.656.453-.802.928a5.417 5.417 0 0 1-1.076 2.11.978.978 0 0 0-.253.436c-.484 2.125 1.157 3.916 3.272 3.48 1.232-.254 2.303-.815 2.497-2.299.066-.38.173-.753.317-1.11a.497.497 0 0 0-.086-.583 6.055 6.055 0 0 1-1.464-4.537 1.781 1.781 0 0 0-.301-1.37 1.24 1.24 0 0 1-.161-.869 2.383 2.383 0 0 1 1.361-2.309c-1.044-.7-1.076-1.726-1.146-2.697-.092-1.284-.388-1.618-1.668-1.618-.124 0-.275.038-.328-.119-.054-.156.091-.264.22-.334.334-.178.711 0 1.076-.13-.177-.366-.145-.911-.678-.9-.9-.068-1.804.04-2.663.318-.274.113-.587.21-.683.604.292-.02.585-.02.877 0 .258.038.651.076.613.405-.032.237-.409.107-.629.107-.953 0-1.222.168-1.405 1.08a11.142 11.142 0 0 1-.877 2.697 3.703 3.703 0 0 0-.387 1.548c-.027 1.52.64 2.778 1.399 4.013.187.238.445.41.737.49a8.118 8.118 0 0 0 2.48.384Zm12.215 13.26c.096.09.202.17.317.237 2.572 1.257 5.65 1.132 7.759-1.376a2.474 2.474 0 0 0 .312-2.94 5.725 5.725 0 0 0-3.567-2.945c-1.286-.383-2.475-.852-3.347-1.985a7.894 7.894 0 0 0-1.878-1.651c-1.786-1.208-3.605-1.17-5.456-.162-.167.092-.479.178-.172.443.839.722.898 1.661.716 2.654-.07.388.086.437.408.399a2.254 2.254 0 0 1 1.722.54c.222.222.496.385.797.474.102-.448-.097-.955.296-1.376.209.407.297.866.252 1.322 0 .663.409.83.953.847a3.879 3.879 0 0 1 1.275.08c.445.142.925.129 1.361-.037a6.88 6.88 0 0 1 3.988-.038c.371.119.78.232.909.702a.688.688 0 0 1-.635-.055 7.246 7.246 0 0 0-4.175-.134c-.313.07-.539.097-.286.54a3.158 3.158 0 0 1-.458 3.712c-.307.324-.679.58-1.091.748Zm-11.246 43.958c.059.367.113.658.151.949.259 1.29.288 2.616.086 3.916-.662 3.021-1.103 6.085-1.749 9.112a.693.693 0 0 0-.002.541.7.7 0 0 0 .384.381c.882.485 1.733 1.025 2.588 1.559.264.167.388.205.538-.167a68.696 68.696 0 0 0 2.691-7.86 46.498 46.498 0 0 0 1.232-5.934c.043-.269.177-.604-.291-.706a27.054 27.054 0 0 1-5.628-1.791Zm-25.29-13.95c-.167-.043-.188.124-.199.313-.016.474.042.947.172 1.402.538 2.255 1.615 4.316 2.599 6.377 1.421 2.977 3.589 5.513 4.978 8.506.15.324.29.205.462.027.345-.356.694-.701 1.044-1.052.35-.35.942-.701 1.076-1.154.135-.453-.446-.955-.688-1.446a50.188 50.188 0 0 1-3.051-7.929 5.975 5.975 0 0 0-3.342-4.008 16.433 16.433 0 0 0-3.056-1.036h.005Zm14.674 25.736c.575-.674 1-1.213.538-2.254-1.163-2.557-2.153-5.206-3.159-7.828-.156-.393-.258-.464-.581-.118a82.96 82.96 0 0 1-3.078 3.112.573.573 0 0 0-.059.917c.904 1.176 1.765 2.379 2.69 3.555a.898.898 0 0 1 .241.519.9.9 0 0 1-.117.56 14.29 14.29 0 0 1-1.275 2.233 28.889 28.889 0 0 1-2.341 3.151c-.193.199-.473.539-.29.787s.597.151.893.059a6.65 6.65 0 0 0 2.83-1.699 26.243 26.243 0 0 0 2.605-3.274c.398-.54.608-.54.973.065.006.054.054.118.124.215h.006Zm11.509-44.773.172.135c.021-.084.052-.166.092-.242a24.188 24.188 0 0 0 3.734-7.315 8.782 8.782 0 0 0 .102-4.526 1.7 1.7 0 0 0-.678-1.187.9.9 0 0 1-.339-.793c-.032-.798-.263-1.559-.29-2.373-.038-1.15.032-1.484 1.178-1.808.178-.053.393 0 .511-.22.382-.675 0-2.347-.651-2.784-.118-.076-.231-.157-.344-.043-.501.496-1.168.755-1.345 1.618a88.887 88.887 0 0 0-1.615 10.643c-.236 2.989-.419 5.95-.532 8.912l.005-.017Zm-3.799 58.702c.113.102.178.129.205.183 1.334 2.492 3.659 3.425 6.225 3.97.102.029.207.041.312.038.173 0 .388 0 .468-.162.081-.162-.075-.318-.193-.442a4.417 4.417 0 0 0-1.173-.896 13.337 13.337 0 0 1-3.568-2.81 1.307 1.307 0 0 1-.296-1.667c.754-1.548 1.588-3.048 2.406-4.564.102-.183.419-.415.026-.636a45.34 45.34 0 0 1-3.814-2.735c-.495-.356-.571-.183-.641.291-.382 2.552-.785 5.098-1.162 7.655-.113.76-.156 1.537-.21 2.309-.038.539.377.723.764.803.388.081.345-.35.447-.582.085-.247.153-.499.204-.755Zm-7.657-63.362.14.054c.372-.615.77-1.214 1.114-1.84a33.837 33.837 0 0 0 2.723-7.013c.649-2.247 1.25-4.507 1.802-6.78a.867.867 0 0 0-.226-.939c-.306-.291-.57-.043-.817.076-.478.236-.943.497-1.394.782a2.314 2.314 0 0 0-1.119 2.422c.07.662.187 1.318.349 1.964a1.33 1.33 0 0 1-.457 1.526 5.402 5.402 0 0 0-1.743 3.29 26.656 26.656 0 0 0-.372 4.618v1.84Zm17.332-11.976c-.124.345-.409.345-.646.394-.5.102-1.011.173-1.517.254-.506.08-.452.48-.404.841.049.361.318.34.619.259a24.846 24.846 0 0 1 1.614-.367c.14-.032.334-.043.366.146.032.189-.134.216-.258.253-.538.19-1.135.383-1.711.54-.328.086-.436.248-.35.54.086.29.323.258.565.183a4.61 4.61 0 0 1 1.437-.319c.102 0 .231 0 .263.119.033.119-.086.2-.177.232-.366.124-.737.227-1.076.35-.146.054-.377.054-.361.292a.463.463 0 0 0 .334.361 2.522 2.522 0 0 0 1.7.027.95.95 0 0 1 .92.033c.367.22.773.368 1.195.437a.409.409 0 0 0 .538-.243 5.157 5.157 0 0 0 .436-3.204.439.439 0 0 0-.339-.394 5.718 5.718 0 0 1-1.884-1.08c-1.076-.997-2.217-.673-3.395-.425a.537.537 0 0 0-.436.669c.07.453.388.189.603.178.683-.022 1.291-.313 1.964-.081v.005Zm-23.342-36.282a.474.474 0 0 1-.231-.475c-.033-.54-.334-.717-.829-.507-.495.21-.274.54-.253.89.022.35.285.243.474.205a1.718 1.718 0 0 1 1.835.906c.177.254.608.6.263.858-.344.259-.387-.34-.602-.54a.372.372 0 0 1-.043-.048 1.714 1.714 0 0 0-1.215-.696 1.698 1.698 0 0 0-1.325.448.408.408 0 0 0-.167.394c.043.205.231.15.371.145.234-.011.466-.042.694-.091.377-.092.538.043.495.42a1.948 1.948 0 0 0 .921 1.867c.139.108.36.172.339.458a1.199 1.199 0 0 1-1.077-.54 1.401 1.401 0 0 0-1.113-.538c-.307-.049-.426.29-.7.248-.742-.103-.586.388-.538.803.067.272.182.53.339.761a.737.737 0 0 0 .437.425.728.728 0 0 0 .607-.058 13.963 13.963 0 0 1 2.572-.81.427.427 0 0 0 .38-.312.44.44 0 0 0 .013-.173c.059-1.828.21-3.657-.479-5.394a19.784 19.784 0 0 0-.99-2.45c-.162-.29-.355-.765-.689-.63-.334.134-.129.604-.038.917.135.431.307.847.458 1.273.226.701.479 1.413.091 2.244Zm18.634 61.253c2.502-.151 4.982-.421 7.28-1.565.344-.172.597-.291.36-.798-.236-.507-.462-.405-.834-.259a21.388 21.388 0 0 1-7.834 1.446c-.699 0-.721 0-.613.7a.476.476 0 0 0 .538.476h1.103Zm8.652-24.383c.258 1.446.587 2.902-.71 4.094.315.164.662.256 1.017.27.871.092 1.076-.048 1.388-.863a4.023 4.023 0 0 0 .156-2.158c-.172-1.003-.834-1.467-1.878-1.343h.027ZM245.933 32.21c-.692.141-1.37.34-2.029.594-1.243.426-1.243.431-.893 1.71a.89.89 0 0 1 .038.124c.037.318.204.372.489.28.657-.205 1.308-.41 1.975-.582 1.313-.35 1.361-.437.909-1.732l-.048-.118a.36.36 0 0 0-.163-.261.356.356 0 0 0-.305-.036l.027.021Zm12.72 95.605c-.162 0-.194.097-.232.199-.113.313.087.469.302.631 1.28.935 2.559 1.874 3.836 2.816.221.162.409.399.635 0 .178-.329.355-.539-.107-.809-1.432-.863-2.825-1.78-4.235-2.697l-.199-.14Zm-11.526-14.678c-.968 1.051-1.932 2.082-2.873 3.128-.291.318-.538.685-.78 1.025-.113.146-.216.297 0 .437.215.14.263-.043.36-.14a159.816 159.816 0 0 1 3.293-3.35c.328-.394.302-.707-.027-1.122l.027.022Zm17.364-60.654-.237.053c-.366.125-.769.286-1.076-.08-.307-.367-.032-.734.14-1.08.064-.129.194-.226.269-.355.075-.13.506-.162.291-.443-.216-.28-.485-.15-.738.027a2.09 2.09 0 0 0-.774 1.937 1.003 1.003 0 0 0 .7.949.997.997 0 0 0 .413.043c.711-.032.985-.318.985-1.073l.027.021Zm-23.315 30.575c-.312.226-.742.399-.947.722-.204.324.237.707.393 1.08a.67.67 0 0 0 .489.453h.054c.199-.33.668-.54.624-.928a4.83 4.83 0 0 0-.468-1.252s-.08-.065-.145-.075Zm.452-56.409c-.909.734-.538 1.618-.457 2.346.097.858.436 1.117 1.2 1.112a8.525 8.525 0 0 1-.582-1.619 9.535 9.535 0 0 1-.161-1.839ZM253.52 50.61c-.038.739.495 1.078.995 1.462.108.075.269.22.382.053.113-.167 0-.264-.14-.383-1.076-1.116-.968-1.882.42-2.524.15-.07.28-.157.253-.324-.027-.167-.242-.135-.366-.13-.797.012-1.501.858-1.544 1.846Zm-11.392-22.727c.248-.156.748-.178.7-.485-.048-.308.065-.901-.301-.928-.512-.043-.452.54-.49.885a.616.616 0 0 0 .091.507v.021Zm1.351 1.721c.027-.27-.081-.415-.36-.345-.173.043-.49-.114-.485.221.006.334.215.437.538.453.323.016.339-.092.307-.361v.032Zm11.542 20.137c-.538.437-.592.745-.156 1.235l.156-1.235Z" fill="#292929"/><path d="M251.114 93.225c.075.05.143.108.205.173 1.904 2.697 4.638 3.916 7.764 4.44 1.585.277 3.2.331 4.8.161.172 0 .446-.124.489.135.043.259-.242.183-.392.21-3.443.685-7.017.06-10.025-1.753a7.668 7.668 0 0 1-2.69-2.627c-.178-.28-.172-.286-.151-.739Zm-2.647-43.155a10.814 10.814 0 0 1-.242-2.697c0-.102 0-.232.15-.232a.247.247 0 0 1 .183.151 3.934 3.934 0 0 1-.091 2.778Zm12.042 1.144c.333 0 .5.097.365.383a7.164 7.164 0 0 1-1.361 2.158.644.644 0 0 1-1.044 0 3.881 3.881 0 0 1-.839-1.036c-.102-.21-.178-.442-.468-.475a.21.21 0 0 1-.221-.254c0-.123.124-.161.231-.183a.8.8 0 0 1 .189-.027 20.105 20.105 0 0 0 3.148-.566Zm-.286.69c-.075-.032-.096-.054-.113-.048l-1.495.291c-.743.146-.77.221-.275.83.495.61.85.643 1.308-.064.242-.304.437-.645.575-1.009Zm-2.555-1.753c.349.06.538-.156.791-.205.107 0 .231-.043.29.06a.242.242 0 0 1-.081.291 1.508 1.508 0 0 1-1.076.49.536.536 0 0 1-.562-.533.535.535 0 0 1 .073-.276 17.085 17.085 0 0 1 1.786-2.502c.081-.103.199-.195.323-.087a.261.261 0 0 1 .071.178c0 .066-.026.13-.071.178-.269.41-.538.82-.823 1.225a5.533 5.533 0 0 0-.721 1.181Zm2.885-2.077c0-.259 0-.54.317-.54.221 0 .334.141.328.373-.005.232-.064.54-.376.567-.312.027-.253-.227-.269-.4Zm-2.982-.372c.038-.302.081-.54.398-.54.318 0 .307.211.253.421-.053.21-.118.491-.414.491s-.21-.259-.237-.372Z" fill="#292929"/></g><defs><clipPath id="a"><path fill="#fff" transform="translate(.817)" d="M0 0h281v145H0z"/></clipPath></defs></svg>