<svg xmlns="http://www.w3.org/2000/svg" viewBox="0 0 538 406"><path d="M465.5 216.1c1-.2-.3 5-.3 5.5-.2 7 .1 11.5-.1 18.6 0 2.6-1 6-1 8.6-.4 9.7-1 17.1-1.8 26.8 0 .4-.1.7-.1 1.1v.5c2 .3 4.1.5 6.2.7 3.3.2 6.7.2 10 .2.2 0 .4 0 .7-.1l.6-.3c.2-.1.3-.3.4-.5s.1-.4.1-.6c.4-4.4 1.2-8.8 1.5-13.2.2-3.3.1-6.7.5-10 .6-5.2.6-10.4 1.3-15.6.2-1.8.3-3.6.6-5.4 0 4.3.4 8.5.8 12.8.9 9 .7 18 1 27 0 1.7.3 3.4.4 5.1.1.7.6 1.2 1 1.7h2.7c.3-.3.7-.3 1-.3 10-.5 19.9-2.5 29.3-5.8l.3-.1c3.1-1 2.9-1 2.9-4.5 0-4.1.3-8.1.6-12.2.4-7.1.4-14.3.1-21.4-.2-4-.1-6-1.1-9.9-.5-2-1.2-5.1-.3-6.7l6.9-11.4c.2-.3.3-.7.3-1.1s-.2-.8-.4-1.1c-3-4.5-6-7.5-9.5-11.6-.9-1-1.9-.7-3-.3a53.26 53.26 0 0 1-13.7 3c-4.7.5-9.5.9-14.3 1.2-4.7.3-9.4.2-14.1-.1a126.92 126.92 0 0 1-8.6-1.2c-.8-.2-.6.3-.2.4.1 0 .1.1.2.1l.1.1c.1.1.1.1.1.2l.1.1c0 .1.1.2.1.3s0 .1.1.2c.1.2.1.4.2.6l2.1 9.5c.2 1.2.3 2.4.3 3.6.1.4 0 .7-.2 1s-.5.5-.9.6l-3 .5.1 3.4z" fill="#35a61a"/><path d="M391.2 212.9c-.2-.4-.3-.8-.2-1.2l1.1-8.8 2.9-18 2.2-12.3c.1-.4.1-.9.1-1.3v-.1h-.3c0 .2-.1.3-.1.5l-1.8 10.3c-1.8 9.7-3.4 19.4-4.5 29.2-.3 2.3-.1 2.6 2 3.4 2.7 1.1 2.6 1.1 2.2 4-.4 2.8-1 5.6-1.9 8.2-.2.8-.5 1.5-.8 2.3-1.1 2.8-2.5 5.5-4.4 8-1.3 1.7-2.8 3.1-4.6 4.2-.4.2-.8.5-1.2.1s.1-.8.3-1.1l3-4.2c.2-.3.6-.8.1-1.2-.3-.2-.7.1-1 .3-.4.3-.8.7-1.1 1.2-2.2 3.6-5.3 6.5-7.7 9.9-.9 1.5-2.2 2.7-3.6 3.6.2-3 1.8-5.3 3.4-7.6 1.4-2.2 3.6-3.8 5-6 .2-.3.9-.6.4-1.1s-.9.1-1.3.4c-4 3.4-7.1 7.8-9 12.8-.1.4-.3.7-.5 1-.4.4-.7 1.2-1.4 1-.7-.3-.2-1.1-.2-1.6.5-3.1 1.9-6.1 3.9-8.5 1.4-1.8 3-3.4 4.5-5.1.3-.3.6-.6.8-1s.3-.8.4-1.2c-3.5 2.7-6.6 5.9-9.1 9.5-.1.1-.2.2-.2.3.1-.2.2-.5.2-.7 1.2-3.6 3.6-6.8 6.9-8.9-.5-.6-.9-.3-1.2-.1-1.7 1-3.2 2.2-4.4 3.8-.8 1-1.8 1.8-3 2.4-.1.1-.3.2-.5.3s-.5.2-.7-.1c-.1-.1-.1-.1-.1-.2-.2-.4.3-.7.5-.9 1.8-2.1 3.9-3.8 6.2-5.2l3.7-1.8c4.9-2.5 8.2-6.3 8.5-11.9.7-15.7 3.4-31.2 3.6-46.9v-.5c-1.4.1-2.8.2-4.3.2-.9 0-1.9-.1-2.8-.2-.8 0-.9-.6-1.1-1.2-.9-4.1-1.6-8.3-1.9-12.4-.2-1.4-.9-1.9-2.1-1.6-3.2.4-6.4.6-9.6.4-.2 0-.5 0-.7.1s-.5.2-.6.3c-.2.2-.3.4-.4.6s-.2.5-.2.7c-.7 3.7-1.6 7.3-2.3 10.9 0 .4-.1.8-.3 1.1s-.4.6-.7.9c-.3.2-.6.4-1 .5s-.8.1-1.1.1c-2.2-.1-4.3-.2-6.5-.5-.3.5-.7 1-1.3 1.4-.7.5-1.3.8-1.2 1.9 0 .5-.6 1-1.3 1-.5 0-.9 0-1.4-.1.1.1.1.3 0 .5-1.6 5.2-1.4 10.8-2.4 16.1l-1.8 10.4c-.2 1-.5 1.3-1.5.8-.5-.2-.9-.5-1.4-.7-.2-.1-.3-.2-.5-.2h-.1l-.3 2.1c.2.1.3.2.5.3 1.3.6 2.6 1.2 3.8 1.9 3.6 1.8 3.7 1.6 2.8 5.5-1 3.9-1.7 7.9-3.1 11.6-1 2.6-1.8 5.3-2.3 8-.5 4.6-.7 9.2-.5 13.8.2 9.2.2 18.3.1 27.5v1.7c2.9 1.8 6.5 2 10.6 1.2 1.9-.5 3.8-1.2 5.5-2.2.5-.3 1.1-.5 1.7-.5s1.2.1 1.7.3c3.2 1.3 6.6 2.1 10 2.5 3.4.3 6.8-.3 9.9-1.8 2.5-1.1 5.4-1.2 8-.4 3.3.8 6.7 1.5 10.1 1.5v-1.9l-.8-25c-.1-1.7-.1-3.4-.2-5.1a584.88 584.88 0 0 0-.9-18.7c-.1-2.2-.1-4.4-.1-6.6 0-.9.2-1.2 1.2-1.1 3.4.3 6.8.3 10.3.3h1.4c0-.3-.1-.6-.1-.9-5.9-.3-11.6-1.2-17.1-3.4-.2-.1-.6-.4-.8-.8zM371 118.2l.8-7.5c1 .4 1.9-.1 2.9-.1 5.6 0 5 1.3 5-4.3 0-1.1.3-2.3-.6-3.3h-2c-1.8.7-3.7.9-5.6.5-1.8-.3-2.3.1-2.3 1.9-.1 3.5 0 6.9.2 10.4.1.8 1 1.6 1.6 2.4z" fill="#e39d49"/><g fill="#e96a6a"><path d="m454.4 191.8.3-.6c.2-.2.3-.3.6-.4.2-.1.5-.2.7-.2 1.1-2.1 2.5-4 4.2-5.7.8-.8.5-2.5 2.2-2.5.5 0 1.1-.3 1-.9-.1-.8-.9-.5-1.4-.5-2 .1-3.9.7-5.6 1.8-.4.3-1 .8-1.5.3s.1-1.1.3-1.5a11.01 11.01 0 0 1 5.2-4.1c1.3-.5 2-1.3 1.3-2.6-1.1-2.2-1.8-4.5-2.3-6.8-.5-2.1-1.7-4.1-1.4-6.2.5-3.6 1-7.2 1.3-10.9.8.3 1.6.8 2.1 1.5 2.2 2.3 4.3 4.6 6.6 6.8 1.1 1.2 2.1 1.1 3.2-.1 1.5-1.8 2.8-3.8 3.8-6 2.3-4.2 4.2-8.5 5.7-13.1l.1-2c-5.7-4.9-11.2-10.2-16.4-15.6s-10.9-10.1-18.4-12c-.3-.1-.7-.2-.7-.6-.6 0-1.1.7-1.7.7-2.5 1-5.2.6-7.7.2s-3.2.2-2.7 2.8c1.4 6.8 2.7 13.5 3.5 20.4a342.47 342.47 0 0 0 2.1 14.1c.9 5.5 1.5 11 2.2 16.5l1.4 12.9c.6 4.7 1.1 9.5 1.6 14.2.3 3 .7 5.9 1.1 8.9 2-1.6 3.9-3.2 5.9-4.9 1.5-1.1 2.8-2.2 3.4-3.9z"/><path d="M446.8 213c.2 2.1.7 2.7 2.8 2.7 6.5 0 12.6-2 18.8-4 .4-.1.7-.3.9-.6s.3-.7.2-1l-.3-3.6c-.8-3.1-1.4-6.3-2.1-9.5 0-.2-.1-.4-.2-.6 0-.1 0-.1-.1-.2 0-.1-.1-.2-.1-.3s-.1-.1-.1-.1c0-.1-.1-.1-.1-.2l-.1-.1c-.1 0-.1-.1-.2-.1-.4-.2-.9 0-1.5.5-.7.6-2.1 1.9-2.9 2.4-3.1 2.4-1.7.3-2.9-1-3.2-.1-2-2.9-3.3-3.8-.8-.6-.8-1-.5-1.6s.5-1.1.8-1.6c-.2 0-.5.1-.7.2s-.4.2-.6.4-.3.4-.3.6c-.6 1.7-1.9 2.8-3.2 3.9l-5.9 4.9c0 .2.1.4.1.6.6 4.2 1.1 8.2 1.5 12.1zm-32-83.7L410 125c-2.9-3-3.6-6.7-3.4-10.7.1-2.3-.9-3-3.1-2-1.7.8-3.4 1.7-5 2.6-3.6 2-6.2 5.3-7.4 9.2-1.4 4.8-2.6 9.7-3.8 14.6-2 8.5-3.5 17.1-5 25.6-.5 2.6-.2 3.2 2.2 4.1 3 1 6.2 1.5 9.4 1.5h2.1c1-.1 1.4.3 1.2 1.2 1.5-.2 3-.5 4.5-.8 1.7-.4 2.3.3 2.4 2 .1 2.5.1 5 .4 7.4l1.9 14.2c.7 5.5 1.7 11 2.1 16.6l.6 6.6h.7c1.5.1 1.9-.7 1.9-2 .1-11.2-.4-22.4.6-33.6.3-3.9.5-7.9.7-11.9.2-6.3.9-12.6.7-19-.1-2.6.1-5.2.5-7.7.2-1.9.8-2.9-1.6-3.9-.3-.2-.5-.5-.7-.8-.1-.3-.2-.7-.1-1.1.2-.5.9-.3 1.3-.3.6 0 1.2-.1 1.7-.4s1-.7 1.3-1.2.5-1.1.6-1.7-.1-1.2-.3-1.8c-.2-.8-.8-1.7-1.6-2.4z"/><path d="M406.6 193.9c-.6-4.7-1.4-9.4-1.9-14.2-.3-2.5-.3-4.9-.4-7.4-.1-1.7-.7-2.4-2.4-2-1.5.3-3 .6-4.5.8v.1c-.1.4 0 .9-.1 1.3l-2.2 12.3-2.9 18c-.5 2.9-.7 5.9-1.1 8.8-.1.4 0 .8.2 1.2s.5.6.9.8c5.5 2.2 11.2 3.1 17.1 3.4l-.6-6.6c-.5-5.5-1.5-11-2.1-16.5z"/></g><path d="M210.4 118.8c1.5 1.4 2.8 2.9 3.8 4.6 4.3 7.2 7.8 14.9 10.5 22.9a95.92 95.92 0 0 1 2.4 7.6c.4 1.4.7 2.8.9 4.2.1.5.1.9.2 1.4.1.7.1 1.3.2 2 .1 1.9.4 3.7.5 5.5.1 2.9-.5 5.8-1.6 8.5-.1.2-.1.3-.2.5-.7 1.6-1.7 3.2-2.8 4.6-2.2 3-4.8 5.7-7.5 8.3-.3.3-.6.5-.9.8-.2.1-.3.3-.5.4l3.6.6c2.2.4 4.4.7 6.6 1h11.3c1.8-.7 3.7-.4 5.5-.6 5.8-.6 11.3-1.8 16.4-4.2 0-.1-.1-.3-.1-.4-.1-.3-.2-.6-.2-.9-.4-1.5-.7-2.9-1-4.4-.2-1.3-.1-2 1.4-2.3a37.3 37.3 0 0 0 7.3-2.6c1-.4 1.4-.3 1.4.9.1.7.1 1.5.2 2.3 0 .3.1.7.1 1v.4c.1-.1.3-.1.4-.2-.1-1.8-.3-3.5-.6-5.3-3.2 1.2-6.3 2.7-9.6 3.5-3.5.8-5.7-1-4.9-4.4a2.21 2.21 0 0 0 0-1.6c-.2-.5-.5-1-1-1.3-1.9-1.9-1.6-5.7.8-7 .2-.1.3-.2.5-.3.1-.1.2-.3.3-.5s.1-.4.1-.6 0-.4-.1-.6c-1.7-6.7-1.5-13.8.6-20.3.9-2.4 1.2-4.9 1-7.5-.1-1.3-.3-2.5-.3-3.8v-16.8c0-7.7 3.6-13.7 9.7-17.9 4.3-2.9 8.8-5.4 13.6-7.4-.3-3.3-.7-6.6-.8-9.9-.3-6.1-.7-12.2-2.9-18-1.3-3.6-3.3-6.8-7.3-7.5-2.8-.4-5.7-.3-8.4.5-2.5.7-5.1 1.4-7.7 1.9-.3 0-.6.1-.8.2-.3.1-.5.3-.7.5s-.3.5-.4.8-.1.6 0 .9c.1 2.7.1 5.5-1.7 7.6-1.4 1.7-2.5 3.6-3.2 5.7-1 2.7-3.6 3.4-6.1 2.1-.4-.3-.9-.4-1.3-.3-.5 0-.9.2-1.2.6-2.1 1.8-4 1.5-5.5-.9-.5-.7-.9-1.4-1.1-2.2-.3-2.2-2.1-3.3-3-5-.4-.7-1.5-.8-2.2-1.3-1.1-.7-2.1-1.6-2.9-2.7-2-3.3-5.1-4.9-8.6-5.8-4-1.1-7.9-2.3-12.1-2.3a10.05 10.05 0 0 0-4.8 1.2c-1.4.8-2.6 2-3.5 3.5-.7 1.1-1.3 2.2-1.9 3.4.1 0 .1.1.2.1.3.2.6.4.8.6 2.8 2.2 4.7 5.4 5.4 8.9.5 2.1.8 4.1 1 6.2v.1c.3 2.7.3 5.5.6 9.1 0 1.4 0 3.7.1 6 0 1.2-.2 2.5-.7 3.6-.5 1.7-1.1 3.4-1.6 5.1 0 .1-.1.2-.1.2-.1.3-.1.7-.2 1 0 .1 0 .2.1.3.1 0 .3 0 .3-.1l1.5-3.1c.1-.2.2-.5.4-.7.1-.1.1-.3.2-.4h.4c.1 0 .1.1.1.2.9 3.3 2.9 6 4.5 9 .3.6.7 1.2 1 1.9 0 .1.1.2.1.3v.3c0 .1-.1.2-.1.2-.1.1-.1.1-.2.1-2.3 1.2-4.6 2.2-7 3-1.7.6-3.3 1-5.1 1.3-2.2.4-4.4.6-6.7.4-1.4-.1-2.8-.3-4.1-.7-.3-.1-.7-.2-1-.4h-.1v1.1l.1.1a3.98 3.98 0 0 0 2.1.9c2 .4 4 .6 6 .5.7 0 1.4-.1 2.1-.2 1.5-.1 3-.4 4.5-.8l2.1-.6c2.8-.9 5.5-2.2 8.1-3.7.4-.2.7-.4 1-.6.2-.1.4-.1.6-.1s.4.1.6.3c1 .9 1.6 2.1 1.8 3.4.1.4.1.9.1 1.3-.1.4-.3.8-.6 1.2l1.8 1.6z" fill="#fdc51a"/><g fill="#7898ea"><path d="M267.5 199.8c.3.3.7.5 1.2.6l1.6.4c-.2-.2-.7-.4-1.6-.5-.5-.1-.9-.2-1.2-.5z"/><path d="M350.7 162.6c-.9.1-1.2-.2-1.2-1.2v-6.8c0-5.6-.8-11.1-2.4-16.5-.5-1.5.2-2.9.2-4.4-.1-3.9.1-7.9-.2-11.8-.2-2.4-.1-4.8-.5-7.2-.9-5.6-1.6-11.2-3.6-16.6-.3-.6-.7-1.2-1.3-1.7-3.2-3.2-7.2-5.6-11.5-6.9l-13.8-4.6c-1.2-.3-1.9-.6-2.3-2.3-.5-2-1.9-3.9-3.4-5.5-.1-.2-.3-.3-.5-.4s-.4-.1-.7-.1c-.2 0-.4.1-.6.2s-.4.3-.5.5c-2.5 3.4-4.8 6.9-6.8 10.7-.7 1.4.2 2.5 1.2 3.4.6.6.5.8-.1 1.6-1.8 2.4-3.6 4.8-2.9 8.1 2.8 12.4 4.7 25.1 7.3 37.5l4.2 21.8c.1.4.1.8 0 1.3-.1.4-.3.8-.6 1.1-2.2 2.8-4.8 5.5-5.9 9-.2.6-.7.4-1.1.2-4.5-2.3-8.5-5.1-11.5-9.1-.2-.3-.3-.6-.4-.9s-.1-.6 0-1l3.6-29.1c.9-6.3 1.7-12.7 2.2-19.2.3-3.9.8-7.7 1.4-11.5.6-3.6-.7-7-2.9-9.9-.3-.4-.2-.5-.1-.8.2-.4.3-.8.3-1.3 0-.4-.2-.9-.4-1.2l-6.4-11.6h-2c-2 3.3-3.9 6.5-4.9 10.2-.1.4-.4.4-.7.6-1.2.4-2.3.9-3.4 1.4-4.7 2-9.3 4.5-13.6 7.4-6.1 4.2-9.7 10.2-9.7 17.9v16.8c0 1.3.2 2.5.3 3.8.2 2.5-.2 5.1-1 7.5a36.88 36.88 0 0 0-.6 20.3c.1.2.1.4.1.6s0 .4-.1.6-.2.3-.3.5c-.1.1-.3.3-.5.3-2.3 1.3-2.7 5.1-.8 7a3.25 3.25 0 0 1 1 1.3 2.21 2.21 0 0 1 0 1.6c-.8 3.4 1.4 5.3 4.9 4.4 3.4-.8 6.5-2.3 9.6-3.5.3 1.7.5 3.5.6 5.3a37.88 37.88 0 0 1-1.2 11.6 27.6 27.6 0 0 0-.6 5.7c-.1.6.1 1.2.4 1.6.1.1.2.2.2.3.3.3.7.4 1.1.5.9.2 1.5.3 1.6.5 3.1.8 6.3 1.4 9.4 1.9l13.1 2.2c2.2.3 4.4.3 6.5.5 1.1.1 1.4-.8 1.9-1.5a228.5 228.5 0 0 1 5.4-8.2l3.9 6.9a1.98 1.98 0 0 0 1.1 1.1c.5.2 1 .3 1.6.2 8.5-.7 16.6-2.9 24.7-5.5 2.2-.7 2.5-.9 2.1-3.3-1-5.8-.9-11.7-1.3-17.5-.2-1.4-.3-2.8-.3-4.3.5.4 1.1.7 1.6.9.2-.1.5 0 .9.1h.1c.3.1.6.2.9.2v-.1h.1c.2.1.4.1.6.2 1.4.4 2.8.7 4.2 1.1.3.1.6.1.7.3.4.1.9.1 1.4.1.7 0 1.3-.4 1.3-1 0-1 .5-1.4 1.2-1.9.6-.4 1-.9 1.3-1.4.7-1.4.1-3.1-2.3-3.9l3.2-3.1v-1.4h.3c-.8-.8-1.8-.7-2.8-.6zm-9.1 9zm-.1.5v-.1.1z"/></g><path d="m217.8 226.8-8.2 1.1-8.9.4-6.6.2-.2-1.8-.1-.8-.3-9.3-5.7 4.3-2.4-1.6-3.6.6-1.6-1.5-1.9-.7-6.3-6.5-.2-1.8 2.2-3.2-3.3-4-3.7-3.1-.5 21.9-1.1 7-2.2.8-21.5-.5-.7 15.6-2.3 21.9-1.4 30.8c.1.6.2 1.1.4 1.7l2.3 1.3h4.1l35 1 23.8-.8 18.8-2.5-1.3-23.8-2.6-46.7zM192 133.5s-8.9 2.6-12.2 2.5-9.7-2.1-9.7-2.1l-.7 8.6-.7 15.7.3 11.3 11.7-11.8 1-1 4.3 5.5 3-1.7 2.5 2.7h1.1v-12.4c0-.1-.6-17.3-.6-17.3z" fill="#35a61a"/><path d="M129.9 223.7c.1-.1.2-.1.4-.2.2 0 .3-.1.5-.1l4.2-.8.7-.1v-1c-.2 0-.5.1-.7.1l-4 .8h-.5c-.5 0-.9-.3-.9-.8v-3.2l.4-5.6c0-.6.1-1.2.1-1.8l.2-2.4.5-6.2c0-.5.1-1.1.2-1.6l-2.7.2c-5.2.9-10.5 2-15.7 2.5-3.3.3-6.7-.7-10-.5-1 .1-1.9-.1-2.6 1l-.3.3c-.1.1-.3.1-.5.1s-.3 0-.5-.1c-.1-.1-.3-.2-.3-.3-.5-.8-1.3.1-2.1.1H70.7c-.9 0-1.6-.8-2.3-.3v4c.5.4.3 1 .3 1.5.6 12.2.2 24.3.3 36.5.1 7.9-.2 15.7.1 23.6l1 27.4c.1 6.4.8 12.8 1.3 19.2l1.7 20.1c.6 6.6 1.5 13.1 2.2 19.6.2 1.8.4 3.7.7 5.5 0 .4.1.7.4 1 .2.3.6.4.9.5 3.3.4 6.6.7 9.9 1 2.9.3 5.9.4 8.8.7 1.6.1 2.3-.7 2.3-2.1V359c-.2-8.4.9-16.8 1.1-25.3.1-5.9.6-11.8.7-17.7.1-2.2.2-4.4.2-6.5.1-7.5.7-14.9.8-22.3.1-5.4.4-10.7.6-16.1.3-6.7.8-13.3.5-20-.2-3.9-.2-7.9-.2-11.8-.1-.6 0-1.2.3-1.8l.8 7.8 1.9 21.6c.6 6.2 1 12.4 1.4 18.7l1.4 25.1 2.1 27.8 2.1 21.4c.3 3.5.8 3.8 4.3 3.2 5.1-.9 10.2-1.7 15.3-2.1l2.3-.3c.5 0 .9-.3 1.2-.6.3-.4.5-.8.4-1.3 0-6.1.2-12.2-.1-18.3-.7-12.7-.6-25.4-.6-38.1 0-5.4-.4-10.8-.3-16.3l.4-26.7c0-1.4 0-2.8.1-4.2h-.1c-.1 0-.2-.1-.2-.1l-.2-.2-.6-.9c-.4-.9-.6-1.8-.8-2.8-.5-2.8-.9-5.6-1.3-8.3-.1-1-.4-1.9-1-2.7 0-.1-.1-.1-.2-.1s-.3.2-.3.2c-.1 1.1-.1 2.1-.1 3.2 0 .2-.2.4-.3.5-.1-.2-.1-.3-.2-.5l-.7-11.3v-3.8c0-.2.1-.4.2-.6s.4-.3.6-.3l5.2-.9.7-.1v-1.4c-.2 0-.4.1-.7.1l-1.5.3c-.9.2-1.9.3-3 .5v-.1c-.2-.2-.7-.5-.8-.7 0-.1-.1-.3-.1-.4s0-.3.1-.4c0-.5.1-.6.2-.7zm.2 21.6c0-.1.1-.1.2-.2.1.1.2.2.2.4.4 1.9.7 3.8 1 5.6 0 .2 0 .3-.1.5-.1-.1-.3-.1-.3-.2-1-1.9-1.3-4-1-6.1z" fill="#e8581e"/><g fill="#222"><path d="M536.1 138.8c.3-.1.6-.3 1-.4.9-.2 1.1-.7.8-1.6-2.8-8.6-5.4-17.3-10.5-24.9-5.6-8.2-12-15.3-21.2-19.6-2.3-1.1-4.4-2.7-6.2-4.6-.3-.2-.5-.5-.5-.9-.1-.3 0-.7.2-1 .9-2.1 1-4.4.2-6.5-.1-.5-.3-1.1-1-1s-.5.8-.4 1.2c1 4.3-.8 7.5-3.8 10.1-3.7 3.3-7.7 6.4-11.5 9.7-.4.3-.8.7-1.3.4-2-1.1-4.2-1.9-5.9-3.5 1.4.3 2.7.6 4.1.8 3.6.4 8.1-3.1 8.6-6.6-1.1.6-2.1 1.4-3 2.3-4 3.8-8 3.6-11.7-.6-.5-.6-1.2-1.9-1.7.1-.2.6-.7.1-1 0-6.3-2.9-9.7-9.4-8.1-16 1.3-4.7 2.1-9.5 2.5-14.3.3-4.7 4.6-8.4 8.6-9s8.1-.9 12.2-1c.7-.1 1.4 0 1.9.4.6.4 1 .9 1.2 1.6 1.4 3.5 3.2 6.6 6.5 8.7.5.4.5.9.5 1.4 0 2.2.2 4.5.6 6.7.1.5.1 1.2.8 1.3.8.1.8-.7 1.1-1.3.2-.9.3-1.9.2-2.8 0-.6.3-1.2.7-1.7a2.34 2.34 0 0 1 1.7-.7c1.3 0 1.7 1 2 2 .2.8.2 1.7 0 2.5a9.24 9.24 0 0 1-3.8 6.1c-.5.4-1.4.9-.8 1.6s1.4.2 1.9-.2c1.6-1.1 2.9-2.5 3.7-4.3s1.1-3.7.9-5.6c0-1-.4-1.9-1.1-2.6a4.2 4.2 0 0 0-2.5-1.2c-1-.1-.7-.6-.4-1.1.8-2 1.4-4.1 1.6-6.2.4-3.6-.6-6.5-3.7-8.6-2.1-1.5-4.7-2.3-7.3-2.3-.5.1-.9 0-1.4-.1s-.8-.4-1.2-.7c-2.2-2.3-4.7-4-8.1-4-.9-.1-1.9-.3-2.7-.8l-5-2.2c-8.9-3.8-13 2.1-12.3 8.3.1.7-.3.9-.8 1.2a5.12 5.12 0 0 0-2.3 2.3c-.5 1-.8 2.1-.7 3.2 0 3.2 1 6.4 2.8 9 .7 1.1 1.1 2.3 1.2 3.5-2.6-.3-3.7.5-4 2.9-.3 2.5.1 5 1.3 7.2.2.5.6 1.1 1 1.3 1.1.3 1 1.1 1 1.9-.1 2.4.3 4.8 1.2 6.9.9 2.2 2.4 4.1 4.2 5.7.9.8.6 1.2-.2 1.6-2.5 1.3-4.9 2.8-7.4 4a23.98 23.98 0 0 0-8.8 7.3c-1.3 1.6-2.3 3.3-3.2 5.1-.1-.1-.1-.3-.2-.4-.4-1.2-1.1-2.3-2.2-3.1a1.38 1.38 0 0 1-.4-.3c-.1-.1-.2-.3-.2-.5s-.1-.3 0-.5c0-.2.1-.3.2-.5 1.9-4 .8-7.5-1.8-10.8-.3-.3-.7-.6-.6-1.1.7-2.8.6-5.8 1.4-8.6 1-3.8 1.5-7.7 2.6-11.4 1.5-5.1-1.9-11.9-6.5-15-3.8-2.7-8.1-3-12.6-2.7-5 .3-9.6 1.9-12.8 5.9-1.2 1.6-2.6 3-4.1 4.2-3.2 2.2-4.3 5.6-4.6 9.4-.2 2.8.6 5.4 1.1 8 .2 1 .1 2.1-.3 3-1.2 2.6-2 5.3-2.3 8.1-1-1.3-2.3-2.4-4-3-.9-.3-.6-.9-.3-1.4.8-1.4 1.4-2.9 1.7-4.5.4-2.5.6-5-1-7.2-.3-.4-.5-.8-.7-1.3-.1-.5-.1-1 0-1.4 1-5.9-1.1-10.8-4.7-15.3-.4-.4-.6-.9-.8-1.4-.1-.5-.1-1.1 0-1.6.6-2.6.9-5.3.9-8.1-.1-3.3-1.8-5.3-4.9-6.3-3-.9-6.2-1.2-9.3-1-1 0-1.9-.2-2.8-.7-5.1-2.5-10.9-3.3-16.5-2.4-4.9.8-7.2 4.4-6.6 9.3.2 2 .6 3.9 1 5.9.1.4.1.9.1 1.3-.1.4-.2.8-.5 1.2-1.9 3.2-3.1 6.5-2.5 10.2.1.4 0 .8-.2 1.2a2.36 2.36 0 0 1-.8.9 28.17 28.17 0 0 0-5.6 5.3c-1.2 1.3-2 2.9-2.5 4.6s-.7 3.5-.4 5.3.8 3.5 1.7 5 2.1 2.8 3.6 3.9c.3.2.8.3.8 1a12.81 12.81 0 0 1-2 1.1c-1.5.5-2.6 1.4-3.5 2.5-.6-.9-1.4-1.8-2.3-2.5a30.79 30.79 0 0 0-7.7-4.4c-5.2-2.1-10.6-3.6-16-5.2-.5-.1-.9-.2-1.2-.7-1.8-3-3.6-5.9-5.5-8.8-.1-.2-.3-.5-.5-.6-.2-.2-.5-.3-.8-.3-1.7.2-1.6-1.1-1.7-2.1-.1-1.2-.8-2.7.3-3.6 2.5-2.2 3.6-5.1 4.6-8 .5-1.3.7-2.7 2.6-2.4.2 0 .5-.2.7-.4 2.7-1.7 4.8-7.4 3.9-10.5-.4-1.3-1.1-2.5-2.6-2.6-1.2-.1-1.1-.6-.8-1.4 1-2.2 1.7-4.4 2.1-6.8.1-.9.3-2-.4-2.7-.9-.9-.6-1.6-.3-2.5.8-1.9 1.2-3.9 1.2-6-.1-1.9-1.2-3.2-2.7-2.9-1.6.3-1.6-.4-1.6-1.6 0-.8-.1-1.5-.4-2.3-.7-2.1-2.2-3-4.2-2.4-.4.2-.9.2-1.4 0s-.8-.5-1.1-.9c-2-2.4-6.6-3.1-8.8-1.2-1.1.9-1.5.6-2.2-.3-.5-.5-1-1-1.7-1.2-.7-.3-1.4-.4-2.1-.3s-1.4.3-2 .7-1.1.9-1.4 1.5c-.4.8-.8 1.6-1.1 2.4-.2.4-.3.7-1 .5-2.5-.6-4 .4-4.3 3-.2 1.6-.1 3.3.3 4.9.1.3.2.6.1.9 0 .3-.1.6-.3.8-.7 1-1.1 2.1-1.3 3.3s-.1 2.4.2 3.5c.2.6.3 1.3.1 1.9-.4 1.2-.4 2.5.1 3.7l1.2 3.6c.2.6.2.8-.6.9-.8 0-1.6.3-2.2.9s-1 1.3-1 2.1c-.3 1.8-.3 3.7.1 5.6.5 2.1 1.6 3.9 3.9 4.5.9.3 1.2.8 1.4 1.8.5 3.1 1.3 6.1 3.5 8.4.5.6.9 1.3 1.2 2 .2.7.3 1.5.3 2.3 0 1.4-.5 2.7-1.4 3.7-1.8 2.4-3.3 5-4.3 7.7-.4 1.1-1.1 2.2-2 3-.8.7-1.7 1.3-2.6 1.7l-1.4-16.5c-.3-4.3-1.5-8.5-3.3-12.4-2-4.4-5.3-6.1-10.1-6-4.3.1-8.1 1.6-12.1 2.7-1.1.3-1.6.2-1.6-1.1.1-2.8-.3-5.6-1-8.3-.2-.7-.2-1.4.1-2 1.3-3.2 1.4-6.3-.9-9.1-.2-.3-.4-.6-.4-.9-.1-.3 0-.7.1-1 .6-2.2.8-4.4.7-6.7 0-1.3-.4-2.6-1-3.8s-1.4-2.3-2.5-3.1c-2.2-2.1-4.7-3.8-7.5-5.2-1.7-.9-3.2-2.2-4.5-3.7-.2-.1-.3-.3-.4-.5s-.2-.4-.2-.6 0-.4.1-.6.2-.4.4-.5c2.5-3 5.4-5.2 9.4-5.8 2.9-.5 4.8 1 5.2 3.9.3 2.2.1 4.3-.3 6.4-.3 1.8-.1 2.1 1.7 2.1 4.7.1 7 3.5 5.3 7.9-.6 1.4-1.4 2.8-2.2 4.1-1 1.7-.7 2.4 1.2 2.7.3 0 .6.1.9.3.3.1.5.3.7.6.2.2.3.5.4.8s.1.6.1.9c.1 2-1.3 3.2-2.2 4.7-.6.9-1.7 1.6-1.8 2.7-.2 1.4 1.3 1.7 1.9 2.5.5.6.8 1.4.9 2.2s-.1 1.6-.5 2.3c-.7 1.6-1.8 1.1-2.9.8-.1-.1-.3-.1-.4 0a.76.76 0 0 0-.4.2c-.3.3 0 .6.2.9.3.3.6.6 1 .8s.8.3 1.3.2a3.08 3.08 0 0 0 1.3-.3c.4-.2.7-.5 1-.9.9-1.1 1.4-2.6 1.3-4-.1-1.5-.8-2.8-1.9-3.8-.7-.7-.5-1.1 0-1.8 1-1.2 1.9-2.5 2.6-3.8.3-.6.6-1.2.6-1.9.1-.7 0-1.3-.2-2-.2-.6-.5-1.2-1-1.7-.4-.5-1-.9-1.6-1.2-.8-.4-.4-.7-.2-1.1.8-1.2 1.4-2.5 1.9-3.9 1.5-4.9-.9-9-6-9.7-1.1-.1-1.1-.6-1-1.4.4-1.9.4-3.8.1-5.6C250 2.2 248 .1 245 0h-.7c-.5 0-1.1.1-1.7.2-4.1.9-7.7 3.3-10 6.8-.6.9-1 .9-2 .5-4.2-1.6-8.4-2.6-12.9-1.3-2.9.9-4.3 2.7-4.5 5.7a9.56 9.56 0 0 0 1.1 4.4 2.2 2.2 0 0 1 .2 1.4c-.1.5-.3.9-.6 1.3-1.5 1.6-2.5 3.6-2.8 5.8s.1 4.4 1.2 6.4c.3.6.5 1.4.8 2 .7 1.3.5 2.1-.9 2.9-1 .5-1.9 1.2-2.7 2.1s-1.3 1.9-1.5 3c-.7 3.1.8 4.9 4 4.5 1.1-.1 1.4.1 1.5 1.2.1 1.3.6 2.4 1.4 3.4.5.6 1.1 1.2 1.9 1.1 1.7-.3 1.8.5 1.6 1.8-.1.5-.1 1.1-.1 1.7 0 .9-.2 1.2-1.1 1-1.1-.3-2.2-.6-3.3-1-3.8-1.5-7.7-2.4-11.7-2.8-5-.3-8.6 1.8-11 6.2l-.6 1.2a24.06 24.06 0 0 0-5.9-2.6c-.8-.2-1.5-.4-2.3-.7-2.3-.7-4.7-.9-7.1-.5-4.6.8-8.6 2.9-11.1 6.9-1.5 2.3-2.5 4.9-3.2 7.5-1.1 4.2-1.2 8.6-1.4 12.9 0 1.3.1 2.6.2 4 .1.4 0 .9-.1 1.3s-.3.8-.6 1.2c-.8 1.2-1.6 2.5-2.3 3.9-.4.7-.7 1.6-.9 2.4-1.5-1.7-3.2-3.4-4.9-4.9-5.2-4.4-11.8-6.7-18.6-6.4-4.5 0-9 .1-13.5-.3-3.5-.3-4.6-1.3-5.6-4.6-.7-2.5-.6-4.4 1.9-6 3.9-2.5 5.1-6.4 5.1-10.8 0-2.3-.2-4.6-.7-6.9-1.3-5.8-1.7-11.7-3.6-17.4-.6-2-1.7-3.8-3.2-5.2s-3.4-2.4-5.4-2.9a48.76 48.76 0 0 0-7.5-1.2c-5.2-.6-13.3 1.9-15 10-.4 2.1-.5 4.3-.3 6.4.1 1.1.1 1.8-1.3 1.6-1.4-.1-2.2.8-2.8 2-.4 1-.5 2.1-.4 3.2.3 5 3 7.7 7.8 8 .2 0 .4 0 .5.1.2.1.3.1.5.3.1.1.2.3.3.4a.9.9 0 0 1 .1.5c.9 5.2 1.5 10.5.6 15.7-.7 4.2-1.8 5.4-5.9 6.4-.6.2-1.3.3-1.9.4-4.8 1.1-9.7 1.4-14.4 2.9-6 1.9-11.4 4.5-14.8 10.2-2.6 4.2-4.7 8.7-6.1 13.5-4.2 14.7-7.4 29.6-9.7 44.7-.1.5 0 1.1-.5 1.5-2.2 1.6-2.2 3.7-1.5 6 .1.5.5.9.3 1.4-1.2 3-.9 6.2-1.5 9.3-1.4 7.8-1.7 15.7-2.7 23.6-.9 7.3-2 14.5-2.1 21.8-.2 3.4 0 6.7.5 10 .1.3.1.7.1 1-.1.3-.2.6-.5.9-2.1 2.6-3.8 5.4-5.1 8.4-5.7 12.9-10 26.3-12.7 40.1l-8.6 39.6c-1 5.1-2.7 10-2.8 15.2 0 2 .4 2.3 2.2 1.4 3.6-1.8 7.1-3.7 10.7-5.6a1.93 1.93 0 0 1 1-.3 1.69 1.69 0 0 1 1 .3A83.88 83.88 0 0 1 28 340.8c1 1 1.8 1 2.7 0 .2-.3.4-.5.7-.7 7-4.6 13.1-10.4 20.1-14.9 4.6-3 9-6.3 13.2-9.8 1.8-1.4 3.7-2.6 5.5-4.8l.3 4.1c1.1 14.8 2.4 29.6 4.3 44.4.5 4 .5 4 4.4 4.5 2.6.4 2.6.4 2.6 2.9 0 1.6.6 3.5-.5 4.8-2.2 2.5-5 4.5-8.5 4.5-3.2-.1-6.4.2-9.5.8-2.4.5-4.8.8-7.2.6-3.6-.1-7.1.1-10.6.9-1.1.2-2 .6-1.9 1.9s1.2 1.6 2.1 1.6c2.3.2 4.6.3 6.9.2 2.6-.2 4.7.8 7.1 1.6-1.6 1.4-3.6 2.2-5 3.6-2 1.9-1.6 4.2 1 5.2 1.1.4 2.4.6 3.6.4 7.8-.9 15.5-2.7 22.9-5.3 2.1-.9 4.3-1.2 6.6-1.1a317.25 317.25 0 0 0 33.8.6c2.4-.1 4.7.1 7 .8 3.7 1.2 7.5 2.2 11.3 3h-.1c-6.2 0-12.4.4-18.5 1.3-.8.1-1.6.3-2.2.8-.5.4-.5 1 .2 1.2a32.78 32.78 0 0 0 8.2 2l5 .6c.2.1.4.2.6.4 0 0-.1.3-.2.4-.4.4-.8.7-1.2 1.1s-.7.8-.8 1.4c-.1.5-.1 1.1.1 1.6.2.4.6.8 1 1.1.4.2.9.4 1.4.3 1.4.1 2.8.1 4.2-.1 5.2-.7 10.3-1.4 15.4-2.7.7-.2 1.4-.2 2.1-.1 5.6.8 11.3 1.3 16.9 1.3 6.5.2 13.1-.3 19.5-1.5 1.3-.2 2.6-.1 3.8.4 3.5 1.3 7 2.5 10.5 3.6 3.1 1 6.4 1.6 9.6 1.7h1.8c.4 0 .8-.1 1.1-.3s.6-.5.8-.8.3-.7.2-1.1c0-.4-.2-.7-.4-1.1-.3-.5-.7-1-1.1-1.5-1-1.1-2.2-2.1-3.6-2.8-.7-.5-1.4-1-2-1.6-.2-.2-.1-.2 2.3-.6.9-.1 1.8-.3 2.6-.3 3.3-.3 6.5-1.2 9.4-2.7.6-.3.6-.7.2-1.3a2.36 2.36 0 0 0-.9-.8c-.4-.2-.7-.3-1.1-.3-2-.3-4-.6-6.1-.7l-14.6-.6c-.5 0-1-.1-1.5-.4-1.6-1.1-3.2-2.3-4.7-3.4-.6-.4-.8-2.6-.3-3.2.2-.2.4-.3.7-.3l2.6-.3c1.4-.2 1.7-.5 1.8-1.8l.6-6.1.7-7.7c.1-.8.1-1.7.2-2.5 1.4 0 2.7 0 4.1-.1 7.5-.4 14.9.2 22.4.6 8.5.4 16.9 0 25.3-1.2.1 3.5.1 3.6 3.3 4.7l-.6 1.2c-1.4 3-4.1 4.8-6.4 7-.8.8-1.9 1.2-3.1 1.3-4.7.4-9.3 1.3-13.7 2.6-1.1.3-2.2.8-3.2 1.4-1.4 1-1.3 2.3.2 3.1 1.5.6 3.1.9 4.6 1 .8-.1 1.6 0 2.3.4-.9.8-1.8 1.5-2.5 2.3-.9.8-1.7 1.6-2.5 2.4-2.3 2.7-1.2 5.6 2.2 6.3 2.2.4 4.4.4 6.5-.1 3.4-1 6.6-2.3 9.7-4.1 1.5-.9 3.1-1.4 4.9-1.5 8.5-.1 16.8-1.6 25.2-3.1.5-.1 1.1-.1 1.6 0a117.34 117.34 0 0 0 42.6.6c.2-.1.4-.1.6-.1s.4.1.6.2.3.2.5.4c.1.2.2.3.3.5 1.4 3.5 3.8 6.5 6.9 8.7 2.8 2 6.2 3 9.6 3 3.8 0 5.7-2.8 4.4-6.4-.6-1.5-1.3-2.9-2.2-4.2l-3.5-4.9c.4-.3 1-.5 1.5-.5 3.1-.6 6.3-1 9.3-2.1.9-.3 1.8-.7 1.8-1.8s-.9-1.5-1.8-1.8c-2.5-.8-5-1.2-7.6-1.3l-6.8-.4c-.5 0-1-.1-1.4-.5-.4-.3-.7-.8-.8-1.3-.6-1.8-1.3-3.6-2-5.4-.3-.8-.3-1.2.6-1.4.6-.1 1.1-.5 1.4-1s.5-1.1.4-1.7c0-2.1-.2-4.2-.6-6.2l-.3-2.1c1 .1 1.9.2 2.9.2h2.9c-.1.4-.4.8-.8 1.1-1 .7-1.9 1.4-2.9 2.2-.5.3-.8.8-.9 1.3-.2.5-.1 1.1.1 1.6s.6.8 1 1.1c.4.2.9.3 1.4.3.9 0 1.9-.1 2.8-.2 4.3-.9 8.6-2.1 12.6-3.8.6-.3 1.3-.4 1.9-.4 5.5.6 11 .5 16.5.6 1.7 0 3.4-.4 5 .3 4.3 1.7 8.7 2.8 13.3 3.3 1.1.2 2.2.1 3.3-.1 2.1-.6 2.6-2.2 1.1-3.8-.6-.7-1.3-1.3-2.2-2.1l3.1-.4c.5-.1 1.1-.1 1.6-.2.3 2.3.6 4.5 1.1 6.8.7 3.8 1 3 3.8 3 .6 0 1.6-.5 1.6 1l-.5 11c-.1 2.3-1 4.5-2.7 6-1.7 1.6-3.9 2.5-6.1 2.5-5.5.1-11 .4-16.4 1-2.6.2-5.2.6-7.7 1-.7.1-1.3.5-1.4 1.2 0 .7.5 1.1 1.1 1.3 1.3.4 2.6.7 3.9.8.9.1 2.1 0 2.7.5 1.8 1.4 3.9 1.7 6 2.2.9.1 1.9.3 2.7.7-.5.5-1 .8-1.3 1.2a7.55 7.55 0 0 0-1.1 1.4c-.9 1.6-.2 2.9 1.6 3.1 1.2.2 2.3.1 3.4-.3 3.2-.9 6.2-2 9.2-3.4 2-1 4.2-1.5 6.4-1.5 6.9.1 13.7.4 20.6.7 6.7.4 13.5.1 20.2-.7.6-.1 1.2-.1 1.8.1s1.1.4 1.6.8c3.9 2.8 8.4 4.7 13.1 5.6 1.5.3 2.9.4 3.8-1.1.4-.7.5-1.6.3-2.4-.1-.8-.5-1.6-1.1-2.2-.9-.9-1.8-1.8-2.5-2.9 1.5-.4 2.9-.8 4.3-1.1a49.71 49.71 0 0 0 7.8-2.1c1-.4 2.5-.5 2.4-1.9-.1-1.5-1.7-1.3-2.8-1.5-5.2-.8-10.5-1.2-15.8-1.2-1.7.1-3.3-.3-4.8-1s-2.8-1.8-3.8-3.2c-1.1-1.2-1.7-2.7-1.8-4.4l-.2-11.5c0-1.7.6-2.5 2.3-2.4.5.1.9 0 1.3-.3s.6-.7.7-1.2c.2-.7.4-1.5.5-2.2 0-.6.1-1.1.1-1.7.7.1 1.3.2 1.9.4 6.5 2.3 13.2 2.9 20 3.2 7.2.1 14.3-.4 21.4-1.7 2-.3 4.2-.1 6-.7 1.6-.6 2.7 0 4 .5 4 1.8 8.2 2.9 12.5 3.3 1.6.1 3.3.4 4.3-1.3 1-1.6.3-3.3-.4-4.9 0-.1-.1-.2-.2-.3-.8-1-.3-1.3.7-1.6 2.1-.4 4-1.1 5.9-2 1.5-.8 1.6-2 .3-3.1-.7-.6-1.6-.9-2.6-1-1.7-.2-3.5-.4-5.3-.4-2.2 0-4.6.7-6.5-.2-1.8-.9-3.2-3-4.7-4.6-.1-.1-.2-.2-.3-.4-1.7-2.2-3-4.5-2.9-7.5.2-6 .9-11.9 1.2-17.8.6-10.1 1.6-20.2 2.5-30.3 0-.5.2-1 .5-1.3s.8-.6 1.2-.7c2.7-.6 5.3-1.8 7.6-3.5.5-.4 1-.8.9-1.5-.3-3.7.3-7.4 0-11.1-.3-2.6-.4-5.3-.2-7.9.5-5.7.8-11.3.8-17 0-6.8.1-13.6-.7-20.4a58.14 58.14 0 0 0-.9-5.8v-.1c0-.3-.1-.5-.1-.8-.1-.3-.1-.7 0-1s.3-.7.5-.9c.1-.2.2-.4.4-.5 2.1-2.9 4-6 5.6-9.3.1-.2.2-.3.3-.5.6-1.3.9-2.6.6-3.9-.2-.6-.4-1.2-.9-1.8s-.9-1.3-1.3-1.9c-1.6-2.1-1.6-2.1-.1-4.2.6-.6 1-1.5 1.1-2.3 0-1.9.9-3.4 1.5-5 2-4.6 3.7-9.3 5.1-14.1 1.3-4.7 1.7-9.7 1-14.6-.7-5.7-2.1-11.5-3-17.2-.3-2.8-.4-2.8 2.5-3.9zm-74.9-63.1c-1.6-1.5-2.6-6.1-1.8-8 0-.2.1-.3.2-.5s.3-.3.4-.3c.2-.1.3-.1.5-.1s.4 0 .5.1c.9.4 2.1.8 1.9 1.9-.2 2.3-.8 4.6-1.7 6.9zm14.3 20.5c-1.3-.3-2.3-1.3-3.9-2 2-.2 2.8 1.1 3.9 2zm-30.4 14.9h.1c.1 0 .3.1.4.1l1.8.6c4.7 1.6 9 4.1 12.6 7.5 6.1 5.7 11.6 12 18 17.4 1.8 1.6 2 2.8 1.2 4.8-2 5.5-4.7 10.8-7.9 15.7-1.2 1.9-1.3 1.8-2.9.3-2.7-2.6-4.9-5.7-8-8-.7-.5-.5-1.2-.5-1.8-.1-5.4-1.3-10.7-3.4-15.7-.3-.7-.4-1.9-1.4-1.6s-.2 1.4 0 2c3.2 8.6 4 18 2.1 27-.2 1-.3 1.9-.2 2.9l.3 1.9c1.2 3.6 1.5 7.5 3.4 10.9.4.8-.1.8-.6 1-2.1.7-3.6 2.1-5.2 3.5-.2.2-.4.4-.5.6-.6 1.1-1.5 2.3-.4 3.5s2.2.2 3.3-.3c1.6-.8 3.1-2 5-2.2-3 1.8-4.9 4.5-6.7 7.3-.4.5-.7 1.1-1.1 1.6a5.39 5.39 0 0 0-.8 2.1c0 .2-.1.3-.1.5 0 .3 0 .7.1 1 .1.2.2.3.3.4 1.6.2 1.5 1.3 1.8 2.5 0 .1 0 .1.1.1.2.5.7.6 1.2.6.3 0 .7-.1 1.1-.2.1 1-.6 2 .4 2.6s1.8.1 2.7-.3c.7-.3 1.3-.7 1.9-1.1.4-.3.8-.6 1.1-.9.4-.4.9-.8 1.4-1.2l.3 1.4c.1.6.3 1.3.5 1.9 0 .2.1.4.1.5.8 3.1 1.5 6.1 1.8 9.3.1.6.1 1.2-.7 1.4-.6.2-1.2.4-1.9.6-4.8 1.5-9.5 2.9-14.6 3.2-3 .2-3 .1-3.4-2.9l-1.3-11.5c0-.4-.1-.7-.1-1.1-.2-1.9-.4-3.8-.7-5.8l-4.7-39.3-1.9-14.3c-.1-1.1-.3-2.1-.4-3.2-.2-1.1-.3-2.2-.5-3.4l-.6-3.9c-.9-5.5-1.9-11-3-16.4-.1-.2-.1-.5-.1-.7s0-.5.1-.7c3.2 1 6.3.4 9.4-.4.5.1.8.1 1.1.2zm20.7 78c-.2-.1-.3-.2-.5-.2-.4.1-.8.6-1.1.9-.9.9-1.8 1.8-2.6 2.7l-.5.5-.9.9c-.1.1-.2.2-.2.3-.5.5-1.1 1-1.6 1.5-.3.2-.5.7-1 .4s-.3-.8-.1-1.2c.2-.6.5-1.1.8-1.6.1-.2.3-.3.4-.5.3-.4.6-.7.9-1.1l.2-.2c1.3-1.4 2.7-2.7 3.9-4 .4-.4.9-.7 1.4-.8.3-.1.6-.2 1-.2.3 0 .7 0 .7-.5s-.4-.7-.8-.7-.8.1-1.2.2c-.3.1-.5.2-.8.3-2.4 1-4 2.9-5.6 4.8l-.3.3c-.3.3-.5.7-.8 1-.4.5-1 .9-1.7 1.1 0-.2-.1-.4-.1-.4.2-.5.5-.9.7-1.4.2-.4.4-.7.6-1l.3-.6c1.6-2.8 3.6-5.3 6.5-7 .1-.1.2-.1.3-.1.6-.2 1.4-.2 1.4-1.2 0-.5-1.3-1.2-2.3-1.5-.4-.1-.7-.2-.9-.1-1.1.4-2.2.8-3.2 1.4-.5.3-1 .5-1.5.8-.5.4-1 .6-1.5.8-.2.1-.4.1-.6.1.8-2.3 2.7-3.4 4.5-4.4.8-.5 1.6-.7 2.4-.8 1.8-.2 3.4.7 4.7 2.7 1.1 1.7 2.3 3.4 3.7 4.9.4.4.8 1 1.4.5.7-.5.2-1.2-.2-1.6-1.5-1.3-.9-2.4.1-3.6 4.2-5.3 6.8-11.4 8.9-17.7.6-2.2 1.6-4.3 2.8-6.2.7-1.3 1.9-2.4 3.2-3 .4-.2 1-.3.8-.9s-.8-.5-1.3-.4c-1.6.5-2.9 1.5-3.7 2.9-1.7 2.4-1.7 2.4-3.8.4-2.7-2.7-2.7-2.7-1.1-6 1.4-2.6 2.6-5.4 3.4-8.3.3-1 .6-1.1 1.4-.4 4 3.1 7.7 6.8 10.8 10.8a8.98 8.98 0 0 1 1.8 4.4c.2 1.6 0 3.2-.7 4.6-1.8 4.6-4.1 9-7 13-4.4 6.3-8.8 12.6-13.7 18.6-.8 1-1.7 1.9-2.8 2.6l-2.5-.3a1.08 1.08 0 0 1-.3-.7c-.1-.5 0-1.1-.7-1.2s-1 .4-1.3.8c-.1.1-.2.3-.3.4 0 .1-.1.1-.1.2-.1.2-.3.4-.4.5-.3.4-.7.9-1.1 1.3l-.8.8c-.4.4-.8.7-1.2 1-.3.2-.6.5-1 .7-.5.3-1 .8-1.4.4s.1-1 .3-1.5c.2-.4.5-.8.7-1.2a7.55 7.55 0 0 1 1.1-1.4c.4-.4.8-.9 1.1-1.3.6-.7 1.3-1.4 1.9-2.2l.2-.2a1.38 1.38 0 0 0 .3-.4c.7-.6 1.1-1.1.6-1.5zm-3.9-15.4c-.7-3.2-1.7-6.3-2.6-9.4-.3-.8-.4-1.6-.4-2.4.5-3.4 1.3-6.8 1.3-10.4.9.1 1.2.8 1.7 1.2l6.7 7.2c1.1 1.2 2 1.1 3.1.1 1.3-1.4 2.4-2.9 3.3-4.6.5-.8.9-.9 1.5-.2l.2.2c1.2 1.3 3.1 2.3 3.6 3.8.4 1.5-1 3.3-1.5 5-2 6-5 11.7-8.9 16.7-1.1-1.3-1.9-2.9-3.2-4-.7-.5-1.4-1.2-2.3-1.1-1.9.2-2.2-.7-2.5-2.1zm-31.1 17.8-1.7-.3c-.3-.1-.5-.1-.8-.2-2.7-.9-5.3-2-7.8-3.4-2.3-1.3-4.5-2.8-6.6-4.4-.3-.2-.5-.5-.7-.8-.1-.3-.2-.7-.1-1 .3-4.4.5-8.8.7-13.3 0-1.3.5-1.1 1.4-.7 1.9 1 3.7 2.5 6.3 2.9-1.9-1.5-3.9-2.8-6.1-3.8-.5-.2-.9-.6-1.2-1-.3-.5-.3-1-.2-1.6.4-4.5.4-9 .5-13.5 0-1.1 0-2.2.1-3.3 0-1.1.1-2.3.1-3.4 0-.6.1-1.2.1-1.8s.2-.9.6-1c.2 0 .3-.1.5-.1.5 0 1 0 1.5-.1.6-.1 1.2-.2 1.7-.4.4-.1.7-.3 1.1-.5 1.3-.7 2.5-1.7 3.3-3 .4-.5.6-.7 1.3-.4.9.5 2 .7 3 .7a5.29 5.29 0 0 0 3-.9c2-1 3.8-2.5 5.2-4.2.1.4.1.7.2 1.1.3 1.7.5 3.3.7 4.9l.3 2c.1.4.1.7.2 1.1l.6 3.7c1.5 9.6 2.5 19.3 3.6 28.9.1.5.1 1-.2 1.4s-.6.7-1.1.9c-.3.2-.7.3-1 .4-.7.3-1.3.5-2 .8-3.4 1.2-6.9 1.8-10.5 1.8-1.2 0-2.3 0-3.5-.1-.7 0-1.9-.5-2 .3s1.2.8 1.9.8c1.3.2 2.6.2 3.9.2 3.6 0 7.2-.6 10.7-1.8.7-.2 1.3-.5 2-.8.3-.1.6-.2.8-.4 1.1-.5 1.5-.5 1.6.8l.9 9 .6 4.9c.1.5 0 .8-.2 1.1s-.6.4-1.1.6c-4.3 1.5-8.6 2.1-13 2.1-3.2 0-6.3-.3-9.5-.7-1.1-.2-2.3-.3-3.4-.5-1.3-.2-3 .2-3.7-.7-.8-.9-.2-2.6-.1-4l.3-5.8c2.9 2 5.3 3.5 7.4 4.8 3.8 2.3 6.5 3.5 8.8 3.8 1.5.2 2.8 0 4-.5-.9-.4-1.6-.5-2.4-.6zm-8.3-88.1a73.99 73.99 0 0 1 3.3.9c.8.2 1.5.4 2.3.7.2 0 .4.1.6.3.2.1.3.3.4.5.7 1.5 1.7 2.9 3 3.9l.1.1a2.37 2.37 0 0 1 .9 1.5l2.8 16.7c.1.4.1.9 0 1.3-.7 2.4-5.5 6.7-8.9 6-1.7-.3-1.8-.5-1.2-2.1.9-2.2 1.2-4.6.8-6.9a13.98 13.98 0 0 0-1.8-4.8c-.3-.5-.7-1.1-1.1-1.5-.3-.3-.5-.7-.6-1.2-.1-.4 0-.9.2-1.3 0-.1.1-.2.1-.3.8-2.2 1.1-4.5 1-6.8-.3-2.4-.9-4.8-1.9-7zm19.9-.2c-.9 1.8-.9 3.3 1 4.3.4.3.7.6.9 1 .5.6.3 1-.4 1.1h-.1c-1.8.2-3.5.6-5.3.7a8.05 8.05 0 0 1-4.7-1.2c-1.2-.8-2.2-1.9-3.1-3.2-.3-.4-.6-.7.2-1 4.6-1.4 6.8-5.1 8.9-8.9.3-.5.5-.9.9-1.6 2.1 2.8 3.1 5.6 1.7 8.8zm-24.1-44.8c4.4-2.5 9.1-2.8 14-2 5.7.9 9 4.6 11 9.7.1.3.2.5.2.8s.1.5.1.8c-.7.1-.8-.4-1-.7-2.3-3.4-5.8-5.8-9.7-6.7-.6-.2-.8.2-1.1.5l-3.3 3.7c-3.1 3.5-6.5 6.5-11 8-1 .4-1.5.8-1.3 2a18.7 18.7 0 0 1-.3 3.4l-.4.1c-.4-.8-.6-1.6-.9-2.4-.4-.8 0-2-1.4-2.1-.1 0-.2-.7-.2-1.1-.1-1.7-.1-3.4-.1-5.1-.2-4.2 2-6.9 5.4-8.9zm-7.2 6.7c-.2 2.8-.1 5.5.2 8.3 0 .2 0 .5-.1.6-2.5 1.3-3.1 3.7-3.6 6.2-3-4.4-1.2-12.3 3.5-15.1zm-6.5 30.5c.1-1.2.2-2.4.4-3.5.4-2.2 1.1-4.4 2.1-6.6.1-.2.2-.4.4-.6l.4-.4c.5.9 1.1 1.7 1.6 2.5a1.38 1.38 0 0 1 .3.4c1 1.3 2.4 1.7 3.9 2 .5.1.9.2 1.1-.4s-.4-.9-.8-1c-1-.3-2-.6-2.7-1.3-.2-.2-.4-.4-.6-.7-2-3.1-1.6-6.2-.3-9.3.2-.5.5-.8 1-1.1.9-.5 1.8-1 2.2.7.4 1.3.9 2.6 1.6 3.8.2.5.5.9 1.1.8.2-.1.5-.2.6-.4.2-.2.2-.4.2-.7.2-1.4.4-2.9.5-4.3 0-.4.1-.9.4-1.2.3-.4.6-.6 1.1-.7 5.7-1.8 9.6-6 13-10.7.7-.9 1.1-1.1 2.1-.8 5.4 1.8 9.1 6.6 8.9 11.7 0 .2-.1.5-.1.7-1.3-.4-2.6-.9-3.8-1.2-.7-.2-1.4-.3-2.1-.3-.6 0-1.4 0-1.4.7s.8.6 1.3.7c1.7.3 3.3.8 4.9 1.4.8.3 1.1.7.9 1.5-1.2 4.5-1.5 9.3-2.6 13.8-1 3.8-3 7.3-5.9 10-.8.8-1.8 1.5-2.9 1.8s-2.3.4-3.4.2c-.5-.1-1.1-.2-1.6-.4-4.8-1.3-8-4.2-9.5-9.3a39.27 39.27 0 0 0-1-3.2c-.1-.4-.3-.8-.8-.7-.6.1-.4.6-.3 1 .7 3.6 1.6 7.2 4.4 9.7 2.4 2.2 3 5 3.6 7.9.6 3.1.2 6.3-1 9.2-.3.5-.3 1.2-.2 1.7.1.4.3.9.5 1.2l.3.3c1.2 1.4 2.1 3 2.6 4.8.3 1 .4 2 .4 3 0 1.6-.3 3.1-.9 4.6-.5 1.2-1.1 2.3-2 3.2-.8 1-1.8 1.7-2.8 2.2-.5.2-1.1.4-1.7.5-.7.1-1.4.2-2.2.2-.6 0-1.2-.1-1.8-.2h-.3c-.3-.1-.6-.1-.8-.1-.3 0-.6.2-.8.3 2.9.5 1.9 2.3 1.7 3.8a58.28 58.28 0 0 0-.3 5.9c0 .9-.1 1.8-.1 2.8l-.2 9.3c-.8 13.7-1.8 27.3-1.7 41l.1 12.6c.1 1.4-.4 1.8-1.5 1.7h-.3c-.5-.1-1-.2-1.5-.2-4.9-.7-10-1.1-14.6-3.3-1-.5-.8-1.1-.7-1.7l2.8-19.2 3.5-20.2c.1-.3.1-.7.2-1 0-.3.1-.6.1-.9v-.1c.3-1.9.2-3.9.5-5.9.2-1.3-.9-2.4-1.5-3.4-.8-1.4-1.5-2.9-2.1-4.4-.2-.5-.3-1-.4-1.5s-.3-1.1-.4-1.6c-.1-.4-.1-.8-.2-1.2 0-.1 0-.2-.1-.4-.1-.5-.1-1-.1-1.5v-1.4c0-.7 0-1.3.1-2 0-.5.1-1.1.2-1.6.2-1 .4-2.1.7-3.1.4-1.2.8-2.3 1.4-3.4.3-.6.6-1.2.9-1.7l1.5-2.4c.3-.5 1.1-1 .5-1.6-.6-.5-1 .4-1.4.8-.9 1.2-1.7 2.4-2.4 3.6-.3.6-.6 1.1-.9 1.7-.6 1.2-1 2.4-1.4 3.6-.4 1.4-.6 2.8-.8 4.2-.1.7-.1 1.4-.1 2.1v1c0 .7.1 1.4.2 2.1 0 .3.1.6.2 1 .1.7.3 1.4.5 2 .1.5.3 1 .4 1.5l.9 2.5c.3.9.8 1.8 1.4 2.6 1.7 2 1.2 4.2.9 6.4 0 .2 0 .3-.1.5s-.2.3-.3.4a.76.76 0 0 1-.4.2c-.2 0-.3.1-.5 0-3.7.2-7.3-.3-10.8-1.5l-.9-.3c-1.1-.4-1-1.2-.8-2l.3-1.7 1.2-6.3c0-.2.1-.3.1-.5 0-.3.1-.5.1-.8.7-4.2 1.6-8.3 2.5-12.5.1-.6.3-1.2.4-1.8.2-.7.3-1.3.5-2 .1-.5.2-1 .4-1.5.5-2.3 1.1-4.6 1.7-6.9l.6-2.3c.9-3.6 1.8-7.1 4.5-10 1.1-1.2 2.4-2.2 3.7-3 .5-.3.9-.6 1.4-.8.5-.3 1-.5 1.5-.8l1.2-.6 1.2-.6c.4-.2.7-.3 1.1-.5 0 .5-.1.9-.1 1.4 0 .7-.1 1.3-.1 1.9v.1c-.1 1.3.1 2.6.4 3.8.2.7.4 1.4.7 2.1.1.3.3.5.4.8.8 1.5 1.9 2.9 3.2 4 1 .9 2.1 1.7 3 2.6a1.38 1.38 0 0 0 .4.3c.7.6 1.4 1.4 1.8 2.2.8 1.6.3 2.9-.9 3.4-.4.2-.8.3-1.3.3h-1.6a2.36 2.36 0 0 0 .8.9c.1.1.2.1.2.2.4.3 1 .4 1.5.5.2 0 .5 0 .7-.1.3-.1.6-.1.8-.3.5-.2.9-.6 1.2-1 .1-.1.1-.1.1-.2.4-.6.7-1.4.7-2.2a5.42 5.42 0 0 0-.6-2.5c-.3-.6-.8-1.2-1.2-1.7-.7-.8-1.5-1.6-2.3-2.2-.1-.1-.2-.2-.3-.2-3.3-2.4-5.1-5.3-5.6-8.7-.2-1-.2-2.1-.2-3.3.1-1.2.2-2.5.5-3.8.1-.3.1-.7.1-1 0-1-.2-1.9-.7-2.7-3-3.5-3.9-7.4-3.7-11.2zm-28.1 184c0-1.2.3-1.5 1.5-1.4 1.9.2 3.8 0 5.5-.7.8-.3 1.6-.2 2.4.1.7.2 1.5.4 2.2.5 2.4.4 2.4.4 2.2 2.7-.9 15.4-2.7 30.8-4.5 46.1-.4 3.7-.4 3.7-4.3 4.1-1.4.1-2.8.2-4.1.4s-1.5-.3-1.5-1.5l.5-24v-1.2c.1-8.4.4-16.7.1-25.1zm9.1-7.3c-1.2-.4-2.5-.3-3.7.2-6.9 3.4-14 3.2-20.9.2-.9-.4-1.8-.5-2.7-.5s-1.8.3-2.6.8c-2.6 1.3-5.2 2.4-8.2 2.4a13.33 13.33 0 0 1-4.3-.7c.2-12.1 0-24.2-.2-36.3v-1.6c0-2.2.3-4.4.8-6.5 0-.1.1-.3.1-.4 2-6 3.5-12.1 4.9-18.3.1-.6.1-1.2.6-1.7 1.1-1 .4-1.6-.5-2.2s-1.8-1.1-2.7-1.5c-.3-.1-.5-.2-.7-.3-.2-.2-.4-.4-.5-.6s-.2-.5-.2-.8.1-.5.2-.8c.5-2 .8-4 1.2-6 1.2-6.7 1.5-13.5 2.9-20.3.2-.8.3-1.2 1.2-1.1h.5c.2 0 .3-.1.5-.3.1-.1.2-.3.3-.5s.1-.4 0-.5c0-.5.1-.9.3-1.3s.5-.7.9-1l.2-.2c.8.1 1.7.1 2.5.2 1.1 0 1.1.4.8 1.3-.7 2-1.4 4.1-2 6.1-.3.9-.3 2-.1 2.9.7-.5 1.1-1.3 1.3-2.1l2.3-6.9c.1-.4.3-.7.6-.9s.7-.3 1.1-.3c2.5 0 3-.5 3.6-3 1-3.5 1.7-7.1 2.3-10.7.1-1.1.6-1.3 1.6-1.4 3-.2 6 .2 8.9-.5 1.1-.2.9.8 1 1.3.4 3.7.9 7.5 1.7 11.1.6 2.8.8 3 3.6 3.1 1.6.1 3.2 0 4.8-.1-.6 15.5-3 30.9-3.8 46.5-.2 4.9-3 8.8-7.4 11.3-2.5 1.4-4.9 2.9-7.3 4.5-1.5.9-2.7 2.2-3.6 3.6-.4.6-.7 1.3-.1 2 .2.3.5.5.9.6.3.1.7.1 1 0l1.4-.4c-1.3 3-.6 6.1-1.1 9-.2 1 .1 2.5 1.2 2.3 1.5-.2 3-.2 4.5-.4.2 0 .4-.2.5-.4.5-.4 1-.9 1.4-1.4 2-1.9 3.2-4.5 4.9-6.7.2-.3.3-1.1 1.1-.5 1.5 1.1 2.9.5 4.1-.3 1.8-1.1 3.3-2.6 4.5-4.4 1.4-2 2.7-4 3.8-6.2.9 3.7 1.9 7.3 2.9 10.9l.9 31.5c-3.9 0-7.6-.7-11.2-1.8zm-44.4-75.9c-.1-.1-.1-.2-.2-.4-.4-.6-.1-1.5-.1-2.3v-.1l-.5-7.4c-.2-3.5-.5-7-.8-10.5-.1-1.1 0-1.6 1.3-1.2h.1c.3.1.7.2 1 .3.2.1.4.1.6.2 1.4.4 2.8.7 4.2 1.1.4.1.9.1.7.8-1.6 5.2-1.4 10.8-2.4 16.1l-1.8 10.4c-.2 1-.5 1.3-1.5.8-.5-.2-.9-.5-1.4-.7-.2-.1-.3-.2-.5-.2-.4-.2-.8-.4-1.2-.7-1.4-.8-2.8-1.6-4.2-2.5 1.7-.6 3.2-1 4.7-1.5.3-.1.5-.2.8-.2.2-.1.4-.1.5-.2.2-.1.4-.2.5-.3.4-.5.5-.9.2-1.5zm20.5-57.8c-1.3 0-2.5.1-3.8.2-.9.1-1.5-.3-1.5-1.1-.1-1 .8-1 1.4-.8 1.9.4 3.7.5 5.3-.8.1-.1.3-.1.5-.1 1.7 0 5.8 3.7 6 5.4.1.6 0 1-.7.9-4.1-.4-8.3-.2-12.4-1.1-.2-.1-.5-.3-.7-.4 2-.5 4-.7 6-.9.5 0 1.1.2 1.2-.6s-.8-.7-1.3-.7zm.7 5 9.4.5c1.6.1 3.2.8 4.9.5.6-.1.9.4.9 1 .3 3.1.4 6.2.2 9.3 0 .5-.2.8-.8.8-8.7.7-17.5.8-26.3.2.1-5-.5-9.9-1.6-14.8 4.4 1 8.8 2.2 13.3 2.5zm7.1-62.7c0-1.4.3-2 1.9-1.5 3 .9 5.6 0 8-2.3.4 4.3-.2 8.3-.2 12.3 0 3.5-.4 7-.5 10.5 0 .5-.1 1-.4 1.4s-.8.7-1.3.8c-.2.1-.4.2-.6.2-2 .3-4.2 1-5.8-.1-1.3-.9-.6-3.1-.7-4.7l-.4-16.6zm11.2 5.7c0-.4-.3-1 .3-1.1.2 0 .5 0 .7.1s.4.3.5.5c2.3 3.6 5.4 6.5 8.3 9.7.8.8 1 1.3 0 2.1-1.5 1.2-3 2.6-4.3 3.9s-1.1 2.3.7 2.9c1.2.4 2.4.7 3.6 1.1.8.2.8.6.5 1.3-.8 1.8-1.8 2.9-4.1 2.5-1.7-.2-3.5-.2-5.3-.1-1.2 0-1.7-.2-1.6-1.6.2-3.5 0-7 0-10.4.5-3.7.8-7.3.7-10.9zm18.2 24.3c.6 0 1.6-.5 1.6.5 0 .9-1.1.5-1.6.5-3.6-.3-7.2-.3-10.7-.4-4.4 0-8.8 0-13.2-.1-1.1 0-1.2.7-1.2 1.3-.3 2.8-.7 5.7-.9 8.6-.3 5.3-1 10.7-1 16 0 .7 0 1.2-1 1.1s-.8-.7-.7-1.3l1.9-24.9c.1-1.3.4-1.8 1.8-1.7 8.3.5 16.7.5 25 .4zm-13.4 58.3c.2 0 .4.1.6.2.1 0 .1.1.1.1l.3.3c.1.2.2.4.2.6v1.3c-.1-.3-.1-.5-.2-.8-1.4.1-2.9.2-4.3.2-.3 0-.6 0-.8-.1-.3-.1-.5-.2-.7-.4s-.4-.4-.5-.7-.2-.5-.2-.8c-.6-2.9-1.1-5.9-1.5-8.8-.1-.8-.3-1.5-.4-2.3v-.6c.1-.5.7-.5 1.1-.5h4.1l-1.1 6.6c-.7 4.2-.7 4.3 3.3 5.7zm7.1 45.5c2.7 1.1 2.6 1.1 2.2 4-.4 2.8-1 5.6-1.9 8.2-.2.8-.5 1.5-.8 2.3-1.1 2.8-2.5 5.5-4.4 8-1.3 1.7-2.8 3.1-4.6 4.2-.4.2-.8.5-1.2.1s.1-.8.3-1.1l3-4.2c.2-.3.6-.8.1-1.2-.3-.2-.7.1-1 .3-.4.3-.8.7-1.1 1.2-2.2 3.6-5.3 6.5-7.7 9.9-.9 1.5-2.2 2.7-3.6 3.6.2-3 1.8-5.3 3.4-7.6 1.4-2.2 3.6-3.8 5-6 .2-.3.9-.6.4-1.1s-.9.1-1.3.4c-4 3.4-7.1 7.8-9 12.8-.1.4-.3.7-.5 1-.4.4-.7 1.2-1.4 1-.7-.3-.2-1.1-.2-1.6.5-3.1 1.9-6.1 3.9-8.5 1.4-1.8 3-3.4 4.5-5.1.3-.3.6-.6.8-1s.3-.8.4-1.2c-3.5 2.7-6.6 5.9-9.1 9.5-.1.1-.2.2-.2.3.1-.2.2-.5.2-.7 1.2-3.6 3.6-6.8 6.9-8.9-.5-.6-.9-.3-1.2-.1-1.7 1-3.2 2.2-4.4 3.8-.8 1-1.8 1.8-3 2.4-.1.1-.3.2-.5.3s-.5.2-.7-.1c-.1-.1-.1-.1-.1-.2-.2-.4.3-.7.5-.9 1.8-2.1 3.9-3.8 6.2-5.2l3.7-1.8c4.9-2.5 8.2-6.3 8.5-11.9.7-15.7 3.4-31.2 3.6-46.9v-1c0-.5.1-.9.2-1.1.3-.5.9-.4 2.4-.3h.5c1.6.1 3.2.4 4.8 0 .7-.2.9.1 1 .4 0 .3-.1.7-.1 1l-1.8 10.3c-1.8 9.7-3.4 19.4-4.5 29.2-.5 2.4-.4 2.6 1.8 3.5zm2.4 13.5c.2 2.8.3 5.6.4 8.4l-1.8-6.7c.4-1.1.8-2.2 1.1-3.3.2.5.3 1 .3 1.6zm-14-72.5c-1.2-.1-1.6-.2-1.5-1.6.1-2.6.1-5.2-.3-7.8-.1-.4 0-.9.2-1.3a1.59 1.59 0 0 1 1-.8c.5-.2 1-.5 1.4-.8a3.98 3.98 0 0 1 2.1-.9c.7-.1 1.3 0 1.9.2a291.91 291.91 0 0 0-2.4 12.9c-.7.1-1.5.1-2.4.1zm3.7-14.9c-.5-.1-.9-.1-1.4.1-.5.1-.9.4-1.2.7-.9.7-1.9 1.1-3 1.4-1.1.2-2.2.1-3.3-.2a19.53 19.53 0 0 0-3.4-.3c-.6 0-1 0-1.3-.8-.5-1.7-.4-1.9 1.3-1.9l14.2-.2c-.1.6-.3 1.2-.4 1.7-.5-.1-1-.3-1.5-.5zm-8.2-2.4c-.5 0-1.1.3-1-.9 1-6.8 1.7-13.7 2-20.6.1-1.6.5-1.9 2-1.9h12.6v.6h4.1c-3.1 2.5-5.2 5.9-6.2 10.3-.9 4.1-2 8.1-3 12.2-3.5.2-7 .2-10.5.3zm2.3-24.7c-1.6 0-2.2.7-2.3 2.2l-2.2 20.6c0 .2 0 .3-.1.5-.3.4.7 1.4-.5 1.4-.9-.1-.4-1-.4-1.5l1.4-22.6c.1-1.1.6-1.5 1.7-1.5h8.7c5.1-.1 10.1.5 15.2.3-.6.3-1.3.6-1.9 1h-.1c-6.4-.5-12.9-.5-19.5-.4zm-.4-8.9c-.7 1.4 1.3 4.1-1.3 4.7-1.7.3-3.5.1-5-.7-1-.5-.9.3-1 .9a11.57 11.57 0 0 1-1.2 4.5l-.1-9.2c0-.8.1-1.3 1.1-1.1 2.1.4 4.3.2 6.3-.5.9-.3 1.1 0 1 .8.2.2.3.4.2.6zm-25.2 64.1c-1.7-1.4-.9-2.3.2-3.2.2-.2.5-.5.6-.8.3-.3.5-.7.6-1.2.1-.4.1-.9-.1-1.3s-.5-.7-1-.9-.9-.2-1.3-.1c-1.6.2-1.8-.4-1.7-1.8.1-.8.1-1.5.1-2.3 3.9.3 7.8.4 11.7.5 1.1 0 1.4.3 1.2 1.4l-2.4 10.3c-.2 1.1-.8 1.7-2.3 1.3-1.7.2-3.4.1-5.1 0 .3-.7.1-1.4-.5-1.9zm-3.7-5.6 1.3-.1c.5.1 1.6-.6 2 .3.3.7-.8 1.2-1.2 1.8a2.73 2.73 0 0 1-1.2.9c-.4.1-.8.2-1.1.1-.1 0-.3 0-.4-.1-2.5-.5-5-.9-7.5-1.3-.3 0-.7-.1-.9-.3-.1-.1-.1-.2-.1-.4s.1-.3.2-.4c.2-.1.5-.1.7-.1l8.2-.4zm-8.3 2.8c2.4.7 4.8 1.1 7.2 1.4.2 0 .4.1.7.3 1.2.6 3 2.2 3 2.6v.3c-.1.3-.2.6-.5.9-.5.5-1.2.8-1.7.6-.4-.1-.8-.3-1.2-.5-.5-.2-1.1-.5-1.6-.7-.8-.4-1.7-.9-2.5-1.3-1.4-.8-2.7-1.6-4.1-2.3-.1 0-.2-.1-.3-.2-.1-.2-.1-.5 0-.7 0-.1.1-.1.1-.2.2-.5.5-.3.9-.2zm-.1 3.2c.7.4 1.3.8 2 1.2l1.5.9c1.2.7 2.5 1.3 3.9 1.7.1 0 .2.1.3.1a.76.76 0 0 1 .4.2l.3.3c.1.1.1.3.1.4s0 .3-.1.4c-.2.6-.7.2-1.1.1h-.1c-1.9-.5-3.8-.9-5.8-1.4-.2-.1-.4-.1-.6-.2-.3-.1-.5-.1-.8-.2h-.1c-1.6-.4-.8-1.8-1.2-2.4v-.5c.1-1 .4-1.1 1.3-.6zm44.2-82.4c5.1 2 10.6 3 15.2 6.3 1 .7 1.7 1.6 2.3 2.6-.1 2.1.1 4.2.6 6.3.6 2.2 1.5 4.3 2.6 6.3.1.2.2.4.2.5.3 1 .1 1.7-1.1 2.2h-.1c-.5.2-1.1.5-1.6.7a1.39 1.39 0 0 0-1.1-.2c-.7-2.1-2.3-3.9-2.3-6.2 0-.6-.2-1.4-1-1.3-.8.2-.4 1-.4 1.6 0 .3.1.5.1.8.6 3.1.6 3.1-2.4 3.1h-3.8c-1 0-1.1-.3-.5-1 2.7-3.3 1.1-3.7-1.8-4.7-.8-.3-2.2-.1-2.3-.9s1.2-1.3 1.8-2 1.3-1.2 2-1.8c2.1-1.9 2.2-2.3.2-4.4l-6-6.4c-.3-.3-.5-.6-.8-1l.2-.5zm-2.2-29.3c0 2.1-2.1 4.5-4 4.5-2.7 0-4-1.6-4-4.9 0-2.4 1.3-3.7 3.8-3.7 2.7-.1 4.2 1.4 4.2 4.1zm-13.3-6.2c3-2.3 5.4-5.1 8.2-8.1l1 4.1c-.5-.1-.8-.2-1.1-.2s-.7 0-.9.3c-.1.2-.1.4 0 .6s.2.3.3.5a6.42 6.42 0 0 0 1.3 1c.6.3 1 .7 1.4 1.2.3.5.6 1.1.6 1.7-.7-.1-1.3-.2-1.9-.2-2.9-.1-4.5 1.2-5 4.1-.1.5.1 1.2-.8 1.2-.7 0-.7-.6-.8-1.1-.2-1.5-1-2.8-2.1-3.8-.2-.4-1-.7-.2-1.3zm-7 6.9c0-.9.3-1.9.7-2.7.5-.8 1.1-1.5 1.9-2 2.2-1.4 4.6-.2 5 2.4.1.8.3 1.6.4 2.2 0 .6-.1 1.2-.3 1.7s-.6 1-1 1.4-.9.7-1.5.9-1.1.3-1.7.3c-.5 0-1-.2-1.5-.4s-.9-.6-1.2-.9c-.3-.4-.6-.8-.7-1.3-.1-.6-.1-1.1-.1-1.6zm-.7 3.3c2.3 2.9 5 2.9 8.2 1.2-.3 1.5-.5 2.8-.7 4-.1.4-.1.8 0 1.1s.4.7.7.9a1.39 1.39 0 0 0 1.1.2c.4 0 .7-.2 1-.5 1.2-.9 2.3-1.9 2.3-3.7-1.5.6-2.1 2.3-3.5 2.7-.5-.6-.2-1.2-.1-1.8.4-2.1.9-4.2 1.2-6.3.1-.4.1-.7.7-.8.5-.1.6.3.8.7 1.8 4.4 4.3 5.3 8.9 3-.8 5.3-1.3 10.5-5.5 14.4-.6.5-1.2 1-2 1.2-.7.2-1.5.3-2.3.2-6-1-8.9-3.2-9.7-8.6-.3-2.2-.9-4.3-1.3-6.5.1-.4-.2-.9.2-1.4zm-17.5 36a11.92 11.92 0 0 1 4.3-3c5.1-2.3 10.3-4.3 15.4-6.4.4-.2.8-.2 1.6-.5l-6.8 8c-.8 1-1.6 1.8-2.5 2.9-.9 1-.7 1.9.4 2.6 1 .6 1.9 1.1 2.9 1.6 1.6.9 1.6.9.1 2.1-1 .8-2 1.5-3.1 2.2-.4.2-.8.5-1 1-.2.4-.2.9-.1 1.4 2.1 6.8 2.4 13.9 4.8 20.6.3.9.4 2.5 1.5 2.2 1.3-.4.3-1.8 0-2.7-1.2-4.1-2.1-8.2-2.7-12.4a78.33 78.33 0 0 0-1.5-6.6c-.1-.2-.2-.5-.2-.7s0-.5.1-.7.2-.4.4-.6.4-.3.6-.4c1.4-.9 2.8-2 4.1-3.1s1.1-1.8-.3-2.6c-1.2-.6-2.4-1.3-3.6-1.9-.9-.4-.9-.9-.3-1.6l8.9-10.5c.1.1.3.1.3.2l.4 12.1c.1 6.3.1 12.6 1.1 18.8 1 6-.6 11.8-.6 18-1.2-.9-2.1-1.5-3-1.9-.5-.4-1-.6-1.7-.7-.6-.1-1.2.1-1.8.3a4.49 4.49 0 0 1-1.8.7c-.7.1-1.3 0-1.9-.1a3.75 3.75 0 0 0-2.1 0c-.5.2-1 .5-1.3 1s-.5 1-.4 1.6c0 .5 1.1 1 .2 1.4s-1.7 1.1-2.8.7c-1.1-.3-2.3-.7-3.4-1-.1-.6-.3-1.1-.4-1.7-.1-.4-.2-.9-.1-1.3 1-5.9.3-11.8 0-17.6-.1-3-.5-5.9-1-8.9.3-.6.5-1.2.9-1.7.5-1 1.2-2 1.8-3 .2-.4.4-.9 0-1.2-.5-.3-.8.1-1.1.5-.7.9-1.4 1.9-2 2.9-.6-2.7-1.3-5.3-2.1-7.9-.1-.4-.3-.8-.4-1.2-.1-.5.1-.7.2-.9zm-28.5-12.3c6.9 2.4 14.1 4.1 20.5 7.7 2.2 1.2 4.1 2.8 5.4 5 .4.6.7 1.3.9 2 .1.3.2.7.3 1.1.8 3.1 1.4 6.2 1.9 9.3.2 1.2.4 2.4.5 3.5.5 4.3.8 8.6.9 12.9v3.5c0 1.7-.1 3.4-.2 5.1-.1.8 0 1.6.1 2.5 0 .2.1.5.1.7 0 .1 0 .2.1.3.2.6.3 1.1.4 1.7 1.2 5 1.8 10.1 1.8 15.2v2.9c0 1 .6 2.4-.4 3-.8.5-2 .3-3.1.4l-3.9.3h-.4c-.4-.1-.6-.4-.6-.9.1-1.4.1-2.8.2-4.2v-3c-.1-4.1-.5-8.3-.8-12.4 0-.5-.1-1-.1-1.5-.1-1.1-.1-2.2-.2-3.4 0-.4 0-.7-.1-1.1 0-1.2-.1-2.4-.1-3.5a13.2 13.2 0 0 1 .6-3.9c.7-2.2 1.1-4.5 1.3-6.8l.5-7.9c0-.5.1-1.3-.6-1.3s-.8.7-.9 1.2l-.3 2.6c-.1 1.8-.2 3.6-.5 5.4-.3 2.4-.8 4.8-1.4 7.1-.7 2.4-.7 4.9-.6 7.3 0 .4 0 .7.1 1.1.1.8.1 1.5.2 2.3s.1 1.6.2 2.4c0 .4.1.9.1 1.3.3 3.5.6 6.9.7 10.4v1.8c0 2.1 0 4.3-.1 6.4-.1 1.9-.3 3.8-.5 5.7-.4 3.4-.5 6.9-.1 10.4.7 5.9.3 11.9 1.5 17.7.2.8-.3.9-.9 1.1-6 2-12.2 3.7-18.4 4.8-2.2.4-4.5.7-6.8.9-.3.1-.5 0-.8-.1-.2-.1-.4-.3-.6-.5-1.6-2.4-2.5-5.2-4.4-7.3-.2-.3-.1-.7 0-1 .5-2.3.3-4.8-.7-7a11.25 11.25 0 0 1-.9-5.7c.2-1.1.6-1.6 1.8-1.6 2.8 0 5.6-.6 8.2-1.5a3.47 3.47 0 0 0 1.9-1.2l-7.8 1.1c-3.6.5-3.5.5-3.7-3-.1-1.1-.1-2.3.3-3.4.3-1.1.9-2.2 1.6-3.1 1.5-1.8 2.7-3.8 4.3-5.5.3-.3.5-.7.6-1.2.1-.4 0-.9-.1-1.3l-8.6-44.9a382.92 382.92 0 0 0-3-14.7c-.2-.5-.2-1.1-.1-1.6s.2-1.1.5-1.5l1.5-3.3c.7-1.5 1.1-1.5 2.3-.3.9.9 1.7 2 2.6 3 1.4 1.6 2.5 1.4 3.3-.5 1.4-3.1 2.4-6.4 3.1-9.7.1-1.2.4-1.7 1.4-1.3zm-6.1-8.5 3.6 5.6c.3.5 0 1.1-.1 1.6a106.82 106.82 0 0 1-3.3 11c-.3.9-.6.8-1.1.3l-5.7-6.3c-.6-.6-.3-1.1 0-1.7 1.9-3.6 4.4-6.8 6.6-10.5zm-2.5-.9c.5.5.3 1 0 1.5-1.8 3.5-4.3 6.5-5.9 10.1-.4 1-1.2.4-2.3.5-2 .9-2.8-.8-3.7-2.5-.3-.8-.7-1.5-1.2-2.1-3-3.7-3.7-7.9-3.1-12.5.1-.7 0-1.3 1.1-.8 1.8.9 3.8 1.4 5.8 1.4s4-.6 5.8-1.5c1.4-.8 1.8-.5 1.9 1.2 0 1.6.5 3.3 1.6 4.7zm-19.8-14.8c-.2-.5-.3-1.1-.4-1.6-.3-2-1-3.5-3.1-4.5-2.9-1.4-4-5.9-2.9-9 .6-1.5 1.7-1.7 2.7-.4.8 1 1.5 2 2.2 3l.4-.1c-.5-3.2.2-6.3.3-9.5.3-4 2.3-6.4 6.1-7.4 4.3-1.3 8.9-1.6 13.4-.7.8.2 1.6.5 2.2 1s1.2 1.2 1.5 1.9a27.4 27.4 0 0 1 2.9 12.9v1.5c0 .3.1.6.4.6s.5-.2.6-.5c.2-.5.3-1.1.5-1.6.2-.4.4-.7.8-.9s.8-.3 1.2-.3c.9 0 1.2.7 1.4 1.4.8 2.3-1.1 7.5-3.2 8.7-.2.1-.5.3-.6.2-1.9-1-1.9.7-2.4 1.7-.7 1.6-1.2 3.2-1.9 4.7-3.3 7.5-10.7 9.2-17.2 5.7-2.5-1.3-3.9-4-4.9-6.8zm-3.4 24.5c1.5-3 2.8-6 4.6-9.1l6.4 11.4a1.08 1.08 0 0 1 .3.7c0 .3-.1.5-.3.7-1.2 1.6-2.3 3.3-3.4 5-.4.6-.7.7-1.2.1-1.9-2.5-3.9-5-5.9-7.5-.4-.3-.9-.6-.5-1.3zm-5.5 3.8c.3-.2.6-.3.9-.5.4-.2.9-.4 1.3-.7 1.4-.7 2.2-.6 3.2.8 1.8 2.8 4.3 5.1 6.2 7.9.5.7.9 1.1 1.6-.1 1.2-2 2.5-3.9 3.9-5.7h.1c1.3 3.7 2.7 6.9 2.1 10.8-1.5 9.6-2.1 19.3-3.4 28.8l-3.5 28c-.2 1-.2 2.1.1 3.1s.9 1.9 1.6 2.6c3.4 3.4 7 6.5 11.6 8.2.3.1.5.2.5.5v.5c-.1 4.4.9 4-3.9 3.6s-9.6-1.4-14.2-2.9c-.3-.1-.5-.2-.8-.2-.6-.1-1.5-.7-1.8.1s.8.7 1.4 1c5.6 2.2 11.4 3.5 17.4 3.7 1 .1 1.6.2 1.2 1.4-.5 2.1-.3 4.2.7 6.1 1.2 2.7.9 5.4.6 8.1-.1.3-.2.6-.4.9l-4.9 7.5c-.4.7-.9.7-1.6.7-4.6-.2-9.1-1.1-13.6-1.9l-1.9-.3c-.8-.1-1.5-.2-2.3-.4-1.9-.3-3.8-.6-5.6-1-1.4-.3-2.8-.6-4.3-1-.4-.1-.7-.2-1.1-.3-.3 0-.6-.1-.8-.3-.3-.1-.5-.4-.7-.6s-.3-.5-.3-.8c-.1-.3 0-.6 0-.9a10.9 10.9 0 0 1 .3-2.6c.7-2.7 1.1-5.4 1.3-8.1.2-2 .2-4 .2-6v-.2c0-.5 0-.9-.1-1.4a49.54 49.54 0 0 0-.6-5.4c-.4-2.9-.5-5.9-.1-8.9.1-.5.1-1 .1-1.5 0-2.2-.3-4.4-.1-6.6.1-.6.1-1.3.1-2 .1-2.1.1-4.2.1-6.3v-.3c0-1.1 0-2.3.1-3.4.1-3.1.3-6.2.7-9.3.1-1.2-.1-2.3-.7-3.3-.5-.9-.9-1.9-1.3-2.8-.3-.6-.5-1.3-.8-1.9-.4-1-.7-1.9-1.1-2.9l-2.4-7.2c-.2-.7-.2-1.9-1.3-1.6s-.3 1.3-.1 2c.9 3.9 2.2 7.8 3.8 11.5.4.9.8 1.8 1.2 2.6.1.1.1.3.2.4a5.42 5.42 0 0 1 .6 2.5v.2c0 .3 0 .6-.1.9l-.3 3.1c-.1 1.1-.2 2.3-.2 3.4 0 .5-.1.9-.1 1.4v2.4c-.2 4.8-.3 9.6-.3 14.4 0 1-.2 1.4-.9 1.5h-.7c-.7-.1-1.5-.1-2.2-.1h-1.3a45.33 45.33 0 0 0-5.2.3c-1.2.1-1.8-.2-2-1.5-1.1-6.8-.7-13.5 1.9-19.9.4-1 .5-2 .4-3.1-.7-7.5-.5-15.1-.5-22.6 0-7.4 3.2-13.2 8.9-17.3.5-.4 1-.7 1.5-1 .1 0 .1-.1.2-.1 3.4-2.1 7-3.8 10.5-5.6.4-.1.7-.3 1-.4zm-12.4 80.7c-2.1.3-4.3.4-6.4.6-.4 0-.8.1-1.2.1l-2 .3c-.5.1-1 .1-1.5-.1-1.8-.5-2.9-2.7-2.4-4.4s1.2-2.2 2.9-1.8c.3.1.6.1 1 .2 1.2.3 2.5.5 3.7.7.4.1.8.1 1.2.2 1.2.2 2.5.3 3.7.5 1.2.1 1.7.6 1.6 1.8a31.08 31.08 0 0 0 .3 4.3c.1.7 0 1.2-.7 1.4-2.9 1.1-5.7 2.4-8.7 3.1-.8.2-1.5.1-2-.1-.9-.4-1.3-1.5-1-2.9 0-.2.1-.4.1-.6a1.38 1.38 0 0 1 .3-.4c.2-.1.3-.2.5-.3s.4-.1.6-.1c.7 0 1.4-.1 2.1-.1h.1c2.4-.2 4.9-.6 7.1-1.8.2-.1.4-.3.7-.4v-.2zm-.7-4.9-3.5-.6c-.4-.1-.8-.1-1.2-.2-1.1-.2-2.2-.4-3.3-.5-.4-.1-.7-.1-1.1-.2s-1-.1-1-.6c0-.6.5-.6 1-.6.9-.1 1.8-.1 2.7-.1h3.7c1 0 2 0 3.1.1 1 .1 1.4.5 1.2 1.4.1 1.2-.4 1.5-1.6 1.3zm-6.6 13.6a37.3 37.3 0 0 0 7.3-2.6c1-.4 1.4-.3 1.4.9.1.7.1 1.5.2 2.3 0 .3.1.7.1 1l.3 2.8c-.4 3.1-1 6.5-1.5 10-.3 1.6-.3 3.3-.1 4.9 0 .5.2 1.1.5 1.5.4.4.9.7 1.4.7 2.2.4 2.2.6.7 2.1-1 1-2 1.9-2.9 2.9-.6.6-1 .7-1.4-.2-2.2-6.1-4.5-12.3-6.1-18.6-.1-.3-.2-.6-.2-.9-.4-1.5-.7-2.9-1-4.4-.4-1.4-.2-2.1 1.3-2.4zM248.8 42.3c-.5 1.7-.6 3.5-.2 5.2.7 4.5.7 9.1.1 13.6 0 1-.3 2-.7 3-.5.9-1.1 1.7-1.9 2.4-.8.6-.8 1.5-1 2.2-.1.9-.5 1.7-1 2.4s-1.2 1.3-2 1.8c-1.3.7-2.5.7-3.3-.6-.7-1.1-1.4-1.1-2.4-.2-2.7 2.5-4.2 2.3-5.9-1.1-2.1-4-3.1-8.5-2.8-12.9.1-.4 0-.9-.2-1.3a1.96 1.96 0 0 0-.9-.9 5.75 5.75 0 0 1-1.9-1.9 5.77 5.77 0 0 1-.9-2.6c-.6-4.1-.1-8.2 1.4-12.1 1.3-3.1 3.9-4.5 6.6-5.9.8-.4 1.3-.1 1.9.4 1 .9 1.8 2.1 3.4 2.1 3.2.1 4.7-1.3 5-5.1 1.4.8 2.8 1.8 4.1 2.8 2.8 2.4 3.8 5.3 2.6 8.7zM220 51.7v-.6c.1-.2.1-.4.3-.5.1-.2.3-.3.5-.4s.4-.1.6-.2c.8 0 .6.9.6 1.4.4 2.1 1.4 4 3 5.4.4.3.7.7.8 1.2.2.5.2.9.2 1.4-.1.8 0 1.5 0 2.3 0 .5.5 1.2 0 1.6s-1.1-.2-1.6-.5c-.9-.5-1.8-1.1-2.6-1.7-.5-.3-.8-.7-1.1-1.1-.1-.1-.2-.2-.2-.3-.9-1.4-.8-3.1-.4-5-.1-.8-.1-1.9-.1-3zm25.8-30.9c-2.1.1-4.2-.7-5.8-2.1-.3-.2-.5-.6-.3-1 .2-.3.6-.1.9 0 1.9.7 3.8 1.4 5.2 3.1zm-14-10.4c.3-.8.8-.4 1.2.1 1.9 2.4 4.4 4.2 7.3 5.4-1.4.2-2.3.4-2.4 1.6 0 .6.1 1.2.4 1.7s.7.9 1.2 1.3c1.9 1.4 4.2 2.1 6.5 2.1 1 0 1.5.3 1.8 1.3.4 2.5.3 5-.2 7.4-.1.7-.4.7-.9.4-1.6-1.2-3.4-2.2-5.3-2.7-.3-.1-.5-.5-.7-.9-1.1-1.9-2.4-3.8-2.5-6.1 0-.1 0-.2-.1-.3 0-.1-.1-.2-.2-.3s-.2-.1-.3-.2c-.1 0-.2-.1-.3-.1-.5 2.5.7 4.6 1.8 6.6.6 1.3 1.6 2.3 1.6 3.8 0 1-.1 1.9-1.2 2.3-.5.3-1 .4-1.6.4s-1.1-.2-1.5-.5c-3.5-2.8-3.5-2.8-7.5-.7-1.7.8-3.2 2.1-4.3 3.6-.5-1.1-.3-2-.4-2.9-.2-1-.6-1.4-1.7-1-2.1.8-3 .3-3.3-1.9-.1-.9-.2-1.8-.2-2.6 0-.5.1-1 .4-1.4s.7-.7 1.2-.8c2-.6 3.9-1.5 5.6-2.8 1.4-1 3.4-1.2 5-2 1.3-.7 2.4-1.5 3.4-2.6.3-.2.5-.6.6-.9.1-.4.1-.7-.1-1.1s-.5-.6-.9-.8c-.4-.1-.8-.1-1.1 0-1.1.3-2.3.8-3.7 1.3.9-2.2 1.6-4.5 2.4-6.7zm-4.1 10.7c1.2-2.5 3.6-2.8 5.6-3.6-1.2 1.9-3 3-5.6 3.6zM217 49.9c-1.2-.3-1.5-1.3-1.7-2.4s-.7-2.2.6-3c.6-.3 1.1-.8 1.5-1.3a1.08 1.08 0 0 0 .3-.7c0-.2-.1-.6-.2-.8-.2-.2-.4-.4-.7-.4-.3-.1-.6 0-.8.1-.7.3-1.2.8-1.6 1.4-.3.4-.5.9-1 1-1.1.3-2.4.8-3.3-.1s-.3-2.1.2-3.1c1-1.7 2.4-2.9 4.2-3.6 1.5-.7 1.7-1.5 1-2.9-.6-1.1-.9-2.4-1.4-3.5-1.8-3.8-1.4-7.2 1.4-10.3.6-.6 1-1.4 1.2-2.2.1-.9-.1-1.7-.5-2.4-.1-.3-.2-.5-.3-.8-1.5-4.1-.2-6.4 4.1-7.1.6-.1 1.3-.1 1.9-.2 2.5.2 5 .7 7.4 1.4 1 .3 1.3.9 1 2-1.2 3.9-2.9 7.6-5 11-.5.6-1 1.1-1.7 1.5s-1.4.7-2.2.8c-3 .7-4 1.9-4 4.9-.1 1.3.2 2.7.7 3.9.9 1.7 2 2.4 3.9 2 .9-.2 1.1 0 1.3.9.5 1.7.4 3.5-.4 5.1-.6 1.7-.9 3.4-1 5.2-.2 1.6-3.2 4-4.9 3.6zm.8 8.6c1.6 3.5 4.3 5.4 7.8 6.6.5.2 1 .2 1.2.7s.3 1-.6.9c-3.2-.3-8.8-5.7-9.1-8.9.5 0 .6.4.7.7zm-24.7.8c.8-1.6 2-2.9 3.6-3.8s3.3-1.3 5.1-1.1c4.4.2 8.6 1.6 12.7 2.9.6.2.8.7 1 1.2 1.3 3.1 3.4 5.8 6.1 7.7 1.3 1.2 3 1.8 4.7 1.7.9-.1 1.2.3 1.4 1 .5 1.8 1.3 3.4 2.4 4.9 2 2.5 4.6 2.6 6.8.4.3-.3.4-.6 1-.3 3.1 2 6.8 1 8.1-2.4.7-2 1.8-3.9 3.2-5.5 1.8-2.1 1.7-4.9 1.8-7.5 0-1.3.3-1.9 1.8-2.1 4.1-.6 8-2.4 12.3-2.4 3.8-.1 6.4 1.4 7.9 4.8 1.7 3.6 2.8 7.5 3.1 11.5a521.94 521.94 0 0 0 1.5 17.6c-3.7 1.5-7.2 3.3-10.6 5.4-.3-4.1-.5-8.3-1.8-12.3-.1-.5 0-1.3-.8-1.2-.5.1-.3.9-.2 1.3.7 4.3 1.1 8.7 1.3 13-6.8 4.5-10.6 11.1-10.7 19.6-.1 6.5-.2 13.1.2 19.6.3 2.6 0 5.2-.8 7.7-2.1 6.4-2.4 13.2-1 19.7.2.9.7 2.1-1.1 2-.3 0-.6.2-.4.5.5.7 0 1.1-.3 1.6-.6 1.1-.8 2.3-.6 3.4.2 1.2.8 2.3 1.6 3.1.3.2.5.6.6.9.1.4.1.8 0 1.1-.3 1-.3 2 .1 3 .3 1 1 1.8 1.8 2.4.3.2.5.5.7.8a1.69 1.69 0 0 1 .3 1c.3 1.9.6 3.7 1.1 5.5-3.4 1.4-6.9 2.3-10.6 2.9-8.9 1.5-17.9 1.5-26.8.1 0-.1 0-.2.1-.3.1-.4.3-.7.6-1l4.2-4.8c1.9-2.2 3.5-4.7 4.6-7.4.7-1.6 1.2-3.3 1.3-5.1.2-3.7.1-7.3-.4-11 5.5.6 11.2 0 16.4-1.8 1.5-.4 2.9-1.2 4-2.3-1.7.2-3.4.5-5 1.1-5.1 1.6-10.3 2.5-15.6 1.6l-.3-1.7c-.7-3.7-1.7-7.2-3-10.7-2.4-7.1-5.5-14-9.2-20.6-1.6-2.8-3.2-5.5-5.7-7.6-.2-.1-.4-.4-.5-.6s-.1-.5 0-.8c.2-1.3 0-2.7-.5-3.9-.6-2-1.8-3.4-4.1-3.7-.3 0-.5-.1-.7-.2s-.4-.4-.5-.6l-3.4-6.9c-.7-1.5-1.2-3.1-1.4-4.8-.3-3.3-.5-6.7-.3-10.1 0-4.7-.3-9.4-1.1-14-.5-3.4-1.9-6.5-4.1-9-.8-.9-1.6-1.7-2.5-2.4.1-.1.3-.6.6-1.1zm29.1 205.9-.9 6.7-.3-7.8h.2c.8-.1 1.1.1 1 1.1zm-59.7 33.6-18.3-.7-4.8-.3c-1.3-.1-1.4-.3-1.4-1.7l.4-7.2c0-.6.1-1.2.1-1.9 0-7.2.7-14.3 1.1-21.5.4-6.2 1-12.3 1.6-18.5.1-1 .2-1.9.4-2.9a55.97 55.97 0 0 0 .6-10c0-1.6.1-3.2.3-4.8.1-.9.4-1.1 1.2-1.1l10.3.3 9 .3c.7 0 1.4-.1 2.1-.2.4-.1.8-.3 1-.6.3-.3.4-.7.5-1.1.1-.5.2-1.1.2-1.6l.6-10.3c.1-4.6.1-9.2.1-13.8v-.8c0-.2.1-.4.2-.4h.3c.1 0 .2.1.2.1 1.6 1.5 3.1 3.2 4.3 5.1.1.1.1.3.1.5s0 .3-.1.5c-.4.7-.9 1.3-1.2 2-.3.5-.4 1.2-.3 1.8s.5 1.2 1 1.5c1.9 1.3 3 3.2 4.3 4.9a3.14 3.14 0 0 0 1.9 1.3c.7.2 1.4.2 1.8 1 .2.4.4.7.8.9.3.2.7.3 1.1.4.7.1 1.4.1 2-.2.3-.3.8-.4 1.2-.3.4 0 .8.3 1.1.6l.6.6h.1c.2.1.3.2.5.2s.4-.1.6-.2a32.53 32.53 0 0 0 2.9-2.3c.3-.3.7-.5 1.1-.7h.2c.1 0 .1.1.2.1.1.4.2.9.2 1.3v6.4c0 3 .5 3.5 3.3 3.4 4.5-.1 9-.2 13.5-.5 2.1-.2 4.2-.7 6.3-1 .7-.1 1 .1 1.1.8s.1 1.4.1 2.1l.4 8.5.6 10.1.9 15v.3c.1 2.7 0 5.5.2 8.2l.7 8.8c.2 1.9.3 3.8.5 5.7l.3 6.1v1.3c0 .7 0 1.1-.3 1.3-.2.2-.6.2-1.2.3-.2 0-.5.1-.7.1-2.1.3-4.3.5-6.4.8-2.2.2-4.4.4-6.6.7l-5.3.6c-.6.1-1.2.1-1.8.2-3 .2-6 .4-9 .4-4.2 0-8.5.2-12.7.3l-14-.2zm-13.8 85.4c.5-.6 1.2-.4 1.7-.5 2.3-.4 4.5-.6 6.8-.9.4.3.4.7.2 1.3-.2.4-.4.8-.7 1.1s-.7.6-1.1.7c-.7.4-1.4.7-2 1.1-.4-.3-.8-.5-1.2-.8-1.2-.6-2.6-1-3.7-2zm2.9 3.9c-.3.1-.5.3-.8.4l-12.9-3.3v-.4l3.5-1.8c.2-.1.3-.2.5-.2s.4 0 .6.1c3.1 1.7 5.9 3.7 9.1 5.2zm-.3-11c-5-.9-10.1-1.1-15.1-.8-.8.1-1.7-.1-2.5-.4-.8-.4-1.4-.9-1.9-1.6-2.5-3.2-2.8-7.2-3.6-11-.2-.8.4-.8.9-.8 1.4-.2 2.7-.3 4.1-.5 2.7-.3 3.3-1.1 3.3-3.7 0-11.6-.4-23.2-.6-34.8-.4-22.3-.3-44.7.1-67 .2-.1.4-.2.5-.4a1.08 1.08 0 0 0 .3-.7c.2-.7.2-1.5.6-2 .3-.4.5-.9.7-1.4.1-.5.1-1 .1-1.6 0-.9-.1-1.8-.2-2.6-.1-.3-.1-.7 0-1s.2-.7.4-.9c.9-1.2 1.3-2.7 1.3-4.2 0-.7 0-1.4.1-2.1 0-.2.2-.4.3-.6.1.2.3.5.3.7 0 1.3-.1 2.7-.2 4l-1 8.2-.8 9.2-.8 11.9c-.4 4.6-.6 9.2-.6 13.8 0 .5-.2 1.1-.2 1.6l-.2 8.2c0 .4 0 .8.1 1.1.1.4.3.7.6 1 .2.3.5.5.9.7.3.2.7.3 1.1.3 1 .2 1.9.3 2.9.3 1.4.1 2.8.1 4.2.2 4 .3 3.4-.1 3.9 4v1.1c.1 2 .3 4.1.4 6.1l.7 11.9c.1 3.4 0 6.7 0 10.1 0 2.3 0 4.6.2 6.9l1.9 23 .6 5.8.8 8.5c-1.3-.4-2.4-.4-3.6-.5zm18.9-219.4v-.3c.2-1.6.2-3.2.2-4.8v-.8c0-.6 0-1.2.1-1.8.1-1.8.1-3.6.2-5.3l.3-8.7v-.3c.1-.9.5-1.2 1.2-1 1.4.4 2.7.8 4.1 1.1 1.8.4 3.6.5 5.4.4.6-.1 1.1-.1 1.7-.3h.3c.7-.1 1.3-.3 2-.5l5-1.2c.7-.2 1.1 0 1.1.8.1 1.1.1 2.1.1 3.2l.1 10.4h.1c0 .7 0 1.4.1 2.1l.2 6.8v1.5c0 .9.1 1.8.2 2.6 0 .2 0 .3-.1.5-.2-.1-.5-.1-.7-.2-.2-.2-.4-.4-.5-.6-.5-.5-.9-1.1-1.3-1.7a1.38 1.38 0 0 0-.3-.4c-.5-.6-1.1-.5-1.9.2-.4.3-.8.7-1.2 1l-.2.2h-.3c-.1 0-.2 0-.2-.1l-.2-.2-2.7-3.9c0-.1-.1-.1-.1-.2-.6-.9-1.2-.9-1.9-.2l-7.7 8.4c-.8.9-1.7 1.8-2.5 2.7-.1.1-.5.2-.5.2-.2-.2-.3-.4-.3-.6 0-3-.2-6 .2-9zm49.8 60.9c.1 1.8.4 3.7.7 5.5.1.7 0 1-.8 1.1-1.5.3-3 .5-4.4.8-4 .7-8 1.1-12 1.2-2 0-4.1.2-6.1.3h-2c-.1 0-.2-.1-.3-.2s-.2-.2-.2-.3c-.1-.1-.1-.3-.1-.4-.1-1.5-.2-3-.2-4.5s.2-3 .2-4.5c0-.5.1-1 .3-1.4s.5-.8.9-1.1l11.1-9c2.9-2.4 5.9-4.8 8.6-7.4 1.1-1.1 1.4-1.4.5-3.2-.2-.4-.5-.7-.8-1.1-.8-1.1-.8-1.1.1-1.9.5-.5 1.1-.9 1.7-1.3.1 0 .2-.1.2-.1h.3c.1 0 .2.1.2.1.1.1.1.1.1.2.1.3.1.7.1 1 .1 5 .5 10 1.3 15v.5l.6 10.7zm-42.3-4.3c-.5-.1-1-.3-1.4-.6-.2-.1-.4-.4-.5-.6a1.1 1.1 0 0 1 0-.8c0-.1 0-.2.1-.2.1-.1.3-.1.4-.1.7.5 1.2 1.3 2.1 1.4.1 0 .4-.2.4-.2v-.2c0-.1-.1-.2-.2-.2-1.5-1.2-1.9-3.2-3.2-4.5-.2-.2-.3-.5-.3-.9 0-.3.1-.6.2-.9a5.51 5.51 0 0 1 1.7-2c.8-.6 1.5-1.2 2.2-1.9.1-.1 0-.5-.1-.7-.1-.1-.1-.1-.2-.1h-.2c-.6.3-1.1.6-1.6.9-.9.5-1.3.3-1.6-.1s0-.7.8-1.2l.2-.1c.8-.2 1.4-.7 2-1.3.5-.6.9-1.3 1.1-2.1.1-.5.4-.9.7-1.3s.8-.6 1.2-.7c1.3-.5 2.7-.9 4-1.3.3-.1.6-.1.9 0s.6.3.8.5c.5.5 1 1 1.4 1.6 1.8 2.6 3.9 5 6.3 7.1a3.04 3.04 0 0 1 .5.7c0 .2-.1.4-.2.6-.3.5-.7 1-1.1 1.5-2.2 2.4-4.3 4.9-6.5 7.4-.4.4-.7.8-1.1 1.2-.8.9-1.6 1.9-2.5 2.8-.2.2-.4.3-.6.4s-.5.2-.7.2-.5 0-.7-.1-.4-.2-.6-.4-.3-.4-.3-.7-.1-.6-.1-1c-.3.1-.6.1-1 .2-.3.1-.6.1-.9 0s-.6-.3-.8-.5c-.1-.1-.2-.3-.3-.4 0-.2-.1-.3 0-.5.6-.4.7-.8-.3-.9zm-4.5-3.7c-.3-.2-.4-.5-.6-.8 0-.3 0-.6.1-.9s.3-.5.6-.7h.2c.1 0 .2 0 .2.1.3.4.7.9 1 1.2s.8.6.5 1-.9.4-1.3.6v-.1c-.1-.1-.4-.2-.7-.4zm15.3-17.1c0-.2.3-.4.4-.5.2.1.3.1.4.1s.1 0 .1.1c.3.3.5.6.8.8l7.5 7.7c.1.1.2.3.2.5s0 .3-.1.5c-.1.1-.1.2-.2.3s-.2.2-.3.2-.3.1-.4 0c-.1 0-.3-.1-.4-.1-.4-.2-.7-.5-1.1-.8l-3.6-3.8c-1.1-1.3-2.1-2.6-3.1-4-.1-.3-.2-.6-.2-1zm-1.5 23.6.6-.6 4.7-5.3 4.8-5.3a6.55 6.55 0 0 1 1.8-1.5l8.1-5.6c1.9-1.3 3.7-2.7 5.6-4 .7-.5.9-.5 1.5.2.2.2.3.4.5.6.7.8.7 1.1-.1 1.8-2.3 2.1-4.6 4.1-7 6.1-2.1 1.8-4.3 3.4-6.4 5.2l-4.9 4.1c-.4.3-.8.7-1.2 1l-6.3 4.9c-.3.2-.6.4-1 .6-.1-.1-.3-.2-.4-.4-.3-.3-.5-.5-.7-.8-.1-.2.2-.7.4-1zm29.8-28.3c-.3.3-.6.5-.9.8-.6.5-1.1 1-1.7 1.5-3.2 2.8-6.6 5.3-10.2 7.7-1.3.8-2.6 1.8-4 2.7-.4.3-.8.4-1.2 0l-8.2-8.4s0-.1-.1-.1l-.3-.3c-.5-.7-.5-1 0-1.6s1-1.1 1.6-1.7 1.2-1.2 1.8-1.7c2-1.7 3.9-3.6 5.8-5.4l.8-.8c3-2.9 5.8-6 8.5-9.2 1-1.3 1.9-2.6 2.9-3.8l.3-.3c.3-.3.6-.2.9.3.1.1.2.3.3.4 1.2 2 2.3 4 3.1 6.2.3.7.6 1.5 1 2.2.1.3.5.7.7.7.6-.1.4-.7.3-1.1-.1-1-.3-1.9-.7-2.9-.5-1.2-1.1-2.3-1.6-3.4-.2-.4-.4-.7-.6-1.1-.2-.5-.5-1-.8-1.4 0-.1-.1-.1-.1-.2v-.2c0-.1 0-.2.1-.2h.4c1.1.5 2.1 1 3.1 1.4.9.3 1.8.6 2.8.8.1 0 .2 0 .2-.1v-.2c-.2-.3-.5-.5-.8-.7-1.4-.8-2.8-1.5-4.2-2.2-.5-.2-1-.4-1.5-.7-1.2-.6-1.3-.7-1-2 .5-2.5.7-5 .7-7.6V155c0-.9-.1-1.9-.2-2.8-.1-1.2-.1-2.5-.2-3.7l-.7-7.9c0-.4-.1-.8-.3-1.2s-.4-.7-.7-1c-.1 0-.2-.1-.2 0-.1 0-.2.1-.2.1-.1.3-.1.7-.1 1 .5 3.3.7 6.7.7 10 0 1.4.2 2.8.2 4.2v1.9c-.1 1.8-.2 3.6-.2 5.5a12.86 12.86 0 0 1-.3 3.9c-.2.3-.4.7-.6 1l-.9 1.2c-.2.3-.5.5-.7.7l-6 7.1c-.8.9-1.1.8-1.9-.2l-3.9-5.3c-1.2-1.6-2.6-3.2-3.9-4.8l-.3-.3c-.2-.2-.4-.5-.5-.8s-.1-.6 0-.9c.2-.8.4-1.7.3-2.6 0-2-.1-3.9-.1-5.8l-.3-10.9v-.2l-.3-9c0-.3 0-.5.2-.8.1-.2.3-.3.4-.4l.1-.1c.2-.1.5-.3.7-.4a9.13 9.13 0 0 0 1.3-.8c4.8-3.1 8.7-7.3 12.4-11.6.3-.4.6-.8 1-1.2s.7-.5 1.1-.1c1.5 1.4 2.8 2.9 3.8 4.6 4.3 7.2 7.8 14.9 10.5 22.9a95.92 95.92 0 0 1 2.4 7.6c.4 1.4.7 2.8.9 4.2.1.5.1.9.2 1.4.1.7.1 1.3.2 2 .1 1.9.4 3.7.5 5.5.1 2.9-.5 5.8-1.6 8.5-.1.2-.1.3-.2.5-.7 1.6-1.7 3.2-2.8 4.6-1.9 2.9-4.4 5.7-7.2 8.2zm-22.7-21.6c2 2.5 4.1 5 5.9 7.6l.3.4c1.6 2.3 1.8 1.7-.4 3.8-.4.4-.8.8-1.2 1.1-.3.2-.5.5-.8.7l-4.6 4.3-.3.3-4.1 4.2c-.2.2-.4.4-.5.6-.5.5-1 1-1.5 1.6a6.57 6.57 0 0 1-2.9 1.7c-1 .3-2 .6-3 1-.6.2-1.2.5-1.7 1s-.8 1-1 1.7-.5 1.3-1 1.8-1.1.9-1.8 1.1c-.4.2-.8.4-1.1.7s-.5.7-.7 1.1c-.3.7-.6.7-1.1.2-.8-.8-1.6-1.7-2.3-2.5l-11.4-13.2c-.5-.6-.4-.8.2-1.3.4-.4.9-.7 1.3-1.1l4.2-3.5c1-.8 2-1.6 3.1-2.4l10.7-8.4c1.3-1 2.5-2.1 3.8-3.1l1.9-1.6 4.1-3.5c.3-.2.6-.4.8-.6.1 0 .2.1.3.2.1 0 .1.1.2.1.1.1.3.2.4.4.3.4.6.8 1 1.2.6.7 1.1 1.4 1.7 2.2.2.3.5.6.7.8 0 .4.4.9.8 1.4zm-13.1-8.9c0-.1 0-.1 0 0 .2-.2.4-.4.6-.5.2 0 .6-.2.7 0 .3.4.5.8.8 1.3l1.6 2.5v.4a3.04 3.04 0 0 1-.5.7c-.2.2-.5.4-.7.6-.6.5-1.2 1-1.8 1.6l-4.1 3.5-15.5 12.4c-.1.1-.3.2-.4.3h-.4v-.2l.8-1.1c5.9-7.6 12.4-14.5 18.9-21.5zM169.6 135c-.4 4.6-.7 9.2-.7 13.8v4.8c0 .4 0 .8-.1 1.2l-.3 2.1c-.1.7-.1 1.4-.1 2.1-.1 3 0 6 0 9 0 .5-.1 1-.2 1.5-.2.5-.5.9-.8 1.3l-8.9 10.5-1 1.3c-.5.7-1 1.4-1.4 2.2-.3.4-.3.7-.1 1l.4.4c.5.4 1.1.9 1.6 1.4l7.6 8.9c.6.7.9 1.5.9 2.4 0 4.4.1 8.8-.3 13.3-.2 2.6-.1 5.3-.2 8l-.4 6.1c0 .6-.4.9-1.1.9H156v-.2c-1.9 0-3.7 0-5.7.1l-7.4-.4c-.1 0-.2 0-.3-.1s-.2-.1-.3-.2-.1-.2-.1-.3v-.3c.5-2.3.7-4.6.7-6.9.1-3.6.4-7.1.9-10.6l.3-1.7c.2-1.1.3-2.2.5-3.2l.6-3.3c0-.1 0-.2.1-.3l4.1-20.7c.3-1.6.7-3.2 1-4.8.1-.4.2-.8.3-1.1.1-.5.2-1 .2-1.6.1-.9 0-1.8-.2-2.6-.6-2.6-1.2-5.2-1.6-7.8-.9-5.6-.7-11.3.5-16.9.6-2.2 1.6-4.3 2.7-6.3.2-.4.4-.8.5-1.2.1-.2.2-.5.3-.8 0-.2-.2-.4-.4-.6h-.2c-.1 0-.2 0-.2.1-.3.3-.6.6-.9 1-.1.1-.1.2-.2.3-2.7 4.5-4.3 9.7-4.3 15-.1 5.4.5 10.8 1.8 16 .1.3.2.7.3 1 .3 1.4.4 2.8.1 4.1 0 .2-.1.4-.1.6-.1.7-.3 1.5-.4 2.2l-4.3 21.5-1.7 8.6c-.1.4-.1.9-.2 1.3s-.1.9-.2 1.3c-.5 3.4-.8 6.9-1 10.3v1.1c0 .3-.1.5-.3.7s-.4.3-.7.4l-3.1.6c-.3.1-.7.1-1 .2-.3 0-.5.1-.8.1-1.3.3-2.7.5-4 .8h-.5c-.5 0-.9-.3-.9-.8 0-1.1-.1-2.1 0-3.2.1-1.9.3-3.7.4-5.6 0-.6.1-1.2.1-1.8.1-.8.1-1.6.2-2.4l.5-6.2c.1-.6.1-1.3.2-1.9v-.1c.1-1.5.3-3 .4-4.4l1.3-10.5 1.9-12c.9-5.4 1.9-10.6 3-15.9.7-3.6 1.5-7.3 2.5-10.8.1-.5.2-.9.4-1.4.9-3.5 2.1-6.9 3.5-10.3l.9-2.1c.1-.2.2-.5.3-.7.3-.6.5-1.1.8-1.7.7-1.6 1.3-3.3 2.1-4.9 1.2-2.4 2.5-4.7 3.8-7 .4-.8.9-.8 1.4 0 1.1 1.8 2.5 3.4 4 5 3.3 3.7 7.1 6.9 11.3 9.5a1.56 1.56 0 0 1 .8.8c-.1 0-.1.4-.1.8zm-40 89.8c0-.1-.1-.3-.1-.4s0-.3.1-.4.1-.2.3-.3c.1-.1.2-.1.4-.2.2 0 .3-.1.5-.1l4.2-.8.8-.1 1-.2 2.6-.5c.2 0 .3-.1.5 0 .2 0 .7.1.7.3.1.4.1.8-.1 1.2-.3.3-.7.5-1.1.6-.9.2-1.7.4-2.6.5-.3.1-.7.1-1 .2s-.5.1-.8.1l-1.5.3c-.9.2-1.9.3-3 .5v-.1c-.3-.1-.8-.4-.9-.6zm.1 2.3 5.2-.9.8-.1 1-.2 2.4-.4c.8-.1 1.1 0 1.3.9.3 1.1.4 2.2.5 3.4 0 2.4-.6 4.7-1.8 6.8-.6 1.4-1 2.8-1 4.3 0 .8-.1 1.6-.3 2.4-.1.4-.3.8-.5 1.2l-.3.3c-.1.1-.2.1-.4.1-.1 0-.2-.1-.3-.2-.1-.1-.2-.2-.2-.3-.1-.3-.2-.7-.2-1v-2.9c0-1.6-.2-3.2-.5-4.8-.1-.7-.3-1.5-.5-2.2 0-.1-.1-.2-.1-.3s0-.1-.1-.2c0-.1-.1-.1-.2-.2-.1 0-.2-.1-.2-.1-.1 0-.3.2-.3.3l.3 2.6c.2 1.7.2 3.5.1 5.2-.2 1.4-.3 2.8.2 4.1l.3.6c0 .1.1.2.1.3.1.8.1 1.5.2 2.3.2 2 .3 3.9.4 5.9 0 .2 0 .4-.1.5s-.2.2-.4.3h-.2c-.1 0-.2-.1-.2-.1l-.2-.2-.6-.9c-.4-.9-.6-1.8-.8-2.8-.5-2.8-.9-5.6-1.3-8.3-.1-1-.4-1.9-1-2.7 0-.1-.1-.1-.2-.1s-.3.2-.3.2c-.1 1.1-.1 2.1-.1 3.2 0 .2-.2.4-.3.5-.1-.2-.1-.3-.2-.5l-.7-11.3V228c0-.2.1-.4.2-.6 0-.2.3-.3.5-.3zm1.8 24c0 .2 0 .3-.1.5-.1-.1-.3-.1-.3-.2-1-1.9-1.3-4-1-6.1 0-.1.1-.1.2-.2.1.1.2.2.2.4l1 5.6zm-3-41.7c-.5-.9-.9-2.1-1-3.6-.2-3.1-.5-2.9 1.6-3.1l-.6 6.7zm-.2 2.3-.3 4c-.3 5.2-.3 10.4-.4 15.6l.5 8.5c.3 3.1.4 6.2 1 9.2.7 4.2 1.9 5.3 5.3 7.2l-.5 28.5v2l.8 58.1.1 13.2c0 .9-.1 1.4-.6 1.7-.2.2-.6.3-1 .3-6.1.7-12.1 1.5-18.1 2.6-.5.1-.9.1-1.1-.1s-.4-.5-.4-1.1c-2.7-24.5-4.5-49-5.7-73.6-.5-9.9-1.5-19.7-2.3-29.6L103 227l-1.5-20.5c0-1.3.1-1.8 1.6-1.8 7.1 0 14.2-.5 21.2-1.3 1.4-.2 1.9.2 1.9 1.6 0 .7 0 1.3.1 2-.1 1.9.7 3.6 2 4.7zm27.9-109.4c.1-.1.1-.1.2-.1h.3c.1 0 .2.1.2.1.1.1.1.1.1.2 2 6.1 6 11 10.2 15.6 1.1 1.3 2.4 2.3 3.9 3.2.2.1.3.1.5.2h.5c0-.1 0-.3-.1-.4-1.8-1.9-3.6-3.6-5.3-5.6-2.1-2.4-4-5-5.7-7.7-1.2-1.9-2.2-4-2.9-6.2v-.1c-.4-1.2-.6-2.4-.6-3.7v-1c.2-1.9.9-3.8 2.2-5.3 0 0 .4 0 .4.1.1.3.2.7.2 1 .7 4.4 2.5 8.5 5.2 12.1a16.11 16.11 0 0 0 4.5 4.1c.2.1.5 0 .7 0a1.38 1.38 0 0 0-.3-.4c-.4-.4-.7-.8-1.1-1.1-4.3-4.3-7-9.9-7.9-15.8-.2-1.8-.3-3.7-.2-5.5 0-1.9.2-3.7.2-5.6.1-3.1.4-6.2 1.1-9.2.5-2.5 1.5-4.9 2.8-7.1 1.2-2 2.8-3.7 4.8-4.9s4.2-1.9 6.5-2c2.2-.1 4.4.2 6.5.9a27.97 27.97 0 0 1 6.6 3c.2.2.5.3.7.5.1.1.2.1.3.2.3.2.6.4.8.6 2.8 2.2 4.7 5.4 5.4 8.9.5 2.1.8 4.1 1 6.2v.1c.3 2.7.3 5.5.6 9.1 0 1.4 0 3.7.1 6 0 1.2-.2 2.5-.7 3.6-.5 1.7-1.1 3.4-1.6 5.1 0 .1-.1.2-.1.2-.1.3-.1.7-.2 1 0 .1 0 .2.1.3.1 0 .3 0 .3-.1l1.5-3.1c.1-.2.2-.5.4-.7.1-.1.1-.3.2-.4h.4c.1 0 .1.1.1.2.9 3.3 2.9 6 4.5 9 .3.6.7 1.2 1 1.9 0 .1.1.2.1.3v.3c0 .1-.1.2-.1.2-.1.1-.1.1-.2.1-2.3 1.2-4.6 2.2-7 3-1.7.6-3.3 1-5.1 1.3-2.2.4-4.4.6-6.7.4-1.4-.1-2.8-.3-4.1-.7-.3-.1-.7-.2-1-.4h-.1c-.2 0-.3 0-.5.1 0 .2 0 .5.1.7.1.1.3.3.5.4a3.98 3.98 0 0 0 2.1.9c2 .4 4 .6 6 .5.7 0 1.4-.1 2.1-.2 1.5-.1 3-.4 4.5-.8l2.1-.6c2.8-.9 5.5-2.2 8.1-3.7.4-.2.7-.4 1-.6.2-.1.4-.1.6-.1s.4.1.6.3c1 .9 1.6 2.1 1.8 3.4.1.4.1.9.1 1.3-.1.4-.3.8-.6 1.2-3.3 4.3-7 8.2-11.2 11.6-.5.4-1 .8-1.5 1.1-.4.3-.8.6-1.3.8-.3.2-.6.3-.8.5-2.4 1.3-4.9 2.3-7.6 2.8l-1.7.3c-.4.1-.7.1-1.1.2s-.8.2-1.2.2c-.2 0-.4.1-.7.1a14.32 14.32 0 0 1-6.5-.6c-3.6-1-7-2.7-9.8-5a71.84 71.84 0 0 1-9.7-9.4 17.84 17.84 0 0 1-3.5-6.5c-.2-.8-.3-1.6-.1-2.3.7-3 2.1-5.8 4.1-8.2-.1-.2 0-.3 0-.3zm-70-57.2c.2-1.4 0-2.9.2-4.3.6-5.2 4.3-8.9 9.9-9.7 4.8-.7 9.6-.3 14 2.3 1 .5 1.9 1.4 2.4 2.4h-1.9c-6 0-11.9 1.2-17.4 3.4-.5.2-.9.4-1.4.6-.9.2-1.6.8-2.1 1.6s-.7 1.7-.6 2.6c.1 2.1 0 4.2 0 6.5-2-1.4-3.4-2.9-3.1-5.4zm-1.5 40.3c4-.4 5.9-3 6.6-6.7.9-5.6.7-11.3-.7-16.8a1.69 1.69 0 0 0-.3-1c-.2-.3-.4-.6-.7-.8s-.6-.4-.9-.5-.7-.1-1.1-.1c-3 .1-5.4-2.7-5.9-6.5-.2-1.5-.5-3.2 1.1-4s2.8.3 3.9 1.4l2.1 2.1c.4.5.9 1.2 1.6.9s.5-1 .5-1.6c-.1-2.9-.1-5.7-.1-8.6 0-.4.1-.9.3-1.2.2-.4.6-.6 1-.8 6.5-2.8 13.6-4.2 20.7-3.9.3 0 .6.1.8.2s.4.4.5.7c.3 1.1.6 2.1 1 3.1s.2 1.4-1 1.3c-1.4-.1-2.7 0-4.1.2-.4 0-.7.2-1 .4-.3.3-.4.6-.5 1-.7 2.8-.7 5.4.8 7.9 1.2 2.1 2.2 4.3 3.1 6.6.6 1.5.3 1.9-1.3 1.9-1 0-2.1-.2-3.1-.3-.4 0-.9 0-1 .6s.3.9.8 1c1.7.4 3.4.4 5.1.1.4-.1.8-.4 1.1-.8.2-.4.3-.8.2-1.3-.1-.9-.3-1.8-.8-2.7l-3.3-6.6a8.6 8.6 0 0 1-.6-5c.1-.6.5-.8 1-.8 1.6.1 3.2.2 4.8.2.8 0 1 .6 1.1 1.2.6 5 1.8 9.8 2.2 14.8.4 4.8-.7 8.8-4.9 11.7-1 .7-2 1.4-2.9 2.3-4.3 3.8-10.7 2-13.6-2.1-.4-.6-.7-1.9-1.6-1.3-.8.6.1 1.5.6 2.1 2.3 3.5 6 4.9 9.8 5.8 1.8.5 3.8.9 5.6-.8 1.6 5.7 3.5 7.5 7.8 7.6 0 .2 0 .4-.1.6s-.2.4-.3.5c-3 5-7.4 8.9-12.7 11.4-1.6.8-3.4 1-5.1.8-5-.8-9.7-2.3-12.7-7-1.3-2.1-3.1-3.8-4.2-6.1-.5-.6-.6-1 .4-1.1zM39 156.2c2.4-15 5.7-29.8 9.7-44.4 1.4-4.6 3.4-9 6-13.2 3.1-5.5 8.3-7.7 13.9-9.5 4.3-1.4 8.9-1.6 13.2-2.9.8-.3.9.2 1.2.8 2.1 4.3 4.6 8.5 8.6 11.3 6.8 4.9 14.8 4.3 21.1-1.1 3.4-2.9 7-5.9 8.6-10.4.1-.2.2-.4.4-.5s.4-.1.6-.1c4.9.4 9.9 0 14.8.6 5.4.7 9.8 3.3 13.7 6.7 1.8 1.5 3.5 3.2 5 5 .1.4.1.8-.1 1.2-.1.4-.4.8-.7 1.1-1.9 2.2-3.4 4.8-4.3 7.5-.4 1-.6 2.1-.6 3.2s.3 2.2.8 3.2a1.39 1.39 0 0 1 .2 1.1c0 .4-.2.8-.4 1.1-1.5 2.6-3.1 5.2-4.4 7.9-.4.9-.9 1.9-1.3 2.8-.1-.7-.1-1.3 0-2 .3-3.2 1.1-6.3 2.5-9.2.7-1.3 1.1-2.7 1.2-4.2-1.2.7-1.6 1.9-2.7 3.2.1-1.1.1-1.8.1-2.5v-3.8c0-.5-.2-1.2-.8-1.2s-.7.7-.7 1.2l-.3 4.1c-.6 7.3-1.4 14.5-2.4 21.7 0 .1-.1.2-.1.3-.3.7-.6 1.5-.8 2.2-1.3 4-2.5 7.9-3.4 12-1.1 4.8-2.1 9.7-3 14.5l-2.8 16.2c-.9 6.2-1.9 12.4-2.4 18.7 0 .5-.1 1-.1 1.5v.2c-1.3.1-2.7.3-4 .4-6.6.7-13.3 1.3-20 1.5-1.2 0-2.3.1-3.5.1h-.8l-32 .3c-1.1 0-1.5-.2-1.5-1.4-.6-15.7-.9-31.4-.7-47.1.1-5-.9-9.6-1.7-14.4-1.3-8.2-2.6-16.4-3.1-24.7 0-.9.3-2.5-1-2.4-1.1.1-.6 1.5-.6 2.4 0 4.3.6 8.5 1 12.9-2.8-2.7-3.9-6.5-6.4-9.5-.2.2-.3.5-.3.8s.1.6.2.8c1.9 3.5 3.3 7.3 6.5 10 .3.4.5.8.5 1.3l1.6 9.6c.4 1.6.3 3.3-.3 4.9-.5 1.6-1.5 2.9-2.8 4-.5.4-.9.9-1.2 1.5s-.4 1.2-.4 1.9c0 2.9-.7 5.7-2.1 8.2-.1.3-.2.5-.4.7s-.4.4-.7.5-.5.1-.8.1-.5-.1-.8-.2c-4.7-1.5-9.4-3-14-4.9-.6-.1-1.2-.4-1-1.6zm30.9 53.3c0-1-.1-2-.2-2.9-.2-1.3.1-1.9 1.6-1.8s3.4-.6 4.3.3c.9 1-.2 2.8-.4 4.2-.5 3.4-1.3 4.3-4 4.9-.8.2-1.1.1-1.1-.8v-3.9h-.2zM50.8 230c-.3-.8-.8-1.4-1.4-2-.6-.5-1.4-.9-2.2-1.1-.6-.2-1-.3-.8-1.1.3-1.6.2-3.2-.2-4.7-.4-1.6-1.1-3-2-4.3-.7-1-1.2-2.3-1.4-3.5-.2-1.3 0-2.6.4-3.8a423.7 423.7 0 0 0 6.3-22c.9-3.7 1.7-7.4 2.5-11.1.2-.9.5-1.3 1.5-1.4 1.8-.2 2.5-1.1 2.1-2.9-.1-.5-.1-1 0-1.4.1-.5.4-.9.8-1.2 1.3-1.2 1.9-2.6 1-4.3-.1-.2-.2-.4-.1-.5s.1-.4.2-.5c2.4-2.8 3-6.3 3.3-9.8 0-.6.1-1.2.4-1.8s.7-1.1 1.1-1.4c.8-.7 1.4-1.6 2-2.4.4 1.6.6 3.2.6 4.8l.3 38.5c.1 3.8.2 7.6.6 11.3.1.6 0 1.3.7 1.3 1.5.1 1.4 1.1 1.4 2.1.6 15.4.4 30.8.3 46.2-.2 10.9.3 22 .8 33.1v2.2c-.7-.2-1-.9-1.4-1.4l-8-11.5c-.4-.5-.6-1.2-.7-1.8-1.2-9-2.3-18.1-5.1-26.8-1-3.2-2.2-6.4-3.4-9.6-.2-.4-.3-.8-.2-1.2 0-.4.2-.8.4-1.2.4-.7.6-1.5.7-2.4 0-.8-.2-1.6-.5-2.4zm-13.9 11.2c1.6.4 2.9-1 4.5-.9.9.1 1.3 0 1.5 1 1.5 9.2 2.5 18.4 3.4 27.6.1 1-.4 1.3-1.1 1.7-5 2.4-9.9 5-14.7 7.7-.5.2-1 .8-1.5.4-.3-.2-.2-.9-.2-1.1.8-8.1 2.1-16.1 3.8-24l2.1-10.8c.3-1.2.6-2 2.2-1.6zm-.9-3c.1-.7.5-1.3.6-2 .3-1.8 1.2-2.5 3-2.1.7.1.9.3.8 1.3-.1.8-.3 1.6-.7 2.4-.4.7-.9 1.4-1.6 1.9-.3.2-.6.4-1 .4a1.69 1.69 0 0 1-1-.3c-.7-.4-.2-1.1-.1-1.6zm4.9.5c.7-1.5 1-3.1 1-4.8 0-.8.9-1.1 1.5-1.3.8-.2.6.7.6 1.2.4 2.5-.8 4.4-3.1 4.9zm-9.1 40.9c5.3-2.4 10.4-5.3 15.5-7.9 1.1-.5 1.3-1 1-2.3-.5-2.3-.7-4.7-.8-7-.4-5.1-1.1-10.3-2.1-15.3-.4-1.8.3-2.9 1.5-4.3l1.9 8.8c1.8 7.2 3.1 14.5 3.8 21.9.1.6 0 1.2-.3 1.7s-.8.9-1.3 1.1l-20.1 10.1c-2.4 1.2-2.3 1.3-2.4-1.4-.1-2.9.8-4.3 3.3-5.4zm13.7-43.1c.3-1.6.2-3.3-.4-4.8-.1-.2-.2-.5-.1-.8s.2-.5.5-.7c.7-.4.9.4 1.2.7 1 1.7.7 3.8-1.2 5.6zm.5-8.3c1.5-.2 2.3.3 3.2 1.9.4.7.6 1.4.5 2.2s-.4 1.5-1 2.1c0-3 0-3-2.7-6.2zm-5.1-56.6c-1.3-.4-2.5-1.2-3.4-2.2-.3-.3-.5-.6-.7-1s-.2-.8-.2-1.2.1-1 .5-1.2.7.2 1 .5c2.8 2 5.9 3.7 9.1 4.9 2.1.8 4.3 1.3 6.5 1.7-4.4.2-8.7 0-12.8-1.5zm-4.3-12c.3-.8.6-1.4 1.8-.8 5 2.6 10.5 4.1 15.9 5.7.9.3 1.6.5 1.8 1.6s-.4 1.6-1.2 2.4-1.5.4-2.2 0c-3.7-1.9-7.5-3.5-10.8-6-.1-.1-.3-.2-.5-.3s-.4 0-.6.1c.4 1.1 1.4 1.5 2.2 2 2.9 1.9 5.9 3.6 9.1 5a2.73 2.73 0 0 1 1.2.9c.3.4.4.9.4 1.4-3.2-.7-6.4-1.8-9.3-3.3-2-1-3.9-2.1-5.7-3.3-.8-.6-1.5-1.5-1.8-2.5-.5-.8-.6-1.8-.3-2.9zm-5.2 54.5 4.1-39.2c.1-1.1.1-2.7.8-3.3 1-.7 1.9.8 2.9 1.3 3.2 1.3 6.6 2 10.1 2 1.4.1 1.6.4 1.2 1.8-2.6 11-5.8 21.9-9.1 32.7-.5 1.4-.6 2.8-.4 4.3.2 1.4.8 2.8 1.6 4a11.68 11.68 0 0 1 2.2 6.3c0 .8 0 1.1-1 1-1.5-.2-2.5-.5-2.5-2.4-.1-.7-.3-1.4-.6-2-.4-.6-.8-1.2-1.4-1.6-.2-.2-.5-.4-.9-.2s-.2.6 0 .9c.9 1.2 1.4 2.6 1.5 4.1s-.3 2.9-1.1 4.2c-.1.2-.2.4-.2.7s.1.5.3.7.4.3.7.3.5-.1.7-.3c1-.6 2.2-.9 3.3-.7.7 0 .9.4.5 1-1.2 1.7-2.6 3.1-4.8 3.1-1.9.1-2.7-1.4-3.4-2.9-.5-1-.9-2-1.4-3-.1-.1-.2-.3-.3-.3-.1-.1-.3-.1-.4-.2-.4 0-.4.4-.4.7 0 .9-.9 1.1-1.7 1.8-.8-5-.8-9.9-.3-14.8zm13 12.7-2.7.2c-.3 0-.7.2-.7-.3v-.2c0-.1.1-.2.1-.2.1-.1.1-.1.2-.1s.2-.1.2-.1c1-.1 2-.3 2.9.7zM28.5 338.9c-2.4-2-4.5-3.8-6.8-5.5-1.7-1.4-3.5-2.7-5.4-3.8-.9-.6-1.6-1.2-1.1-2.5.2-1 .3-2 .2-2.9 0-.4-.2-.8-.6-.8-.5 0-.7.3-.7.7-.1 1-.2 2.1-.2 3.1 0 .4.1.8-.5 1.1-3.8 1.7-7.4 4-11.1 5.7h-.7l1.1-5.7 9.9-45.1c2.5-12.7 6.1-25.2 10.8-37.3 1.9-4.9 4-9.7 7.4-13.7.5-.6 1-1.2 1.5-1.7.5-.4.9-1.5 1.6-1 1 .6.2 1.4-.3 2.1-5.6 7.4-8.6 16-11.5 24.5-3.4 9.6-6.1 19.5-7.9 29.6-.2 1.2 0 1.8 1.3 2.4 2.1.9 4.4 1.6 6.3 3 1.1.8 1.3-.4 1.4-1.1.3-2.4.5-4.8.7-7.2a284.4 284.4 0 0 1 5.7-36.8c1-4.5 2.6-8.9 4.9-12.9.2-.3.2-1.2 1-.7.4.3.8.6.5 1.3-2.2 5.6-3.4 11.6-4.6 17.5-1.6 7.8-3.4 15.6-4.1 23.5-.8 10-1 20-.5 30l1.6 31.8c.1.6.1 1.3.1 2.4zm-8-56.4c-1.1.4-2.2.9-3.3 1.5-.8.4-1.1.3-1-.7.5-3.1 1.3-6.2 2.2-9.3 2.2-9.1 5.1-18.1 8.5-26.8.1-.3.3-.5.5-.8l.3.1-2 10.1c-1.5 7.6-2.6 15.4-3.3 23.1-.1 1.5-.4 2.4-1.9 2.8zm1.5 1.3c0 .7-.1 1.1-.1 1.7-.3 3.5-.3 3.5-3.5 1.9-.7-.2-1.3-.6-1.8-1.1 1.7-.9 3.5-1.8 5.4-2.5zm47.9 24.9c-.2.5-.6 1-1.1 1.3-7.3 6.1-15 11.9-22.9 17.2-4.8 3.2-9.1 7.3-13.9 10.5-.4.3-.7.9-1.3.6-.5-.2-.3-.9-.3-1.3l-1.2-23.4c-.5-7.5-.8-15-.7-22.6-.1-.6.1-1.2.4-1.7s.8-.9 1.4-1c6.3-2.9 12.4-6 18.6-9.1 1.5-.8 3-1.6 4.6-2.3.2-.1.4-.1.6-.3.2-.1.3-.3.4-.5s.2-.4.2-.6v-.6a103.89 103.89 0 0 0-2.1-15.7c-1.6-7-2.9-14-5.2-20.8-.3-1 .1-1.3.8-1.6 1-.3.8.5 1 1 4.4 11.2 6.5 22.9 8 34.8.2 1.4.6 2.7 1.4 3.8 3 4.6 6.1 9.1 9.4 13.5.9 1.2 1.4 2.7 1.5 4.2.1 4.2.4 8.4.8 12.7-.1.8-.2 1.4-.4 1.9zm8.7 53.5c-1.1-.1-1.4-.6-1.6-1.6-2.1-16.1-3.5-32.4-4.6-48.6-1.7-24.4-2.5-48.9-2.1-73.3.1-6.9 0-13.7-.1-20.6 0-1.3.1-2 1.6-2.3 1.3-.2 2.5-.8 3.4-1.8s1.4-2.2 1.4-3.6c.1-1.4.5-2.8.6-4.2.1-.9.3-1.3 1.4-1.3l20.4-.1c.6 0 1.2-.1 1.2.9-.1 4.7 0 9.3.4 14 0 .1-.1.3-.2.7-.7-2-1.1-4.1-1.1-6.2.1-2.4 0-4.8-.4-7.2-.1-.4-.2-.9-.4-1.3 0-.1-.1-.3-.2-.3-.1-.1-.3-.1-.4-.1s-.2 0-.2.1c-.1 0-.1.1-.2.2 0 .1-.1.1-.1.2v.2c.8 4.6-.2 9.4 1.3 13.9.2 1.1.7 2.1 1.4 3 .4.5.8 1.1 1 1.8s.2 1.3.2 2c-.6 7.5 0 14.9.2 22.4.2 14.4-.8 28.6-1.3 42.9l-2.6 61.9c-.2 2.9-.1 5.9-.1 8.7 0 .8-.2 1.1-.9 1.2h-.4c-3.2-.1-6.3-.4-9.5-.8l-8.1-.8zm12 6.5c-2-.5-4.1-.9-6.1-1.1-1.7-.2-.9-1.5-1-2.3-.2-1.2.8-.7 1.4-.7 2 .2 4 .5 6.1.6 1.3.1 2 .5 1.6 1.9 0 1.6-.4 2.1-2 1.6zm-25.9 14.6c.2-.1.4-.2.6-.2s.4.1.6.2c1.4.8 2.9 1.4 4.8 2.4-4.8 1.2-9 2.8-13.6 2.9l-.2-.5 7.8-4.8zm27.6-2.4c-.1.2-.3.3-.5.4-5.8 2.5-11.3 5.6-17.6 6.8-4.3.8-8.5 2.1-12.9 2.7l-2.4.3c-1.2 0-2.2 0-3.1-.7-.1-.2-.2-.4-.2-.6 0-.3.3-.3.5-.3 5.4.6 10.4-1.4 15.4-2.7 6.8-1.8 13.3-4.5 19.7-7.4.4-.2.8-.8 1.1-.3.2.3.3.6.3.9s-.2.6-.3.9zm-2.5-2.3c-4.9 2.1-9.9 4-14.9 5.8-.5.2-1.1.2-1.6.1-1.7-.5-3.4-1.1-5.1-1.9-.3-.1-.7-.3-.7-.6-.1-.4.4-.5.7-.6 1.9-.9 3.7-1.9 5.6-2.8 2.7-1.2 5.2-2.6 7.6-4.3.7-.5 1.2-1.1 1.6-1.8s.6-1.5.6-2.4c0-1 .4-1.2 1.3-1 2.2.6 4.4 1.1 6.7 1.5.1 0 .2 0 .3.1.1 0 .2.1.3.2s.1.2.2.3v2.7c.8 2.6-.6 3.9-2.6 4.7zm25.5-1.4c-6.6-.2-13.2-.5-19.8-.3-.9 0-1.1-.3-1.1-1.1 0-3-.1-6-.2-9.1 0-.9.3-1.1 1.2-1.1 3.7-.1 3.7-.1 3.7-3.8.2-14.4 1.3-28.9 1.8-43.3l2-59.8c0-.5.1-1.1.1-1.6 1.6 12.3 2.5 24.7 3.1 37 1.1 21.4 2.6 42.7 5 63.9.2 1.6.3 3.3.5 4.9.1 1.1.3 1.7 1.7 1.4 2-.3 2-.2 2.2 1.9.3 3.1.7 6.1 1.2 9.1.4 1.4.1 2-1.4 1.9zm2.2-10c-.1-.5-.1-1.1-.2-1.9-.3-1.1.3-1.5 1.5-1.6 2.2-.3 4.3-.6 6.5-1 .9-.1 1.3.3 1.3 1.1s.3 1.6-1 1.8c-2.5.4-5.1.7-7.4 1.9-.4.4-.6.2-.7-.3zm1.9 11.4c-.8-2.8-.7-5.7-1.3-8.6-.1-.5.1-.8.6-1a34.45 34.45 0 0 1 7.7-1.8c.8-.1 1 .3 1 .9.1 2.4 1.7 4.3 1.9 6.7.1.7.8 1.1 1.4 1.5 2.7 1.9 5.8 3 8.6 4.7l.8.5c-1.3 1.1-3.2 1.3-4.1 2.9-.2.3-.7 0-1-.1-4.6-1.5-9.5-2.2-14.1-4-.4-.1-.8-.4-1-.7-.2-.2-.4-.6-.5-1zm4.9 6.3c-1.1-.3-2.2-.9-3.1-1.7-.3-.2-.5-.5-.7-.8-.1-.3-.2-.7-.2-1.1 9.4 3.1 18.9 5.4 28.6 8.1-.5.3-1 .5-1.6.8 0 0-.1 0-.1.1-7.8-1.1-15.3-3.4-22.9-5.4zm43.7 9.2c-.3.3-.7.5-1.1.7-3.5 1.4-7.1 2.6-10.8 3.5-5.2 1.2-10.4 2-15.6 2.9-1.4.2-2.8.3-4.5.5-.5-.1-1.3-.2-2.1-.3-.1 0-.1-.1-.2-.1 0-.1-.1-.1-.1-.2 0-.2.1-.3.2-.4s.3-.2.5-.2l6.1-.6c1-.1 1.9-.2 2.9-.4 4.3-1 8.7-1.5 12.9-2.8 3.5-1.1 7.2-1.9 10.8-2.9.2-.1.5-.1.8-.1.1 0 .2.2.3.3l-.1.1c0-.1 0-.1 0 0zm-.8-1.9c-2.9.9-5.7 1.7-8.6 2.4L153 396c-.3.1-.7.2-1 .3-3.2.6-6.4 1.3-9.6 2-2.1.4-4.2.6-6.3.7-.2 0-.3-.1-.5-.2.1-.2.1-.4.2-.5 1-.7 2.1-1.3 3.2-1.9l8.3-4.3c1-.5 2-1.1 3.1-1.6.4-.2.7-.4 1.1-.6l3.4-1.8c.7-.3 1.3-.7 2-1 .2-.1.4-.2.7-.4.3-.1.7.2.7.5v.7c-.1.4-.2.9-.3 1.4-.1.6-.2 1.2-.2 1.8 0 1.3.8 2 2.1 1.6.8-.3 1.6-.7 2.5-1l5.3-2.3c.4-.2.7.1.7.5.1 1.6-.1 2-1.2 2.3zm1.3-5c-.3.4-.7.7-1.1.8-2.4.9-4.7 2-7 3-.1 0-.2.1-.3.1s-.2-.1-.3-.1c-.1-.1-.2-.2-.2-.3v-.3l.3-1.8c.2-1 0-2.1-.5-3.1-.1-.2-.2-.5-.3-.7-.2-1.2.4-1.8 1.6-1.8h3.1v.2h4c.2 0 .4.1.6.2.2.2.3.4.3.6.1.6.1 1.2.1 1.8 0 .5-.1 1-.3 1.4zm-2.2-5.6c-.6 0-1.2 0-1.7-.1l-6.5-.3c-1.2-.1-1.4-.3-1.5-1.4-.1-.9-.2-1.8-.2-2.6l-.9-10.3c-.2-2.7-.6-5.5-.8-8.2l-.6-6.9c-.3-3.6-.4-7.2-.8-10.8-.5-4.4-.3-8.8-.4-13.8.4-5.4-.5-11.3-.7-17.1-.1-2.7-.4-5.3-.6-7.9v-.2c0-.1.1-.2.1-.2.1-.1.1-.1.2-.1h.3c.6.1 1 .3 1.5.4 4.8 1.4 9.7 2.2 14.6 2.3 2.7 0 5.5.2 8.2.4.8 0 1.1.3 1.1 1.2v.8l-.5 12.7-.5 19.4-.7 12.5c0 .8-.1 1.6-.1 2.3 0 .4-.1.9-.1 1.3-.1.5-.1 1.1-.1 1.6v3.9c0 .7-.1 1.3-.1 2l-.7 9.3c-.2 1.7-.1 3.4-.2 5-.1 1.3-.2 2.6-.4 4-.1.8-.3 1-1.3 1-2.2-.2-4.4-.2-6.6-.2zm16.7 6.9c-1.5-.1-3-.3-4.5-.3-1.9 0-3.7.2-5.6.3-2.8.2-2.7.2-2.7-2.7 0-2.6-.4-2.7 2.5-2.7 2 0 2.6-.5 3-2.5.2-1.3.4-2.6.4-3.9l.8-12.2c0-.5.1-1.1.1-1.6v-.6c0-.6.1-1.3.1-1.9 0-.5 0-.9.1-1.4 0-.4 0-.8.1-1.2.1-1.7.2-3.4.2-5.1 0-.7.1-1.4.1-2.2 0-1 .1-2 .1-2.9l.8-17.5v-1.6l.3-18c0-2.7.2-5.3.3-7.9v-.5c.1-.4.2-.9.6-1s.9.3.9 1l.4 9.8c.7 10.8.2 21.6.5 32.4v4.5h.2v5.5c0 1.2 0 2.3.1 3.4v4.7l.4 18.6v.5c.1 1.1.2 1.3 1.5 1.3h.5c.2 0 .4.1.6.2s.3.4.3.6l.3 2.1c.4 3 .6 3-2.4 2.8zm34.9 15.2c-.1.1-.1.2-.2.2-.7.1-1.4.1-2.1.2-2.6-.2-5.2-.6-7.8-1.4-6.4-1.8-12.6-4.1-18.7-6.5-.4-.1-.8-.4-1.2-.6-.2-.2-.3-.4-.3-.7s.4-.4.8-.2c6.1 3 12.7 4.7 19.2 6.7 2.4.7 4.8 1 7.2 1.5.9.2 1.9.4 2.8.7.2 0 .4.1.3.1zm-19.2-15.8c1.1.7 2.2 1.5 3.2 2.3 1.2.9 2.3 1.9 3.4 2.9 2.9 2.7 6.1 5.1 9.5 7.2.4.2.7.5 1.1.8v.2c0 .1-.1.1-.2.1-1.2-.2-2.4-.5-3.6-.7-7.1-1.3-13.8-3.6-20.5-6.1l-2.6-1.2c-1.4-.7-1.7-1.4-1.3-3 0-.1.2-.2.4-.4.2 0 .5.1.7.2.9.4 1.7.9 2.6 1.3l1.2.6c1.7.8 2.3.5 2.9-1.1.2-.4.3-.8.4-1.2.2-.5.4-1 .7-1.4.1-.2.2-.4.4-.6s.4-.3.6-.3c.2-.1.5-.1.7 0s.2.2.4.4zm-11.3-4.2c0-.7.3-1 .9-1h4.2v-.3h3.2c1 0 1.2.2 1.2 1.2.1.5 0 1-.1 1.4-.1.5-.4.9-.7 1.2-1 1.1-1.7 2.5-2.2 3.9 0 .1-.1.2-.1.2-.1.1-.1.1-.2.1h-.3c-.1 0-.2 0-.2-.1l-4.7-2.3c-.2-.1-.4-.3-.6-.5-.1-.2-.2-.5-.2-.8-.1-.9-.2-2-.2-3zm18-47.3c0 .5-.1 1.1-.1 1.6s-.1 1-.1 1.6v.5c0 .4 0 .7-.1 1.1l-.7 11.9c-.1.7-.1 1.5-.2 2.2 0 .5-.1.9-.1 1.4s-.1.9-.1 1.4c-.1 1.6-.3 3.2-.4 4.8 0 .3-.1.7-.1 1l-.6 6.9-.6 7.4c0 .4-.1.9-.2 1.3-.1.8-.4 1.1-1.2 1.1l-12.7.7c-1 .1-1.9.2-2.9.2-.7 0-1.1-.3-1.1-.9V379l-.3-16.7v-8.6c0-1.1 0-2.2-.1-3.3v-2.3c0-2.2-.1-4.4-.1-6.7l-.4-24.2c0-2.5-.3-5.1-.4-7.7 0-.5-.1-1.1-.1-1.6 0-1 .1-1.9.1-2.9.9-.7 1.8 0 2.8 0 4.3.1 8.6.7 13 .5h.8c.4 0 .7 0 1.1-.1l5.3-.3c.4-.1.9-.1 1.3-.1.9 0 1.2.3 1.1 1.1l-.6 5.5-.9 10.3-.9 10.5c-.4 1.5-.4 2.7-.5 4zm5.2 19.9-4.8 1.2c0-.4.1-.8.1-1.3 1.2-.2 2.4-.5 3.6-.7.3-.1.5-.2.8-.2s.7-.1.8.3-.1.6-.5.7zm2.1-12.7-1.2 8.9c-.1 1-.6 1.3-1.4 1.5-1.4.3-2.7.6-4.1.8.1-.8.1-1.5.2-2.3l.8-11.4h3.4c2.6-.1 2.7-.1 2.3 2.5zm-.4-4.2-4.3.3c-.3 0-.6 0-.9-.1 0-.5.1-1.1.1-1.6 1.7 0 3.4 0 5.1-.2.4 0 1.1-.3 1.1.4.1.8-.3 1.2-1.1 1.2zm-.1-3c-1.6.1-3.3.1-4.9 0l.4-6.7.6-6.9.9-10c.2-2.6.5-5.1.8-7.7.2-1.7.5-3.3.7-5 .1-1.1.6-1.3 1.6-1.4l6.2-.6-1.5 14.1c-.9 7.6-2.1 15.1-3.1 22.7-.1 1.2-.5 1.5-1.7 1.5zm38.9 14.8c-12.1.5-24.1-.4-36.2 0-1.6.1-1.1-.8-1-1.5l5-38 1.4-13.6c.4 0 .7-.1 1.1-.1.8-.1 1.1-.3 1.1-1.2l-.3-10.9-.3-3.9 1.9-16.1c.1-1.3.5-2 2-2.1 4.3-.5 3.8.2 4.2-4.4.7-6.8 2.3-13.4 3.2-20.2l1.5-11.2c0-.3 0-.7.4-1l1 8.9 2.7 24.3v.3c.5 3.3.8 3.6 4.1 3.6 2.9 0 3 0 3.1 2.9.6 17.1 2.4 34.1 3.7 51.2.9 10.5 1.4 21 2.6 31.5.3 1.2 0 1.4-1.2 1.5zm6 6.5c-.1 0-.3-.1-.4-.1-.3 0-.5-.1-.8-.3-.2-.2-.4-.4-.5-.7s-.1-.6 0-.9c.2-.6.8-.2 1.1-.1.2 0 .4.1.7.1 0 .7-.1 1.3-.1 2zm.9-12.9c-.4 3.2-.6 6.4-.8 9.6-.1 0-.3 0-.4-.1-1.4-.3-2.1-.8-2.1-2.3-.2-3.1-.5-6.3-.9-9.4-.1-1.1.1-1.5 1.3-1.4 1.1.1 2.1.1 3.2.1l-.3 3.5zm.4-4.9c-1.2 0-2.4 0-3.6-.1-.2 0-.3-.1-.5-.1-.5 0-.8-.2-.8-.8s.5-.5 1-.5h4c0 .5 0 1-.1 1.5zm-3.6-2.8c-1.1 0-1.5-.5-1.6-1.6l-3.3-40.9c-.9-9.5-1.3-19.1-2.1-28.6-.1-1.3.3-1.5 1.5-1.5 4.1.2 8.2.1 12.3-.4-1.2 16.4-1.8 32.8-2.3 49.2l-.7 23.8h-3.8zm5.4 29c-.3 0-.6 0-.9-.1s-.6-.3-.4-1c.1-.4 0-.8 0-1.2v-.4c0-.3.1-.5.4-.6.2-.1.5-.2.9-.2.3 0 .7-.1 1-.1l7.1-.6c1.7-.2 3.3-.3 5-.5.8 0 1.6-.2 2.4-.5.2-.1.4-.2.6-.2-.3-.2-.6-.4-1-.5s-.7-.1-1.1 0c-1 0-2 .1-3 .1-3.3.2-6.6.5-9.9 1.1-2.2.3-2.4.4-2.4-1.3l.1-1.9v-.4c.1-.8.2-1.2.6-1.5.5-.3 1.3-.2 2.8-.2l5.7.3 8.9.4c.4 0 1.1 0 .7.7 0 .1-.1.2-.1.2-.2.5-.4 1-.5 1.5-.1.6-.2 1.3-.2 1.9s0 1.3-.1 1.9l-.1.1c0 .4-.1.8-.1 1.2-.1.6-.1 1.2-1 1.3l-4.5.6c-1.6.2-3.1.3-4.7.4-1.9-.1-4-.2-6.2-.5zm10.6 2-4.4 3.6c.3-3.9 0-3.8 4.4-3.6zm-3.5 12.9c-2.4 1.8-4.6 3.9-7 5.4-5.4 3.4-10.9 7-17.2 8.4-1.7.4-3.5.4-5.2 0-1.1-.3-2-.9-1.4-2.4 2.7 1.6 5.4 1.2 8.1.2 5.4-2 10.3-5.1 15.3-8 2.4-1.4 4.9-2.7 7.3-4l.1.4zm4.2-.9c-.2.2-.4.3-.6.3s-.5.1-.7.1-.5-.1-.7-.2-.4-.3-.5-.5l3.3-1.6c.5 1.1 0 1.5-.8 1.9zm2.6-11c-.4 1.6-.6 3.2-.8 4.9 0 2.2-1.3 3.3-3.1 4-5.6 2.4-10.8 5.6-16.1 8.7-4 2.3-7.9 4.6-12.5 5.6-.5.1-1 .2-1.3.2-1.1-.2-2.4.1-2.7-.9-.4-1 .8-1.4 1.4-2 3.8-3.8 8.3-6.7 12.5-9.9 4-3 7.9-6.1 10.1-10.9.6-1.4 2-.7 2.9-.6 1.1.2.3 1.2.3 1.8-.1 1.1-.4 2.2-.5 3.3-.1.5-.2 1.1.4 1.5.6.3 1.1-.1 1.5-.4 2.2-2 4.5-3.7 6.5-5.9.3-.4.7-1.1 1.3-.8s.2.9.1 1.4zm46.1 7.4c-7.5-.2-15.1-.2-22.5 1.2-.8.1-1.5.1-2.3-.1-6.4-.9-12.8-1-19.2-.4-1.3.1-1.6-.2-1.4-1.5a90.06 90.06 0 0 0 1.2-7.2c.1-.8.4-1.3 1.3-1.3s1.3-.5 1.4-1.5l.3-2.5c5.5.7 11.1.8 16.6.3 2.7-.2 5-1.6 4.9-4.9 0-.8.5-.7 1-.8a45.02 45.02 0 0 0 7.3-1.5c.7-.2 1.6-.4 1.7-1.3.1-1-.7-1.5-1.5-1.8-.7-.3-1.5-.5-2.2-.6-2.7-.4-5.4-.5-8.1-.4-2.2 0-4.7.5-6.8-.1-3.3-1-6.6-2-9.9-3.2-.1-1-.1-2.1-.3-3.1-.4-2.3 0-4.8 1.3-6.8 2.6-4.1 2.6-8.9 3.4-13.5 3.1-17.4 6.3-34.8 8.6-52.3 2.1-16 4.9-31.9 7.5-47.8.1-.5.2-1.1.4-1.6h.1l3.3 28.4c1.6 18.8 4.1 37.5 6.5 56.2.9 6.7 1.8 13.4 3.1 20.1.5 3.4.6 6.9.2 10.4-.3 3.8.2 7.4 2.5 10.7 1 1.5 1.5 3.3 1.2 5-.4 3-.6 6.4.3 9 1.5 4 .2 8 1.1 11.8.1.9-.1 1.1-1 1.1zm-38.1-24.7v-.7c1.3.5 2.6.9 4 1.3.5.2.9.3 1.7.6-2.3.9-4.3 2.4-5.9 4.4-.5.6-1 .5-1.6.4h-.2c.4-.9.9-1.8 1.5-2.6a7.61 7.61 0 0 0 .5-3.4zm6.9 2c.3-.1.6-.1 1 0 2.5 1 5.1 1.8 7.4 3.3.3.2.8.4.7.9-.1.4-.6.4-1 .5-1.6.4-3.2.6-4.8.6l-8.4-.9c-1-.1-.8-.5-.3-1 1.5-1.5 3.4-2.6 5.4-3.4zm.8 6.7a24.45 24.45 0 0 0 8.5-.6c0 .3-.1.5-.2.8s-.3.5-.5.7-.5.3-.7.4c-.3.1-.6.1-.8.1-4.5.2-9.1.1-13.6-.2l-3.4-.3.3-1.9 10.4 1zm33.8 17.4c-.5-.8-.9-1.8-.9-2.8 2 1.2 2.1 3.2 3.1 4.7-.9-.4-1.6-1.1-2.2-1.9zm23.3 21.6c-2.9.1-5.8-.7-8.3-2.2-2.8-1.7-5-4.1-6.4-7.1-1.3-2.7-2.4-5.5-3.2-8.4l3 6.2c.4.7.8 1.4 1.1 2.2 3.1 6.9 10.3 8.3 16.2 6.8.2 1.6-.5 2.4-2.4 2.5zm-8.1-20.9c1 2.8 2.6 5.5 4.5 7.8 2 2.6 3.8 5.4 5.5 8.2.6 1 0 1.2-.7 1.5-3.8 1.2-10.2-1-12.5-4.3-1.6-2.3-2.9-4.8-4-7.4-1.3-2.7-2.9-5.3-4.9-7.6-.5-.7-1.2-1.2-2-1.6-1.4-.7-2.6-1.7-2.2-3.6.1-.6.1-1.2 0-1.8-.1-.7-.2-1.4-.1-2.1 0-.5-.4-1.3.3-1.4h.5c.2 0 .3.1.5.2.1.1.3.2.4.4s.2.3.2.5c.5 2 1.6 3.9 3.2 5.3.3.3.4.8 1 .7.7-.1.6-.7.7-1.2.8-3.9.8-3.9 4.7-3.5.4 0 .9.1 1.2.4.4.3.6.6.7 1 .9 2.9 2 5.7 3 8.5zm-13.2-11c2.8-.1 3.1.5 1.8 3.1-.8-.9-1.4-2-1.8-3.1zm10.2-.6c-4.1-.4-8.2-.5-12-2.2-.9-.5-1.6-1.2-2.1-2.1-.4-.9-.6-2-.4-3 .2-.8.8-.4 1.2-.3l10 2.2c1.5.3 2.9 1 4.5.7.7-.1.6.3.7.7.1.7.2 1.4.2 2.1.1 2.1.1 2.1-2.1 1.9zm-14.5-10.2c0-1.2.7-1.1 1.6-1.1a99.08 99.08 0 0 0 7.7.3h2.1c1.1 0 2.2-.1 3.3-.2.6 0 .8.1.9.7.1.5.1.9.2 1.4.1.6.2 1.1.2 1.7.1.6.2 1.1.2 1.7l-1.2-.3c-1.2-.3-2.3-.6-3.4-.8-3.5-.8-6.8-1.6-10.2-2-1.1 0-1.4-.4-1.4-1.4zm16.4-9.4c-.6 2-1 4.1-1.2 6.2v.3c-.1.6.1 1.1-1 1.1-.9 0-1.8-.1-2.8-.1-.8 0-1.6-.1-2.5-.1-2.4-.1-4.7-.1-7.1-.1-1.4 0-2-.4-1.8-1.9.2-1.7-.7-3.1-1.6-4.4-1.7-2.5-2.5-5.5-2.1-8.4.9-7.6-1-14.9-2-22.3l-4.7-36.5c-1.8-13.8-3-27.6-4.3-41.4-.7-6.7-1.7-13.3-2.7-19.9-.2-2 .1-4.1.7-6 .2-.8.8-1 1.5-1.2l7.8-2.6c1.3-.4 2.5-1.1 3.4-2.3-.9-.1-1.8 0-2.6.3l-9.4 3.2c-.5.1-1 .4-1.3.8-.4.4-.6.8-.8 1.3-.9 2.8-1.6 5.6-2 8.5-3.6 19.4-6.6 39-9.3 58.5-2.3 16.1-5.4 32.1-8 48.2-.5 3.7-1.5 7.2-3.2 10.5 0 0 0 .1-.1.1-1 1.8-1.3 3.9-1 5.9l.3 3.1c0 .7.1 1.5.1 2.2 0 .4 0 .9.1 1.3.1.5 0 1.1-.2 1.6-.7 2-1.2 2.2-3.4 2.1-5.4-.4-10.7-.8-16.1-.7-.7 0-1.1-.2-1.2-.6-.1-.2-.1-.4 0-.7 0-.5.1-.9.1-1.4.2-2.1.3-4.2.5-6.4l.3-4.3c0-.5.1-1 .1-1.5 0-.4.1-.9.1-1.3 0-.5.1-1 .1-1.5.8-13.9.8-27.8 1.3-41.7.4-10.5.8-21 1.7-31.5l.3-3.8c.8-8.3.5-16.7.5-25.1a76.8 76.8 0 0 0-2.7-20.2c-.2-.5-.2-.9-.1-1.4s.4-.9.7-1.2c1.3-1.5 2.6-2.9 3.9-4.3l5.1-5.4c.3-.4.8-.8 1.4-.9.5-.2 1.1-.2 1.7 0 .4.1.8.1 1.2.2l7.9 1.5c.7.1 1.3.2 2 .4 4.3.8 8.5 1.4 12.9 1.8.8.1 1.5 0 2.2-.3s1.2-.9 1.6-1.6c1.5-2.5 3.2-4.8 4.9-7.4 1.2 2.2 2.4 4.2 3.4 6.2.8 1.3 1.4 2.1 3.5 1.9s4.2-.6 6.3-.9c3.8-.7 7.6-1.5 11.3-2.5.4-.1.8-.2 1.2.1 1.7 1.5 3.7 2.7 5.7 3.8l1.2.6c.2.1.3.2.5.3 1.3.6 2.6 1.2 3.8 1.9 3.6 1.8 3.7 1.6 2.8 5.5-1 3.9-1.7 7.9-3.1 11.6-1 2.6-1.8 5.3-2.3 8-.5 4.6-.7 9.2-.5 13.8.2 9.2.2 18.3.1 27.5v1.8c0 1.2 0 2.4-.1 3.6-.3 13-1 26-2.4 39-.7 6.7-1.2 13.5.3 20.2.5 2.3.3 4.7-.5 7 0 .5-.2 1.2-.4 1.9zm1 5.8c.2-2.4.7-4.8 1.6-7.1 1-2.5 1.2-5.3.6-8-1.5-7.1-.9-14.1-.1-21.2 1.1-11.5 1.9-23 2.2-34.5.1-2 .1-4 .1-6.1a15.69 15.69 0 0 0 6.1.6c1.3-.1 1.6.2 1.7 1.4.6 8.8 1.7 17.5 2.8 26.2l5.2 44.6c0 .4 0 .8-.1 1.1-.1.4-.3.7-.6 1s-.6.5-.9.6c-.4.1-.7.2-1.1.2a85.41 85.41 0 0 0-17.5 1.2zm29.2 2.4c-6.8 3.1-13.4 6.4-20.8 7.9-1.3.4-2.6.6-3.9.7-.5 0-1.2.2-1.4-.5-.2-.6.3-1 .8-1.3 2.6-1.9 5.4-3.6 8.3-5.1 1-.6 2.1-1 3.1-1.6 1.1-.7 2.1-1 3.3-.1.4.3 1.2.8 1.6.1.5-.8-.4-1.1-.9-1.4l-.5-.4h-.1c.1-.2.3-.4.6-.6.2-.2.5-.3.8-.3h.8c.3.1.5.2.7.4a4.67 4.67 0 0 0 1 .5c.5.2 1.2.4 1.4-.1s-.3-.9-.7-1.2c-1.9-1.4-1.9-1.5-.2-3.4.9-1 1.6-.9 2.5.1 1.2 1.4 1.9 3.4 4 4 .8.4.6 1.9-.4 2.3zm1-75.9c-.6 8.6-.2 17.1-.3 25.7-.1 8.6.4 17.1 0 25.7-.1 1.6-.7 2-2 2-2.1.1-4.2 0-6.3.1-1.3.1-1.8-.5-1.9-1.8l-3.3-29-2.8-24.9c-.1-.7-.2-1.2.8-1 .4.1.9.1 1.3-.1 2-1.2 3.8-.7 5.8 0 2.4.8 4.9 1.4 7.4 1.8 1.1.3 1.4.5 1.3 1.5zm6.2 34.7h-.4c-.4 11.8-.5 23.5-.5 35.3 0 1.4-.2 2.1-1.8 1.9-2.3-.3-2.4-.1-2.3-2.6.5-16.6.5-33.1.4-49.7-.1-6.8 0-13.6 0-20.4 0-1.4.4-1.9 1.8-1.9 2.8 0 2.8-.1 2.8 2.8v34.6zm23 49.1c-.3.8-1.4.6-2.1.7h-.1c-7-.7-13.6-2.2-19.3-6.3-.8-.6-1.2-3.1-.4-3.6 1.4-1 2.6-2.2 3.8-3.4 1.4-1.2 1.5-.7 2.4.7 1.2 2.1-.2 2.3-1.3 3.1-.3.2-.7.4-1 .6-.4.3-.6.7-.3 1.1.1.1.3.2.5.3.2 0 .4 0 .5-.2 1.1-.6 2.1-1.3 3.1-1.9.4-.2.8-.6 1.1-.2s-.3.6-.5.8c-.4.4-.9.8-.5 1.4.4.5 1.1.2 1.5-.2 1.1-1 2.1-.7 3.2.1 2.6 1.8 5.3 3.4 7.9 5.2.8.5 1.8 1 1.5 1.8zm-11.5-12.2c-1.3 0-1.4-.4-1.3-1.5l1.9-18.6 3.2-30.6 1.8-22.8c.1-1.7.8-2 2.3-1.8l2.2.3c.1 1.6.1 3.1.2 4.7.9 21.3 1.2 42.7 3.1 63.9.2 2.5.5 5.1.8 7.6-4.8-.7-9.5-1.4-14.2-1.2zm5 50.5c-1 .3-2.4.8-2.9-.2-.5-.9.9-1.6 1.6-2.2 1.6-1.3 3.4-2.5 4.9-3.9 2-1.8 4.2-2 6.6-1.4 1.6.3 3.1.8 5.1 1.3-5.3 2.6-10.1 5-15.3 6.4zm25.7-31.7c-.3 6.1.2 12.2-.3 18.3 0 .5-.1 1.1-.4 1.6s-.7.9-1.2 1.1c-.5.3-1 .6-1.5 1-2.7 2-5.5 3-8.9 1.4-1.5-.5-3-.9-4.5-1.1l5.2-4.3c1.1-.9 2-2.1 2.6-3.4a9.9 9.9 0 0 0 .9-4.2l.2-7.3v-.6c.1-.2.1-.4.3-.6.1-.2.3-.3.5-.4s.4-.2.6-.2c1.9-.6 3.7-1.2 5.5-1.9.7-.3 1-.2 1 .6zm-10.6-2.9c-.7-.4-1.9.7-2.2-1-.3-1.2-.2-1.8 1.4-1.9 4.2-.2 8.3-.6 12.5-1.4.6-.1 1.6-.6 1.6.7 0 .9.2 1.8-1.2 2-4.2.5-8.1 1.3-12.1 1.6zm31.5 21c-6.2.1-12.4-.5-18.6-.2-.7 0-1-.2-1-1l.2-16.1c0-.9.2-1.9.3-2.8.1-.7.4-1.2 1.1-1.2 1.3-.1 1.4-1.1 1.5-2l2.4-35.2c.9-17.9 2.8-35.8 4.2-53.7l1.9-25.4c0-.7.1-1.4.2-2.1h.4l.5 11.7c.2 16.5 1.7 33 2.8 49.4l3.2 41.7h-.1c-2.2-.1-4.3.3-6.3 1.2-.5.1-.9.4-1.2.8s-.4.9-.4 1.3c0 .5.2.9.5 1.3.3.3.8.6 1.2.6.8.2 1.6.3 2.7.5-.6.5-1 .7-1.3 1-.5.4-.9.9-1.1 1.5s-.2 1.3 0 1.9c.4 1.3 1.6 1.6 2.8 1.8 1.1.1 2.3.2 3.5.2v.4c0 1 .2 2 1.5 2.2.5 0 .6.3.6.8-.1 6.5.7 12.9.6 19.4-.1 1.7-.7 2-2.1 2zm-4.3-27c-.4-.1-.7-.3-.6-.8s.3-.6.8-.5c1.1.2 2.2.3 3.3.3v1.4h-.1c-1.1-.2-2.2-.3-3.4-.4zm2.2-2.4c-.3 0-.5-.1-1.1-.2.8-.6 1.6-1.2 2.3-1.8 0 .7 0 1.4.1 2-.5.1-.9.1-1.3 0zm25.4 36.4c.3 0 .5.2.7.4l5.1 5c.3.2.5.6.6 1s0 .8-.1 1.1c-.2.3-.5.6-.9.7-.4.2-.8.2-1.2.1-4.1-.6-7.6-2.5-11.3-4.6 1.8-1.6 3.9-2.8 6.2-3.6.3-.1.6-.1.9-.1zm-9.7-9.9c2.3 2.7 5.1 5 7.6 7.7.2.3.7.5.7 1.1a20.6 20.6 0 0 0-6.1 3.5c-.4.3-.9.5-1.3.1-3.3-2.5-6.9-4.7-9.6-7.8-.5-.6-.9-1.3-.9-2.1a219.14 219.14 0 0 0-.9-19.9c-.1-1.4.3-1.9 1.7-1.7 1.8.2 3.6.2 5.5.2.8 0 1.2.2 1.1 1.1-.5 4 0 8 0 12-.2 2.1.6 4.2 2.2 5.8zm.7-20.8c-2.2.2-4.3.2-6.5.1l-5.7-.3c-.5 0-.8-.1-.9-.3-.2-.2-.3-.4-.3-.7 0-.4.1-.9.1-1.2 0-.5.1-.7.3-.7h.2c.3 0 .6.1.9.2 1.9.3 3.9.6 5.8.8 1.7.1 3.4.2 5.1.2h.8c.6 0 1.4-.2 1.4.9.1.9-.5.9-1.2 1zm3.2-20.4-.7 7.3c-.1 1.3-.3 2.7-.4 4-.1 0-.1 0-.2.1-.1.5-.1 1-.2 1.5.1 0 .2 0 .3-.1-.1.6-.1 1.2-.2 1.8-.1 0-.2.1-.3.1-.1.7-.3 1.5-.6 2.1h.1c.2 0 .4-.1.5-.1-.2.3-.4.4-.9.5h-1.4c-2.7 0-5.3-.2-7.9-.5-1.1-.1-2.1-.3-3.2-.4-.3 0-.5-.1-.7-.2-.5-.2-.7-.6-.7-1.3v-.1c0-1-.1-2.1-.1-3.1-.1-1.5-.1-2.9-.2-4.4-.1-1.2-.1-2.5-.2-3.7-.6-9.5-1.6-18.9-2.3-28.4-1.7-23.3-3.4-46.6-3.9-70-.2-8.7-.8-17.3-1.3-25.9-.1-1.5-.4-3-.7-4.4-.1-.4-.3-1.1-.9-1-.5.1-.3.8-.3 1.2.3 2.6.5 5.3.6 8 .2 6.4-.1 12.7-.8 19.1-1.1 9-1.6 18-2.3 27l-4.6 59.4c-.5 9.3-1 18.7-2 28-.1.7-.1 1.3-1 1.4l-10.7 1.2c-.8.1-1.7.2-2.5.2-1.4.1-1.9-.3-2.1-1.7-.1-1-.3-2.1-.4-3.1-.2-1.9-.5-3.8-.7-5.7-2.2-19.8-2.8-39.6-3.5-59.5l-.5-16.9v-2l-.8-25c-.1-1.7-.1-3.4-.2-5.1a584.88 584.88 0 0 0-.9-18.7c-.1-2.2-.1-4.4-.1-6.6 0-.9.2-1.2 1.2-1.1 3.4.3 6.8.3 10.3.3h1.8c.7 0 1.3 0 2-.1 1-.1 1.1-.4 1.1-1.3l-.1-19.8c0-1.1.3-1.3 1.4-1.1l5.9.9c1.1.2 2.3.3 3.4.5 2.1.3 4.3.4 6.4.4 4.4-.1 8.8-.8 13.1-2.3 1.1-.4 1.4-.1 1.6 1 .1 1 .2 2 .4 3 0 .4.1.8.1 1.2s.1.7.1 1.1l1.4 11.4c.3 2.6 1.8 4 4.4 3.8 4.4-.3 8.7.5 13.1-.1 1-.2.6.7.6 1.2l-.5 21.1v7.7c-.4 9.7-1.1 19.4-1.9 29.1 0 .4-.1.7-.1 1.1l-1.4 15.2-3.1 32.2-.9 9c-.1.5-.1 1-.2 1.5 0 .3-.1.6-.1.9-.1.6-.1 1.1-.2 1.7-.1.8-.2 1.5-.2 2.3-.4 1.1-.5 2.6-.7 4.2zm13.2 10.7c-1.6.5-3.2 1.1-4.9 1.5-2.6.7-5.3 1.3-8 1.9.1-.7.1-1.3.2-2 4.1-1.2 8.1-2.6 12.1-3.8.4-.1 1.2-1.1 1.5.1.3 1 .2 2-.9 2.3zm1.2-8.4c-.1 1.4.2 2.9-.4 4.1s-2.3.8-3.5 1.2c-3.3 1-6.6 2.1-9.9 3.2l1.2-12.5c.2-.2.4-.4.6-.5 2.1-1.7 3.4-1.3 4.3 1.3.3 1.1.5 2.3.5 3.4 0 1.9.7 2.3 2.3 1.4 1.2-.7 2.5-1.4 3.7-2.2.8-.6 1.4-.8 1.2.6zm.3-3.9c0 .1 0 .3-.1.3-1.8 1-3.6 2.1-5.4 3-.5.2-.5-.5-.5-.9-.1-1.3-.5-2.5-1.1-3.6-1.3-2.3-3-2.8-5.4-1.6-.1.1-.2.1-.3.2l.3-3c.4 0 .8.1 1.4.1 3.4.6 6.8.9 10.3 1 .8 0 1 .3 1 1 0 1.2-.1 2.3-.2 3.5zm-.5-5.9h-2v.1l-9.7-1c0-.4.1-.7.1-1.1 3.9.5 7.8.7 11.7.8.4 0 .8-.1.8.5s-.4.7-.9.7zm-.4-2.6c-3.7-.1-7.4-.3-11.1-.7l3-28.5 1.2-12.7c3.1.4 6.3.6 9.5.5 1-.1 1 .5 1 1.2l-1.2 25.4-.8 13.3c-.1 1.1-.4 1.5-1.6 1.5zm24.4 16.2c-6.8-.3-13.6-.5-20.5-.3-1.3 0-1.7-.2-1.6-1.6 1.2-17.8 2.7-35.7 3-53.6 0-2.6.1-2.6 2.6-2.7 1.2 0 1.5-.5 1.8-1.7 1-4.7 1.5-9.5 1.6-14.3.2-4.8 1.3-9.5 1.5-14.3.2-5.8.6-11.7 1-17.5 0-.7.2-1.4.2-2.1a108.05 108.05 0 0 1 1.2 16.1c-.3 10.5.6 21.1 2.6 31.4.5 2.5.5 2.7 3.1 2.7 1.6 0 1.9.6 2 2.1.7 10 1.2 20 1.4 30.1.2 8.2.7 16.3 1.2 24.4.2 1 .2 1.3-1.1 1.3zm5.2-14.5h1.3c2.3 0 4.6-.2 6.8-.7.6-.1 1.2-.3 1 .6-.2.6.7 1.8-.7 1.9-1.6 0-3.1.6-4.3 1.5-1.2 1-2.1 2.3-2.5 3.8-.4 1.2-.7 1-1.8.7-2.7-.9-2.7-2.9-2.7-5.1.2-2.7.1-2.7 2.9-2.7zm-3-1.9c0-.9.6-.8 1.1-.8 3.4-.1 6.8-.4 10.1-.9.4-.1 1-.5 1.2.3.1.7-.3 1-1 1.1-2 .5-4 .7-6 .8h-4.3c-.4.2-1 .3-1.1-.5zm28.4 29c.1.6-.4.7-.8.8s-.8.1-1.2.1c-2-.1-3.9-.4-5.8-.9-6.5-1.7-12.7-4.5-18.3-8.1-.4-.2-.7-.5-1.1-.8s-1.2-.7-.8-1.3c.5-.7.9.1 1.3.4 6.7 4.2 13.6 8.1 21.6 9.5 1.3.3 2.7.4 4.1.2.4-.1.9-.5 1 .1zm-8.9-12c2.5 2.7 5.4 5.1 7.6 8.3.4.5 1.1 1.1.8 1.7-.4.8-1.4.6-2.1.5-5.5-.5-10.8-2.2-15.6-5-2.7-1.5-5.4-3.2-8.1-4.8-.4-.2-.6-.4-.9-.7-.2-.3-.3-.7-.3-1.1-.1-1.7-.2-3.5-.4-5.5a72.45 72.45 0 0 1 3 1.6c1.4.7 2 .4 2.3-1.1a9.58 9.58 0 0 1 1.2-3.2c.7-1 1.5-1.8 2.5-2.3s2-.5 2.2.7c1.2 4.8 4.7 7.7 7.8 10.9zm-3.2-59.8c-1.2 9.6-2.1 19.2-2.8 28.8l-.7 9.4c-.1 1-.3 1.4-1.4 1.5-3.3.4-6.7.9-10 1-1.1 0-1.5-.2-1.4-1.4s0-2.3 0-3.4c-.6-10.5-.7-21-1.9-31.5-.1-.4 0-.9-.1-1.3-.3-1.6.5-2 1.9-2 5.1.1 10.1-.7 14.9-2.4 1.4-.4 1.7-.2 1.5 1.3zm16.3-86.2c.4.6.6.8.1 1.6-2.5 3.8-4.7 7.8-7.1 11.7-.3.5-.5 1-.5 1.6-.1.6 0 1.1.2 1.7.4 1.5.7 3 .7 4.6.9 12.5.8 25-.2 37.5-.2 2-.2 4 0 5.9.1.8.1 1.3-1 1.2-.5 0-1.1.1-1.6.4-9.9 3.4-20.2 5.4-30.6 6-1.1.1-1.5-.2-1.6-1.4-.3-4.2-.7-8.4-.6-12.6.2-12-1.6-23.9-1.8-35.8-.1-5.1.2-10.2.2-15.4 0-1.1.7-1.2 1.5-1.4l7.8-1.6c.9-.2 2.5-.4 2.2-1.5s-1.7-.3-2.6-.1c-2.9.5-5.7 1.3-8.6 1.7-.4 0-.8.2-1.2.5-.3.3-.5.7-.5 1.2-.2 1.4-.3 2.8-.3 4.3-.1 9.2-1 18.3-1.6 27.4l-1.5 23.1c-.3 3.3-.9 6.6-1.2 9.8-.1 1-.7 1-1.4 1a76.31 76.31 0 0 1-13.5-.6c1.4-20.1 2.3-40.3 2.4-60.4 0-1.8.5-2.4 2.1-2.8 2.7-.7 2.6-.8 1.8-3.4-.1-.3-.1-.5-.1-.8a58.42 58.42 0 0 0-1.8-8.3l-.9-3.7c10.8 1.7 21.6.7 32.3-.2 4.5-.4 9.1-1.1 13.5-2.1 1-.1 2.1-.5 3-1 1.7-1.1 2.5-.4 3.6 1 3.2 3.5 6.1 7.1 8.8 10.9zm6.2-43.8.3 3.7c0 6.2-1.8 11.4-3.6 16.6-1.7 4.9-4.2 9.5-5.6 14.5-.3 1-.8 1.2-1.6.3l-3-3.3c-.3-.3-.5-.7-.6-1.1a1.64 1.64 0 0 1 .2-1.2c2.2-5.7 4.4-11.3 5.4-17.3 1.7-9.8.7-19.8-2.8-29.1-.5-1.6-.3-2.1 1.4-2.3 1.8-.3 3.7-.7 5.5-1.2.9-.2 1.3-.2 1.4.9.7 6.5 2.4 12.9 3 19.5zm-11.2-20.7c-.9.2-1.1-.1-1.4-.9-1.4-3.4-2.7-6.9-4.3-10.2-.9-1.8-1.1-3.8-.8-5.7.2-1 .2-2.1 0-3.2-1.3.5-1 1.8-1.7 2.8-.4-1-.8-1.9-1.3-2.8-.2-.3-.4-.7-.9-.6-.5.2-.4.7-.3 1 .1.5.3 1 .5 1.6 2.4 7.1 5.7 13.8 7.9 20.9 2.4 7.5 4.2 15 3.8 23-.3 6.2-2.1 12.1-4.1 17.8-.3.6-.4 1.1-.6 1.7-.5 4.1-3.4 5.5-6.9 6.2-4.4.9-8.7 1.9-13.2 2.1-6 .2-12 1.2-18 1.2a129.33 129.33 0 0 1-8.8-.3c.4-.4.8-.9 1.3-1.5 4.8-5.7 8.9-11.9 13.3-17.9 3.2-4.4 5.8-9.2 7.7-14.3.8-1.9 1.1-4 .8-6s-1.2-4-2.5-5.5c-1.9-2.4-4-4.6-6.3-6.6-2.6-2.2-5.3-4.3-7.8-6.6-5.4-5-10.6-10.2-15.8-15.4-4.7-4.8-9.9-8.8-16.4-10.8 3-5.2 6.7-9.8 12.7-12.4 1.9-.9 3.7-2 5.5-3.1 0 .4-.1.7-.2 1.1-1.5 4.8-.4 9.4 1.7 13.8 1 2.2 2 2.4 3.7.5 1.6-1.9 3.2-4 5-5.7.8-.8 1.5-1.5 2.7-1.3.4 0 1-.1 1-.6 0-.6-.6-.7-1-.7-.6-.1-1.2-.1-1.7 0-.6.2-1.1.5-1.5.9-2 1.8-3.8 3.8-5.4 6-.8 1-1 .8-1.6-.2-2.4-4.6-2-9.4-1-14.2.1-.7.4-.9 1-.3 2.9 2.7 6.5 4.3 9.8 6.3.4.3.9.6 1.4.9 5.3 2.8 5.3 7.9 5.6 12.8.2 3 .3 6.1.4 9.1 0 .4 0 .9.1 1.3.1.8-.1 1.9.9 1.9.9 0 .7-1.2.7-1.9 0-5.6-.4-11.2-1.1-16.8-.1-.9-.3-1.8-.8-2.7-.4-.8-1-1.5-1.8-2.1-1-.7-.7-1.1.1-1.8l10.2-8.4c.9-.8 1.7-1.7 2.6-2.6.5-.4.6-1.5 1.4-1.1.4.2.8.5 1.1.9s.4.9.4 1.3c.1 2.7-.2 5.4-.8 8-.7 2.8-1.5 5.6-2.4 8.7a25.48 25.48 0 0 0-6.1-5.2c-1.3-.8-2.7-1.2-4.2-1.1-.5 0-1.1.1-1.1.7 0 .5.5.7 1 .7 3.4.2 5.7 2.5 7.9 4.7.7.6 1.4 1.2 2.1 1.9 1.5 1.4 1.7.4 2.1-.8 1.4-3.8 2.5-7.7 3.2-11.6.2-1.5.3-3 .4-4.5 9.8 4.2 17.2 11.2 23.1 19.8 5.1 7.4 7.8 15.9 10.6 24.3.3.8-.1 1.1-.8 1.3-3.6.4-7.3 1.3-11.1 2.2z"/><path d="M474 84c.5-.1 1-.1 1.4 0 .5.1.9.4 1.2.8 3.5 3.7 7 3.3 9.7-1 .1-.1.2-.3.3-.4a2.73 2.73 0 0 1 .9-1.2c.4-.3.9-.4 1.5-.4 1.1 0 2.3-.4 2.4-1.8s-1.1-1.8-2.2-2.1a23.06 23.06 0 0 0-5.2-.6c-.9 0-1.2-.2-.8-1.2.2-.4.3-.9.3-1.4s-.2-1-.5-1.4c-.8.7-.7 1.6-1.1 2.3a3.53 3.53 0 0 1-1.5 1.7c-.7.4-1.5.5-2.2.4-1.8-.5-1.5-1.9-1.4-3.2.3-2 .9-4 1.6-5.9.2-.6.4-1.3.5-1.9.1-.2 0-.3 0-.5-.1-.2-.2-.3-.4-.3-.4-.1-.6.2-.7.5-.9 2.9-2.5 5.6-2.4 8.7.1 2.1-.4 3.4-2.4 4.1-.5.2-.8.5-1.1 1-.8 1-2.3 1.9-1.5 3.3s2.3.8 3.6.5zm4.9.5h4.8c-1.4 1.7-2.6 1.7-4.8 0zm6.1-2.6c.8.1.5.6.1.9-.4.2-.8.3-1.2.4-2.1.4-4.3.4-6.4.1 2.2-2.6 4.9-1.9 7.5-1.4zm6.7-21c.2-1-.6-1.4-1.3-1.7-2.4-1.1-5-1.8-7.7-2h-1c-.6 0-1.1.1-1.3.7v.4a.76.76 0 0 0 .2.4l.3.3c.1.1.3.1.4.1 2.8.9 5.5 2.1 8.5 2.5.8.1 1.7.2 1.9-.7zm-16-.8c.1-.3.1-.7-.1-1-.2-.6-.8-.6-1.6-.6-2.4.5-4.7 1.6-6.7 3.1-.3.2-.5.4-.5.7-.1.3-.1.6.1.9.1.3.4.5.7.6s.6.1.9 0c2.4-.6 4.7-1.5 6.7-2.9.2-.2.4-.5.5-.8zm8.5 6.6c.7-.5 1.5-.9 2.4-1s1.8.1 2.5.5c.1 0 .2.1.2.1h.2c.1 0 .2-.1.2-.1l.2-.2c.2-.4-.1-.7-.3-.8-.8-.5-1.7-.9-2.7-.9-1.2.1-2.4.5-3.4 1.3-.3.3-.8.4-.5 1 .3.5.9.3 1.2.1zM470.1 68c.1 0 .2.1.2.1.1 0 .2 0 .2-.1.1 0 .1-.1.2-.2 1.1-1.3 2.4-1 3.7-.4.3.2.7.4 1-.1s-.1-.8-.5-1.1c-.8-.5-1.7-.8-2.6-.7-.5 0-1 .1-1.5.3s-.8.6-1.1 1c-.1.1-.2.3-.2.5s.1.3.2.5c.3.1.4.2.4.2zm12.2 39.9c-.9-.1-1.4.9-1.4 1.7v.7l.3.6c.1.2.3.3.5.5.2.1.4.2.7.2 1.3.1 1.6-.9 1.7-1.7.2-1.7-.9-1.9-1.8-2zm9.3 108.5c-.3-.3-.9-.5-1.2-.1s.1.7.3 1l.6.6c3.1 2.8 6.3 5.4 9.8 7.8.8.7 1.8 1.2 2.8 1.4.2-.4.1-.5 0-.7l-12.3-10zM479 235.3c-2.8 3.5-5.6 7-7.6 11.5 2.7-1.7 7.9-9.5 7.6-11.5zm31.6-32.5c0 .1-.1.1-.1.2v.2c0 .1.1.2.1.2l.2.2h.4a.76.76 0 0 0 .4-.2c1.9-1.8 3.3-4.1 4.1-6.6-2.6 1.4-3.8 3.7-5.1 6zm-151.3 1.1c-.1.2-.2.5-.2.8l-.7 4.9-3.5 30.1a215.41 215.41 0 0 0-1.5 19.6c0 .5-.2 1.3.5 1.4.7 0 .7-.7.7-1.3l.5-6.8c1-13.9 3-27.6 4.3-41.5.4-2.6.5-5.2.5-7.9-.3.3-.5.5-.6.7zm14.1 18.8c.1.8.1 2.1 1 2s.4-1.4.4-2.2l-1.9-21.5c-.1-1.2.2-2.4-.5-3.5-.7.5-.5 1.2-.5 1.9 0 2.7.1 5.4.4 8.1.4 5 .3 10.1 1.1 15.2zm-.6-58.6c-.8 1.6 4.4 24.8 5.7 26.1-.9-8.9-2.9-17.6-5.7-26.1zm3.7 86.3c-.7 0-.6.7-.6 1.1l.6 9.6c0 .6 0 1.5.8 1.4s.5-.9.6-1.5l-.9-9.5c0-.5.2-1.1-.5-1.1zm-6.6-178.2a7.64 7.64 0 0 0 3.3.8c1.7 0 3.3-.6 4.5-1.7.2-.2.5-.5.3-.9s-.6-.2-.9-.1c-1 .7-2.2 1.1-3.4 1.2s-2.4 0-3.5-.5c-.1-.1-.3-.1-.5-.1s-.3.1-.4.3c-.1.6.3.9.6 1zm-2.2-13.3c1 0 .7-.9.8-1.5-.1-.5 0-1.2-.7-1.1s-.9.8-1 1.4c.1.5.3 1.2.9 1.2zm10.3-2.3c-.5 0-.5.6-.5 1.1s0 1.1.7 1c.5-.1.5-.6.5-1.1-.1-.4 0-1.1-.7-1zm24.2 222.2v-3.5c0-.4-.1-.8-.1-1.2-.1-.5-.1-.9-.2-1.4-.1-.4-.4-.7-.8-.7-.1 0-.2 0-.3.1-.1 0-.2.1-.2.2-.1.1-.1.2-.2.2v.3c0 .5-.1 1-.1 1.5v1.9a13.33 13.33 0 0 0 .3 2.8c.1.5.2.9.9.8s.7-.4.7-1zm-1.8-52.4v-2.3c-.1-1.3-.3-2.5-.5-3.7-.1-.4-.3-.8-.9-.8s-.6.5-.6 1l.3 5.9c0 .6.3 1.2 1 1.1.6-.1.7-.7.7-1.2zm.6 40.6c.5 0 .8-.4.8-.9.2-2.2.1-4.4-.1-6.6 0-.5-.2-.9-.8-.9s-.7.5-.7 1v3.2h-.2c0 1.1.1 2.2.2 3.3 0 .4.2.9.8.9zm-1-27.1c.6 0 .8-.5.8-1.1v-5.7c0-.5-.2-.9-.8-.9-.2 0-.4.1-.5.2s-.2.3-.2.5c-.3 2-.4 4-.1 5.9.1.7.2 1.1.8 1.1zm.5 13.7c.2 0 .3-.1.4-.3.1-.1.2-.3.2-.5l.2-2.9-.3-3.1c0-.1 0-.2-.1-.3 0-.1-.1-.2-.2-.3s-.2-.1-.3-.2h-.3c-.2 0-.3.1-.4.2s-.2.3-.2.5c-.1 1.3-.1 2.7 0 4l.2 2.1c.1.3.2.7.6.7.1.1.2.1.2.1zm1.7 52.2c.1.1.3.2.5.2.5 0 .6-.5.6-.8V303l-.3-3.2c0-.2-.1-.4-.2-.5s-.3-.2-.5-.3h-.3c-.1 0-.2.1-.2.1l-.2.2c0 .1-.1.2-.1.3-.2 1.9 0 3.9.5 5.7 0 .3 0 .4.2.5zm2.2 33.3c.1-.1.2-.3.2-.5a18.08 18.08 0 0 0-.3-5.7c0-.1 0-.2-.1-.3 0-.1-.1-.2-.2-.2-.1-.1-.2-.1-.3-.1h-.3c-.1 0-.2 0-.3.1-.1 0-.2.1-.2.2-.1.1-.1.2-.1.3v2.8a16.28 16.28 0 0 0 .3 3.1c.1.4.4.7.8.7.2-.2.4-.3.5-.4zm-2.5-46.3c.6 0 .8-.5.8-1 .1-1.9 0-3.7-.2-5.6-.1-.5-.1-1-.7-1s-.6.5-.6 1v2.6l-.1.1.1 3c0 .4.1.9.7.9zm1.2 23.9c.7-.1.7-.8.7-1.3v-.7h.1l-.6-3.6c-.1-.5-.5-.9-1-.7-.4.1-.5.6-.5 1l.4 4.3c.1.4.3 1.1.9 1zm51.2 18.6a.55.55 0 0 0-.5-.3c-.1 0-.3 0-.4.1s-.2.2-.2.4c-.4 1.8-.5 3.6-.3 5.4 0 .2.1.3.2.5a.76.76 0 0 0 .4.2c.5 0 .7-.3.8-.7 0-.3.1-.6.1-1 0-.5.1-1.1.1-1.5.1-.9.1-1.9 0-2.8-.1-.1-.2-.2-.2-.3zm5.5-70.9a.55.55 0 0 0 .5-.3c.1-.1.2-.3.2-.5l.3-3.4v-1.4c0-.5 0-.9-.6-1s-.8.4-.9.8a20.71 20.71 0 0 0-.3 5c.2.3.3.8.8.8zm-4.7 60c-.5-.1-.6.2-.7.6-.1.3-.1.5-.1.8l-.6 4.8c0 .5 0 .9.6 1 .6.1.7-.5.7-.9l.5-4.7c0-.5.4-1.5-.4-1.6zm3.8-39.5c.6 0 .7-.6.7-1.1l.3-3.4v-.9c0-.4 0-1-.6-1s-.7.5-.7 1c-.3 1.4-.5 2.8-.5 4.3 0 .4.2 1.1.8 1.1zm2.2-58.2c.6.1.7-.4.8-.9.2-1.1.3-2.3.4-3.4.1-.4.1-.9.1-1.3s.1-.9-.5-1c-.5-.1-.8.4-.8.8l-.5 4.8c-.1.4 0 .9.5 1zm-2 47.6h.3c.1 0 .2-.1.3-.1l.2-.2c0-.1.1-.2.1-.3.2-1 .3-2 .4-3h-.1v-2c0-.2-.1-.3-.2-.5a.76.76 0 0 0-.4-.2h-.2c-.1 0-.2.1-.2.1-.1.1-.1.1-.1.2s-.1.2-.1.2l-.3 5a.9.9 0 0 0 .1.5c-.1.1.1.2.2.3zm-52.6 82.6c-.1-.4-.1-.8-.2-1.2-.1-.5-.4-1-1-.9-.5.1-.6.6-.6 1 0 .6 0 1.3.1 1.9l.4 1.9c.1.5.4 1 1 .9.7-.1.6-.7.6-1.3l-.3-2.3zm54-120.6c.7.1.8-.5.9-1l.4-3v-1.1c0-.5 0-1.3-.6-1.4-.8-.1-.8.7-.8 1.3l-.4 3.9c-.1.6-.1 1.3.5 1.3zm.7 3.1c-.1-.1-.2-.2-.3-.2-.4-.1-.6.2-.7.6-.2 1.6-.2 3.2 0 4.8 0 .2.1.3.2.5a.76.76 0 0 0 .4.2c.2 0 .3-.1.4-.2a.76.76 0 0 0 .2-.4c.1-.8.1-1.5.1-2.3-.1-.9-.1-1.7-.3-2.5.1-.3 0-.4 0-.5zm-4.2 63.9c.6 0 .7-.5.8-1l.2-2.5c0-.5.1-1.1.1-1.7 0-.4.2-.8-.4-1s-.8.4-.9.8c-.3 1.4-.5 2.8-.5 4.3 0 .7.2 1.1.7 1.1zM403.9 327v-2.1h.1l-.2-2.5c0-.2-.1-.3-.2-.5a1.38 1.38 0 0 0-.4-.3c-.1 0-.3 0-.4.1s-.2.2-.2.3c-.4 1.7-.4 3.4 0 5 0 .2.1.3.3.4.1.1.3.1.5.1.3.1.5-.2.5-.5zm52.5-6.7c0-.1 0-.1 0 0 .2-1.5.2-3 0-4.4 0-.2-.1-.4-.2-.5s-.2-.2-.4-.2c-.4 0-.6.4-.6.7l-.2 2v2.2c0 .4.2.9.6 1 .6-.1.7-.5.8-.8zm-.6-7.9c.1 0 .3 0 .4-.1.4-.2.4-.7.5-1.1.2-.9.3-1.8.4-2.7v-.9c0-.5.1-1-.5-1.1-.3 0-.5.1-.6.3s-.2.5-.2.8l-.6 3.4c-.1.5-.1 1.3.6 1.4zm2.4-18.1c.5.1.7-.5.8-.9l.2-2v-.3c0-.6-.1-1.3-.1-1.9 0-.4-.2-.8-.6-.8-.5 0-.7.4-.7.8 0 .6-.1 1.3-.1 1.9v2.4c0 .3 0 .8.5.8zm-53 54.8c.1-.1.1-.3.1-.5 0-.9-.1-1.9-.2-2.8-.2-.8.1-2.1-1.1-1.9-.9.1-.3 1.3-.5 2.1l.4 2.7c0 .1 0 .2.1.3 0 .1.1.2.2.2.1.1.2.1.3.1h.3a.76.76 0 0 0 .4-.2zm54.9-95.2c.6.1.7-.4.8-.9l.3-2.7c-.1-.5.4-1.5-.6-1.6-.8-.1-.7.9-.8 1.4-.2.9-.3 1.7-.4 2.6 0 .6.1 1.2.7 1.2zm-7.5 96.3c1.2 0 .4-1.5.7-2.3-.2-.5.1-1.4 0-1.9 0-.3-.2-.6-.7-.6-.7 0-.8.8-.8 1.6v.9c0 .9-.4 2.4.8 2.3zm.3 2.8c-.6 0-.7.6-.8 1.1l-.2 2c0 .4-.1.7-.1 1.1v.3c.1.3.3.6.7.5.5 0 .6-.5.6-.8v-.1c0-.5.1-1 .1-1.5s.1-1 .1-1.6c.1-.2.3-1-.4-1zM433.2 93.8c-2.5-.9-5.3-.9-7.7-2.3-.4-.3-.9-.8-1.5-.3l-.1.1a1.08 1.08 0 0 0-.3.7c-.1.3 0 .7.1 1 .4 1.2 1 2.2 1.9 2.8s2 .9 3.4.9c1.6-.1 3.1-.6 4.3-1.6.7-.4 1.2-.8-.1-1.3zm-8.2-1.2c1.8 1 3.8 1 4.9 2.6-2.2.9-4 .1-4.9-2.6zm7.6-3.4c2.4-.1 3.2-1.2 2.3-3.2-.6-1.2-.9-2.5-.9-3.9s.3-2.7.9-3.9c.2-.3.4-.7 0-1s-.7.1-1 .4c-.3.4-.5.8-.7 1.3-.5 1.1-.8 2.3-.7 3.5 0 1.2.4 2.4 1 3.5.5 1.1.5 1.9-1 2-.4 0-1.1.1-1 .8.1.5.7.5 1.1.5zm-8.9-14c1.9-1 3.9-1.7 6.1-2 .5-.1 1.3-.1 1.2-.8s-.9-.6-1.6-.6c-2.3.2-4.5 1-6.4 2.2-.5.3-1.1.6-.8 1.2s1 .2 1.5 0zm1.4 4.8c.8-.3 1.7-1.1 1.8.7 0 .1 0 .3.1.4s.1.2.2.3.2.2.4.2h.4c.7-.1 1-.6 1-1.3.1-1.1-.9-1.9-2.5-1.9-.8 0-1.6.3-2.2.8s-1.9 1.2-1.5 1.7c.6.8 1.3-.4 2-.8.1 0 .2-.1.3-.1zm9.4.8c.3.5.7-.1 1.1-.2.9-.4 2-1.5 1.9.8-.1.8.6 1.3 1.5 1.1.6-.1 1.1-.3 1-1-.1-.5-.2-.9-.5-1.3s-.7-.7-1.1-.8a3.21 3.21 0 0 0-1.7-.2c-.6.1-1.1.3-1.6.7-.3.1-.9.3-.6.9zM242.7 37.5c-3 1.9-6 2.7-9.3.6-.3-.2-.8-.3-1 .2s.2.8.5 1.1c2.2 2.1 7.7 1.9 9.8-.4a3.04 3.04 0 0 0 .5-.7c.1-.3.1-.6.1-.9-.2 0-.4 0-.6.1zm-.6-11.3c.8 0 1-.7 1-1.5-.2-.5 0-1.4-.9-1.4s-.8.9-.9 1.5c0 .5 0 1.4.8 1.4zm-10.5-2c-.7.1-.8.5-.8 1 .1.7.1 1.6 1.1 1.6.7 0 .7-.7.7-1.2-.1-.7 0-1.5-1-1.4zm-109 107.6c5.5 1.1 12.3 0 13.6-8.5a88.79 88.79 0 0 0 .9-14.6c0-1.1-.7-1-1.4-1.1-2.9-.2-5.9-.3-8.8-.2-3.6 0-6.6.1-9.6 0-1.3 0-1.9.4-2 1.8-.2 4.8-.2 9.7.2 14.5.2 4.5 2.6 7.2 7.1 8.1zm12.7-16.7c-.1 2.9-.5 5.7-1.1 8.5-1.1 4.7-2.9 6.4-7.8 6.7-5.9.4-9.2-2.1-9.4-8.1v-3.6h-.1v-3.9c0-1 .4-1.4 1.4-1.3 5.3.8 10.6.5 15.9.4.9 0 1.2.3 1.1 1.3zm-18.5-4.8c-.1-.8-.2-1.5 1.1-1.5h8.6c2.3-.1 5 0 7.6 0 1.9 0 1.1 1.2 1.3 2.2.1 1-.1 1.6-1.4 1.6-5.5 0-10.9.1-16.3-.5-1.4 0-.8-1-.9-1.8zM87.6 168c.4.1.9.6 1.2.1.3-.7-.5-.8-.8-1-6.2-3.1-12-6.6-16.4-12.1-.3-.4-.7-.7-1.2-.7-.6.1-.6.6 0 1.4 4.3 5.8 10.3 10.1 17.2 12.3zM97.9 46.6c1.9-1.3 4.2-2.1 5.9-3.9a.55.55 0 0 0 .3-.5c0-.2 0-.4-.1-.6a.78.78 0 0 0-.4-.4c-.2-.1-.4-.1-.6 0-2.3.7-4.3 2.2-5.7 4.1-.4.6-.4 1.2.6 1.3zm6.1 19.2c1.7 2.6 7.9 2.2 9.6-.6-1 0-1.9.2-2.9.5-2.1.4-4.1.6-5.9-1.1-.2-.3-.5-.6-1-.1-.4.4-.1.9.2 1.3zm.1-14.3c0-.8-.2-1.7-1.1-1.8-1-.1-.8 1-1 1.6.1.8.1 1.7 1.2 1.7.8 0 .9-.7.9-1.5zm8.4-2.2c-1.1 0-.8 1.1-.8 1.6 0 .6-.2 1.3.8 1.3.9 0 .9-.8.9-1.6-.1-.4.2-1.3-.9-1.3zM16.2 307.6c-.9-.1-.8.8-1 1.4-.2.8-.3 1.6-.4 2.4 0 .6-.2 1.4.6 1.5s.9-.7 1-1.2l.3-2.4c-.1-.6.3-1.5-.5-1.7zM15 316c-1 .1-.6 1.4-.7 2.3.2.9-.3 2.6.9 2.6 1.4 0 .8-1.8.8-2.7s.2-2.3-1-2.2zm2-16.8c-.7-.2-.9.7-1 1.2-.2.9-.3 1.7-.4 2.6 0 .5 0 1.2.7 1.2s.8-.5.8-1l.2-2.7c.1-.4.5-1.2-.3-1.3zm1-6.9h-.3c-.1 0-.2 0-.3.1s-.2.1-.2.2c-.1.1-.1.2-.1.3l-.5 2.5c.1.7 0 1.4.7 1.4.5 0 .7-.6.7-1.1l.3-2.6c.1-.4 0-.7-.3-.8zm294.7-103.7c.3.7 1.1.2 1.6.1 2-.6 3.8-1.5 5.6-2.4 4.9-2.5 9.3-6 13.3-9.9.6-.6 1.1-1.3 1.6-2l-.3-.3c-1.1.7-2.1 1.4-3 2.1-3.7 3.1-7.4 6.1-11.5 8.4-1.9 1.1-4 2-6.2 2.8-.6.2-1.4.5-1.1 1.2zm-33-6.5c.3.3.6.6.9 1 1 1 2.2 2 3.4 3 4.5 3.5 9.8 6.3 12 5.6-4.2-2.3-8.4-4.5-12.1-7.3-1.3-1-2.6-2-3.8-3.2l-.3-.3c-.6-.6-1.2-1.2-1.8-1.9-.3-.4-.7-.8-1-1.2.1.6.4 1.3.9 2 .5.8 1.1 1.6 1.8 2.3zm17.1-138.5c0 .1-.1.2-.2.3-.5-.5-1.2-.8-1.9-.9s-1.4-.1-2.1.1c-.6.1-1.7.3-1.5 1.2.2.8 1 .1 1.6 0 .3 0 .5-.1.8-.1 2.4-.2 3.1.6 2.9 2.9a21.98 21.98 0 0 1-.6 3.7c-.3 1.2-.5 2.5-.4 3.8 0 .2 0 .5.1.7s.2.4.4.6.4.3.6.4.5.1.7.1c1.8 0 4.1-2.7 4.1-4.7-.7.2-1.1.7-1.5 1.2l-1.5 1.5c-.3.3-.6.7-1.1.5s-.3-.8-.3-1.2l.5-3.6c.4-3.5 1.5-7-.1-10.5-.3-.6-.5-1.1-1.2-1.2-2-.3-4.1 0-5.9 1-.4.2-.9.5-.7 1.2.3.7.8.5 1.4.3s1.2-.5 1.9-.6c3.5-.8 4.2-.2 4 3.3zm7.5 13.3c-1.4 1.2-3.2 1.9-5 2.1s-3.7-.1-5.3-1c-.2-.1-.4-.2-.6-.2-.4-.1-1-.2-1.1.3-.2.5.3.6.7.8 1.7.9 3.6 1.5 5.5 1.6 2.4-.1 4.7-.9 6.6-2.3.7-.5 2.1-1.1 1.5-2-.7-.9-1.6.2-2.3.7zm-1.7-20.2c1-.4 2.2-.6 3.3-.4s2.2.7 3 1.5c.4.3.8.7 1.3.2s.2-1-.2-1.4c-1.3-1.3-3-2.1-4.9-2.1-1.1 0-2.2.2-3.1.8-.4.2-.9.6-.7 1.1.3.5.9.4 1.3.3zm5.4 6.6a5.29 5.29 0 0 0-3-.9c-1 0-2.1.3-2.9 1a1.38 1.38 0 0 0-.3.4v.5l.1.1.1.1h.2c.1 0 .1 0 .2-.1 1.7-1 3.4-.6 5 .1.1 0 .2.1.2.1h.2c.1 0 .2-.1.2-.1l.2-.2c.4-.5.2-.8-.2-1zM193.6 259.2c.4.1.8.1 1.1.2.6-.2 1.3-.2 1.3-.4.1-.8-.7-.6-1.1-.7-1.2-.4-2.5-.6-3.8-.9-1.5-.2-3-.5-4.4-.9-10.5-2.5-20.4-7.4-28.6-14.4-1-.8-1.9-1.6-2.9-2.3-.3-.2-.6-.4-1-.5h-.2c-.1 0-.2.1-.2.1-.1.1-.1.4-.1.4.4.5.8.9 1.3 1.3l8.6 6.7c3.1 2.3 6.5 4.3 10.1 5.8 4.6 2 9.4 3.6 14.4 4.7 1.8.4 3.7.6 5.5.9zm-23.4-15.1c.9.4 1.8.7 2.7 1 4.1 1 8.2 1.7 12.3 2 2.1.2 4.2.3 6.3.3l10-.7c1.2-.2 2.4-.5 3.6-1l.1-.2v-.2c-.3-.1-.5-.1-.8-.1l-7.9.4c-3.7.2-7.5.1-11.2-.1-3.1-.2-6.3-.6-9.4-1.1l-5.5-1c-.1 0-.3.1-.4.3 0 .1.1.4.2.4zm9.7-136c.2.1.3.1.5.2.5.1.9.3 1.4.4l5.1 1.4c2.7.6 5.4.8 8.2.7.2 0 .4-.1.6-.1.7-.1 1.3-.2 2-.4.2 0 .4-.3.5-.5-.2-.1-.3-.1-.5-.2h-3.5c-1.8 0-3.5-.2-5.2-.7-.1 0-.2 0-.2-.1l-.2-.2c0-.1-.1-.2-.1-.3v-.3c.2-.5.5-.9.8-1.4 2.5-4.4 4.3-9.2 5.1-14.1.7-4.2.9-8.4 1.3-12.7 0-.9 0-1.8-.1-2.6 0-.1 0-.2-.1-.2-.1-.1-.1-.1-.2-.1s-.2 0-.2.1c-.1.1-.1.1-.1.2-.2 1.7-.5 3.3-.7 5-.5 4.4-1.2 8.8-2.1 13.1a41.41 41.41 0 0 1-5.4 12.6c-.1.2-.3.3-.5.4s-.4 0-.6-.1c-.1 0-.2-.1-.3-.2s-.2-.2-.2-.3-.1-.2-.1-.3 0-.2.1-.3c.4-1.1.8-2.2 1.1-3.3 1.4-4.9 2.4-10 3-15.1l.8-7.4c.1-2.7-.3-5.3-1-7.9-.2-1-.5-1.9-.8-2.8-.3-.7-.5-1.4-.9-2l-.3-.6c-1.2-2.2-2.8-4.3-4.8-5.9-.4-.4-.8-1-1.6-.8-.4.1-.1.7.7 1.5.4.4.7.8 1.1 1.1 1.7 1.7 3.1 3.7 4.1 5.9.1.2.2.4.3.7.3.8.6 1.6.8 2.4l.6 2.8c0 .2 0 .3-.1.5-.1.1-.3.1-.4 0-.2-.1-.4-.3-.5-.5-.3-.3-.7-.7-1.1-1-.1-.1-.3-.2-.4-.3-1.3-1-2.7-1.9-4.1-2.6-1.2-.6-2.6-1-3.9-1s-2.7.2-4 .7c-1.9.6-3.6 1.4-5.3 2.5-.3.1-.6.2-.9.2 0-.3.1-.6.2-1 1-2.3 2.4-4.3 4.1-6.1.6-.6 1.2-1.3 1.8-2 .1-.1 0-.3-.1-.4h-.2c-1.8.9-3.4 2.3-4.5 4-2.5 3.5-4 7.6-4.2 11.8 0 .6 0 1.2-.1 1.8-.4 3.1-.4 6.2 0 9.2.5 3.7 2 7.2 4.4 10 1.6 2 3.7 3.6 6.1 4.5 1.5 1 3.1 1.5 4.8 2.1zm4-1c-.1.2-.6.5-.8.5-.4-.1-.8-.2-1.1-.3-.4-.1-.8-.3-1.3-.4-.2-.1-.4-.1-.6-.2-.1 0-.2-.1-.2-.1-.1 0-.1-.3-.1-.4s.1-.2.2-.2c.1-.1.2-.1.3-.2.3-.2.5-.4.8-.5.5-.4 1-.7 1.5-1.1a28.48 28.48 0 0 0 2.6-2.3c.1-.1.3-.1.4-.2.1.1.2.2.1.2-.3 1.8-.9 3.6-1.8 5.2zM168.1 98c-.6-1.1-1.1-2.2-1.5-3.4-.8-2.7-1.1-5.6-1.1-8.4l.5-7.6c0-.3.1-.5.2-.8.1-.2.3-.4.5-.6 2.4-2.1 5.3-3.6 8.3-4.5 1.6-.5 3.4-.4 4.9.2 2 .8 3.8 1.9 5.4 3.2.2.1.3.3.5.4.4.3.7.7 1.1 1 .3.3.6.7 1 1 .2.3.4.6.5.9s.2.7.1 1c-.1 2.8-.3 5.6-.8 8.4-.3 2-.6 4-1 6-.5 2.5-1.8 4.7-3.6 6.3-.1.1-.2.1-.3.2-.5.5-1.1.9-1.6 1.3-.2.2-.5.4-.7.6-.8.6-1.7 1.1-2.6 1.6-.4.3-1 .4-1.5.5-.5 0-1.1-.1-1.5-.3-.8-.4-1.5-.8-2.2-1.4-1.7-1.6-3.3-3.5-4.6-5.6zm-4.4 25.4c2.2 1.6 4.6 3 7.2 4a30.46 30.46 0 0 0 8.4 2.1c.7.1 1.3.2 2 .2.3 0 .5-.1.8-.1h.4c.5 0 .9-.1 1.4-.2a23.3 23.3 0 0 0 8.1-3l2.4-1.4.8-.5a9.13 9.13 0 0 0 1.3-.8l5.3-3.3c1.9-1.2 3.5-2.6 5.3-4v-.4h-.5l-1.3.8-8.6 5c-.4.2-.8.5-1.3.7-.3.2-.6.3-.8.5l-2.8 1.6c-1.8 1-3.7 1.8-5.6 2.5-.7.3-1.4.5-2.2.6l-1.8.3c-.4 0-.7.1-1.1.1-.6 0-1.2 0-1.7-.1-.4-.1-.8-.1-1.2-.2-3.3-.5-6.4-1.6-9.4-3l-3.9-2.2c-.5-.3-1.1-.5-1.7-.7-.1 0-.4.2-.4.2v.2c.2.5.5.8.9 1.1zm9.3-32.3c0 .5.2.9.4 1.3s.6.7 1 1c.4.2.9.4 1.3.4.5 0 .9-.1 1.3-.3.8-.4 1.4-1.1 1.8-1.9s.5-1.7.3-2.6c0-.1-.1-.1-.2-.2-.1 0-.1-.1-.2-.1s-.2 0-.2.1c-.1 0-.1.1-.1.2-.2.4-.3.8-.4 1.3-.2.5-.5 1-.9 1.3s-.9.6-1.4.6h-.5c-.2 0-.3-.1-.5-.2a.78.78 0 0 1-.4-.4c-.1-.2-.2-.3-.2-.5 0-.5 0-1.1.1-1.6.3-1.3.7-2.6 1.1-3.8.2-.8.5-1.5.6-2.3 0-.1-.1-.2-.1-.3-.1-.1-.2-.2-.3-.2s-.2 0-.3.1-.2.2-.2.3c-.5 1.2-.9 2.5-1.3 3.7l-.8 3.3h.2c-.1.2-.1.5-.1.8zm6.9 6.4 2.2-1.2h.1c.1-.1.1-.1.1-.2v-.2c0-.1-.1-.1-.1-.1-.1 0-.1-.1-.2-.1-.6.1-1.2.3-1.8.4-2.2.8-4.6 1.1-7 .6-.3-.1-.7 0-1 .1-.1 0-.2.1-.3.2s-.1.2-.2.3c0 .1.1.2.1.3.1.1.2.2.3.2 1 .2 2.1.2 2.8.3 1.7.1 3.4-.1 5-.6zm-.7-21.1c1.5.1 2.9.6 4.1 1.5.2.1.5.2.7.3s.7-.4.6-.7-.3-.6-.5-.9c-1.4-1.4-3.3-1.6-5.2-1.8l-.9.3c-.1.1-.3.3-.3.4 0 .2.2.5.3.6.5.2.9.3 1.2.3zm1.1 4.5c-.1.4-.2.9-.2 1.3 0 .3 0 .5.2.8.1.2.3.4.6.5.4.2 1-.5 1.1-1.2v-1.1c0-.7-.3-1.2-.8-1.1-.5 0-.7.4-.9.8zm-8.2 1.4c0-.4 0-.9-.2-1.3-.1-.1-.1-.2-.2-.3s-.2-.1-.3-.1-.2.1-.3.1c-.1.1-.2.1-.3.2-.2.4-.3.8-.4 1.2l.3 1.3c.1.2.4.3.6.3.1 0 .2 0 .2-.1.1 0 .1-.1.2-.2.3-.2.4-.6.4-1.1z"/></g></svg>