<svg width="258" height="150" viewBox="0 0 258 150" fill="none" xmlns="http://www.w3.org/2000/svg"><g clip-path="url(#a)"><path d="M134.725 104.729v-2.257c.215-.112.117-.317.112-.488-.009-.872.075-1.743.25-2.599a6.973 6.973 0 0 1 2.363-4.202 7.047 7.047 0 0 1 4.537-1.682c1.991-.078 3.874.487 5.683 1.238.782.314 1.489.79 2.072 1.396a5.913 5.913 0 0 1 1.311 2.12 17.626 17.626 0 0 1 1.05 5.363c.343 5.948.559 11.901.426 17.864 0 .844-.191 1.117-.98 1.395a3.5 3.5 0 0 1-.702.151c-1.606.201-3.225.3-4.844.297a9.773 9.773 0 0 0-2.03.073h-4.801a7.374 7.374 0 0 0-1.422-.127 1.747 1.747 0 0 1-1.134-.458 1.728 1.728 0 0 1-.553-1.087c-.397-2.106-.377-4.252-.613-6.373-.103-.975-.059-1.95-.127-2.925-.162-2.409-.491-4.807-.491-7.226.025-.156.108-.361-.107-.473Zm8.64 2.243h5.33c.657 0 .829-.151.799-.804a26.328 26.328 0 0 0-.662-5.305c-.353-1.4-.981-2.726-2.206-3.579a5.828 5.828 0 0 0-4.59-1.014c-1.211.244-2.349.6-3.173 1.604a6.811 6.811 0 0 0-1.515 3.384c-.26 1.775.039 3.535.142 5.3 0 .385.299.395.603.395l5.272.019Z" fill="#FDC51A"/><path d="M178.857 81.463a23.632 23.632 0 0 0-2.295 3.16c-.132.2 0 .282.118.384 3.628 2.858 5.653 6.714 7.007 11.01a48.35 48.35 0 0 1 2.157 10.117c.301 3.55.042 7.125-.77 10.595a33.107 33.107 0 0 1-2.981 8.576c-2.427 4.495-5.516 8.342-10.273 10.609a27.06 27.06 0 0 1-4.021 1.463c-.417.122-.569.205-.318.663.73 1.331 1.412 2.691 2.093 4.047a.552.552 0 0 0 .594.346 81.216 81.216 0 0 1 8.076.239c1.02.08 2.035.217 3.04.41a2.84 2.84 0 0 1 2.226 1.813 1.47 1.47 0 0 1 .047 1.172 1.488 1.488 0 0 1-.822.842 9.912 9.912 0 0 1-3.535.936c-2.633.278-5.271.488-7.909.746-.26.042-.497.171-.672.366-.981.809-1.962.79-3.016.2a.793.793 0 0 0-.49-.142c-3.586.338-7.19.424-10.788.259-3.398-.078-6.796-.078-10.19-.22-6.374-.273-12.749-.18-19.123-.258-2.531-.029-5.061-.22-7.586-.361a1.014 1.014 0 0 0-.809.263 2.66 2.66 0 0 1-3.506-.146.723.723 0 0 0-.584-.21c-6.016-.287-12.048-.419-18.02-1.326a29.807 29.807 0 0 1-3.139-.575 2.937 2.937 0 0 1-.936-.4c-.392-.263-.755-.561-.697-1.102a1.247 1.247 0 0 1 .898-1.102c.81-.297 1.637-.549 2.476-.755a58.036 58.036 0 0 1 8.444-1.317 35.226 35.226 0 0 1 3.786-.244.524.524 0 0 0 .514-.336c1.256-2.301 2.506-4.603 3.889-6.826.162-.258.034-.346-.142-.488-1.579-1.106-2.982-2.437-4.458-3.666a28.829 28.829 0 0 1-5.496-6.017 9.415 9.415 0 0 1-.854-1.516.772.772 0 0 0-.823-.488 296.296 296.296 0 0 0-7.18-.107 8.03 8.03 0 0 1-4.515-1.224c-2.413-1.623-3.717-3.978-4.232-6.782-.589-3.218-.368-6.436.059-9.658.255-1.951.77-3.755 2.064-5.28a5.879 5.879 0 0 1 1.939-1.542 5.91 5.91 0 0 1 2.406-.609c2.285-.122 4.565-.375 6.865-.4.907 0 1.01-.336 1.26-1.067.98-2.926 2.211-5.793 4.222-8.226a.806.806 0 0 0 .166-.863 15.252 15.252 0 0 1-.397-7.23c.044-.215.089-.43.152-.64.491-1.7 1.579-2.296 3.31-1.857 1 .254 1.919.757 2.668 1.463.809.75 1.618 1.497 2.402 2.277a.404.404 0 0 0 .264.163.4.4 0 0 0 .3-.075c3.516-1.829 7.302-2.775 11.195-3.355 1.77-.268 3.57-.244 5.345-.439 5.306-.575 10.641-.39 15.961-.487a61.817 61.817 0 0 1 10.033.707 85.374 85.374 0 0 1 11.445 2.291 31.568 31.568 0 0 1 6.904 3.096c.441.254.637.308.931-.224 1.231-2.238 2.727-4.256 5.139-5.388a.757.757 0 0 0 .393-.487 8.057 8.057 0 0 1 2.554-3.491 2.77 2.77 0 0 1 1.368-.595c.692-.122 1.04.21.922.907a5.767 5.767 0 0 1-1.01 2.223c-.426.644-.426.649.324.76 1.75.26 3.766 2.01 4.011 3.624.279 1.843-.687 4.758-3.619 5.09a4.437 4.437 0 0 1-2.285-.439c-.142-.063-.279-.156-.422-.224-1.118-.507-2.015-1.127-2.054-2.633Zm-87.283 39.395a58.51 58.51 0 0 0 7.502.025 22.57 22.57 0 0 1 1.623-.049.711.711 0 0 1 .755.546 11.598 11.598 0 0 0 2.182 3.627 58.006 58.006 0 0 0 5.291 5.412 29.11 29.11 0 0 0 10.881 6.363c6.453 2.194 13.186 2.799 19.948 3.008 3.432.108 6.865-.121 10.297-.126a51.365 51.365 0 0 0 8.827-.883 58.372 58.372 0 0 0 10.954-3.257 18.629 18.629 0 0 0 7.684-5.48 30.433 30.433 0 0 0 6.424-13.432 35.496 35.496 0 0 0 .76-10.415 46.523 46.523 0 0 0-2.143-9.941 22.963 22.963 0 0 0-5.394-9.381 9.445 9.445 0 0 0-1.775-1.434c-.799-.487-1.604-.975-2.398-1.496a30.406 30.406 0 0 0-6.919-3.36c-4.511-1.462-9.179-2.155-13.867-2.74a98.225 98.225 0 0 0-13.602-.487c-3.776.053-7.542.268-11.313.565-3.884.302-7.703.805-11.396 2.082a28.213 28.213 0 0 0-11.484 7.26 14.38 14.38 0 0 0-2.569 3.608 47.97 47.97 0 0 0-2.173 4.876 5.478 5.478 0 0 1-.681 1.462c-.093.127-.157.273-.397.302-2.77.298-5.561.366-8.336.605a3.536 3.536 0 0 0-1.55.463c1.407.327 2.035 1.365 2.648 2.404.28.485.525.988.736 1.507a21.73 21.73 0 0 1 1.47 7.006c.265 3.881.109 7.738-1.99 11.36h.005Zm1.157-9.463a23.967 23.967 0 0 0-1.589-8.923 8.92 8.92 0 0 0-1.515-2.574c-.897-1.024-1.922-.975-2.766.058a7.616 7.616 0 0 0-1.593 3.769 36.227 36.227 0 0 0-.432 8.177c.201 2.603.951 4.968 2.727 6.952a5.944 5.944 0 0 0 2.495 1.619.49.49 0 0 0 .648-.219 7.661 7.661 0 0 0 1.235-2.648c.546-2.025.81-4.115.785-6.211h.005Zm61.074 31.087h2.108c.378 0 .549-.044.338-.449-.21-.404-.441-.902-.632-1.36a.487.487 0 0 0-.457-.368.496.496 0 0 0-.205.036c-.53.098-1.074.127-1.618.176-2.668.219-5.34.19-8.013.219-3.893.039-7.782.298-11.68-.2-3.07-.39-6.134-.755-9.165-1.394-.353-.073-.549-.044-.706.312-.343.79-.725 1.56-1.103 2.331-.118.243-.132.356.206.351 2.03-.039 4.06-.034 6.09-.103 4.261-.141 8.522-.107 12.784 0 4.011.112 8.027.298 12.048.449h.005Zm27.709-63.715c1.069 0 1.918.175 2.359 1.145a1.183 1.183 0 0 1-.399 1.56 1.204 1.204 0 0 1-1.597-.263 1.9 1.9 0 0 1-.588-1.092c-.034-.41-.216-.38-.515-.302-1.064.263-1.388.95-.981 1.95.358.849 1.143 1.15 1.864 1.516a2.954 2.954 0 0 0 3.339-.253c.843-.644 1.388-2.501 1.089-3.506a2.011 2.011 0 0 0-.432-.78c-1.8-2.038-3.678-2.345-6.478-1.18-1.961.814-3.285 2.4-4.354 4.174-1.069 1.775-1.137 1.185.554 2.438.245.18.353.185.52-.132a20.06 20.06 0 0 1 2.972-4.13 3.207 3.207 0 0 1 2.643-1.146h.004Zm-10.861 68.337a2.87 2.87 0 0 0-.358-1.258c-1.27-2.56-2.555-5.115-3.82-7.674-.161-.327-.348-.307-.627-.195-.855.35-1.735.633-2.634.848-.348.083-.431.18-.235.517 1.138 1.906 2.099 3.9 3.094 5.89.438.943.968 1.842 1.584 2.681a1.79 1.79 0 0 0 1.697.678 1.806 1.806 0 0 0 1.299-1.487Zm-53.654 1.229a1.48 1.48 0 0 0 1.186-.517c.78-.756 1.187-1.741 1.677-2.677a149.774 149.774 0 0 0 2.942-5.826c.172-.366.133-.488-.284-.6a31.79 31.79 0 0 1-2.202-.614c-.255-.078-.392-.059-.515.209-.98 2.199-2.236 4.281-3.162 6.519a14.647 14.647 0 0 0-.849 2.487c-.122.541.069.848.628.926.206.02.402.063.598.093h-.019Zm-13.034-62.346c2.025-1.78 3.923-3.544 6.375-4.763-1.148-.975-2.021-2.092-3.227-2.872a4.767 4.767 0 0 0-1.437-.6c-1.059-.263-1.579 0-1.892 1.083a9.703 9.703 0 0 0-.363 2.662 13.746 13.746 0 0 0 .544 4.49Zm9.454 55.549c0 .278.216.195.343.195h3.016a.487.487 0 0 0 .49-.332c.584-1.092 1.162-2.189 1.77-3.266.182-.332.103-.439-.23-.537a9.913 9.913 0 0 1-2.084-.926c-.392-.224-.584-.146-.79.239-.779 1.463-1.588 2.925-2.383 4.364-.068.087-.112.175-.157.263h.025Zm50.193.975c-.461-.892-.898-1.75-1.344-2.608-.446-.859-.579-.844-1.417-.425-.24.122-.211.21-.118.4.357.751.71 1.507 1.059 2.267a.533.533 0 0 0 .491.366c.397.02.809.015 1.304.015l.025-.015Zm16.358-66.367c.628-.079 1.245.058 1.5-.332.526-.709.971-1.472 1.329-2.277.044-.117.177-.268.03-.38-.147-.112-.28 0-.388.087a8.324 8.324 0 0 0-2.471 2.901Zm2.305 3.69c.107.351.186.654.524.761.108.034.177-.088.162-.195a.648.648 0 0 0-.682-.556l-.004-.01Z" fill="#292929"/><path d="M153.348 113.837c.074 2.394-.034 4.793 0 7.192a2.694 2.694 0 0 1-.662 1.512 2.723 2.723 0 0 1-1.422.848 42.228 42.228 0 0 1-4.565.336c-2.815 0-5.625.063-8.439-.097-1.584-.093-2.403-.727-2.731-2.258-.412-1.901-.407-3.847-.574-5.773-.27-3.125-.412-6.255-.672-9.381a24.53 24.53 0 0 1 .235-6.747c.383-1.95 1.133-3.686 2.766-4.978a7.454 7.454 0 0 1 5.394-1.614c1.42.097 2.826.337 4.197.716 2.908.79 4.605 2.677 5.36 5.52.438 1.722.694 3.485.765 5.26.147 3.15.23 6.31.348 9.464Zm-10.837 8.932c2.089 0 3.496.03 4.904 0a24.387 24.387 0 0 0 3.717-.346c.98-.175 1.147-.414 1.172-1.384.122-4.993-.089-9.986-.27-14.974a30.467 30.467 0 0 0-.814-6.582c-.628-2.438-1.996-4.144-4.482-4.876a27.858 27.858 0 0 0-3.03-.77 7.13 7.13 0 0 0-5.144.975c-1.79 1.102-2.673 2.823-3.05 4.822a25.3 25.3 0 0 0-.167 6.738c.309 3.901.49 7.802.814 11.702.056 1.096.184 2.187.383 3.267.196.882.578 1.253 1.431 1.35 1.722.21 3.472.02 4.536.078Zm1.133-42.623c3.055.083 6.1.244 9.141.57.241.022.473.106.671.245a6.408 6.408 0 0 1 1.619 1.506c.142.195.421.376.245.673a.701.701 0 0 1-.701.253c-.863-.029-1.731-.039-2.589-.102-3.693-.283-7.39-.185-11.092-.215-2.594 0-5.174.24-7.763.254-.441.01-.881.044-1.319.103a1.271 1.271 0 0 1-1.471-.878c-.078-.205-.181-.4-.26-.605-.318-.819-.313-.819.589-1.004 2.216-.459 4.472-.488 6.718-.566 2.074-.083 4.138-.278 6.212-.234Zm-32.5 7.338c.017-1.032.182-2.057.49-3.042.422-1.434 1.51-2 2.942-1.546.154.043.304.102.446.175a17.747 17.747 0 0 1 5.914 5.188c.023.033.044.067.064.103.171.36.436.775-.03 1.063-.466.287-.706-.122-.917-.434a17.13 17.13 0 0 0-4.751-4.452c-1.741-1.175-2.452-.839-2.834 1.219-.437 2.301-.069 4.573.269 6.826 0 .097.049.195.059.292.029.278 0 .537-.328.625a.528.528 0 0 1-.573-.184.507.507 0 0 1-.089-.192 5.02 5.02 0 0 1-.236-.926 32.966 32.966 0 0 1-.426-4.715Zm-21.238 23.462v1.731c0 .356-.118.702-.55.726-.43.025-.558-.331-.592-.682a16.764 16.764 0 0 1 .088-3.574c.04-.302.196-.605.564-.595.368.01.407.361.421.663.035.575.064 1.151.094 1.726l-.025.005Zm-2.52-1.921c-.024.395-.059 1.033-.098 1.667 0 .283-.137.517-.451.546-.314.03-.49-.185-.554-.453a5.817 5.817 0 0 1-.054-2.54c.049-.376.167-.741.235-1.112.054-.273.142-.531.49-.487.349.043.447.292.447.599a87.42 87.42 0 0 0-.015 1.78Z" fill="#292929"/><path d="M143.459 95.543c3.251.25 5.32 1.99 6.055 5.515.354 1.687.383 3.413.599 5.11a.967.967 0 0 1-.27.794.986.986 0 0 1-.789.293c-3.691-.023-7.385-.042-11.082-.059-.412 0-.736-.044-.775-.526-.177-2.048-.461-4.106-.089-6.148.393-2.146 1.918-4.389 4.536-4.784.633-.092 1.27-.136 1.815-.195Zm-.201 10.79c1.824-.136 3.643.093 5.477-.034.422-.029.451-.151.412-.487-.128-1.171-.201-2.346-.363-3.506-.338-2.438-1.172-4.52-3.707-5.495a5.915 5.915 0 0 0-1.412-.244c-2.31-.307-3.967.395-5.095 2.438a5.752 5.752 0 0 0-.638 2.043c-.201 1.541.04 3.067.093 4.598.025.6.221.717.775.702 1.486-.039 2.972-.015 4.458-.015Zm.548 12.433c-1.77 0-1.647.171-1.245-1.306.275-1 .534-2.004.794-3.009.049-.204.143-.414-.161-.546a1.376 1.376 0 0 1-.873-1.648 2.228 2.228 0 0 1 1.682-1.828c.98-.176 1.731.132 2.005.804.392.951.054 2.238-.809 2.702-.49.263-.461.541-.299.95.358.932.677 1.873 1.098 2.779.349.756.246.912-.554.976-.623.053-1.24.097-1.638.126Z" fill="#292929"/><path d="M247.575 60.541a21.724 21.724 0 0 0-2.913 3.004c-.49.614-.858.672-1.471.21a3.502 3.502 0 0 1-1.319-1.512.484.484 0 0 0-.426-.327 11.873 11.873 0 0 1-2.374-.75c-2.525-1.18-3.82-3.243-4.442-5.827a6.657 6.657 0 0 1-.049-1.331c0-.19 0-.303-.27-.337a13.214 13.214 0 0 1-6.159-2.73 16.048 16.048 0 0 1-1.692-1.502 1.064 1.064 0 0 0-.024.775c.422 2.438.824 4.915.304 7.411-.304 1.463-1.226 2.57-2.128 3.682a.645.645 0 0 0-.177.604c.091.847.111 1.7.059 2.55a.486.486 0 0 1-.49.488c-.706.117-1.408.263-2.119.336a68.034 68.034 0 0 1-7.527.239c-1.113 0-1.245-.175-1.348-1.243a76.043 76.043 0 0 1-.333-9.03c.063-2.803.191-5.607.313-8.406.059-1.433 0-2.867.128-4.3.127-1.434.059-2.925.152-4.388s.294-3.033.417-4.554c.078-.922.147-1.853.142-2.78.037-.944.124-1.886.26-2.822a.575.575 0 0 1 .705-.474c.104.024.2.077.275.152.849.688 1.859.829 2.884 1.087 1.167.293 1.829-.365 2.662-.77.307-.169.599-.363.873-.58.692-.488.942-.488 1.648.044a27.779 27.779 0 0 1 6.374 6.567c2.001 2.926 3.688 6.05 5.492 9.093.295.536.763.958 1.329 1.195 1.868.804 3.237 2.252 4.575 3.72 1.893 2.082 2.697 4.656 3.354 7.314.059.224.103.453.172.672.24.732.338 1.463 1.211 1.902.75.395 1.28 1.204 1.912 1.833l.02.785Zm-39.341-35.105a1.23 1.23 0 0 1 .201 1.141 444.613 444.613 0 0 1-.907 5.758c-.27 1.61-.574 3.218-.863 4.827-.338 1.916-.574 3.847-.78 5.778-.206 1.93-.49 3.983-.671 5.977-.089.902 0 1.853-.29 2.697-.289.843-.142 1.575-.196 2.36-.142 2.004-.328 4.003-.441 6.006-.093 1.697-.216 3.413-.162 5.096.024.74-.059.814-.785.814a35.562 35.562 0 0 1-4.903-.327c-.574-.083-.716-.424-.579-.843.25-.776.211-1.61.535-2.355.093-.22-.03-.366-.098-.542a14.888 14.888 0 0 1-.981-2.535 11.405 11.405 0 0 1 .039-3.9 14.86 14.86 0 0 1 1.726-4.944.773.773 0 0 0 0-.795 34.848 34.848 0 0 1-1.858-5.363c-.059-.345-.079-.695-.059-1.044a8.227 8.227 0 0 1-2.148 1.014 15.694 15.694 0 0 1-4.653.186 16.62 16.62 0 0 1-2.452-.161c-.461-.098-.853.239-1.221.487a16.881 16.881 0 0 1-4.806 1.873 14.68 14.68 0 0 1-5.393.229 9.774 9.774 0 0 1-2.854-.488c-.108-.044-.26-.049-.319-.127-.451-.585-.937-.253-1.398-.053a4.477 4.477 0 0 1-1.961.307.655.655 0 0 1-.682-.488c-.426-1.336-.877-2.667-1.284-4.012-.324-1.044-.167-1.224.902-1.541.897-.268 1.883-.278 2.672-.873a12.417 12.417 0 0 1 2.506-1.35 14.002 14.002 0 0 1 4.114-.975 17.9 17.9 0 0 0 6.409-2.14 11.213 11.213 0 0 1 4.149-1.464c1.054-.112 1.922-.721 2.858-1.126a40.203 40.203 0 0 1 6.086-2.14 7.669 7.669 0 0 0 2.231-1.229 20.136 20.136 0 0 1 3.707-1.95c.608-.24.809-.161 1.103.439a11.614 11.614 0 0 1 2.717-2.195l.789-.029Z" fill="#35A61A"/><path d="M156.433 47.816c-.731-.376-.77-.878-.108-1.405a17.355 17.355 0 0 1 3.541-1.92 19.448 19.448 0 0 0 3.143-1.785c-.652 0-1.172.19-1.707.132-.931-.093-1.373-.61-1.181-1.414a1.09 1.09 0 0 1 .809-.844 9.115 9.115 0 0 1 1.25-.292 9.366 9.366 0 0 0 2.261-.561 2.334 2.334 0 0 1 2.682.605 1.016 1.016 0 0 0 1.167.243 16.757 16.757 0 0 0 4.903-2.067 9.532 9.532 0 0 1 4.09-1.331 20.994 20.994 0 0 0 8.052-2.643 9.15 9.15 0 0 1 3.432-1.121 5.206 5.206 0 0 0 1.604-.522c2.167-1.028 4.359-2.033 6.717-2.525 1.261-.264 2.192-1.02 3.232-1.629.49-.278 1.147-.487 1.338-.882.192-.395-.451-.893-.622-1.4a4.36 4.36 0 0 1 .843-4.563.72.72 0 0 0 .162-.975l-.074-.156c-.358-.878-.318-1.039.491-1.463a8.1 8.1 0 0 0 2.353-1.663c.292-.265.508-.6.628-.975-.26-.136-.441 0-.618.112-.88.42-1.789.775-2.721 1.063-.373.132-.594.132-.706-.35a3.941 3.941 0 0 1-.064-1.268c.039-.459-.034-.698-.574-.615a1.93 1.93 0 0 1-.98-.136.641.641 0 0 1-.491-.812.64.64 0 0 1 .191-.295c.432-.533.915-1.023 1.442-1.463.907-.687.981-1.658 1.103-2.657a.804.804 0 0 0-.206.034c-.573.249-1.167.424-1.691-.073a1.578 1.578 0 0 1-.422-1.823c.382-.82.172-1.18-.584-1.6-.843-.487-1.137-1.345-1.142-2.291a1.79 1.79 0 0 1 .341-1.184 1.81 1.81 0 0 1 1.027-.689c1.393-.438 2.756-.35 3.854.654a2.594 2.594 0 0 0 2.942.619c1.256-.454 2.648-.424 3.982-.62 2.824-.419 4.6 1.346 5.458 3.575a8.51 8.51 0 0 1 .456 1.92c.156.937.369 1.864.637 2.775.074.287.221.302.466.268a9.795 9.795 0 0 1 4.212.488 3.618 3.618 0 0 1 1.779 1.064c.476.52.788 1.167.898 1.861 0 .078.035.151.054.23.042.364.141.719.295 1.052.215.322.652.088.98.142a4.658 4.658 0 0 1 3.14 2.115 4.61 4.61 0 0 1 .513 3.736c-.642 1.95-1.878 3.48-4.119 3.846a2.71 2.71 0 0 1-1.103 0 .493.493 0 0 0-.52.147c-.362.331-.416.487.059.843a24.993 24.993 0 0 1 6.169 6.168c2.157 3.1 3.923 6.426 5.884 9.663.227.427.601.758 1.054.932a8.949 8.949 0 0 1 2.335 1.428 15.705 15.705 0 0 1 5.57 8.742c.201.849.451 1.687.677 2.53a.936.936 0 0 0 .431.653 7.14 7.14 0 0 1 2.32 2.497c.167.282.396.523.671.703a33.067 33.067 0 0 1 3.501 2.223 3.02 3.02 0 0 0 1.472.488c1.471.204 2.942.448 4.158 1.394a.888.888 0 0 1 .412 1.053c-.187.488-.643.37-1.011.283-.98-.239-1.907-.517-2.898-.722.437.327.854.673 1.251 1.034a9.724 9.724 0 0 1 2.251 2.657c.372.731.588 1.385.049 2.209-.662 1.01-1.113 1.185-2.001.346-.52-.488-.981-1.063-1.53-1.521.034.487.363.76.554 1.116.191.356.353.605.491.922a.868.868 0 0 1-.246 1.058.902.902 0 0 1-1.088.107 1.524 1.524 0 0 1-.53-.453 46.348 46.348 0 0 0-4.835-4.983 11.045 11.045 0 0 0-1.549-1.512c-.036.42.024.841.176 1.234.187.8.363 1.599-.112 2.365-.192.307-.403.604-.819.555a.78.78 0 0 1-.657-.731 5.717 5.717 0 0 0-1.099-2.223c-.588-.81-.642-1.819-.853-2.76a.852.852 0 0 0-.49-.707c-.716-.292-1.02-1.024-1.545-1.521a1.16 1.16 0 0 0-.588-.312 8.144 8.144 0 0 1-4.695-2.81 8.059 8.059 0 0 1-1.837-5.133c0-.204 0-.37-.289-.38-2.055-.083-3.766-1.053-5.424-2.13-.598-.39-1.142-.864-1.716-1.302-.147.17-.049.316-.029.458.122 1.004.255 2.004.372 3.003.324 2.799-.289 5.33-2.206 7.47a1.191 1.191 0 0 0-.309 1.068c.127.721 0 1.462.216 2.184.083.302-.152.487-.383.58a3.352 3.352 0 0 1-1.186.302c-.363.044-.393.171-.27.488 2.358 6.04 4.624 12.12 6.561 18.308 1.687 5.363 3.623 10.658 5.57 15.944.491 1.37 1.256 2.628 1.849 3.954a.898.898 0 0 0 .171.234c.662.741.54 1.409-.397 1.76-1.106.396-2.26.643-3.432.736a9.702 9.702 0 0 0-3.241.931 7.766 7.766 0 0 1-2.202.707c-.417.059-.525.22-.397.615.456 1.462.917 2.925 1.333 4.388 1.2 4.225 2.437 8.451 3.712 12.677.103.336.187.414.491.204.266-.139.545-.254.833-.341.152.907.285 1.794.456 2.672.491 2.462.814 4.944 1.192 7.416a7.624 7.624 0 0 0 1.961 3.959.492.492 0 0 0 .393.214c1.637-.087 3.216.356 4.825.517 1.687.171 3.373.38 5.06.575.33.037.657.091.981.161.255.059.49.186.49.488a.594.594 0 0 1-.436.619.729.729 0 0 1-.162.064c-2.491.58-4.904 1.579-7.527 1.462-.397 0-.549.049-.397.512a1.226 1.226 0 0 1-1.059 1.575c-1.471.156-2.977.029-4.114-.946-.981-.829-1.962-.785-2.991-.487a48.987 48.987 0 0 1-13.436 1.609 91.047 91.047 0 0 1-14.711-1.39 25.733 25.733 0 0 1-5.614-1.57 1.31 1.31 0 0 0-.8.039c-.822.18-1.674.18-2.496 0a2.258 2.258 0 0 1-.926-.458 2.693 2.693 0 0 0-1.604-.4 28.356 28.356 0 0 1-3.148-.254 6.792 6.792 0 0 1-1.079-.263.76.76 0 0 1-.387-.205.744.744 0 0 1-.165-.818.75.75 0 0 1 .278-.337 2.951 2.951 0 0 1 1.603-.654 29.759 29.759 0 0 1 7.115-.414c.371 0 .741.024 1.108.073 1.285.234 2.369-.239 3.433-.897a.581.581 0 0 0 .289-.624c-.186-2.75-.524-5.485-.603-8.24 0-.327.059-.439.383-.488.912-.18.931-.199.828-1.082-.328-2.833-.716-5.661-1.005-8.498a599.801 599.801 0 0 0-1.118-10.307c-.059-.488-.23-.556-.652-.532-1.093.034-2.187 0-3.276-.102a.794.794 0 0 0-.343 0c-.441.195-.525-.107-.564-.41a7.414 7.414 0 0 1-.039-1.043c.059-4.018.245-8.035.52-12.043.083-1.239.088-2.487.186-3.72.27-3.486.25-6.982.544-10.459.351-4.49.964-8.958 1.834-13.378.123-.6.039-1.253.383-1.804.088-.147.044-.21-.103-.244a1.753 1.753 0 0 0-.231-.034c-1.402-.137-1.471-.283-1.201-1.848.098-.551.26-1.092.407-1.633a.821.821 0 0 0-.079-.62c-1.853-3.535-1.186-7.006.373-10.41.407-.896.579-1.613.123-2.583a17.45 17.45 0 0 1-1.442-4.661c-.059-.332-.172-.386-.456-.22a7.548 7.548 0 0 1-4.124.897 32.08 32.08 0 0 1-4.379-.234 1.702 1.702 0 0 0-1.186.41 15.467 15.467 0 0 1-6.498 2.174c-2.51.244-5.036.18-7.384-.975a.684.684 0 0 0-.608.03 4.295 4.295 0 0 1-2.732.38 1.212 1.212 0 0 0-.868.273c-1.564.877-3.108 1.79-4.727 2.564a33.724 33.724 0 0 1-3.819 1.463c-.456.156-1.163.337-1.393 0-.427-.629-.981-.444-1.471-.512-.24-.034-.589-.205-.544-.366.25-.853-1.084-.975-.8-1.794a.78.78 0 0 1 .393-.55 2.793 2.793 0 0 1 1.245-.825c1.638-.678 3.379-1.077 5.002-1.794.171-.078.417-.17.529.054.113.224-.176.331-.338.438-.116.072-.239.13-.368.176a30.835 30.835 0 0 1-3.344 1.243c-.817.2-1.583.565-2.251 1.073-.152.127-.323.292-.211.488a.4.4 0 0 0 .26.18.395.395 0 0 0 .309-.068 23.497 23.497 0 0 1 2.805-1.166l2.991-1.19c.157-.063.358-.17.461.035.103.205-.103.312-.25.395-.22.125-.447.236-.682.331-1.495.615-2.996 1.224-4.491 1.843a1.294 1.294 0 0 0-.633.4c-.108.161-.23.424.03.488a1.137 1.137 0 0 0 1.157-.117c.205-.205.446-.37.711-.488 1.432-.614 2.864-1.229 4.31-1.814a.982.982 0 0 0 .613-.546 6.482 6.482 0 0 1 2.329-2.633c.201-.157.442-.257.697-.287.122 0 .294-.064.353.102.058.166-.069.215-.162.283a9.728 9.728 0 0 1-.491.331 5.78 5.78 0 0 0-1.887 1.882 4.46 4.46 0 0 1-2.202 1.81c-1.015.453-2.05.867-3.06 1.325-.279.127-.804.24-.667.586.138.346.643.15.947.044 1.299-.488 2.608-.902 3.868-1.502 1.653-.785 3.183-1.814 4.904-2.487.348-.132.25-.331.181-.55a29.029 29.029 0 0 1-.921-2.848 3.696 3.696 0 0 0-1.628-2.345 1.876 1.876 0 0 0-1.962-.288c-.72.298-1.48.492-2.255.575-.386.06-.767.141-1.143.244a.526.526 0 0 0-.432.391.5.5 0 0 0-.009.204c.034.336.318.36.569.385a5.243 5.243 0 0 0 1.897-.297 1.373 1.373 0 0 1 1.133.044c-.123.175-.216.321-.324.458-.951 1.19-2.27 1.867-3.594 2.535a25.295 25.295 0 0 0-3.56 1.882.922.922 0 0 0-.461 1.039ZM212.5 57.79v-5.24c0-.307.035-.541-.436-.536-1.962.024-3.923 0-5.914 0-.927 0-.838-.176-.936.867-.388 4.14-.707 8.29-.76 12.438 0 .727-.153.883-.873.975a3.742 3.742 0 0 1-.702 0 172.23 172.23 0 0 1-2.863-.15c-.24 0-.343-.025-.343.311a12.903 12.903 0 0 1-.285 2.6 106.992 106.992 0 0 0-1.726 13.27c-.333 5.032-.353 10.084-.789 15.115-.295 3.413-.368 6.86-.427 10.293 0 .785 0 .765.799.795 3.246.121 6.468-.381 9.704-.429 2.281-.039 4.566-.366 6.841-.025a42.65 42.65 0 0 0 10.033.38c2.231-.19 4.472-.414 6.531-1.418a9.293 9.293 0 0 1 3.148-.815 19.427 19.427 0 0 0 2.756-.551c.775-.204.878-.487.382-1.155a12.915 12.915 0 0 1-1.794-3.325c-1.545-4.086-3.163-8.148-4.463-12.316-2.378-7.66-5.114-15.193-7.933-22.697-.152-.404-.339-.463-.721-.424a46.91 46.91 0 0 1-7.718.161c-.981-.063-1.212-.273-1.315-1.267a42.199 42.199 0 0 1-.21-6.856h.014Zm9.008-18.43c.319.253.557.591.687.975.671 1.634 1.294 3.291 2.015 4.876 1.937 4.29 5.242 6.958 9.807 8.08.235.058.422.111.456-.225.145-.682.224-1.376.235-2.072-.073-.81-.083-1.629-.112-2.438 0-.122-.059-.298.122-.342.182-.043.285.093.339.244.05.148.087.3.107.454a13.76 13.76 0 0 1-.078 3.759 6.91 6.91 0 0 0-.044 2.438c.794 3.744 2.942 5.724 6.477 6.484a.326.326 0 0 0 .412-.21 26.307 26.307 0 0 1 2.29-3.373.776.776 0 0 0 .142-.746 74.129 74.129 0 0 1-.809-2.974 14.704 14.704 0 0 0-4.506-7.543 10.4 10.4 0 0 0-2.942-1.994 2.822 2.822 0 0 1-1.427-1.278c-1.961-3.335-3.79-6.738-6.036-9.902a25.894 25.894 0 0 0-5.997-5.914.537.537 0 0 0-.383-.158.542.542 0 0 0-.382.158 8.73 8.73 0 0 1-2.56 1.506c-.397.127-.436.288-.24.61.099.168.181.346.245.531.628 1.677.981 3.36.083 5.066a19.28 19.28 0 0 1-1.613 2.565.488.488 0 0 0-.054.658 8.777 8.777 0 0 1 1.197 5.422c-.138 1.794-.947 3.34-1.736 4.9a28.223 28.223 0 0 1-3.977 5.782.591.591 0 0 0-.123.488v.868c-.039 1.848 0 3.69.069 5.534 0 .375.123.487.515.458.618-.073 1.245-.093 1.868-.137 2.099-.15 4.202-.248 6.286-.575.756-.117 1.472-.551 2.286-.19.132.063.196-.083.269-.17a8.38 8.38 0 0 0 2.168-5.92c-.074-1.896-.491-3.75-.633-5.636 0-.083-.098-.166-.162-.24-1.883-2.227-2.873-4.909-3.883-7.58a7.783 7.783 0 0 1-.393-2.239h.015Zm-1.005 100.546c3.432 0 6.404.322 9.41.405.49 0 .578-.058.358-.522a80.716 80.716 0 0 1-2.898-6.826 91.272 91.272 0 0 0-1.893-4.568c-.363-.819-.412-.795.431-.931.716-.112.736-.122.427-.771a980.45 980.45 0 0 0-3.79-7.874c-1.422-2.925-2.707-5.89-3.247-9.122-.053-.322-.201-.395-.49-.415a31.506 31.506 0 0 1-3.732-.307 29.242 29.242 0 0 0-6.124-.239c-.397 0-.49.171-.49.527.005 1.026.097 2.05.274 3.062.211 1.75.53 3.5.412 5.275-.206 3.155-.426 6.309-.642 9.464-.025.395-.206.912.539.824a.229.229 0 0 1 .107.037.245.245 0 0 1 .075.085c.166.452.228.935.181 1.414-.176.904-.3 1.817-.373 2.735-.068 2.345-.117 4.69-.161 7.036-.025 1.228 0 1.267 1.225 1.131 3.575-.381 7.189-.259 10.386-.42h.015Zm-15.79-112.57a19.736 19.736 0 0 0-4.339 2.141c-.721.488-1.417 1.097-2.266 1.312a40.36 40.36 0 0 0-7.659 2.847 4.63 4.63 0 0 1-1.501.488 9.849 9.849 0 0 0-3.53 1.175c-2.192 1.18-4.452 2.155-6.968 2.438a14.018 14.018 0 0 0-6.865 2.438c-.255.18-.27.277-.181.536.534 1.516 1.049 3.042 1.579 4.563a1.075 1.075 0 0 0 .765.737 15.53 15.53 0 0 0 8.139.287 17.504 17.504 0 0 0 5.066-2.067 1.59 1.59 0 0 1 1.108-.273c1.788.233 3.593.306 5.394.22a6.292 6.292 0 0 0 3.094-.976.717.717 0 0 0 .412-.643 11.83 11.83 0 0 1 1.343-4.788 2.759 2.759 0 0 0 .275-1.95 8.352 8.352 0 0 1-.147-1.463c0-.215-.108-.537.216-.576.323-.038.304.283.343.488.113.688.196 1.385.343 2.067.089.437.029.89-.171 1.288a24.61 24.61 0 0 0-.947 2.316c-.49 1.394-.804 2.852-.49 4.29a24.088 24.088 0 0 0 1.824 5.334 1.091 1.091 0 0 1 0 1.092 17.301 17.301 0 0 0-1.471 3.55c-.667 2.52-.75 4.978.549 7.347.137.254.211.488.608.488a89.09 89.09 0 0 1 3.972.19c.436.03.574-.093.593-.531.103-2.268.192-4.54.491-6.792a3.937 3.937 0 0 0-.515-2.438 25.541 25.541 0 0 1-2.57-6.787c-.627-2.994-.171-5.797 1.962-8.172.196-.224.26-.346.034-.614a5.885 5.885 0 0 1-1.409-3.682 5.882 5.882 0 0 1 1.237-3.743c.476-.654 1.05-1.327 1.682-2.136Zm.064-21.403c-.088.126-.171.253-.27.375-.171.205-.436.38-.514.62-.123.365.367.346.49.584.181.312.588.673.304.976-.284.302-.608-.152-.839-.39-.436-.444-.465-.44-.706.156a8.27 8.27 0 0 0-.529 2.315c-.133 1.395-.648 2.531-1.903 3.282-.333.2-.863.57-.721.882.196.434.8.234 1.221.147.344-.069.442.053.515.35a5.97 5.97 0 0 1 .035 1.62c0 .453.122.487.49.326.717-.251 1.421-.54 2.108-.863.241-.128.496-.228.76-.297.608-.132.947.229.805.833a1.789 1.789 0 0 1-.349.663 6.847 6.847 0 0 1-2.329 1.995c-1.098.58-1.137.726-.539 1.848.034.068.083.131.113.2a.827.827 0 0 0 .447.47.852.852 0 0 0 .651.017c.569-.117 1.167-.137 1.726-.297a.985.985 0 0 1 1.295.614c.549 1.175 1.123 2.345 1.657 3.53.137.363.239.739.304 1.121.025.103.039.38-.132.249-.373-.268-.309 0-.339.2a906.681 906.681 0 0 0-.549 3.978.832.832 0 0 0 .054.62c.311.516.721.967 1.206 1.326 1.163.78 3.501.15 4.105-1.122a1.09 1.09 0 0 0 .083-.395 27.45 27.45 0 0 1 .49-4.334.651.651 0 0 0-.078-.551 5.91 5.91 0 0 1-1.108-3.784.44.44 0 0 0-.27-.458 3.923 3.923 0 0 1-1.297-1.157 3.882 3.882 0 0 1-.664-1.602c-.118-.488-.29-.605-.741-.649a2.06 2.06 0 0 1-1.331-.529c-.366-.33-.6-.778-.66-1.265a3.777 3.777 0 0 1 1.133-2.98c.28-.311.598-.326.834 0 .235.327.387.235.637.108.981-.488 1.373-2.072.775-3.116a1.313 1.313 0 0 0-1.089-.682 1.722 1.722 0 0 0-1.711.975c-.083.132-.162.283-.358.224a.243.243 0 0 1-.161-.121.244.244 0 0 1-.011-.2c.275-.488-.137-.664-.426-.902-.55-.468-1-1.04-1.324-1.683a15.985 15.985 0 0 1-1.29-3.227Zm3.109 27.04c-.201.147-.177.317-.206.459-.564 2.837-1.044 5.69-1.353 8.566a573.674 573.674 0 0 0-.912 8.86c-.025.238-.182.565.313.56h6.086c.544 0 .696-.17.716-.727.196-5.607.191-11.214.799-16.801 0-.146.083-.307-.118-.488-1.888 1.468-3.726 1.658-5.325-.439v.01Zm.525 83.52c-.143-1.662-.28-3.461-.54-5.246-.049-.312-.22-.361-.49-.375a24.438 24.438 0 0 1-2.722-.351c-.921-.166-1.848-.298-2.77-.463-.49-.088-.696 0-.564.555.09.419.156.842.196 1.268.701 5.578 1.153 11.19 1.893 16.763.054.419.157.521.569.404a48.487 48.487 0 0 1 3.06-.785.703.703 0 0 0 .493-.25.68.68 0 0 0 .154-.53c.088-2.17.245-4.334.441-6.499.157-1.448.206-2.911.28-4.491Zm6.129-88.62c-.843 8.606-1.196 17.124-1.324 25.73a25.97 25.97 0 0 0 4.252-6.827c1.167-2.706 1.118-5.402-.525-7.947a.744.744 0 0 1 .054-.975 16.788 16.788 0 0 0 1.687-2.584 4.398 4.398 0 0 0 .49-2.755 13.582 13.582 0 0 0-.917-2.994c-.103-.283-.324-.292-.564-.302a4.793 4.793 0 0 1-1.765-.375 8.361 8.361 0 0 1-1.388-.97Zm6.13 84.627c.196.58.318 1.049.49 1.492 1.142 2.589 2.27 5.193 3.472 7.762.892 1.912 1.961 3.759 2.721 5.729.108.259.25.444.544.449 1.02 0 2.001.307 3.011.424.182.024.388.132.554-.039.312-.292.599-.608.858-.946.201-.302-.299-.41-.304-.687a.77.77 0 0 0-.068-.225c-.687-2.267-1.393-4.524-2.06-6.796-.632-2.16-1.226-4.335-1.839-6.5-.058-.204-.049-.531-.426-.297-1.256.77-2.619.678-3.967.424-.966-.18-1.908-.497-2.986-.79Zm6.07 16.88c.064.18.088.273.123.365 1.088 2.737 2.174 5.476 3.256 8.216.099.203.256.372.451.488a7.318 7.318 0 0 1 2.324 2.652 11.121 11.121 0 0 0 2.143 2.955 5.513 5.513 0 0 0 4.413 1.652c.49 0 .853-.312.736-.682a3.778 3.778 0 0 0-.564-1.321 101.679 101.679 0 0 1-3.237-4.125 5.593 5.593 0 0 1-1.235-2.477c-.26-1.804-.491-3.613-.755-5.417-.162-1.102-.378-2.194-.599-3.447-.49.702-.887 1.272-1.289 1.838-.491.722-.736.805-1.574.619a18.804 18.804 0 0 1-2.56-.814 6.827 6.827 0 0 0-1.648-.502h.015Zm-22.252-77.206c0-.113.044-.2.054-.293.284-2.74.583-5.48.843-8.22.549-5.827 1.917-11.526 2.668-17.319.024-.17.132-.36-.054-.487-.187-.127-.285.073-.407.141a11.964 11.964 0 0 0-4.051 3.969c-1.284 1.887-1.539 3.866-.255 5.885.148.234.275.487.427.697a1.115 1.115 0 0 1-.113 1.521c-1.878 2.224-2.255 4.808-1.682 7.562a28.497 28.497 0 0 0 2.163 5.954c.062.238.206.447.407.59Zm2.285 90.073c.23-.025.579-.088.932-.098.353-.01.456-.19.436-.522a10.08 10.08 0 0 1 0-1.335c.123-3.277-.039-6.563.427-9.825.098-.658.054-.678-.594-.487-1.432.38-2.868.75-4.29 1.16-.491.141-1.177-.024-1.378.487a2.963 2.963 0 0 0 .059 1.609c.358 1.795.25 3.638.49 5.447a.714.714 0 0 1-.412.755 18.978 18.978 0 0 1-4.81 2.224c-.692.204-1.364.487-2.04.721-.142.049-.329.112-.329.293 0 .18.211.248.378.297.703.175 1.437.19 2.148.044a44.275 44.275 0 0 0 6.938-1.887c.932-.317.981-.326.981.624 0 .459.176.58.583.527a3.38 3.38 0 0 1 .471-.034h.01Zm44.666-76.431a.814.814 0 0 1 .201-.034c.076.013.149.04.216.078 1.78 1.15 3.639 2.208 4.766 4.105.072.116.156.223.25.322.103.112.236.253.393.131.157-.122.054-.248 0-.38-.336-1.06-.975-2-1.839-2.706-.917-.722-1.8-1.487-2.697-2.233-.128-.107-.338-.215-.206-.414.132-.2.279-.03.427 0 1.292.181 2.57.451 3.824.809.167.049.427.205.491 0 .063-.205-.206-.332-.388-.424a5.452 5.452 0 0 0-.696-.307 19.315 19.315 0 0 0-3.05-.795 4.31 4.31 0 0 1-2.211-.975 21.385 21.385 0 0 0-3.06-1.926.35.35 0 0 0-.491.049 29.613 29.613 0 0 0-3.035 3.227c-.093.127-.191.234-.147.415.25 1.028.358 2.106 1.118 2.954.37.457.622.995.735 1.57.04.151 0 .346.251.43a1.778 1.778 0 0 0 .196-1.61 8.688 8.688 0 0 1-.363-1.95c0-.658.417-.882.981-.527a6.509 6.509 0 0 1 1.417 1.215c1.672 1.95 3.721 3.544 5.271 5.607.142.19.343.487.623.258.279-.23.044-.458-.064-.678a10.789 10.789 0 0 0-1.672-2.16c-.687-.77-1.334-1.575-1.996-2.364a.957.957 0 0 1 .638.087c1.348.888 2.746 1.712 3.859 2.926.31.321.637.625.98.912a.425.425 0 0 0 .589 0c.181-.161.024-.332-.059-.488a6.603 6.603 0 0 0-1.01-1.346 20.122 20.122 0 0 0-3.089-2.481 2.773 2.773 0 0 1-1.163-1.297h.01Zm-33.898-.585c1.987.003 3.972-.14 5.938-.43a.681.681 0 0 0 .682-.794c.001-.562-.03-1.124-.093-1.682-.098-.907-.113-.912-.981-.722l-.461.098c-2.913.58-5.884.585-8.826.794-.398.03-.564.098-.491.527.082.556.134 1.116.157 1.677 0 .395.201.537.584.537 1.142-.01 2.309-.005 3.481-.005h.01Zm29.642-4.969a.552.552 0 0 0-.083-.185 9.656 9.656 0 0 0-2.035-1.98c-.28-.175-.447-.078-.618.176-.603.902-1.246 1.78-1.829 2.696-.584.917-.491 1.38.284 2.082.255.24.549.434.824.654.172.14.294.126.427-.064a24.985 24.985 0 0 1 2.775-2.979c.098-.122.245-.19.245-.4h.01Zm-45.333 5.363h1.471c.211 0 .431 0 .431-.331 0-.736 0-1.463.025-2.209 0-.243-.088-.346-.339-.356a296.31 296.31 0 0 1-4.148-.229.464.464 0 0 0-.569.424c-.117.61-.22 1.224-.382 1.819-.118.43.029.546.431.59 1.01.123 2.034.226 3.07.307l.01-.015Zm-31.55-19.42a6.334 6.334 0 0 0 1.756-.433c.441-.127.524-.332.368-.76-.491-1.424-.981-2.863-1.472-4.296-.098-.303-.274-.21-.456-.166-.603.156-1.201.336-1.809.487-.392.083-.446.254-.324.615.442 1.321.883 2.647 1.275 3.988.143.42.334.624.662.566Zm63.153 80.937c-.505.447-.971.937-1.393 1.463a1.135 1.135 0 0 1-1.225.487c-1.261-.229-2.526-.434-3.791-.648a.822.822 0 0 0-.716.068c.054.249.25.273.442.331.647.2 1.304.391 1.961.629a18.35 18.35 0 0 0 2.506.756c.26.059.49.078.657-.195.49-.751 1.059-1.463 1.598-2.218a.43.43 0 0 0 .084-.518.424.424 0 0 0-.123-.14v-.015Zm-23.36-108.381c1.108 0 2.059-.595 2.25-1.414.26-1.097-.063-1.726-1.167-2.302-.162-.082-.289-.126-.412 0-.122.127.04.24.123.322.083.083.314.293.49.434a1.239 1.239 0 0 1 .442.988 1.242 1.242 0 0 1-.496.962 2.282 2.282 0 0 1-1.069.449 1.022 1.022 0 0 1-1.22-.575 1.004 1.004 0 0 1-.079-.478 2.646 2.646 0 0 1 .554-1.624.365.365 0 0 0-.064-.556c-.255-.2-.343.073-.441.205a3.24 3.24 0 0 0-.701 1.633c-.118 1.244.524 1.946 1.79 1.956ZM202.09 130.55c-.039.453.24.405.53.327l4.854-1.302c.319-.083.647-.146.981-.249.333-.102.25-.414.23-.643-.019-.23-.24-.137-.367-.108-1.962.488-3.923.888-5.836 1.497-.269.078-.446.19-.392.478Zm29.951 11.048c.122-1.185-.628-1.672-1.27-2.228.392.702.495 1.57 1.27 2.228ZM209.818 16.061a1.567 1.567 0 0 0-.309 1.229.392.392 0 0 0 .338.408c.065.01.13.003.192-.019.333-.092.039-.302 0-.453-.044-.361-.128-.722-.221-1.165Z" fill="#292929"/><path d="M217.477 101.253c-6.605-3.691-15.201-13.3-15.775-17.684.598.912 1.177 1.73 1.692 2.584a45.17 45.17 0 0 0 11.244 12.418 19.324 19.324 0 0 1 2.839 2.682Zm-15.348-24.305c.034-.069.054-.161.103-.186a.255.255 0 0 1 .211.034c.075.062.143.132.201.21a28.224 28.224 0 0 0 15 8.942 9.051 9.051 0 0 0 1.834.366c.137 0 .377-.034.353.18-.025.215-.255.117-.397.112a17.691 17.691 0 0 1-6.12-1.32 30.031 30.031 0 0 1-10.106-6.798 5.143 5.143 0 0 1-.858-1.102 2.141 2.141 0 0 1-.221-.438Zm32.501-31.034a.837.837 0 0 1-.417.439c-.515.263-1.039.526-1.564.775-1.251.59-2.545 1.083-3.756 1.746-.182.102-.446.248-.574.029-.127-.22.103-.4.284-.512.491-.302.981-.614 1.516-.868a138.064 138.064 0 0 1 3.339-1.536c.272-.153.579-.237.892-.244.133.015.275.02.28.171Zm-47.447-4.807a18.896 18.896 0 0 1 1.324-5.539c.063-.166.122-.424.382-.341.26.083.24.317.177.536-.319 1.082-.662 2.155-.893 3.257a18.718 18.718 0 0 0-.348 2.657c0 .249.054.649-.299.654-.353.004-.294-.395-.338-.649a3.947 3.947 0 0 1-.005-.575Zm3.982-.069c-.025.2 0 .376-.128.434-.127.059-.284-.097-.348-.229a15.165 15.165 0 0 1-.981-2.798c-.039-.166-.044-.366.147-.459.192-.092.304.044.363.19.403.924.719 1.882.947 2.862Zm13.141-28.966c-.117.224.093.639-.314.702-.323.049-.313-.268-.318-.487-.005-.22 0-.58.348-.63.279-.043.255.215.284.415Z" fill="#292929"/><path d="M18.918 67.582c-.49-.707-.078-1.463-.059-2.165 0-.878.22-1.746.284-2.623.03-.405.177-.624.57-.692a29.296 29.296 0 0 0 3.334-.976 7.204 7.204 0 0 1 3.79-.107c.726.156.98.04 1.24-.624a.76.76 0 0 1 .58-.532 1.17 1.17 0 0 0 .333-.117c.338-.2.623-1.76.363-2.052a.659.659 0 0 1-.226-.488c0-.244.108-.575 0-.707a3.12 3.12 0 0 0-1.29-1.072c-1.274-.425-2.535-.873-3.922-.707a28.684 28.684 0 0 0-3.34.731c-.98.239-1.181.107-1.181-.863.045-2.432.273-4.857.681-7.255.147-.975.245-1.95.387-2.925.108-.741-.215-1.429-.245-2.15-.044-1.122-.49-2.195-.294-3.37a7.73 7.73 0 0 0-.196-1.384c-.554.487-1.089.902-1.554 1.38-.613.638-1.167 1.34-2.026 1.687a.706.706 0 0 0-.377.433 5.38 5.38 0 0 1-2.888 2.828 2.95 2.95 0 0 1-.868.395c.309 1.244 1.098 2.185 1.839 3.145.926 1.204 1.74 2.487 2.603 3.73a1.345 1.345 0 0 1 .353 1.029c0 .092 0 .175.118.22.598.199.73.784.98 1.252a.771.771 0 0 1-.161.878c-1.275 1.462-2.417 3.018-3.795 4.388a1.513 1.513 0 0 1-1.254.568 1.52 1.52 0 0 1-1.198-.675 31.088 31.088 0 0 1-3.845-5.573 8.397 8.397 0 0 1-.98-2.385c-.05-.258-.24-.37-.432-.521A14.26 14.26 0 0 1 2.55 46.26a4.81 4.81 0 0 1 .054-5.1 21.49 21.49 0 0 1 4.52-5.119 51.745 51.745 0 0 0 4.478-4.31c1.647-1.838 3.717-3.15 5.708-4.574 2.638-1.877 5.712-2.681 8.713-3.686a.803.803 0 0 1 1.133.488c.442.872.985 1.69 1.618 2.438.195.25.447.451.736.585 2.863 1.419 5.536 1.697 8.213-.351a3.15 3.15 0 0 0 .873-1.029c.363-.678.52-.697 1.265-.42 4.35 1.649 8.532 3.687 12.793 5.545a37.166 37.166 0 0 1 6.13 3.169.709.709 0 0 0 .613.073c1.412-.288 2-.078 2.756 1.102a.813.813 0 0 0 .98.404 5.571 5.571 0 0 1 2.972.244c.87.317 1.718.69 2.54 1.117 1.319.775 2.805.829 4.256 1.068 1.859.302 3.741.448 5.58.901.462.093.932.143 1.403.152.397.024.554.224.549.604-.034 2.224-.162 4.442-.133 6.67 0 .488-.235.741-.804.775-1.559.103-3.118 0-4.678 0a7.344 7.344 0 0 1-2.564-.633c-.701-.259-1.412-.488-2.094-.8-.902-.405-1.834-.176-2.75-.21-.648 0-1.3.078-1.962.112-2.496.127-4.722-.726-6.865-1.916a16.592 16.592 0 0 1-2.629-1.706 1.478 1.478 0 0 0-.95-.234c-3.669-.2-6.925-1.697-10.2-3.145a.722.722 0 0 0-.157 0c.098 1.017.198 2.032.299 3.042.098.976.25 1.99.294 2.984.121 2.646.413 5.28.873 7.89.304 1.754.54 3.52.8 5.284.235 1.565.49 3.135.671 4.71.159 1.107.254 2.222.284 3.34a.607.607 0 0 1-.335.65.614.614 0 0 1-.253.062 37.47 37.47 0 0 1-4.246.327c-2.452.195-4.904.326-7.385.487-1.815.103-3.634.17-5.448.259-.25 0-.515-.064-.74.117l-10.543-.044Z" fill="#7898EA"/><path d="M85.753 14.115c-2.074 2.438-3.618 5.075-5.423 7.513-1.064 1.463-2.08 2.926-3.143 4.388-.25.35-.41.755-.466 1.18-.088.541-.025 1.122-.387 1.634a.666.666 0 0 0 .27.975c.421.263.573-.122.735-.356a276.295 276.295 0 0 0 3.118-4.666 74.417 74.417 0 0 1 5.14-7.007c.946-1.145 1.672-2.437 2.574-3.607a1.653 1.653 0 0 1 1.304-.79c1.574 0 3.148-.327 4.727.073 1.927.487 3.761 1.575 5.522 2.438a6.423 6.423 0 0 1 2.77 2.233c.441.677.78 1.345 1.285 1.98.775.974.755 2.115 1.015 3.295.054.234.461.42.323.605-2.294 3.013-4.266 6.25-6.443 9.346-1.746 2.482-3.378 5.042-4.957 7.636a.977.977 0 0 1-.775.54c-1.795.26-3.555.298-5.163-.735a.492.492 0 0 0-.27-.108c-1.275.161-2.398-.4-3.57-.726-.667-.19-1.368-.2-2.015-.38a7.752 7.752 0 0 1-2.59-1.526c-2.544-2-3.603-4.852-4.59-7.758a4.209 4.209 0 0 1-.156-1.404c0-.975.04-1.95 0-2.955a8.341 8.341 0 0 1 1.922-5.465c1.756-2.209 3.776-4.14 6.375-5.363a19.632 19.632 0 0 1 2.868-.99Zm19.682 14.022a8.995 8.995 0 0 1-1.574 5.1 37.399 37.399 0 0 1-2.996 4.389 11.216 11.216 0 0 1-3.496 2.676c2.643-4.042 5.453-7.957 8.066-12.165Zm.001-3.105c.231.81-.127 1.355-.466 1.911-1.387 2.277-2.981 4.388-4.535 6.563-1.555 2.174-3.1 4.558-4.669 6.826-.23.331-.402.785-.902.877 0-1.302.893-2.165 1.545-3.091 1.441-2.043 2.726-4.193 4.246-6.182 1.619-2.116 3.001-4.388 4.517-6.573.049-.092.122-.175.264-.331Z" fill="#FDC51A"/><path d="M79.706 38.718c-.809-.868-1.633-1.672-2.358-2.584a12.485 12.485 0 0 1-2.624-5.67 16.31 16.31 0 0 0-.274-1.21c-.618-2.437-.216-4.748.588-7.064 1.079-3.096 3.433-5.013 6.036-6.748 2.604-1.736 5.36-2.219 8.336-2.39a21.699 21.699 0 0 1 4.84.269 6.159 6.159 0 0 1 1.868.614c1.25.639 2.496 1.282 3.752 1.902a7.347 7.347 0 0 1 2.569 2.052 11.709 11.709 0 0 1 2.452 4.876c.294 1.463.917 2.799.981 4.3a13.438 13.438 0 0 1-2.129 7.85 13.992 13.992 0 0 1-5.32 5.149c-.069.034-.127.112-.201.122-.98.156-1.118 1.029-1.407 1.75a2.055 2.055 0 0 1-1.231 1.204c-4.095 1.57-8.258 2.609-12.695 1.804-.618-.112-1.26-.102-1.893-.17-.319-.04-.437.078-.417.38.044.62-.22 1.229.03 1.858.103.258-.084.487-.427.487-1.844.03-3.683.103-5.522-.029a12.532 12.532 0 0 1-4.016-1.224 5.916 5.916 0 0 0-3.305-.458c-3.731.624-6.987-.527-10.071-2.438a.73.73 0 0 1-.103-.063c-1.163-1.02-2.555-1.375-4.065-1.512-2.692-.239-5.085-1.419-7.508-2.491-.672-.298-.7-.298-.603.41.52 3.924.54 7.893 1.177 11.808.77 4.74 1.579 9.478 1.961 14.271 0 .156.03.312.035.488 0 .429-.044.722-.638.61-.593-.113-.819.165-.75.872.103 1.02.152 2.038.22 3.057a25.676 25.676 0 0 1 0 3.072 54.934 54.934 0 0 0 0 4.841c.187 6.246-.215 12.477-.45 18.708-.324 8.635-.687 17.27-1.035 25.905-.064 1.575-.22 3.14-.157 4.719.012.688.18 1.365.49 1.98.28.541.53 1.102.83 1.633a1.799 1.799 0 0 1 0 1.902c-.241.429-.398.907-.648 1.326a1.41 1.41 0 0 0-.074 1.389c.319.761.579 1.546.873 2.321.074.2.21.381.054.61-.093.131 0 .219.127.278.726.399 1.364.863 2.32.838 2.986-.083 5.977-.048 8.964 0 1.642.034 3.29-.039 4.903.151.49.059.937.156 1.403.254.348.078.745.175.735.629-.01.453-.431.536-.775.585-1.623.268-3.26.44-4.903.517-.981.024-1.824.551-2.898.765.49.303.833.488 1.157.741a1.126 1.126 0 0 1 .603 1.136 1.305 1.305 0 0 1-.98 1.024 6.897 6.897 0 0 1-2.452.298 40.967 40.967 0 0 1-7.586-.975 1.637 1.637 0 0 0-1.138.092c-3.04 1.385-6.276 1.502-9.542 1.356-1.363-.059-2.721-.205-4.085-.298a12.189 12.189 0 0 0-2.304.176c-3 .285-6.027.12-8.979-.488a.91.91 0 0 0-.98.312 10.212 10.212 0 0 1-5.203 3.247 4.36 4.36 0 0 1-3.947-.677c-.859-.658-.952-1.497-.339-2.394.383-.551.804-1.073 1.177-1.629.294-.434.21-.599-.294-.638a4.028 4.028 0 0 1-1.913-.581 1.162 1.162 0 0 0-.745-.092c-2.57.155-5.149.054-7.698-.303a2.828 2.828 0 0 1-1.118-.375.716.716 0 0 1 .064-1.341 4.67 4.67 0 0 1 1.608-.375 27.734 27.734 0 0 1 4.629-.059 4.617 4.617 0 0 0 1.809-.19 17.815 17.815 0 0 1 6.375-.834c.544 0 .784-.126.809-.702a6.463 6.463 0 0 1 1.377-3.808.912.912 0 0 0 .089-1.043c-.343-.751-.643-1.521-.98-2.282a2.911 2.911 0 0 1-.251-1.204c-.04-1.361.126-2.72.49-4.032.981-2.994 1.27-6.075 1.403-9.191.358-8.479.554-16.957.456-25.446-.059-4.944.372-9.873.49-14.812.084-3.033.49-6.041.49-9.079 0-.487-.029-.863-.622-.975-.49-.088-.535-.453-.49-.863.161-1.311.323-2.618.49-3.93 0-.195.147-.419-.177-.531-1.736-.59-2.942-1.828-3.923-3.301-.24-.37-.367-.322-.647-.063-1.608 1.462-.936 1.097-2.613.024a5.916 5.916 0 0 1-1.275-1.312c-1.344-1.686-2.619-3.466-3.33-5.485-.544-1.545-1.638-2.486-2.75-3.466a8.423 8.423 0 0 1-2.217-3.023 4.716 4.716 0 0 1 .186-4.325 17.73 17.73 0 0 1 3.982-4.876c1.961-1.735 3.805-3.612 5.698-5.426 2.908-2.784 6.115-5.168 9.998-6.524 2.055-.717 4.148-1.306 6.174-2.101.186-.068.382-.107.421-.356.344-2.233.908-4.437.981-6.714a17.969 17.969 0 0 0-.736-4.593 35.79 35.79 0 0 1-.902-4.876 3.956 3.956 0 0 1 1.29-3.466C31.754-.145 35.157-.585 38.874.77c.353.132.692.292 1.045.424a3.306 3.306 0 0 1 2.123 2.438c.154.642.267 1.294.338 1.95a7.357 7.357 0 0 0 1.471 3.74 9.94 9.94 0 0 1 1.535 2.579c.407 1.102.035 1.682-1.142 1.668a1.96 1.96 0 0 1-.535-.044c-.681-.186-.74-.259-.799.663a16.97 16.97 0 0 1-.407 3.218c-.564 2.233-1.667 3.062-3.972 2.886-.54-.039-.716.083-.79.62-.137.974-.372 1.95-.578 2.954-.054.273-.064.439.309.448.236.032.463.107.672.22a301.894 301.894 0 0 1 14.529 6.134 56.35 56.35 0 0 1 5.296 2.647c.157.081.308.174.45.278a1.086 1.086 0 0 0 1.36.214c.784-.365 1.549.122 1.985.795a1.37 1.37 0 0 0 1.653.673 4.057 4.057 0 0 1 2.275.258c.788.263 1.558.578 2.305.941a11.11 11.11 0 0 0 4.094 1.151c2.398.302 4.781.688 7.169 1.039l.446.053Zm-34.962 90.688a5.514 5.514 0 0 1-1.711 1.228c-.172.083-.393.186-.52-.053-.128-.239.069-.337.216-.429a16.727 16.727 0 0 1 1.608-.976c.24-.117.319-.204.3-.458a46.543 46.543 0 0 1 .107-5.485c.353-8.451.693-16.902 1.02-25.353.225-5.963.603-11.917.49-17.884-.044-2.482-.059-4.959.03-7.44.049-1.293-.108-2.594-.167-3.901a.53.53 0 0 0-.319-.512 7.508 7.508 0 0 0-4.075-.917c-6.83.488-13.66 1.044-20.521.741-1.143-.048-1.138-.034-1.133 1.122v1.121c-.127 2.024-.309 4.042-.382 6.07-.24 6.685-.76 13.365-.55 20.064.074 2.384 0 4.763-.058 7.147-.118 4.389-.113 8.811-.378 13.306.066-.086.125-.178.177-.273.073-.156.108-.39.328-.351.221.039.206.302.201.488a7.328 7.328 0 0 1-.23 1.692.716.716 0 0 1-.314.487c-.284.171-.49 1.297-.226 1.463.398.229.31.526.216.809-.662 2.004-.98 4.091-1.535 6.124-.554 2.033-.907 4.052.064 6.158.638 1.39 1.26 2.574 2.834 2.994l.054.024c.138.093.383.127.27.371a.374.374 0 0 1-.49.151 3.874 3.874 0 0 1-.608-.234c-.393-.181-.785-.376-1.172-.566a.342.342 0 0 0-.4.01.335.335 0 0 0-.09.107 12.49 12.49 0 0 0-1.03 1.789c-.128.303-.084.488.314.488 1.94-.047 3.881.057 5.805.312.172 0 .378.073.412-.195.123-.975.74-1.77 1.172-2.623.158-.252.227-.549.196-.844-.157-.833-.319-1.662-.466-2.496-.068-.385-.206-.346-.44-.112-.584.59-1.183 1.165-1.776 1.745a2.96 2.96 0 0 1-.407.342.325.325 0 0 1-.436 0 .305.305 0 0 1 0-.429 3.03 3.03 0 0 1 .387-.444c.79-.775 1.584-1.541 2.378-2.311a.94.94 0 0 0 .363-.527c.181-1.511.745-2.925.922-4.446.809-6.748 1.873-13.452 2.976-20.156 1.246-7.572 2.732-15.115 4.149-22.653.407-2.164.559-4.388 1.108-6.514a.568.568 0 0 1 .304-.453c1.064-.487 2.226-.526 3.354-.726.25-.044.28.102.162.273-.091.128-.2.243-.324.34L34.08 79.05c-.167.141-.343.258-.373.487-.235 2.092-.77 4.145-.603 6.29.353 4.593.726 9.186.912 13.788.373 9.43 1.25 18.811 2.452 28.167a18.67 18.67 0 0 0 1.564 5.178.487.487 0 0 0 .535.356c.931 0 1.858.029 2.79.073.308 0 .848-.161.858.224.01.386-.53.351-.868.351-.834 0-1.662-.034-2.496-.048-.177 0-.456-.078-.368.268.206.799-.059 1.565-.162 2.34a1.46 1.46 0 0 0 .093.917c.215.398.394.814.535 1.243.118.371.28.395.608.273 1.579-.58 3.168-1.131 4.742-1.711 1.054-.385 1.034-.395.745-1.463-.083-.317-.157-.4-.456-.205-.398.258-.809.496-1.23.712-.207.103-.491.38-.663.063-.171-.316.211-.414.417-.546a8.894 8.894 0 0 1 1.079-.619 3.552 3.552 0 0 0 1.912-2.135 1.039 1.039 0 0 0 0-.902c-.46-.912-.892-1.809-1.358-2.745ZM77.921 46.69a3.21 3.21 0 0 1-.073-.814c0-2.048.319-4.081.265-6.134 0-.405-.079-.526-.49-.58-1.845-.249-3.678-.566-5.527-.79a11.272 11.272 0 0 1-4.296-1.248 17.598 17.598 0 0 0-2.182-.922 3.258 3.258 0 0 0-1.917-.243c-1.054.234-1.795.068-2.408-.976-.568-.945-1.961-.843-2.628.05-1.005 1.32-2.152 2.52-3.236 3.773-.138.16-.29.4-.53.21-.24-.19-.068-.395.069-.566.137-.17.353-.424.534-.629.903-1 1.795-1.999 2.707-2.984.28-.307.265-.487-.113-.692a31.35 31.35 0 0 0-3.28-1.785c-4.992-2.14-9.851-4.593-14.941-6.514-.544-.204-.785-.336-1.206.317a5.185 5.185 0 0 1-1.77 1.693 5.22 5.22 0 0 1-2.354.696c-4.203.235-6.154-.838-7.846-4.168-.22-.43-.412-.517-.858-.366-3.045 1.039-6.154 1.902-8.827 3.862-1.73 1.277-3.564 2.413-5.035 4.007a69.474 69.474 0 0 1-5.345 5.115 18.7 18.7 0 0 0-3.84 4.549 4.239 4.239 0 0 0-.059 4.442 11.912 11.912 0 0 0 2.942 3.437c.714.558 1.26 1.3 1.58 2.145a23.256 23.256 0 0 0 3.432 5.705c.22.278.49.522.73.78.172.185.314.175.49-.024 1.53-1.78 3.105-3.526 4.193-5.637a.68.68 0 0 0-.039-.794c-.98-1.463-1.961-2.926-3.02-4.315a10.77 10.77 0 0 1-1.354-2.131 18.805 18.805 0 0 0-2.716-4.69c-.152-.176-.388-.449-.103-.663.284-.215.426.097.578.268a9.946 9.946 0 0 1 1.648 2.296c.25.512.54 1.005.819 1.526.236-.197.498-.36.78-.487a3.95 3.95 0 0 0 1.78-1.331c.663-1 1.479-1.892 2.417-2.643a56.35 56.35 0 0 0 4.325-4.115c.142-.161.323-.36.554-.18.23.18.098.438-.069.609a10.7 10.7 0 0 1-1.142 1.116c-.633.488-.574 1.078-.442 1.78a31.84 31.84 0 0 0 2.697-1.814c.245-.175.618-.487.814-.244.196.244-.206.571-.456.766a13.639 13.639 0 0 1-2.51 1.677.791.791 0 0 0-.482.421.783.783 0 0 0-.009.637c.596 2.633.63 5.36.103 8.006a44.721 44.721 0 0 0-.652 7.163l3.114-.737c1.961-.487 3.805-.034 5.595.766.276.118.506.323.652.585a.415.415 0 0 0 .54.214c1.157-.258 2.319-.487 3.476-.75a3.77 3.77 0 0 1 .53-.083.212.212 0 0 1 .235.136.218.218 0 0 1-.123.293 1.843 1.843 0 0 1-.446.146c-1.088.21-2.177.41-3.27.61-.447.077-.746.667-.442.974.387.39.564.844.265 1.263-.3.42-.034.951-.383 1.317-.093.097-.215.239-.323.243-.49 0-.628.386-.82.751a1.114 1.114 0 0 1-1.245.61c-.235-.04-.49-.073-.7-.132a5.488 5.488 0 0 0-2.982.108 26.118 26.118 0 0 1-3.536 1.004c-.255.039-.313.175-.333.395-.128 1.253-.25 2.506-.402 3.754-.05.41.049.536.49.546 6.336.127 12.661-.175 18.987-.58 2.623-.17 5.252-.322 7.88-.517 1.03-.073 1.025-.117.946-1.112-.299-3.793-.98-7.528-1.525-11.292-.304-2.16-.74-4.305-.902-6.49-.378-4.997-.662-10.014-1.834-14.919-.064-.278-.285-.716.127-.814.412-.097.417.38.49.658.599 1.785.766 3.657 1.085 5.495a.724.724 0 0 0 .436.634c3.163 1.36 6.316 2.75 9.807 2.96a2.69 2.69 0 0 1 1.442.57c3.221 2.253 6.63 3.803 10.743 3.17a6.225 6.225 0 0 1 3.707.487 12.355 12.355 0 0 0 7.017 1.17Zm-1.21-19.834a14.026 14.026 0 0 0 2.27 8.01c2.044 3.228 5.03 4.964 8.64 5.798 1.736.414 3.534.512 5.305.287a11.647 11.647 0 0 0 3.683-.887c2.697-1.331 5.06-3.062 6.615-5.729a12.703 12.703 0 0 0 1.878-7.138c-.069-1.463-.677-2.784-.957-4.183a11.166 11.166 0 0 0-2.505-4.876 5.8 5.8 0 0 0-1.888-1.477c-1.407-.717-2.82-1.434-4.222-2.155a4.083 4.083 0 0 0-1.29-.42 20.842 20.842 0 0 0-3.922-.346 15.578 15.578 0 0 0-8.214 2.545 11.502 11.502 0 0 0-3.446 3.402 11.43 11.43 0 0 0-1.732 4.511 14.274 14.274 0 0 0-.216 2.658ZM32.425 87.528a.972.972 0 0 0-.215.6c-.427 2.282-.844 4.569-1.28 6.826-1.594 8.25-2.942 16.543-4.139 24.866-.46 3.208-.71 6.455-1.515 9.61a7.76 7.76 0 0 0-.133 4.247c.104.421.183.847.236 1.277.076.43-.004.872-.226 1.248a31.121 31.121 0 0 0-.941 1.77 3.018 3.018 0 0 0 .03 2.365c.166.458.98.244 1.47.331.098.017.196.028.294.035 1.673 0 3.34.434 5.022.073a18.247 18.247 0 0 1 6.198-.108c.78.098.775.108.765-.638 0-.098 0-.229.024-.288.57-.653.108-1.238-.181-1.765a2.32 2.32 0 0 1-.25-1.814 4.586 4.586 0 0 0-.456-3.413 13.05 13.05 0 0 1-1.285-3.973c-.588-4.53-1.177-9.059-1.628-13.599-.681-6.825-.76-13.715-1.31-20.56-.19-2.326-.318-4.68-.48-7.09Zm5.222-67.942h.53c2.692.127 3.433-.487 3.923-3.11v-.054c.093-.298.03-.449-.314-.546a4.15 4.15 0 0 1-2.045-1.356c-.132-.156-.323-.385-.103-.565.221-.18.358.068.49.21a4.65 4.65 0 0 0 1.702 1.15c.172.068.402.205.437-.141.087-.68.138-1.363.152-2.048 0-.341.108-.439.387-.415.451.034.902.117 1.353.152.55.039.672-.108.57-.654a3.529 3.529 0 0 0-.775-1.575 9.502 9.502 0 0 1-2.266-5.504c0-.463-.191-.449-.534-.215-.436.399-.896.77-1.378 1.112a.493.493 0 0 1-.604-.034c-.161-.166-.073-.376.054-.537.535-.687 1.055-1.399 1.962-1.667.25-.073.25-.18.196-.376-.26-.975-.907-1.355-1.844-1.097-.27.074-.53.171-.799.225-.27.053-.49.239-.49.595a22.78 22.78 0 0 1-.456 2.374 3.348 3.348 0 0 1-1.574 2.33.596.596 0 0 0-.29.693c.211 1.536.147 1.604-1.407 1.633h-.118a.61.61 0 0 1-.67-.339.602.602 0 0 1-.055-.26c-.03-.195-.07-.386-.103-.58a1.049 1.049 0 0 0-.506-.76 1.063 1.063 0 0 0-.912-.084c-.353.11-.666.317-.904.6a1.91 1.91 0 0 0-.434.99c-.108.775-.113 1.53.593 2.106.385.31.848.508 1.339.575.181.03.421.112.363.375-.06.264-.255.283-.49.244a2.172 2.172 0 0 1-.981-.273.586.586 0 0 0-.746 0c-.2.129-.416.232-.642.307-.314.103-.412.254-.358.605.181 1.19.181 2.399 0 3.588-.25 1.614-.56 3.218-.794 4.837a1.297 1.297 0 0 1-.893 1.131 6.85 6.85 0 0 1-.657.263c-.446.108-.49.298-.284.703 1.02 1.818 2.373 3.135 4.55 3.52 2.177.385 4.217.112 5.884-1.463.883-.829.824-1.058-.284-1.463-.142-.053-.25-.131-.334.064-.083.195-.274.414-.549.263-.274-.151-.181-.41-.137-.639.142-.755.294-1.506.456-2.257a.456.456 0 0 0-.23-.58 3.246 3.246 0 0 1-1.08-1.312c-.24-.487-.102-.697.447-.712a62.01 62.01 0 0 1 1.652-.029ZM18.814 54.735c.157-.117.123-.244.123-.356a45.52 45.52 0 0 1 .421-5.11c.339-2.599.981-5.183.31-7.83a10.601 10.601 0 0 1-.324-3.208c-.31.082-.412.282-.564.429-.834.8-1.471 1.799-2.614 2.272a.702.702 0 0 0-.324.41 5.365 5.365 0 0 1-1.394 1.883 5.404 5.404 0 0 1-2.067 1.115c-.192.063-.236.112-.148.268.228.542.498 1.066.81 1.565 1.961 2.511 3.878 5.07 5.256 7.977.118.236.296.437.515.585Zm9.974 2.16a1.064 1.064 0 0 0-.74-.907c-1.78-.805-3.605-1.175-5.542-.649-.564.1-1.121.239-1.667.415-1.152.487-2.06.37-2.716-.775-.133-.23-.27-.283-.49-.025-.844 1.014-1.7 2.019-2.57 3.013a.395.395 0 0 0 0 .61c.471.63.986 1.228 1.54 1.79 1.368 1.228 2.81 1.837 4.702 1.052 1.77-.74 3.638-1.253 5.6-.61.28.094.613.07.672-.282.058-.351-.304-.36-.54-.42a21.137 21.137 0 0 0-3.28-.487c-.3-.024-.765-.049-.736-.42.03-.37.49-.316.8-.292 1.422.117 2.848.205 4.172.795.169.062.352.07.525.024.137 0 .29-.048.324-.21.034-.16-.074-.297-.22-.375a5.613 5.613 0 0 0-1.87-.721 27.87 27.87 0 0 0-3.608-.244c-.206 0-.49.03-.49-.254 0-.282.264-.263.46-.273 1.898-.092 3.8-.204 5.566.742.142.073.343.297.49 0 .147-.298 0-.371-.181-.488a3.886 3.886 0 0 0-1.574-.8 11.581 11.581 0 0 0-4.237-.248.985.985 0 0 1-.745-.103.36.36 0 0 1-.123-.248c0-.103.108-.137.216-.156a11.23 11.23 0 0 1 6.262.546Zm56.88-15.832a5.092 5.092 0 0 0-1.593-.55 7.557 7.557 0 0 1-2.451-.79c-.246-.127-.49-.215-.765-.322-.275-.108-.427 0-.393.278.157 1.336.06 2.676.103 4.012 0 .4.177.488.535.488 1.363.073 2.731.132 4.09.268a16.48 16.48 0 0 0 5.884-.531 10.11 10.11 0 0 0 2.98-1.287c.163-.103.364-.23.266-.464-.098-.234-.3-.243-.49-.224a7 7 0 0 0-1.442.346c-1.172.351-2.28.892-3.501 1.092-.417.069-.697 0-.824-.429a1.212 1.212 0 0 0-.584-.643 3.97 3.97 0 0 0-2.496-.59 5.606 5.606 0 0 1-1.382 0c.627-.498 1.299-.541 2.069-.654h-.005ZM40.6 142.151v.151l.756.131c2.152.4 4.334.698 6.453 1.244 1.142.297 1.8-.254 2.623-.741a1.044 1.044 0 0 0-.569-.283c-1.255-.434-2.579-.79-3.614-1.609-1.034-.819-1.883-.751-2.942-.127-.877.464-1.78.876-2.707 1.234Zm-17.652.634c0-.254-.187-.235-.329-.264-.98-.205-2.015-.39-3.015-.614-.58-.127-.981-.151-1.349.487a14.117 14.117 0 0 1-1.672 2.136c-.29.341-.24.458.206.522a3.7 3.7 0 0 1 2.01.931.494.494 0 0 0 .76.029c1.148-.79 1.962-1.916 3.046-2.784a2.17 2.17 0 0 0 .318-.443h.025Zm15.725-2.438c.103.56.201 1.024.265 1.487.05.351.211.443.525.297.583-.283 1.162-.58 1.755-.843 1.51-.683 3.036-1.327 4.502-2.111.353-.191.49-.352.314-.771-.412-1.014-.388-1.024-1.437-.634l-.22.083c-1.58.556-3.159 1.102-4.738 1.668a1.826 1.826 0 0 0-.99.804l.024.02Zm-20.369-1.307h-.49c-1.403 0-1.393 0-1.545 1.399-.044.39 0 .571.466.561.869-.01 1.736.069 2.589.234 1.147.2 2.295.405 3.432.634.403.078.564-.029.608-.444.04-.468.05-.939.03-1.409 0-.39-.181-.541-.569-.585-1.486-.146-2.957-.327-4.52-.39Zm.24 7.582a2.676 2.676 0 0 0-1.373-.902 13.344 13.344 0 0 0-2.564-.434c-1.02-.083-1.932.034-2.403 1.111a.43.43 0 0 1-.074.093c-.78 1.009-.662 1.312.618 1.58.118.024.236.039.353.053 1.981.21 3.722-.531 5.443-1.487v-.014Zm35.36-1.044c.945.122 1.902.11 2.844-.034.315-.037.616-.146.883-.317.142-.112.255-.278.122-.487-.132-.21-.235 0-.353.044-.157.064-.322.11-.49.136-1.341.109-2.687.14-4.031.093a34.113 34.113 0 0 1-6.512-1.185c-2.089-.59-4.315-.517-6.375-1.214a.362.362 0 0 0-.413.078.356.356 0 0 0-.077.127.405.405 0 0 0 .128.449.395.395 0 0 0 .147.077c.931.254 1.819.683 2.81.702.151 0 .367.03.401-.156.108-.487.437-.326.731-.263 1.025.219 2.006.609 3.02.843 2.347.603 4.746.979 7.165 1.122v-.015ZM79.893 42.96v-2.535c0-1.014 0-1.005-1.01-1.078-.285 0-.324.044-.3.317.197 2.238-.166 4.466-.2 6.704 0 .38.083.38.352.36.137-.014.275-.014.412 0 .432.04.613-.097.652-.574.069-1.058.015-2.121.074-3.165l.02-.029ZM49.71 143.989c2.33.614 6.473.575 7.356.2a19.85 19.85 0 0 0-4.477-1.59.495.495 0 0 0-.339.039c-.814.415-1.603.849-2.54 1.351ZM16.603 52.555c-1.05 2.228-2.57 3.945-4.036 5.695-.142.176-.49.332-.142.663.348.332.544.234.843-.058 1.437-1.39 2.609-3.004 3.923-4.5a.487.487 0 0 0 .123-.586l-.712-1.214Zm-3.286 92.194a1.23 1.23 0 0 0 1.471-.487c.677-.883 1.471-1.658 2.153-2.594a.75.75 0 0 0-.927.054 39.89 39.89 0 0 0-2.697 3.027Zm38.209-2.413a.902.902 0 0 0-.177-.122 25.202 25.202 0 0 1-5.07-2.384.906.906 0 0 0-.206-.112.356.356 0 0 0-.422.136c-.137.2.088.268.201.337.402.248.81.487 1.226.711 1.285.698 2.741.976 4.055 1.614.133.069.26-.034.393-.18Zm-33.075 4.993c-2.256 1.072-4.413 1.896-6.904.907 1.304 1.53 5.09 1.004 6.904-.907ZM87.836 41.571c.589 1.058 1.393 1.209 2.374.745a7.77 7.77 0 0 1 .843-.273c.292-.043.567-.16.8-.34a11.343 11.343 0 0 1-4.017-.113v-.02ZM14.975 144.779c.353.048.564.117.735-.088l2.54-3.023c-.373.063-.618-.132-.804.122a33.366 33.366 0 0 1-2.472 2.989ZM76.053 25.354c-.044-.18.172-.488-.142-.58a1.074 1.074 0 0 0-.858.049 4.365 4.365 0 0 0-.211 1.613c.029.045.072.08.123.098a.85.85 0 0 0 .918-.355.836.836 0 0 0 .126-.323c.005-.156.03-.317.044-.502Zm-.127 2.54v-.585c0-.195.058-.453-.255-.405-.314.05-.731-.068-.814.288-.047.495.015.994.181 1.463.03.146.162.136.285.146.617.02.661-.044.603-.926v.02Zm.078 3.306c.432.083.461-.112.353-.458a3.977 3.977 0 0 1-.225-.976c-.04-.516-.378-.458-.712-.424-.49.049-.22.38-.196.58.035.293.147.57.197.859a.446.446 0 0 0 .384.437c.07.01.142.004.209-.018h-.01Zm.81 2.74c.048.541.49.883.68 1.35.221.561.604.552 1.104.386-.303-.43-.581-.876-.834-1.336a.657.657 0 0 0-.668-.478.666.666 0 0 0-.283.078Zm18.108 8.776a1.773 1.773 0 0 0 1.255-.794c.103-.166.157-.351-.039-.488a1.476 1.476 0 0 0-1.196.039c-.138.039-.26.117-.182.302a.132.132 0 0 0 .03.049c.27.273.127.58.132.907v-.015Zm-17.785-9.478c-.128-.385-.285-.766-.388-1.16-.127-.488-.49-.308-.765-.254-.382.078-.063.336-.034.488.03.15.152.321.191.487.143.6.48.697.996.439Zm-1.349-9.118c.054-.024.314.161.383-.14.068-.303.113-.62.166-.932.025-.151-.058-.19-.196-.22-.647-.15-.74.288-.873.742-.132.453-.142.668.52.546v.004Zm2.678 12.307c.573.56.941 1.419 1.961 1.267-.652-.448-.863-1.53-1.961-1.267Zm-2.192-14.14c.23.064.274-.092.323-.248.118-.371.23-.742.358-1.112.06-.17.069-.288-.137-.366-.206-.078-.314-.024-.397.18a10.37 10.37 0 0 1-.49 1.064c-.246.429.053.443.323.487l.02-.005Zm4.52 16.124c.406.5.958.861 1.58 1.034-.56-.332-.873-1.005-1.599-1.03l.02-.004Zm-3.726-18.479c.554 0 .623-.458.829-.79a1.31 1.31 0 0 0-.849.795l.02-.005Zm2.202-2.277a2.524 2.524 0 0 0-1.01.975c.428-.206.776-.547.99-.97l.02-.005Zm62.967 49.444c-.329-1.087-.623-2.19-.981-3.262-1.505-4.47-3.241-8.844-5.84-12.808-3.859-5.89-8.63-10.917-14.657-14.662a22.322 22.322 0 0 0-7.625-3.008 18.508 18.508 0 0 1-2.363-.765.355.355 0 0 1-.28-.337c0-.229.191-.302.363-.326.194-.038.394-.027.584.029 1.162.458 2.417.57 3.604.931a29.568 29.568 0 0 1 9.4 4.915 50.024 50.024 0 0 1 12.165 13.437c2.732 4.388 4.59 9.181 6.056 14.14.182.6.363 1.2.579 1.95.319-.449.564-.81.829-1.156.152-.2.323-.487.622-.292.3.195.182.458.059.682-.372.693-.745 1.39-1.167 2.053-.319.488-.667.517-1.074.098a122.793 122.793 0 0 1-1.789-1.887c-.152-.166-.383-.395-.152-.61.23-.214.441 0 .622.161.309.268.613.546.917.82l.128-.103Z" fill="#292929"/><path d="M21.468 130.083c-.77.278-2.417-.161-2.824-.673-.079-.097-.147-.195-.089-.317a.197.197 0 0 1 .255-.088l2.658 1.078Zm-1.304-49.698c0-.254 0-.488.04-.76.038-.274.073-.38.284-.395.21-.015.313.194.338.4.063.486.05.98-.04 1.462-.029.18-.112.356-.328.356-.216 0-.3-.224-.314-.42-.014-.194 0-.428 0-.643h.02Zm.642-4.017c-.039.268-.078.614-.142.975-.03.156-.113.312-.304.292a.304.304 0 0 1-.235-.307 5.56 5.56 0 0 1 .186-1.672.243.243 0 0 1 .245-.21c.172 0 .236.132.245.278.01.146.005.366.005.644Zm-1.486 33.964a4.166 4.166 0 0 1 .304-1.522c.078-.126.167-.307.363-.214.196.092.098.239.078.37a37.39 37.39 0 0 1-.196 1.463c-.03.205-.059.488-.358.424-.3-.063-.191-.326-.191-.521Zm.525 2.705c.005.301-.045.6-.147.883-.054.127-.137.258-.3.234a.291.291 0 0 1-.24-.302c0-.527.045-1.053.079-1.58a.184.184 0 0 1 .056-.133.18.18 0 0 1 .135-.052.323.323 0 0 1 .29.17c.116.243.16.514.127.78Zm.328-16.265c-.04.351-.064.658-.117.975 0 .151-.108.317-.3.302-.19-.014-.27-.2-.274-.385a5.28 5.28 0 0 1 .122-1.33c.04-.181.123-.376.314-.371.191.005.245.258.255.448.01.19 0 .264 0 .361Zm.132-9.595c-.034.229-.074.56-.137.882a.295.295 0 0 1-.214.263.3.3 0 0 1-.12.01c-.206 0-.255-.19-.245-.341.03-.41.083-.82.137-1.224.03-.195.074-.434.32-.424.244.01.25.288.259.488.005.087 0 .165 0 .346Zm.682-14.934c-.059.331-.128.76-.22 1.18-.04.156-.143.297-.34.268-.195-.03-.244-.2-.225-.36.06-.425.133-.854.211-1.278.034-.195.103-.444.329-.424.225.019.25.292.245.614Zm-.308 11.536c-.025.234-.04.487-.079.697-.039.21-.098.312-.294.312a.314.314 0 0 1-.324-.346c0-.39.05-.78.089-1.166 0-.185.107-.365.323-.35.216.014.275.194.285.385.01.19 0 .312 0 .468Zm-1.153 19.366v-.351c0-.19-.054-.444.201-.488.255-.044.353.2.398.415.066.346.066.702 0 1.048-.03.18-.099.375-.32.356-.22-.02-.269-.205-.279-.39-.01-.185 0-.395 0-.59Zm-.147-12.375c.034-.268.049-.487.093-.731a.229.229 0 0 1 .24-.21.246.246 0 0 1 .245.215c.093.382.104.779.035 1.165-.03.2-.098.42-.343.395-.246-.024-.27-.253-.27-.458v-.376Zm.735 2.57c-.034.322-.064.595-.103.863-.03.175-.073.38-.309.356-.235-.025-.235-.205-.245-.361-.002-.492.05-.982.157-1.463a.204.204 0 0 1 .186-.195.24.24 0 0 1 .255.2c.03.199.05.399.06.6Zm-.594 6.977c0-.127.045-.42.09-.707a.228.228 0 0 1 .234-.22c.138 0 .206.098.24.22.101.382.101.783 0 1.165-.043.19-.102.424-.347.405-.246-.02-.221-.273-.23-.458-.016-.079 0-.157.014-.405Zm1.762-31.37c-.04.243-.079.531-.133.814-.034.166-.117.312-.309.278-.191-.034-.2-.18-.191-.322 0-.307.059-.62.113-.921.039-.195.044-.488.338-.449.294.039.177.346.182.6Zm-1.791 37.816c.03-.22.06-.454.108-.683 0-.141.099-.273.275-.249.177.025.22.161.226.298.007.234-.003.469-.03.702-.03.224-.034.541-.363.487-.328-.053-.186-.341-.216-.555ZM40.513 48.46c.083 2.11-2.1 4.51-4.139 4.07-2.339-.487-4.266-2.657-3.53-5.31a63.777 63.777 0 0 1 2.701-7.986c.069-.165.133-.331.216-.487.24-.459.392-.488.701-.068.716.94 1.08 2.057 1.584 3.096a39.803 39.803 0 0 1 2.29 5.558c.117.364.177.744.177 1.126Zm-5.733 1.047a2.77 2.77 0 0 0 1.962 1.61 2.71 2.71 0 0 0 2.123-1.2c.167-.336.113-.532-.314-.488a11.67 11.67 0 0 1-2.824.147c-.329-.035-.628-.2-.947-.069Zm-3.255 10.834c.152.049.324.093.49.156a64.9 64.9 0 0 0 3.825 1.258c.236.068.574.146.456.488-.117.341-.392.18-.622.112a39.746 39.746 0 0 1-4.227-1.531c-.157-.068-.363-.137-.3-.366.064-.229.246-.117.378-.117Zm28.479-21.194v1.77c0 .21-.024.487-.319.487-.294 0-.313-.234-.328-.429a31.204 31.204 0 0 1-.034-3.71c0-.18.078-.376.299-.376.22 0 .27.21.27.385v1.887l.112-.014Zm-23.576-5.364c0 .317.04.63.04.941 0 .234-.07.449-.354.454-.284.005-.343-.18-.353-.39a61.647 61.647 0 0 1-.093-2.116c0-.2.049-.42.3-.44.25-.019.352.215.372.44.039.37.059.74.083 1.111h.005Zm-4.511.561a.553.553 0 0 1 .407.195c.348.37.696.746 1.03 1.127.161.185.28.419.034.614-.245.195-.407 0-.56-.151-.347-.395-.695-.79-1.034-1.195a.42.42 0 0 1-.108-.434.245.245 0 0 1 .23-.156Zm6.865 1.682c-.338-.088-.372-.322-.235-.546.288-.49.64-.94 1.05-1.336a.338.338 0 0 1 .431-.083.279.279 0 0 1 .103.41 59.33 59.33 0 0 1-1.148 1.463c-.039.068-.142.073-.2.092Zm-6.811 2.599c-.049.273-.21.395-.426.292-.53-.248-1.045-.531-1.565-.814a.283.283 0 0 1-.117-.36.273.273 0 0 1 .333-.19c.6.18 1.164.462 1.667.833.07.054.079.17.108.239Zm8.65-.254c-.177 0-.304 0-.353-.136a.261.261 0 0 1 .137-.346 51.764 51.764 0 0 1 1.638-.644.28.28 0 0 1 .343.161.263.263 0 0 1-.117.356 7.871 7.871 0 0 1-1.648.61ZM92.52 18.454c0 1.136 0 1.185 1.079 1.546.857.352 1.678.785 2.452 1.292a.38.38 0 0 1 .152.522 57.13 57.13 0 0 1-.932 1.906c-.186.375-.451.414-.824.19a6.406 6.406 0 0 0-3.888-.78c-.48.023-.936.22-1.28.556a.785.785 0 0 0-.175 1.045.788.788 0 0 0 .283.261c.481.321 1.044.5 1.623.517a7.836 7.836 0 0 1 3.977 1.55 4.702 4.702 0 0 1 1.81 3.33 4.29 4.29 0 0 1-.38 2.681 4.322 4.322 0 0 1-1.91 1.927 3.025 3.025 0 0 1-1.472.405c-.49 0-.804.117-.637.731.068.408.104.82.108 1.234.034.341-.089.517-.452.531-.77.044-1.54.112-2.31.151-.69.035-.887-.131-1.01-.794 0-.078 0-.156-.038-.234-.084-.42.235-1.01-.113-1.234a3.448 3.448 0 0 0-1.535-.346 4.381 4.381 0 0 1-1.677-.546.524.524 0 0 1-.329-.614c.222-1.039.527-2.058.912-3.048.113-.312.383-.204.604-.107.744.32 1.525.553 2.324.692a6.322 6.322 0 0 0 2.53-.146 1.97 1.97 0 0 0 .544-.224c.662-.38.75-.863.275-1.463a3.208 3.208 0 0 0-1.858-.975 49.845 49.845 0 0 0-2.668-.57 3.55 3.55 0 0 1-2.58-1.878c-.887-1.574-1.029-3.13.04-4.66a5.172 5.172 0 0 1 3.202-1.99c.422-.098.593-.258.554-.702-.04-.444 0-.975 0-1.463 0-.346.123-.546.515-.56.927-.035 1.853-.093 2.78-.142.28 0 .397.132.388.4-.01.268-.069.678-.084 1.01Zm-.696.488c-.069-.346.26-.892-.069-1.166-.328-.273-.873-.048-1.324-.068h-.534c-.294 0-.461.117-.392.43a4.3 4.3 0 0 1-.06 1.35c-.058.487-.166 1.014-.887 1.092a4.533 4.533 0 0 0-1.329.488 3.397 3.397 0 0 0-1.62 1.425 3.366 3.366 0 0 0-.43 2.11c.236 1.516 1.119 3.095 2.972 3.286.765.099 1.522.252 2.266.458 1.034.253 2.02.6 2.618 1.58.388.634.294 1.53-.29 1.857a4.769 4.769 0 0 1-2.274.776 9.294 9.294 0 0 1-3.536-.664c-.402-.156-.569-.068-.667.322a21.887 21.887 0 0 1-.49 1.648c-.108.342 0 .488.353.58a18.25 18.25 0 0 0 2.555.512.492.492 0 0 1 .49.386c.121.477.162.971.123 1.462 0 .44.147.663.632.6.486-.063.98-.097 1.471-.122.26 0 .344-.112.324-.366-.034-.429 0-.867-.059-1.297-.059-.429.172-.726.662-.755a4.174 4.174 0 0 0 2.452-1.097 4.068 4.068 0 0 0 1.328-2.893 4.047 4.047 0 0 0-1.171-2.958 7.16 7.16 0 0 0-4.08-1.721 3.79 3.79 0 0 1-2.04-.727 1.463 1.463 0 0 1-.608-1.347 1.457 1.457 0 0 1 .883-1.188c1.525-.829 3.07-.488 4.609-.068 1.084.312 1.074.346 1.496-.722a.86.86 0 0 1 .049-.107c.152-.278.054-.434-.201-.62a9.72 9.72 0 0 0-2.148-.974c-.334-.142-.839.082-1.005-.308a3.877 3.877 0 0 1-.069-1.184v-.01ZM40.16 8.708c.05-.317-.054-.795.417-.83.319 0 .29.367.265.61-.025.244.054.751-.383.805-.436.053-.27-.337-.299-.585Z" fill="#292929"/></g><defs><clipPath id="a"><path fill="#fff" d="M0 0h258v150H0z"/></clipPath></defs></svg>