<svg width="295" height="160" viewBox="0 0 295 160" fill="none" xmlns="http://www.w3.org/2000/svg"><g clip-path="url(#a)"><path d="m148.337 95.708-3.991-.414a.803.803 0 0 1-.66-.295.802.802 0 0 1-.159-.704c.159-1.954.236-3.917.428-5.872.151-1.544.159-3.106.277-4.654.143-1.938.325-3.87.507-5.798.171-1.78.369-3.555.55-5.336.157-1.522.314-3.045.45-4.567.119-1.33.239-2.667.304-4 .1-1.942.216-3.878.425-5.807.139-1.244.234-2.497.307-3.744.031-.574.323-.808.829-.726 1.773.28 3.559.428 5.342.625 1.782.198 3.432.372 5.148.561l5.73.624 5.482.571c2.703.287 5.405.558 8.096.977 3.751.585 7.512 1.148 11.277 1.657 4.165.56 8.327 1.187 12.484 1.84 7.568 1.185 15.033 2.925 22.592 4.165.692.113.937.416.751 1.066-.794 2.756-.85 5.662-1.358 8.48-.358 2.058-.672 4.127-1.019 6.186a2.8 2.8 0 0 0 .21 1.385 8.628 8.628 0 0 1 .188 4.186c-.171 1.097-.786 1.341-1.778.916-.555-.255-1.239-.128-1.84-.3-1.147-.322-2.283.021-3.411.114a32.414 32.414 0 0 1-6.3.121c-1.748-.155-3.484-.283-5.2.221-.098.004-.257-.018-.247.129.017.507-.373.76-.602 1.112a2.48 2.48 0 0 0 .102 3.07 7.307 7.307 0 0 0 2.899 2.256 24.14 24.14 0 0 0 5.665 1.805c2.2.446 4.427.53 6.637.779.301.029.595.113.866.25a.847.847 0 0 0 .679.059c.93-.287 1.396.08 1.302 1.049-.147 1.5-.31 3.001-.523 4.488-.151 1.053-.143 2.112-.239 3.169-.121 1.308-.296 2.608-.302 3.929.015.436-.323.633-.755.615-1.318-.055-2.642-.104-3.955-.164-1.406-.063-2.813-.147-4.214-.215l-6.091-.312c-1.231-.057-2.467-.092-3.699-.161-1.767-.094-3.541-.21-5.309-.31-1.095-.067-2.249-.116-3.372-.183l-5.179-.325c-1.467-.093-2.934-.17-4.379-.275-1.851-.135-3.703-.303-5.554-.433-1.49-.109-2.979-.185-4.467-.272-1.791-.11-3.581-.22-5.376-.319-1.166-.065-2.331-.108-3.502-.173-1.921-.1-3.832-.217-5.763-.311a292.17 292.17 0 0 0-3.764-.154c-2.248-.078-4.488-.244-6.729-.437-.405-.03-.528-.283-.568-.658a14.65 14.65 0 0 1 .248-2.241c.054-.843.021-1.682.097-2.525a36.59 36.59 0 0 0 .025-3.703 1.052 1.052 0 0 1 .408-1.018Zm142.433 2.507a11.768 11.768 0 0 1-.352 4.193 25.685 25.685 0 0 1-3.069 7.635.684.684 0 0 0 .029.867c2.031 3.273 3.934 6.622 5.078 10.313a23.02 23.02 0 0 1 .648 12.277 9.766 9.766 0 0 1-4.735 6.5.758.758 0 0 0-.4.789 13.824 13.824 0 0 1-1.357 6.181 7.294 7.294 0 0 1-3.283 3.318 2.028 2.028 0 0 1-1.69.105c-2.569-.87-4.822-2.422-7.309-3.431-4.347-1.761-7.27-5.076-10.081-8.602a22.976 22.976 0 0 1-3.303-5.208c-.136-.312-.395-.38-.649-.486-3.55-1.427-7.134-2.755-10.612-4.354a62.59 62.59 0 0 1-7.737-4.318c-.073-.047-.14-.105-.213-.146-1.622-.809-1.896-1.324-1.511-3.056.603-2.749 1.146-5.497 1.788-8.204 1.1-4.715 2.129-9.443 3.186-14.162a9.334 9.334 0 0 1 .69-2.097c.143-.295.262-.653.519-.798.714-.384.79-1.075.965-1.736.509-1.927.892-3.889 1.485-5.797.093-.405.305-.773.609-1.057a1.17 1.17 0 0 1 1.446-.223c.683.49 1.459.498 2.207.647a46.79 46.79 0 0 1 5.12 1.523c2.696.904 5.391 1.817 8.084 2.74 1.078.345 2.114.811 3.089 1.388a1.212 1.212 0 0 0 1.635-.114 12.402 12.402 0 0 1 5.498-2.415 38.471 38.471 0 0 1 6.931-.705c.216.028.435 0 .637-.081.943-.544 1.8-.25 2.631.268a8.187 8.187 0 0 1 3.947 6.681c.067.522.062 1.041.079 1.564Zm-87.505-47.999 11.586 1.292s2.338-7.922.8-14.27l-10.857.437s.184 6.708-1.529 12.54Z" fill="#35A61A"/><path d="m204.773 37.681 10.857-.436s1.321-7.277-2.405-13.377l-9.477 9.595 1.025 4.218ZM8.336 124.4a4.078 4.078 0 0 0-.715-2.793 27.647 27.647 0 0 1-3.739-12.748 23.947 23.947 0 0 1 1.465-9.209 5.613 5.613 0 0 1 3.34-3.386c4.539-1.87 9.054-3.783 13.462-5.938a3.866 3.866 0 0 1 1.416-.462 1.224 1.224 0 0 1 1.287 1.754c-.145.31-.165.665-.054.99.2.755.301 1.533.3 2.315a41.51 41.51 0 0 0 1.302 8.102 101.922 101.922 0 0 0 6.79 20.262c.787 1.666 1.413 3.403 2.265 5.045.852 1.642-.3 2.98-1.673 2.927a2.797 2.797 0 0 0-1.386.537 134.167 134.167 0 0 1-13.812 6.752 3.08 3.08 0 0 1-1.25.337.545.545 0 0 0-.478.261 1.79 1.79 0 0 1-2.604.387 8.477 8.477 0 0 1-3.156-3.57 24.97 24.97 0 0 1-2.337-7.892c-.178-1.228-.284-2.458-.423-3.671ZM202.46 27.91l9.218-7.2-2.174-2.942-9.48 7.198 2.436 2.944Z" fill="#7898EA"/><path d="M209.504 17.768s-8.026-13.042-27.241-7.285l3.898 11.607s7.909-3.03 13.864 2.904l9.479-7.226Z" fill="#AB7AB7"/><path d="M165.929 27.155s6.255-14.52 16.35-16.7l3.898 11.607a16.478 16.478 0 0 0-8.833 11.09l-11.415-5.997Z" fill="#E39D49"/><path d="M161.755 42.633a.727.727 0 0 0 .358.964.73.73 0 0 0 .37.066c3.734.586 7.861 1.153 11.59 1.74 1.02-3.856 1.652-7.698 2.673-11.515a.834.834 0 0 0 .028-.663.83.83 0 0 0-.47-.469c-1.97-1.261-10.375-5.6-10.375-5.6-1.196 1.802-2.272 6.281-2.804 8.352a57.133 57.133 0 0 0-1.37 7.125Z" fill="#E96A6A"/><path d="M281.935 150.585a6.123 6.123 0 0 1-2.068-.401c-4.28-1.566-8.007-4.058-11.521-6.9-3.514-2.842-6.21-6.061-7.947-10.163a.7.7 0 0 0-.475-.476 83.345 83.345 0 0 1-15.246-6.214c-1.412-.729-2.783-1.546-4.142-2.336a1.813 1.813 0 0 1-.898-1.706c.03-.754-.302-.863-.956-.978a45.501 45.501 0 0 1-9.53-2.872 49.898 49.898 0 0 1-12.056-7.052 4.873 4.873 0 0 0-3.095-1.082c-5.498-.222-10.993-.504-16.488-.802a4.594 4.594 0 0 0-2.496.514 22.529 22.529 0 0 1-5.31 2.125c-1.996.464-3.969.426-5.808-.676a2.431 2.431 0 0 1-1.337-2.417c.035-.438-.169-.486-.52-.529-5.746-.448-11.499-.782-17.252-1.115-5.315-.304-10.642-.494-15.948-1.011-1.584-.155-1.611-.159-1.599-1.776.015-2.606.06-5.211.134-7.816.015-.546-.128-.716-.654-.775-1.014-.108-2.02-.299-3.03-.446-.549-.074-.82-.18-.741-.92.137-1.309.114-2.645.174-3.968.412-8.683 1.612-17.293 2.216-25.96.246-3.622.662-7.222.902-10.839.037-.547.383-.662.817-.573 3.893.597 7.827.773 11.733 1.25 3.906.476 7.672.706 11.476 1.256 11.581 1.62 23.202 2.96 34.72 4.975 6.594 1.146 13.111 2.458 19.675 3.665.764.139.651.525.581 1.073-.32 2.363-.783 4.704-1.175 7.06-.192 1.13-.187 2.287-.312 3.432-.048.39.178.426.427.532 4.554 1.41 8.897 3.379 13.349 5.016 3.618 1.354 7.11 3.04 10.597 4.715.101.043.198.097.289.16.478.404.894.609 1.437-.004.3-.343.849-.241 1.311-.164 4.026.664 7.872 1.961 11.713 3.291 2.57.892 5.059 1.984 7.563 3.025a.743.743 0 0 0 .967-.174 4.46 4.46 0 0 1 1.129-.873c4.034-2.071 8.252-3.057 12.788-2.023a7.901 7.901 0 0 1 2.454 1.01c.134.089.391.113.284.351-.107.239-.303.087-.473.065-1.596-.187-3.142-.682-4.751-.781a18.794 18.794 0 0 0-9.762 2.168 6.685 6.685 0 0 0-.979.644 2.623 2.623 0 0 0-1.106 1.746 45.89 45.89 0 0 1-1.787 5.916c-3.346 10.15-5.843 20.518-8.262 30.921-.046.364.046.733.258 1.034 2.626 5.885 7.308 9.829 12.556 13.231a73.916 73.916 0 0 0 6.5 3.606c.615.247 1.181.6 1.674 1.041Zm-131.41-57.1c20.537 1.83 40.604 5.291 60.784 8.395-.948-2.24-.821-3.33.574-5.27.308-.431-.014-.404-.266-.445a21.649 21.649 0 0 1-4.412-1.23 10.67 10.67 0 0 1-3.672-2.187c-1.694-1.647-1.84-3.078-.395-4.97.215-.28.174-.378-.131-.493a9.628 9.628 0 0 1-1.576-.914c-.234-.14-.377-.326-.255-.592a.457.457 0 0 1 .292-.25.457.457 0 0 1 .379.058c.277.125.542.275.791.449.833.556 1.617.99 2.75.553.884-.351 1.894-.063 2.846-.001a.809.809 0 0 0 .913-.648c.242-.766-.046-1.38-.94-1.825A17.467 17.467 0 0 0 205.149 83a8.8 8.8 0 0 1-2.445-1.06 2.725 2.725 0 0 1-1.156-3.237 3.89 3.89 0 0 1 3.029-2.748c.448-.09.904-.136 1.361-.138.371-.013.544-.073.486-.513a5.124 5.124 0 0 1 .173-1.676c.068-.275.149-.617.528-.564.379.053.336.399.301.678a8.889 8.889 0 0 1-.251 1.646c-.128.436.017.513.375.61a5.47 5.47 0 0 1 2.468 1.261c.248.243.443.531.17.857-.273.326-.544.073-.774-.116a5.343 5.343 0 0 0-4.716-1.029 2.84 2.84 0 0 0-2.123 1.872 1.76 1.76 0 0 0 .836 2.33 9.123 9.123 0 0 0 2.215.894c1.12.27 2.202.68 3.22 1.22.864.517 1.493 1.19 1.442 2.299-.02.372-.454.806-.112 1.057.341.25.791.138 1.201.157.413.023.828.018 1.24-.014 1.689-.138 3.377-.303 5.066-.44.24-.009.325-.099.36-.346a200.575 200.575 0 0 1 2.125-12.374c.033-.154.131-.327-.016-.475-1.809 1.283-3.9-.144-4.218-1.842-.319-1.698-.106-3.184 1.207-4.461-.177-.05-.315-.105-.464-.132-7-1.204-14.022-2.265-21.05-3.31-7.495-1.132-14.99-2.27-22.51-3.359-4.491-.659-9.009-1.137-13.521-1.626l-5.445-.584c-.174.006-.403-.128-.543.078-.141.207.067.233.136.334a3.567 3.567 0 0 1-.076 4.282 2.133 2.133 0 0 1-2.578.84 2.962 2.962 0 0 1-1.76-1.498c-.415 8.568-1.182 16.924-1.841 25.385a2.087 2.087 0 0 1 1.698-.515 3.82 3.82 0 0 1 2.745 3.354 3.928 3.928 0 0 1-1.407 3.387Zm71.214 4.446-1.009 10.618a5.137 5.137 0 0 0-.086 1.035c.08.92.096.925-.832.95-.545.018-1.13.005-1.698.024-.147.005-.347-.098-.454.14l.252.199a55.386 55.386 0 0 0 11.035 6.382 50.015 50.015 0 0 0 10.072 3.089c.517.097.721-.024.779-.572a75.863 75.863 0 0 1 2.34-11.803c1.819-6.77 3.721-13.514 6.49-19.982.117-.26.097-.358-.206-.446a9.125 9.125 0 0 1-1.394-.5c-4.651-2.21-9.363-4.275-14.193-6.08-2.87-1.068-5.651-2.373-8.552-3.358-.232-.08-.649-.48-.665.208-.061 2.933-.352 5.852-.562 8.753-.022.306.074.423.355.49.931.231 1.846.485 2.755.717 1.173.272 2.24.826 3.398 1.137.177.049.327.147.302.361-.026.214-.197.318-.41.347a2.095 2.095 0 0 1-.899-.107c-1.448-.498-2.924-.842-4.41-1.186-2.753-.645-5.502-1.16-8.325-.783a26.217 26.217 0 0 1-4.027.298c-.546.018-.742.024-.411.625.746 1.394.186 2.64-1.345 3.101a4.193 4.193 0 0 1-3.336-.435 8.752 8.752 0 0 1-2.585-2.158c-.244-.298-.369-.266-.545.018a1.855 1.855 0 0 0 .14 2.244 6.33 6.33 0 0 0 2.013 1.73 18.295 18.295 0 0 0 4.928 1.84c3.145.742 6.363.935 9.568 1.184a3.406 3.406 0 0 1 3.043 1.984c1.446 2.917 3.594 5.247 5.939 7.446 2.346 2.199 4.841 4.299 8.058 5.241.399.073.761.278 1.03.583a.841.841 0 0 1-.168.06.763.763 0 0 1-.191.006c-2.982-.638-5.777-1.55-8.084-3.755-2.872-2.738-5.806-5.381-7.56-9.03a.96.96 0 0 0-.55-.615Zm-4.874.162a7.34 7.34 0 0 1-.817 3.706 1.855 1.855 0 0 1-1.756 1.232c-1.814-.175-3.629-.376-5.431-.677-13.327-2.206-26.714-4.071-40.085-6.14-4.163-.642-8.364-.972-12.539-1.505-2.508-.327-5.02-.795-7.572-.66a1.933 1.933 0 0 1-.578-.107c-1.511-.447-2.538-2.57-1.856-4.246.601-1.483.605-3.011.73-4.533.357-4.38.654-8.756.957-13.133.203-2.944.483-5.88.582-8.83.051-1.519.252-3.028.599-4.507.416-1.794 1.835-2.496 3.529-1.804.219.094.449.16.684.195 2.117.241 4.229.488 6.35.696 4.692.462 9.383.917 14.049 1.587 7.01 1.007 14.006 2.074 21.006 3.125 6.249.95 12.496 1.919 18.743 2.905 1.801.28 3.58.717 5.416.732.433-.011.857.123 1.204.381a3.823 3.823 0 0 1 1.403 2.279c.23 1.002-.16 1.921-.325 2.877-.833 4.716-1.632 9.443-2.443 14.17-.041.253-.177.596.248.538.593-.047 1.24.505 1.788-.109.037-.044.023-.126.032-.192l.095-.581c1.057-6.51 1.9-13.056 3.1-19.543.065-.351.011-.513-.374-.571-.922-.139-1.846-.31-2.746-.455-10.056-1.905-20.088-3.93-30.223-5.265-5.772-.764-11.531-1.769-17.295-2.435-8.528-.99-17.073-1.809-25.596-2.83-.33-.039-.464.015-.49.387-.072.974-.198 1.944-.275 2.918-.327 4.154-.599 8.312-.969 12.468-.448 5.103-1.099 10.19-1.432 15.305-.195 3.009-.385 6.018-.608 9.033-.034.438.221.391.468.421 1.404.177 2.803.344 4.208.527 5.711.728 11.448 1.258 17.147 2.095 10.065 1.486 20.13 2.963 30.195 4.431 4.688.693 9.375 1.391 14.061 2.094 2.404.357 4.814.714 7.224 1.055.231.03.617.301.674-.268.236-2.268.604-4.519.989-6.764.201-1.175.408-1.023-.896-1.144-1.243-.106-1.253-.073-1.17 1.125l-.005.017Zm48.177 13.912c.344-.012.314-.267.368-.455.826-2.92 1.702-5.832 2.689-8.703.214-.613.064-.854-.506-1.075a175.826 175.826 0 0 0-19.804-7.095c-.375-.108-.548-.042-.65.338-.989 3.123-1.979 6.24-2.902 9.376-.117.408-.073.587.39.724 6.726 2.005 13.353 4.307 19.935 6.736l.48.154Zm-2.52 10.166c.229-.008.228-.199.262-.325.754-2.962 1.497-5.929 2.257-8.891.082-.331-.014-.437-.318-.536-1.474-.459-2.938-.945-4.418-1.436-5.249-1.766-10.498-3.534-15.746-5.303-.404-.14-.651-.181-.786.359-.677 2.67-1.408 5.325-1.991 8.02-.104.494-.03.727.489.895 3.866 1.264 7.69 2.737 11.522 4.138 2.732 1.001 5.554 1.738 8.226 2.91.182.049.348.098.502.153l.001.016Zm-20.778-6.954c-.244.057-.209.269-.232.417a142.295 142.295 0 0 0-.805 5.873 2.186 2.186 0 0 0 1.258 2.344c.864.463 1.731.916 2.602 1.361a93.41 93.41 0 0 0 15.15 6.288c.596.188.705.004.83-.513.579-2.47 1.12-4.95 1.809-7.397.259-.925.242-.925-.701-1.188l-.684-.207c-6.387-2.01-12.594-4.496-18.872-6.826a2.533 2.533 0 0 0-.356-.185l.001.033Zm-42.608-6.596c8.307.407 14.228.697 20.115.971.394.02.488-.12.498-.47.016-.693.042-1.388.112-2.078.297-3.061.622-6.123.919-9.19.02-.23.231-.603-.241-.67-.472-.065-.409.347-.455.61-.438 2.61-.872 5.221-1.303 7.834-.132.79-.232.898-1.008.721-.386-.091-.548-.036-.507.366.02.622-.368.782-.875.799-.508.017-.908-.013-1.367-.042-3.4-.209-6.805-.408-10.211-.639-3.986-.271-7.973-.571-11.954-.853-2.864-.206-5.719-.45-8.585-.573a461.512 461.512 0 0 1-8.39-.448c-2.689-.167-5.373-.401-8.061-.557-2.688-.157-5.34-.238-8.01-.351-2.341-.098-4.686-.298-7.029-.259-2.342.04-3.663-1.238-3.359-3.786a7.613 7.613 0 0 1 .683-2.3c.326-.72.106-1.094-.651-1.19a3.022 3.022 0 0 1-.445-.072c-.552-.151-.692.056-.69.612.005 2.626.092 5.254-.319 7.861-.063.395.02.594.491.622 1.45.089 2.898.243 4.353.315 5.971.315 11.94.576 17.906.913 10.27.609 20.511 1.536 28.383 1.854Zm51.682-21.447c-.728-.052-.91.418-1.098.817-.864 1.808-1.401 3.737-2.109 5.605-.191.492.141.481.434.56a141.418 141.418 0 0 1 14.766 4.914c1.743.674 3.481 1.359 5.179 2.143.205.097.465.35.597-.107.647-2.254 1.553-4.419 2.072-6.718a.505.505 0 0 0-.155-.6.5.5 0 0 0-.201-.092c-.714-.266-1.407-.576-2.105-.875a105.13 105.13 0 0 0-16.022-5.397 7.533 7.533 0 0 0-1.358-.25Zm-96.783 16.107c.082.022.164.039.248.052 3.363.107 6.727.23 10.095.315 5.085.132 10.146.668 15.228.877 4.377.182 8.756.446 13.138.792 3.982.321 7.974.577 11.96.859 2.235.163 4.467.32 6.697.472.142-.005.365.119.422-.145a1.025 1.025 0 0 0-.792-1.148l-16.949-2.528a2.563 2.563 0 0 0-1.092.037 29.623 29.623 0 0 1-13.371.405 17.319 17.319 0 0 1-6.168-2.138c-.318-.202-.561-.434-.356-.851.205-.416-.018-.545-.418-.597-5.738-.864-11.476-1.738-17.244-2.366-.175.006-.381-.123-.546.019.983 2.145.556 4.081-.852 5.945Zm36.924-.891c-.187-.042-.375-.091-.551-.123l-8.504-1.274c-2.383-.352-4.766-.705-7.137-1.035-.28-.035-.665-.295-.846.169-.182.465.285.537.532.742a5.17 5.17 0 0 0 1.542.691c1.434.428 2.894.763 4.371 1.001a26.16 26.16 0 0 0 10.593-.171Zm20.576-2.745c.007.767.291 1.507.801 2.081.669.736 2.562.81 2.925.045.711-1.28 1-2.75.827-4.204a.736.736 0 0 0-.242-.52.744.744 0 0 0-.541-.19c-.432-.027-.863-.08-1.289-.16-1.098-.177-1.464 0-2.009 1.01a3.778 3.778 0 0 0-.472 1.938Zm-56.997-.158c-.037-1.09-.341-1.856-1.382-2.138a6.966 6.966 0 0 1-.832-.376c-.172-.076-.333-.153-.546.018-1.338 1.163-1.681 2.681-1.495 4.346a1.635 1.635 0 0 0 1.566 1.585 1.878 1.878 0 0 0 2.07-1.013 5.676 5.676 0 0 0 .619-2.422Zm66.155-29.962a6.34 6.34 0 0 0-.113-.788c-.247-.86-.714-1.581-1.657-1.703a1.96 1.96 0 0 0-1.797.862c-.749.97-.783 3.067-.104 4.092a1.764 1.764 0 0 0 2.865.244c.767-.757.73-1.711.806-2.707Zm-73.841 21.111c.051.386.064.604.109.816.347 1.566 1.544 2.225 2.827 1.544a2.598 2.598 0 0 0 1.325-1.9c.269-1.254-.266-2.246-.969-3.178a1.43 1.43 0 0 0-2.08-.117c-.84.847-.852 1.983-1.212 2.835Zm46.908 18.955-.006-.175-2.912-.176-6.757-.442c-.229.007-.551-.157-.58.281a1.404 1.404 0 0 0 .452 1.29 4.583 4.583 0 0 0 1.971.944c2.911.619 5.361-.625 7.832-1.722Zm12.555-22.061a3.988 3.988 0 0 0-1.585.314c-.291.125-.41.303-.16.59a7.593 7.593 0 0 0 3.259 2.398 2.998 2.998 0 0 0 2.464-.158 1.168 1.168 0 0 0 .642-1.408c-.192-.84-.744-1.51-1.308-1.546-1.079-.073-2.184-.13-3.29-.19h-.022Zm-56.576-27.505a3.66 3.66 0 0 0 .529 1.8 1.879 1.879 0 0 0 1.712.894 1.399 1.399 0 0 0 1.262-.987c.552-1.148.717-2.278-.3-3.298a2.642 2.642 0 0 1-.367-.533.737.737 0 0 0-.444-.352 1.635 1.635 0 0 0-1.951.581c-.141.2-.234.43-.274.672a11.19 11.19 0 0 0-.167 1.223Zm66.893 46.52c.091-.39-.199-.402-.463-.443-1.098-.154-2.141-.311-3.21-.439-.182-.027-.416-.167-.546.018-.131.184.014.414.102.608a.871.871 0 0 0 .715.473c.943.116 1.912-.009 2.833.266.497.153.645-.005.569-.483Zm5.615-21.967a6.128 6.128 0 0 0-.258 2.132 5.4 5.4 0 0 0 .258-2.126v-.006ZM73.795 86.917c.651.67 1.367 1.275 2.136 1.807 6.152 4.294 12.337 8.593 18.651 12.674.908.56 1.86 1.045 2.846 1.451 4.574 2.032 9.167 3.975 13.736 6.002a64.36 64.36 0 0 1 9.538 5.241 7.307 7.307 0 0 1 2.767 3.047 4.457 4.457 0 0 1 .208 3.482.669.669 0 0 0-.067.542.686.686 0 0 0 .356.414c1.676 1.108 2.063 2.743 1.792 4.619a2.09 2.09 0 0 1-.762 1.396 5.154 5.154 0 0 1-3.43 1.369c-.403.013-.51.11-.479.524a4.172 4.172 0 0 1-.627 2.864c-.699 1.001-1.765 1.298-2.892 1.412-2.209.16-4.43-.039-6.576-.59-.446-.105-.68-.103-.971.371-.782 1.292-2.085 1.706-3.521 1.721-1.288.043-2.545-.292-3.837-.38-7.59-.529-14.756-2.787-21.829-5.374-9.816-3.584-19.757-6.808-29.771-9.795a29.429 29.429 0 0 0-7.24-1.027c-1.97-.071-3.741.703-5.545 1.336-.718.248-1.419.544-2.16.759-.46.136-.535.346-.465.802.312 1.507.586 3.027.86 4.541.168.985.26 1.982.274 2.982a1.321 1.321 0 0 1-.716 1.307c-5.752 3.646-11.857 6.528-18.141 9.139-.663.278-1.296.621-1.947.921-.334.159-.703.236-.902-.172-.2-.408.089-.62.378-.788.822-.443 1.67-.836 2.54-1.176 3.455-1.43 6.82-3.048 10.18-4.704.468-.229.56-.417.341-.929a129.215 129.215 0 0 1-8.044-26.132c-.719-3.705-1.437-7.415-1.933-11.16a11.66 11.66 0 0 1-.1-1.689c.01-.546-.094-.695-.694-.523-3.079.916-5.932 2.353-8.785 3.785-.683.34-1.36.69-2.049 1.007-.295.14-.663.251-.856-.135-.193-.387.065-.668.403-.838 3.3-1.643 6.523-3.492 10.076-4.575 1.747-.539 3.398-1.325 5.085-2.02 7.47-3.08 14.892-6.274 22.487-9.053 2.974-1.087 5.887-2.38 8.97-3.142 3.48-.858 6.926-1.867 10.563-1.9 2.321-.034 4.638-.367 6.963-.428a20.988 20.988 0 0 1 8.914 1.6 24.936 24.936 0 0 0 11.105 1.76 8.46 8.46 0 0 1 2.737.16 3.32 3.32 0 0 1 2.513 2.478 3.179 3.179 0 0 1-1.31 3.487 13.232 13.232 0 0 1-5.777 2.234c-4.71.794-9.355.102-13.99-.628l-.836-.147c-.055-.015-.053.023-.167.07Zm-7.45-9.53-2.871.095c-1.718.024-3.43.229-5.104.611-1.35.334-2.71.636-4.06.97-3.429.889-6.706 2.231-10.031 3.444-6.31 2.3-12.454 5.02-18.705 7.46-.54.209-.733.472-.6 1.008.044.19.067.385.106.575.585 2.803 1.197 5.605 1.76 8.414a140.739 140.739 0 0 0 5.507 20.283c.162.453.327.644.828.42.5-.224.977-.36 1.468-.534l5.53-1.958c2.58-.915 5.176-.586 7.79-.165 2.977.474 5.798 1.516 8.686 2.299 8.463 2.302 16.671 5.354 24.925 8.274 5.821 2.062 11.692 3.98 17.844 4.802 2.365.326 4.744.564 7.128.796a2.853 2.853 0 0 0 2.657-1.087c.123-.117.221-.258.288-.414a1.257 1.257 0 0 0-.006-.987 1.248 1.248 0 0 0-.292-.411 10.757 10.757 0 0 0-4.394-2.824 47.84 47.84 0 0 0-6.173-1.635 56.875 56.875 0 0 1-8.235-2.211 1488.165 1488.165 0 0 0-15.135-5.673 3.268 3.268 0 0 1-1.46-1.016c-1.753-2.125-3.55-4.249-5.249-6.376a36.774 36.774 0 0 0-7.528-7.257c-5.529-3.96-11.538-4.602-17.923-2.583-1.238.396-2.45.889-3.676 1.328-.227.084-.54.182-.642-.082-.102-.264.189-.394.388-.477 2.877-1.231 5.71-2.466 8.93-2.687a20.418 20.418 0 0 1 13.89 4.027c4.804 3.509 8.187 8.304 11.866 12.828.615.755 1.016 1.659 2.199 1.565a.614.614 0 0 1 .248.068c1.497.496 3.005.992 4.494 1.571 3.523 1.308 7.036 2.643 10.555 3.968 3.602 1.354 7.43 1.801 11.118 2.798 2.298.622 4.52 1.378 6.438 2.881a3.653 3.653 0 0 1 1.429 2.087.547.547 0 0 0 .564.528c1.098.149 2.143.371 3.218.493 1.462.255 2.962.205 4.404-.146a1.91 1.91 0 0 0 1.384-1.427 2.777 2.777 0 0 0-1.326-3.406 13.686 13.686 0 0 0-3.6-1.638c-4.541-1.362-8.982-3.005-13.454-4.56-4.229-1.498-8.47-2.88-12.573-4.687-3.038-1.341-6.067-2.72-9.201-3.833a1.63 1.63 0 0 1-.35-.174c-.184-.114-.418-.232-.36-.485.056-.253.318-.262.537-.258.195.005.39.024.581.057.85.187 1.676.467 2.464.835 3.83 1.648 7.635 3.372 11.526 4.875 4.637 1.796 9.394 3.221 14.063 4.993 2.396.914 4.963 1.37 7.362 2.218 1.802.628 3.525 1.368 4.836 2.826.108.122.231.216.393.156a8.34 8.34 0 0 1 1.682-.192 2.487 2.487 0 0 0 2.266-2.668 3.066 3.066 0 0 0-1.33-2.544 15.31 15.31 0 0 0-3.198-1.875 70.668 70.668 0 0 0-6.085-2.282c-4.943-1.594-9.935-3.034-14.717-5.081a660.403 660.403 0 0 1-14.655-6.501c-.3-.132-.604-.248-.898-.391-.295-.143-.553-.194-.433-.531.12-.337.452-.196.695-.127.315.084.623.19.923.319 2.343.975 4.702 1.924 7.03 2.949 5.667 2.493 11.343 4.968 17.291 6.747 4.37 1.302 8.771 2.543 12.851 4.657.267.138.385.08.464-.196a3.487 3.487 0 0 0 .025-2.048 6.15 6.15 0 0 0-2.758-3.271 67.06 67.06 0 0 0-9.459-5.145c-4.319-1.932-8.686-3.774-13.031-5.655a26.527 26.527 0 0 1-4.315-2.281c-1.716-1.155-3.452-2.271-5.146-3.449-5.351-3.709-10.974-7.044-15.819-11.452-.298-.269-.678-.524-.474-.956.204-.433.65-.36 1.034-.302 1.509.212 3.014.446 4.517.653 3.883.597 7.758.976 11.67.197a11.522 11.522 0 0 0 5.11-2.118c.315-.23.555-.548.69-.913.546-1.53-.681-2.772-1.803-3.002a11.69 11.69 0 0 0-2.86-.07 25.751 25.751 0 0 1-11.692-2.156 10.844 10.844 0 0 0-1.657-.54c-3.4-.805-6.928-.92-10.374-.338Zm-47.3 16.508c.225 2.362.76 4.664 1.138 6.999a139.565 139.565 0 0 0 4.285 18.495c1.353 4.399 2.9 8.725 4.68 12.974.107.258.121.689.647.404 1.702-.919 3.386-1.865 5.029-2.896.294-.179.338-.355.17-.628-1.236-2.012-1.944-4.259-2.819-6.43a113.47 113.47 0 0 1-5.534-18.634c-.926-4.353-1.853-8.743-2.523-13.154-.07-.462-.268-.33-.521-.223l-3.646 1.584c-1.024.438-1.024.432-.906 1.51Zm184.63-59.136a.31.31 0 0 0-.29.157c-2.048 2.486-4.519 4.571-6.646 6.984-.422.472-.809.97-1.243 1.422-.554.564-.838.573-1.414.014-.671-.633-.983-.65-1.392-.129a.624.624 0 0 0-.121.324.622.622 0 0 0 .067.339 3.704 3.704 0 0 1-1.557 3.97 3.36 3.36 0 0 1-3.909-.585 4.452 4.452 0 0 1-1.329-2.188 2.629 2.629 0 0 1 .796-2.844 2.796 2.796 0 0 1 3.022-.646c.962.35 1.027.327 1.729-.412.174-.186.197-.301-.016-.474-.213-.173-.284-.33-.437-.483-.672-.67-.69-.703-.092-1.476a21.34 21.34 0 0 1 3.179-2.966c2.657-2.271 5.154-4.734 7.725-7.101a.418.418 0 0 0 .176-.5.42.42 0 0 0-.105-.158c-.669-.905-1.317-1.834-1.981-2.745a4.153 4.153 0 0 0-1.245-1.138 18.978 18.978 0 0 0-5.537-2.202c-5.271-1.125-9.134 1.154-12.203 5.143-1.939 2.504-2.976 5.486-3.949 8.46-1.047 3.185-1.565 6.494-2.145 9.789-.128.741-.311.834-1.068.734-3.94-.519-7.822-1.439-11.762-1.968-.455-.062-.555-.255-.568-.658.002-.63.078-1.258.228-1.87.497-2.62.984-5.245 1.597-7.842 1.04-4.402 3.134-8.293 5.282-12.218a22.033 22.033 0 0 1 5.751-6.976c3.964-3.063 8.339-5.233 13.437-5.686 2.054-.183 4.094-.605 6.17-.28 4.646.73 8.969 2.257 12.658 5.273.287.231.428.38.714-.062.367-.515.8-.98 1.287-1.385.308-.283.308-.425-.022-.676a45.421 45.421 0 0 0-6.301-4.159c-.166-.081-.386-.123-.395-.39.355-.16.626.088.898.22a43.907 43.907 0 0 1 5.713 3.758c.465.334.881.877 1.488.224.253.363-.417.598.032.96a1.187 1.187 0 0 0 1.827-.268c.14-.207-.01-.278-.122-.362-3.721-3-7.307-6.188-11.851-7.965-.194-.075-.435-.105-.522-.403.241-.16.48-.043.711.02a17.419 17.419 0 0 1 5.171 2.558 82.877 82.877 0 0 1 6.868 5.275.713.713 0 0 0 .772.232.708.708 0 0 0 .247-.14 2.269 2.269 0 0 1 1.186-.465 1.82 1.82 0 0 1-.823.873c-.352.252-.325.41-.015.683a12.01 12.01 0 0 1 2.313 2.544.6.6 0 0 1 .165.54 4.528 4.528 0 0 1-1.18-.981 38.64 38.64 0 0 1-1.743-1.668c-.294-.296-.559-.39-.865-.047a2.27 2.27 0 0 1-.463.359c-.295.184-.316.354-.035.596.345.238.586.6.673 1.01-.348-.267-.706-.523-1.032-.807a.416.416 0 0 0-.316-.136.404.404 0 0 0-.306.157c-.596.505-1.196 1.01-1.803 1.506-.228.182-.202.329.018.545a12.046 12.046 0 0 1 2.801 3.729c.183.403.344.147.546-.018l5.246-4.077a2.63 2.63 0 0 1 .977-.513c.916-.222 1.457.279 1.297 1.201a3.453 3.453 0 0 1-.651 1.48c-1.439 1.887-3.019 3.675-4.599 5.447a.987.987 0 0 0-.238 1.225 30.138 30.138 0 0 1 2.059 8.24 65.074 65.074 0 0 1-.094 15.469c-.168 1.18-.391 2.355-.549 3.54-.066.482-.285.62-.74.57a3539.34 3539.34 0 0 0-10.859-1.426c-.802-.11-.782-.176-.683-.981.607-4.934 1.274-9.869.464-14.853a1.295 1.295 0 0 0-.074-.243ZM190.23 9.373c-2.303.32-4.588.76-6.845 1.318-.542.155-.594.375-.43.872 1.038 3.148 2.514 6.145 3.304 9.378.064.27.191.32.467.24a12.131 12.131 0 0 1 6.411-.25 38.48 38.48 0 0 1 4.552 1.514 5.877 5.877 0 0 1 2.365 1.472c.505.562.823.415 1.278-.015a72.913 72.913 0 0 1 6.62-5.504c1.21-.897 1.199-.891.042-1.863a.385.385 0 0 0-.308-.135.393.393 0 0 0-.298.156c-.488.43-.994.846-1.488 1.266-.181.154-.364.4-.606.168-.243-.232-.048-.452.121-.621.45-.44.9-.882 1.378-1.29.287-.245.292-.409.011-.661a28.131 28.131 0 0 0-2.117-1.737c-2.369-1.75-5.077-2.665-7.918-3.33a29.083 29.083 0 0 0-6.539-.978Zm-8.135 1.792c-.108.042-.216.073-.313.114-3.231 1.428-6.306 3.114-8.775 5.75-2.729 2.891-4.482 6.377-6.19 9.895-.123.25-.139.403.171.54 2.883 1.417 5.611 3.133 8.509 4.533 1.26.608 1.278.65 1.802-.677 1.638-4.16 4.12-7.566 8.232-9.613.279-.14.285-.282.205-.553-.954-3.243-2.331-6.391-3.324-9.65-.028-.18-.056-.37-.295-.34l-.022.001Zm-8.642 33.815c.306.018.317.017.398-.493a55.02 55.02 0 0 1 2.608-11.004c.115-.31.055-.477-.25-.604-.504-.201-.992-.436-1.486-.665-2.653-1.25-5.11-2.86-7.696-4.243-.451-.242-.634-.165-.81.288-.231.603-.54 1.181-.777 1.79-1.573 4.135-2.231 8.502-3.209 12.792-.096.402.181.35.412.385 1.241.194 2.487.387 3.729.592 2.335.397 4.647.916 7.081 1.162Zm42.25-5.167-.064-1.952c-.017-.49-.19-.605-.664-.59-1.55.052-3.064.37-4.607.454-1.544.084-3.116.267-4.674.417-.333.01-.621.053-.588.565.245 3.6-.309 7.15-.809 10.694-.063.411-.015.546.43.619 3.112.355 6.22.727 9.325 1.115.477.061.631-.075.708-.542.592-3.564.907-7.167.943-10.78Zm-26.245 3.633a1.263 1.263 0 0 0-1.388.968 1.292 1.292 0 0 0 .827 1.392c.741.248 1.824-.35 1.645-.966-.178-.617.152-.879.507-1.19.356-.313.855-.744 1.268-1.134.838-.782 1.148-.814 1.987-.066.315.273.5.24.73-.068.314-.414.639-.824.987-1.212 2.523-2.813 5.239-5.442 7.745-8.276 3.018-3.413 6.288-6.606 9.424-9.92 1.821-1.922 3.495-3.986 5.176-6.029.246-.297.657-.753.358-1.065-.3-.313-.745.112-1.082.341-3.169 2.289-6.083 4.853-9.009 7.395-2.926 2.543-5.76 5.23-8.577 7.927-2.516 2.404-5.139 4.685-7.739 6.988-1.035.918-1.012.95-.106 1.92.232.248.299.453.024.719-.667.65-1.323 1.31-1.984 1.965-.217.215-.444.457-.793.31Zm25.821-9.853c-.044-2.968-.875-5.779-1.77-8.572-.207-.642-.207-.631-.709-.113-2.192 2.257-4.216 4.671-6.532 6.817-.503.47-.927 1.03-1.402 1.537a.766.766 0 0 0-.225.646c.124 1.087.248 2.202.345 3.302.012.36.158.491.528.441.669-.093 1.339-.16 2.009-.22 2.505-.219 5.017-.439 7.523-.642.371-.012.491-.18.457-.56-.078-.86-.146-1.748-.224-2.636Zm-4.303-13.111a.803.803 0 0 0-.053-.124 16.47 16.47 0 0 0-1.406-2.192c-.188-.234-.309-.104-.474.016-2.578 2.165-5.213 4.262-7.7 6.539-.254.237-.238.395-.05.645.418.56.83 1.125 1.199 1.707.282.45.498.53.922.134a263.963 263.963 0 0 1 4.72-4.306c.812-.714 1.692-1.355 2.538-2.038.128-.092.3-.18.304-.381Zm-21.948 22.497c.114-.003.29.018.458-.015.168-.033.244-.22.327-.36.083-.14-.007-.196-.123-.242a2.185 2.185 0 0 0-2.229.178 1.936 1.936 0 0 0-.952 1.937 3.473 3.473 0 0 0 1.328 2.314c.825.65 1.996.873 2.746.422a2.915 2.915 0 0 0 1.404-2.629c-.006-.185.038-.514-.278-.47a.43.43 0 0 0-.298.2.42.42 0 0 0-.038.357c.041.302-.03.61-.201.863-.516.918-1.056 1.094-2.443.807a1.509 1.509 0 0 1-1.043-.593 1.519 1.519 0 0 1-.282-1.164c.105-1.101.57-1.575 1.624-1.605Zm18.917-27.921a7.15 7.15 0 0 0 .303-.234c.5-.42 1.011-.83 1.488-1.267.165-.147.652-.262.231-.608-.292-.236-.571-.762-1.056-.222-.485.54-.969.939-1.439 1.413-.101.101-.377.182-.184.4.163.227.392.398.656.49l.001.028ZM114.596 71.95c.358-.083.71-.171 1.084-.25a4.18 4.18 0 0 1 .766-.14c.3-.01.66-.021.739.37.078.39-.224.487-.482.616a1.92 1.92 0 0 1-.308.108c-1.003.284-2.023.5-3.054.647-1.132.158-1.421-.176-1.135-1.261a27.361 27.361 0 0 1 1.09-3.541c.101-.238.203-.482.326-.71.124-.228.348-.557.714-.373.367.185.24.473.145.749-.375.903-.666 1.84-.868 2.796.282-.058.384-.269.532-.41 3.066-2.782 6.491-4.937 10.561-5.935a23.164 23.164 0 0 1 11.04-.038 9.557 9.557 0 0 1 2.074.766c.173.09.336.198.486.323a.545.545 0 0 1 .166.742c-.182.268-.457.223-.701.094a12.35 12.35 0 0 0-4.368-1.236c-5.174-.67-10.035.196-14.475 3.045a23.779 23.779 0 0 0-3.95 2.975c-.164.164-.344.312-.53.471l.148.192Zm6.418 9.875c-.045.116-.109.32-.184.552-1.263 3.246-3.033 6.236-4.646 9.309a42.775 42.775 0 0 1-2.414 4.31c-.126.174-.202.504-.535.34-.334-.164-.079-.385-.018-.545a26.169 26.169 0 0 1 2.262-5.103c1.541-2.944 3.144-5.841 4.547-8.852.061-.139.141-.268.238-.385a.43.43 0 0 1 .541-.165c.193.043.226.238.209.539Z" fill="#292929"/><path d="m104.871 92.694.571-6.482a1.11 1.11 0 0 1 .029-.127c.075-.368.212-.7.668-.628.455.072.434.428.407.767-.132 1.599-.265 3.191-.387 4.79a12.985 12.985 0 0 1-.249 2.06c-.106.419-.243 1.073-.572 1.046-.328-.028-.339-.688-.38-1.107l-.011-.327-.076.008Zm15.577 8.48c-.051-.031-.127-.045-.151-.088-.058-.124.06-.188.111-.277a5.691 5.691 0 0 1 1.482-1.621 593.042 593.042 0 0 1 4.079-3.017c.139-.105.293-.188.456-.245a.422.422 0 0 1 .484.093.432.432 0 0 1 .018.546 2.115 2.115 0 0 1-.443.467l-4.594 3.483a7.79 7.79 0 0 1-1.442.659Zm73.175-32.979c1.657 2.674 1.708 5.55 1.694 8.416a24.99 24.99 0 0 1-1.169 7.245c-.775 2.514-2.25 4.638-3.916 6.625a.773.773 0 0 0-.118 1.063c.417.718.914 1.373 1.379 2.056.465.684.377.807-.288 1.2-3.044 1.793-6.277 1.496-9.562.94-2.489-.426-4.709-1.483-6.9-2.638a18.943 18.943 0 0 1-2.889-2.115 1.933 1.933 0 0 0-.399-.33c-.594-.27-.497-.634-.16-1.027.526-.613 1.053-1.214 1.579-1.821a.622.622 0 0 0 .122-.758 19.005 19.005 0 0 1-1.713-10.315 19.744 19.744 0 0 1 2.027-7.246 7.854 7.854 0 0 1 3.651-3.587c.099-.047.194-.1.284-.162 0 0-.003-.077.055-.16-1.77-.335-3.553-.549-5.326-.796-1.142-.158-2.274-.361-3.415-.509-.395-.052-.494-.234-.484-.6.007-.765.245-1.499.225-2.268-.016-.474.385-.248.583-.221 1.937.258 3.843.566 5.802.817 4.285.563 8.58 1.07 12.86 1.654 4.473.616 8.924 1.39 13.38 2.144.406.068.506.262.473.612a25.87 25.87 0 0 1-.299 2.325c-.102.549-.377.678-.899.575-1.946-.361-3.891-.695-5.842-1.034-.219-.031-.428-.046-.735-.085Zm-24.742-4.743c-.066.314.08.418.419.44.673.032 1.342.097 2.012.19 9.27 1.292 18.526 2.66 27.751 4.233 1.528.26 1.512.272 1.722-1.275.059-.384-.065-.5-.405-.532-3.939-.656-7.869-1.377-11.822-1.967-6.039-.891-12.098-1.564-18.112-2.516-1.572-.27-1.577-.254-1.57 1.427h.005Zm14.542 14.47a1.183 1.183 0 0 1-1.528.373 1.7 1.7 0 0 0-1.747.21c-.199.133-.414.24-.639.322a.471.471 0 0 0-.339.656c.116.367-.145.894.506 1.075.65.18 1.417.406 2.113.645a22.15 22.15 0 0 0 3.731 1.132c.577.09 1.308.387 1.699.15.391-.236.187-1.097.278-1.646-.003-.104.021-.214.039-.324a.385.385 0 0 0-.181-.455.382.382 0 0 0-.169-.046 62.36 62.36 0 0 1-1.464-.323c-.165-.044-.374-.08-.322-.322.052-.242.238-.243.419-.205.426.078.847.179 1.261.302.392.129.549.058.561-.379.061-.81.216-.902 1.066-.805.176.022.351.027.548.053.55.09.711-.16.58-.658-.25-.942-.511-1.883-.766-2.824-.068-.233-.243-.254-.452-.285a43.83 43.83 0 0 1-1.649-.3c-.176-.033-.375-.12-.333-.328.042-.209.256-.194.432-.156.468.104.94.187 1.393.325.452.138.42-.014.354-.367-.191-.982-.896-1.482-1.704-1.936-.317-.18-.437-.177-.627.174-.614 1.112-1.271 2.225-1.928 3.339a.8.8 0 0 1-.512.476.816.816 0 0 1-.693-.098 8.75 8.75 0 0 0-.968-.344.812.812 0 0 0-1.079.412 1.247 1.247 0 0 0 .855 1.899 3.82 3.82 0 0 1 1.265.258Zm2.611 17.442c1.416-.118 2.938-.195 4.304-1 .354-.208.409-.357.158-.681a7.27 7.27 0 0 1-1.049-1.647c-.179-.453-.368-.386-.698-.146a7.104 7.104 0 0 1-3.706 1.269c-3.194.237-5.957-.894-8.611-2.499a8.513 8.513 0 0 1-1.681-1.254c-.395-.396-.786-1.148-1.157-1.135-.486.016-.727.82-1.111 1.254-.564.63-.558.646.109 1.164a20.857 20.857 0 0 0 8.924 4.197c1.494.306 3.015.465 4.54.478h-.022Zm-5.956-3.826a3.387 3.387 0 0 0-.012-.349c-.698-2.602-1.672-5.114-2.527-7.662-.157-.475-.451-.438-.819-.322a22.54 22.54 0 0 1-3.293 1.015c-.267.042-.355.17-.275.451a7.56 7.56 0 0 0 .599 1.58 9.945 9.945 0 0 0 3.738 3.987c.81.544 1.688.98 2.611 1.3h-.022ZM183 70.933c-1.58-.05-2.657.765-3.383 2.089a6.383 6.383 0 0 0-.797 2.985c.009.278.016.48-.405.472-.546.018-.816.43-.914.936a1.149 1.149 0 0 0 .518 1.299.436.436 0 0 0 .595-.02 6.238 6.238 0 0 1 1.477-.933.547.547 0 0 0 .347-.743 2.02 2.02 0 0 1 .653-2.206 1.576 1.576 0 0 1 1.992.087.544.544 0 0 0 .799.007.537.537 0 0 0 .137-.261 20.188 20.188 0 0 1 1.723-2.913c.335-.447.108-.55-.271-.613a13.677 13.677 0 0 0-2.449-.186H183Zm1.895 20.73.003.082c.002.082-.069.39.214.376a.33.33 0 0 0 .338-.232.313.313 0 0 0 .01-.146 35.868 35.868 0 0 0-.011-.327c-.195-2.445-.058-4.884-.046-7.33.008-1.092-.127-1.191-1.168-1.446-.314-.082-.432-.03-.536.29-1.005 2.649-1.734 5.397-3.015 7.95a.79.79 0 0 0-.027.631.778.778 0 0 0 .445.448c.609.242.576-.265.67-.569.563-1.956 1.116-3.918 1.673-5.88.031-.126.071-.25.119-.37.051-.126.134-.244.282-.221.149.022.176.18.169.31-.016.15-.04.298-.072.445-.358 1.748-.869 3.452-1.354 5.16-.43 1.515-.442 1.494 1.141 1.452.431-.014.541-.17.528-.563.013-1.234.065-2.47.123-3.705.018-.285-.025-.742.369-.717.395.026.207.457.199.714.043 1.129.005 2.298-.032 3.648h-.022Zm1.203-2.769.125-.004c.026.775.096 1.558.078 2.334-.028.645.227.599.68.409 1.573-.664 2.557-1.957 3.536-3.267.12-.162.143-.283-.106-.373a22.072 22.072 0 0 1-3.715-1.995c-.502-.295-.668-.213-.666.36.023.846.062 1.69.09 2.536h-.022Zm-4.688-1.82.171.032c.536-1.453 1.089-2.902 1.603-4.365a.58.58 0 0 0-.205-.701.584.584 0 0 0-.242-.098c-.906-.303-1.802-.64-2.708-.942-.232-.074-.557-.315-.724-.09a1.007 1.007 0 0 0-.075.875 3.9 3.9 0 0 0 .236.538c.724 1.56 1.582 3.054 1.966 4.75h-.022Zm-.984 3.259c.264-.757.458-1.326.658-1.9a.585.585 0 0 0-.013-.377 28.45 28.45 0 0 0-2.051-5.188c-.099-.194-.073-.544-.378-.534a.854.854 0 0 0-.622.529 1.097 1.097 0 0 0 .036 1.09c.355.69.648 1.412.875 2.155.541 1.335.996 2.685 1.527 4.223l-.032.002Zm-19.768-9.08c-1.229-.019-1.224-.02-1.265 1.041-.02.389-.035.782-.087 1.171a.43.43 0 0 1-.138.325.44.44 0 0 1-.334.117c-.29-.018-.406-.232-.42-.489a9.163 9.163 0 0 1 .108-2.012c.049-.33-.015-.458-.357-.534a21.004 21.004 0 0 1-1.78-.634 3.582 3.582 0 0 1-.846-.475c-.291-.214-.52-.528-.275-.891s.541-.144.818-.027c1.097.58 2.277.986 3.499 1.205 1.154.207 2.261.165 3.085-.872a1.272 1.272 0 0 0 .215-1.536c-.093-.162-.22-.3-.373-.408a5.673 5.673 0 0 0-2.133-1.08 27.228 27.228 0 0 0-3.246-.69c-1.056-.19-1.997-.578-2.276-1.748a3.034 3.034 0 0 1 1.047-3.163 4.568 4.568 0 0 1 3.079-1.068c.649-.022.813-.213.765-.811a4.847 4.847 0 0 1 .185-1.677c.073-.27.149-.622.528-.564.379.059.243.402.229.659-.043.667-.076 1.34-.124 2.013-.023.317.091.455.416.532a8.41 8.41 0 0 1 2.51 1.052c.279.166.47.34.317.667a.543.543 0 0 1-.778.26c-.515-.217-1.011-.512-1.542-.686a5.775 5.775 0 0 0-4.027-.025 2.239 2.239 0 0 0-1.533 1.716c-.167.896.141 1.442 1.033 1.653.892.21 1.963.377 2.937.59.918.19 1.799.53 2.606 1.006 1.294.781 1.85 1.74 1.646 2.838a3.588 3.588 0 0 1-2.682 2.475c-.332.044-.665.055-.807.07Z" fill="#292929"/></g><defs><clipPath id="a"><path fill="#fff" transform="rotate(-1.898 296.899 -13.035)" d="M0 0h289v150H0z"/></clipPath></defs></svg>